<?xml version="1.0" encoding="UTF-8"?><svg id="Layer_2" xmlns="http://www.w3.org/2000/svg" viewBox="0 0 87.64 98.87"><defs><style>.cls-1{fill:#ff5249;}.cls-2{fill:#00c67f;}.cls-3{fill:#6d67e4;}.cls-4{opacity:.2;}.cls-5{fill:#00aa69;}.cls-6{fill:#ea433f;}.cls-7{fill:#5d5dd1;}.cls-8{fill:#f2f7a1;}</style></defs><g id="Layer_1-2"><circle class="cls-8" cx="43.82" cy="49.44" r="9.51"/><path class="cls-4" d="m41.39,49.44c0-4,2.47-7.42,5.97-8.83-1.09-.44-2.29-.68-3.54-.68-5.25,0-9.51,4.26-9.51,9.51s4.26,9.51,9.51,9.51c1.25,0,2.45-.24,3.54-.68-3.5-1.4-5.97-4.83-5.97-8.83h0Z"/><path class="cls-3" d="m19.5,16.37h-1.11l-2.75,4.05v5.04l2.22,2.08,1.64.05c1.86-1.18,3.09-3.25,3.09-5.61s-1.23-4.43-3.09-5.61Z"/><path class="cls-7" d="m16.32,21.89c0-2.36,1.23-4.43,3.09-5.61-1.02-.65-2.24-1.02-3.54-1.02-3.66,0-6.63,2.97-6.63,6.63s2.97,6.63,6.63,6.63c1.3,0,2.52-.38,3.54-1.02-1.86-1.18-3.09-3.25-3.09-5.61Z"/><path class="cls-2" d="m75.38,16.37h-.75l-2.79,2.42v5.62l1.48,2.75,2.06.42c1.86-1.18,3.09-3.25,3.09-5.61s-1.23-4.43-3.09-5.61Z"/><path class="cls-5" d="m72.21,21.89c0-2.36,1.23-4.43,3.09-5.61-1.02-.65-2.24-1.02-3.54-1.02-3.66,0-6.63,2.97-6.63,6.63s2.97,6.63,6.63,6.63c1.3,0,2.52-.38,3.54-1.02-1.86-1.18-3.09-3.25-3.09-5.61Z"/><path class="cls-1" d="m39.73,84.13c-.56-.97-1.32-1.74-2.2-2.29h-1.61l-1.93,3.49v4.92l1.7,2.41,1.61.52c3.17-1.83,4.26-5.89,2.43-9.06h0Z"/><path class="cls-6" d="m35.27,90.73c-1.79-3.1-.79-7.04,2.21-8.93-2.02-1.27-4.65-1.41-6.86-.14-3.17,1.83-4.26,5.89-2.43,9.06,1.83,3.17,5.89,4.26,9.06,2.43.08-.04.15-.09.22-.14-.88-.56-1.65-1.33-2.2-2.29h0Z"/><path d="m26.93,91.45c1.99,3.45,6.15,4.89,9.8,3.54,2.19,2.57,4.57,3.88,7.09,3.88,8.59,0,13.25-14.79,15.1-23.29,8.22,2.63,23.41,6.01,27.71-1.43,4.3-7.44-6.18-18.87-12.62-24.72,2.23-2.03,4.25-4.06,6.02-6.07,6.76-7.69,9.1-14.31,6.6-18.65-1.26-2.18-3.58-3.59-6.91-4.2-.4-2.3-1.79-4.37-3.84-5.58-.69-.41-1.58-.18-1.98.51-.41.69-.18,1.58.51,1.98,1.57.93,2.54,2.64,2.54,4.46,0,2.86-2.33,5.18-5.19,5.18,0,0,0,0,0,0-2.87,0-5.18-2.35-5.18-5.18,0-1.82.98-3.53,2.54-4.46.69-.41.91-1.3.51-1.98-.41-.69-1.3-.91-1.98-.51-2.44,1.45-3.96,4.11-3.96,6.95,0,0,0,.02,0,.02-1.55.4-3.14.86-4.76,1.38-.64-2.95-1.39-5.71-2.25-8.25-3.28-9.7-7.85-15.04-12.85-15.04s-9.57,5.34-12.85,15.04c-.86,2.54-1.61,5.3-2.25,8.25-1.62-.52-3.21-.98-4.76-1.38,0,0,0-.02,0-.02,0-4.46-3.63-8.08-8.08-8.08-3.99,0-7.31,2.91-7.96,6.71-3.33.61-5.65,2.02-6.91,4.2-2.5,4.34-.16,10.96,6.6,18.65,1.77,2.01,3.79,4.04,6.02,6.07-6.42,5.83-16.91,17.28-12.62,24.72,3.27,5.67,13.03,4.89,19.45,3.61,2.63-.53,5.4-1.26,8.27-2.18.36,1.67.76,3.27,1.19,4.81,0,0-.01,0-.02.01-3.86,2.23-5.19,7.18-2.96,11.04h0ZM64.21,24.77c1.18,3.12,4.17,5.2,7.55,5.2,3.95,0,7.22-2.85,7.93-6.51,2.18.48,3.67,1.39,4.43,2.7,1.81,3.13-.48,8.7-6.27,15.29-1.76,2-3.78,4.03-6.03,6.06-3.22-2.75-6.81-5.47-10.68-8.08-.33-4.66-.89-9.12-1.66-13.28,1.61-.52,3.18-.98,4.72-1.38h0Zm-2.85,18.32c2.96,2.07,5.73,4.2,8.26,6.35-2.53,2.15-5.31,4.27-8.26,6.35.19-4.23.19-8.46,0-12.7h0Zm-.21,16.36c3.87-2.61,7.46-5.33,10.68-8.08,2.24,2.02,4.27,4.05,6.03,6.06,5.79,6.59,8.07,12.16,6.27,15.29-1.81,3.13-7.77,3.94-16.37,2.22-2.62-.52-5.39-1.26-8.26-2.19.77-4.16,1.33-8.63,1.66-13.29ZM15.87,16.7c2.86,0,5.18,2.33,5.18,5.19s-2.31,5.19-5.18,5.19c-2.95,0-5.26-2.47-5.18-5.27,0-2.66,2.24-5.1,5.18-5.1Zm-6.1,24.67c-5.79-6.59-8.07-12.16-6.27-15.29.76-1.32,2.25-2.22,4.43-2.7.72,3.72,4.04,6.51,7.93,6.51h0c3.32,0,6.35-2.03,7.55-5.2,1.53.4,3.11.86,4.72,1.38-.77,4.16-1.33,8.63-1.66,13.28-3.87,2.61-7.46,5.33-10.68,8.08-2.24-2.02-4.27-4.05-6.03-6.06h0Zm16.5,14.42c-2.96-2.07-5.73-4.2-8.27-6.35,2.53-2.15,5.31-4.27,8.26-6.35-.18,4.1-.19,8.33,0,12.7Zm-6.39,19.14c-8.6,1.72-14.57.91-16.37-2.22-1.81-3.13.48-8.7,6.27-15.29,1.76-2,3.78-4.03,6.03-6.06,3.22,2.75,6.81,5.47,10.68,8.09.33,4.64.89,9.12,1.66,13.28-2.88.93-5.65,1.67-8.27,2.19h0Zm34.04,7.98c-2.81,8.31-6.49,13.07-10.11,13.07-1.52,0-3.05-.84-4.56-2.49,2.91-2.55,3.7-6.96,1.48-10.44-1.74-2.72-4.92-4.14-8.09-3.62-.42-1.52-.81-3.12-1.16-4.77,3.99-1.41,8.13-3.16,12.33-5.2,4.2,2.04,8.35,3.79,12.34,5.21-.63,2.95-1.38,5.72-2.23,8.25h0Zm2.8-11.12c-3.13-1.12-6.36-2.46-9.63-3.98,3.63-1.89,7.31-4,11-6.35-.32,3.6-.77,7.06-1.37,10.33h0Zm0-44.69c.59,3.27,1.05,6.73,1.36,10.32-3.6-2.3-7.26-4.41-10.99-6.34,3.27-1.52,6.5-2.86,9.63-3.98h0Zm-23.01-11.13c2.81-8.31,6.49-13.07,10.11-13.07s7.3,4.76,10.11,13.07c.86,2.53,1.6,5.3,2.23,8.26-3.99,1.42-8.15,3.17-12.34,5.2-4.19-2.04-8.35-3.79-12.34-5.2.63-2.96,1.38-5.73,2.23-8.26h0Zm-2.8,11.13c3.13,1.12,6.36,2.46,9.63,3.98-3.74,1.94-7.4,4.06-10.99,6.34.32-3.6.77-7.06,1.36-10.32Zm-1.63,13.95c4.58-3.02,9.5-5.87,14.54-8.39,5.04,2.51,9.96,5.36,14.54,8.39.32,5.36.34,11.07,0,16.79-4.48,2.96-9.42,5.83-14.54,8.39-4.83-2.42-9.79-5.26-14.53-8.39-.34-5.58-.33-11.27,0-16.79h0Zm.27,20.41c3.52,2.24,7.19,4.37,10.99,6.34-3.27,1.52-6.5,2.86-9.62,3.98-.59-3.27-1.05-6.74-1.37-10.33h0Zm1.79,21.46c2.47-1.43,5.65-.58,7.08,1.9,1.47,2.54.51,5.77-1.98,7.13-2.47,1.37-5.59.51-7-1.94-1.43-2.48-.58-5.65,1.9-7.08Z"/><path d="m54.06,53.33c.28-.75-.09-1.58-.84-1.87-.75-.28-1.58.09-1.87.84-1.18,3.11-4.21,5.2-7.54,5.2-4.45,0-8.06-3.62-8.06-8.06s3.62-8.06,8.06-8.06c3.33,0,6.35,2.09,7.54,5.2.28.75,1.12,1.12,1.87.84.75-.28,1.12-1.12.84-1.87-1.61-4.23-5.72-7.06-10.24-7.06-6.04,0-10.96,4.92-10.96,10.96s4.92,10.96,10.96,10.96c4.52,0,8.64-2.84,10.24-7.07h0Z"/></g></svg>