<?xml version="1.0" encoding="utf-8"?>
<!-- Generator: Adobe Illustrator 23.0.1, SVG Export Plug-In . SVG Version: 6.00 Build 0)  -->
<svg version="1.1" id="visual" xmlns="http://www.w3.org/2000/svg" xmlns:xlink="http://www.w3.org/1999/xlink" x="0px" y="0px"
	 viewBox="0 0 532.7 450" style="enable-background:new 0 0 532.7 450;" xml:space="preserve">
<style type="text/css">
	.st0{fill:#F2F7A1;}
	.st1{fill:#FB5FA7;}
	.st2{fill:#FB4297;}
	.st3{fill:#6D67E4;}
	.st4{fill:#5757D3;}
	.st5{fill:#453C67;}
	.st6{fill:#E5E588;}
	.st7{fill:#25223A;}
	.st8{fill:#FFA90F;}
	.st9{fill:#46C2CB;}
	.st10{fill:#FF5249;}
	.st11{opacity:0.2;fill:#25223A;enable-background:new    ;}
	.st12{opacity:0.2;}
	.st13{fill:#BDC3C7;}
	.st14{fill:#A8EDEF;}
	.st15{opacity:0.2;fill:#323232;enable-background:new    ;}
	.st16{fill:#323232;}
	.st17{opacity:0.6;}
	.st18{fill:#FFFFFF;}
	.st19{opacity:0.89;fill:#FFFFFF;}
	.st20{opacity:0.86;fill:#46C2CC;}
</style>
<title>Artboard 1</title>
<path class="st0" d="M0,0c169.8,1.9,233.1,35.4,255.2,71.4c17.7,28.9,8.9,59.6,34.6,70.2c45.9,19,118.5-58.7,161.4-40.3
	c28.9,12.4,8.7,55.1,55.4,84.1c11.7,7.3,27,13.3,26,21.9c-1,8.9-18.2,10.7-32.8,19.9c-36.3,23.1-10.3,64.1-36.5,80.5
	c-28.4,17.8-72.5-21.7-117.5-8.3c-60.4,18.1-37.7,106.3-95.2,123.4c-51,15.1-115-40.6-144.5-21.7c-17.3,11.1-1.8,34.6-21.6,48.8
	c-19.3,13.8-56.5,7.4-84.4,0V0z"/>
<g id="Layer_1-2_17_">
	<path class="st0" d="M428.5,430.7c0-0.1-0.2-0.2-0.3-0.2c-5.8,0.9-23.3,2.3-29.8-9.1l-0.5,0.5l0,1.7c0,0,2.1,4.7,2.2,4.8
		c0.1,0.1,2.9,2.8,2.9,2.8l2.8,1.5l0.8,0.3c4.1,1,8.9,1.2,13.7,0.3c2.9-0.5,5.5-1.3,8-2.4C428.4,431,428.5,430.8,428.5,430.7
		L428.5,430.7L428.5,430.7z"/>
	<path class="st0" d="M398.5,422.7c-0.1-0.4-0.1-0.9-0.2-1.3c-0.9-1.5-1.5-3.3-2-5.3l0.7-0.3l-0.5-3.2l2.5-6.3l1.7-2.2l0-0.2
		c-6.1,4.3-9.5,10.4-8.4,16.5c1.1,6.2,6.7,10.9,14.2,12.7C402.3,430.7,399.3,427.1,398.5,422.7C398.5,422.7,398.5,422.7,398.5,422.7
		z"/>
	<path class="st0" d="M442.9,402.9c-0.3-1.6-0.9-3.1-1.7-4.5c0,0-1.3-1.2-1.3-1.3c0-0.1-4.9-3-4.9-3l-9.3-2l-1.8,1.1
		c6.8,1.5,13.2,5.4,15,14.1l0,0l-0.4,0.9l-1.6,7c0,0-2.1,2.9-2.2,3.1s-0.3,1.3-0.3,1.3C440.6,415.1,444,409,442.9,402.9L442.9,402.9
		L442.9,402.9z"/>
	<path class="st0" d="M441.1,398.4c-4.2-6.9-14.8-10.6-26.2-8.5c-2.9,0.5-5.5,1.3-8,2.4c-0.1,0.1-0.2,0.2-0.2,0.3
		c0,0.1,0.2,0.2,0.3,0.2c3.3-0.5,10.1-1.2,16.7,0.3C430.7,393,437,394.9,441.1,398.4z"/>
	<path class="st0" d="M439,407.8c-0.5-2.6-1.8-4.8-3.9-6.6c-4.4-1.9-10-2.5-15.8-1.5c-12,2.1-20.5,10.5-19,18.7
		c0.4,2.1,1.3,3.9,2.7,5.5c4.5,2.5,10.7,3.5,17.3,2.3C432,424.2,440.4,415.9,439,407.8z"/>
	<path class="st0" d="M400.6,418.5c-1.4-8.1,6.9-16.4,18.7-18.5c6.1-1.1,12-0.3,16.4,1.9c-4.3-4.3-12.2-6.4-20.7-4.9
		c-11.8,2.1-20.2,10.4-18.7,18.5c0.7,3.9,3.5,7,7.6,9C402.2,422.7,401,420.7,400.6,418.5L400.6,418.5z"/>
	<path class="st1" d="M432.7,408.9c-0.3-1.6-1.1-3.1-2.3-4.3c-3-1.1-6.6-1.4-10.4-0.8c-8.5,1.5-14.6,7.5-13.5,13.5
		c0.2,1.3,0.8,2.4,1.5,3.4c3.1,1.5,7.2,2,11.5,1.3C427.8,420.6,433.7,414.7,432.7,408.9L432.7,408.9L432.7,408.9z"/>
	<path class="st2" d="M406.8,417.3c-1-5.8,4.9-11.7,13.2-13.2c4-0.7,7.8-0.3,10.8,1c-2.9-3.4-8.8-5.1-15.1-4
		c-8.3,1.5-14.3,7.4-13.2,13.2c0.5,3,2.9,5.4,6.2,6.8C407.7,420,407.1,418.8,406.8,417.3L406.8,417.3L406.8,417.3z"/>
	<path class="st3" d="M426.5,410c-0.1-0.7-0.4-1.4-0.8-2c-1.5-0.4-3.2-0.5-5-0.1c-5,0.9-8.6,4.6-7.9,8.4c0.1,0.6,0.3,1.1,0.6,1.6
		c1.6,0.5,3.4,0.6,5.4,0.3C423.7,417.3,427.2,413.7,426.5,410L426.5,410L426.5,410z"/>
	<path class="st4" d="M413,416.2c-0.6-3.6,2.8-7.3,7.7-8.2c1.8-0.3,3.6-0.2,5.1,0.2c-1.6-2.6-5.3-4-9.4-3.2
		c-4.9,0.9-8.4,4.5-7.7,8.2c0.4,2.3,2.4,4,5,4.8C413.4,417.5,413.2,416.9,413,416.2L413,416.2z"/>
	<path d="M430.2,417.7c5.6-5.5,4.3-12.8-2.9-16.1c-11.2-5.1-27.3,2.8-25.5,12.8C403.5,424.5,421.4,426.4,430.2,417.7L430.2,417.7z
		 M415.9,401.9c7.9-1.4,15.1,1.8,16.1,7.2l0,0c0.5,2.5-0.6,5.2-2.9,7.5c-8,8-24.3,6.1-25.8-2.4C402.4,408.9,408,403.4,415.9,401.9
		L415.9,401.9L415.9,401.9z"/>
	<path d="M425.3,415.7c1.6-1.7,2.3-3.8,2-5.8c-0.2-1.2-0.7-2.2-1.6-3.1c-0.3-0.3-0.8-0.3-1.1,0c-0.3,0.3-0.3,0.8,0,1.1
		c0.6,0.7,1,1.5,1.2,2.3c0.3,1.5-0.3,3.1-1.6,4.4c-4.4,4.7-13.8,3.6-14.7-1.5c-0.9-4.8,6.5-9,12.4-6.9c0.4,0.1,0.8-0.1,1-0.5
		c0.1-0.4-0.1-0.8-0.5-1c-6.9-2.4-15.5,2.6-14.4,8.7C409.1,419.9,420,421.3,425.3,415.7L425.3,415.7z"/>
	<path d="M428.1,429.7c-9.1,1.3-21.1,0.8-27.2-6.2c0.1,0,0.1,0.1,0.2,0.1c9.2,6.4,25.3,4.6,33.9-3.7c6.5-4.7,9.8-11.1,8.7-17.2
		c-2.2-12.6-21.2-18.2-37-11.2c-0.4,0.2-0.7,0.7-0.6,1.1c0.1,0.6,0.6,0.9,1.2,0.9c9.1-1.3,21.1-0.8,27.2,6.2
		c-9.2-6.6-25.5-4.8-34.1,3.5c-16.3,11.6-9,29.9,11.4,31.4c0.4,0,0.8-0.3,0.8-0.7c0-0.4-0.3-0.8-0.7-0.8
		c-15.7-1.1-23.8-13-15.7-23.8c-0.7,2-1,4.1-0.6,6.2c2.4,13.4,15.2,17.1,28.7,16.1c-2.8,0.8-5.8,1.4-9,1.5c-0.4,0-0.8,0.4-0.7,0.8
		c0,0.4,0.4,0.8,0.8,0.7c4.5-0.2,9.1-1.2,13.3-3c0.4-0.2,0.7-0.7,0.6-1.1C429.1,430,428.6,429.6,428.1,429.7L428.1,429.7
		L428.1,429.7z M411,391.6c1.3-0.4,2.7-0.7,4.1-1l0,0c13.1-2.3,25.4,3.1,27.1,12.4c0.7,3.7-0.4,7.4-3,10.9c0.8-2,1-4.1,0.6-6.2
		C437.3,394.3,424.5,390.6,411,391.6L411,391.6z M415.1,397.7c15.2-2.7,27.6,6.5,21.8,17.2c-3.1,5.8-10.3,9.4-16.8,10.6
		c-11.2,2-21.7-2.5-23.1-10.2C395.7,407.6,403.8,399.8,415.1,397.7L415.1,397.7L415.1,397.7z"/>
</g>
<g id="Layer_1-2_19_">
	<path class="st3" d="M316.3,43.8c-0.8-0.8-1.6-1.5-2.5-2l-0.9,0.5l-0.2-0.1l-1,2.3l-3.7,4.5l-6.7,7.6l-6.2,4.7
		c0.6,1.5,1.5,3,2.5,4.2l4.3-3l8.8-8l6-8.2v-2C316.7,44.2,316.5,44,316.3,43.8C316.3,43.8,316.3,43.8,316.3,43.8z"/>
	<path class="st3" d="M296.3,60.6l-1.2,1l-3.5,1.9l-0.2,0.9c0.6,0.9,1.3,1.7,2,2.5c0.2,0.2,0.4,0.4,0.6,0.5h1.3l3.4-2.4
		C297.7,63.7,296.9,62.2,296.3,60.6z"/>
	<path class="st5" d="M319,49.9l-18.5,18.2c1.7,1.4,3.8,2.4,6,2.9l7.8-6.3l5.7-7l1.1-2.5c0-2-0.4-4-1.1-5.9L319,49.9L319,49.9z"/>
	<path class="st5" d="M301,67.6l-2.1,2v0.8c1.9,0.7,3.9,1.1,5.9,1.1l1.5-0.4l0.5-0.4C304.6,70.1,302.7,69,301,67.6L301,67.6z"/>
	<path class="st0" d="M323.5,34.7c-0.3-0.3-0.7-0.6-1.2-0.8l-0.9,0l-4.8,1.7l-0.4,0.7c0.9-0.1,1.7,0.1,2.1,0.5
		c2.4,2.4-2.9,11.4-11.7,20.2c-7.7,7.7-15.5,12.6-19,12.2l-0.6,0.7v2.5l1.5,2.1h1.4c5.4-1.3,13.2-6.3,20.6-13.7
		C321.4,50.1,327.2,38.4,323.5,34.7L323.5,34.7L323.5,34.7z"/>
	<path class="st6" d="M309.1,39.6c2.9-1.9,5.4-3,7.2-3.2c2.2-1.2,4.2-2,6-2.4c-3-1.2-8.7,0.9-15,5.3l-0.9,0.6l1.7,0.7L309.1,39.6
		L309.1,39.6z"/>
	<path class="st6" d="M289.2,73.9c-1-1-1.3-2.6-1-4.5c-0.5-0.1-0.9-0.2-1.2-0.5c-1.3-1.3-0.2-4.9,2.7-9.3l0.5-0.6l-0.4-2l-0.5,0.9
		c-5,7.3-7,13.6-4.5,16.2c1.2,1.2,3.1,1.4,5.6,0.8C289.9,74.5,289.5,74.3,289.2,73.9L289.2,73.9z"/>
	<path class="st1" d="M310.8,41v-0.9c-1.2-0.5-2.5-0.8-3.8-1c-2.3,0.5-4.4,1.5-6.3,2.9l-3.6,3.7c-1.8,2.6-2.9,5.9-2.9,9.3
		c0,1.3,0.1,2.5,0.4,3.7l6.4-5.7l7.7-8l2.2-4.1L310.8,41L310.8,41z"/>
	<path class="st1" d="M295.4,55.1c0-7.6,5.1-13.9,12-15.8c-0.9-0.1-1.8-0.2-2.7-0.2l-2,0.8l-12.7,13.3l-1.4,2c0,2,0.3,4.1,1.1,6h1
		l0.2,0.3l3.5-2.4l1.2-1.1C295.5,57.1,295.4,56.1,295.4,55.1z"/>
	<path class="st7" d="M313.7,64.2c-2.7,2.7-5.4,4.9-7.9,6.7c0.6,0.2,1.2,0.3,1.8,0.4c3.2-0.6,6.2-2.1,8.7-4.5
		c3.2-3.2,4.8-7.3,4.8-11.5C319.2,58.1,316.7,61.2,313.7,64.2L313.7,64.2z"/>
	<path class="st8" d="M306.3,70.6c-0.5,0.3-0.9,0.7-1.4,1c1.2,0,2.3-0.1,3.5-0.4C307.6,71,306.9,70.8,306.3,70.6z"/>
	<path class="st9" d="M310.8,40.2c-1.5,3-4.9,7.4-9.3,11.7c-2.4,2.4-4.8,4.5-7,6.2c0.2,1.3,0.6,2.6,1.1,3.7c2.5-1.8,5.5-4.3,8.5-7.3
		c4.9-4.9,8.5-9.8,9.8-12.8C312.9,41.1,311.8,40.6,310.8,40.2C310.8,40.2,310.8,40.2,310.8,40.2z"/>
	<path class="st9" d="M295.5,57.3c-2.2,1.7-4.2,3.1-5.8,3.9c0.4,1.1,1,2.1,1.6,3.1c1.4-0.6,3.2-1.7,5.2-3.1
		C296,59.9,295.7,58.6,295.5,57.3L295.5,57.3L295.5,57.3z"/>
	<path class="st2" d="M295.1,49.9c0.7-0.7,1.5-1.4,2.2-2.2c2.6-2.6,4.9-5.2,6.6-7.6C299.8,42,296.5,45.5,295.1,49.9L295.1,49.9z"/>
	<path class="st10" d="M303.2,41.1c0.5-0.7,1-1.4,1.5-2c-4.1,0-8.2,1.6-11.3,4.8c-3.1,3.1-4.7,7.2-4.8,11.3c2.5-1.7,5.4-4.2,8.3-7.1
		C298.3,45.2,300.5,42.8,303.2,41.1L303.2,41.1z"/>
	<path d="M323.9,34.3c-3.7-3.7-12.5,1.3-16.8,4.3c-0.8-0.1-1.5-0.2-2.3-0.2c-0.1,0-0.1,0-0.2,0l0,0c0,0,0,0,0,0
		c-4.5,0-8.6,1.8-11.8,4.9c-3.9,3.9-5.5,9.2-4.8,14.2c-3,4.3-7.9,13.1-4.3,16.8c2.6,2.6,7.8,0.7,11.1-0.9c1.3-0.6,2.7-1.4,4-2.3
		c5.9,2.2,12.9,1,17.7-3.9c4.8-4.8,6.1-11.8,3.9-17.7C323.3,45.5,327.3,37.7,323.9,34.3L323.9,34.3L323.9,34.3z M293.8,44.3
		c2.7-2.7,6.1-4.2,9.6-4.5c-1.8,2.4-4.1,5-6.6,7.5c-2.5,2.5-5.2,4.8-7.5,6.6C289.6,50.3,291.2,46.9,293.8,44.3
		C293.8,44.3,293.8,44.3,293.8,44.3z M297.7,48.2c2.9-2.9,5.4-5.9,7.3-8.5c1.6,0,3.3,0.3,4.8,0.8c-1.5,2.7-4.3,6.3-7.8,9.8
		c-0.2,0.3-0.2,0.6,0,0.9c0.3,0.2,0.6,0.2,0.9,0c3.6-3.7,6.5-7.4,8-10.3c0.7,0.3,1.4,0.7,2,1.1c-1.4,3.1-5,7.6-9.4,12.1
		s-9,8-12.1,9.4c-0.4-0.7-0.8-1.3-1.1-2c2.9-1.6,6.6-4.5,10.4-8.2c0.2-0.2,0.3-0.6,0-0.9c-0.2-0.2-0.6-0.3-0.9,0
		c-3.6,3.5-7.2,6.4-10,7.9c-0.5-1.5-0.8-3.1-0.8-4.8C291.9,53.6,294.9,51,297.7,48.2L297.7,48.2L297.7,48.2z M310.6,39.4
		c1.7-1,3.2-1.7,4.5-2.1c1.4-0.4,2.4-0.4,2.9,0.1c0.6,0.6,0.6,2.5-1.2,5.9C315,41.6,312.9,40.3,310.6,39.4
		C310.6,39.4,310.6,39.4,310.6,39.4z M316.1,44.5c-2.5,4.3-6.4,8.8-9.8,12.2c-3.5,3.5-8,7.4-12.2,9.8c-0.6-0.6-1.2-1.3-1.8-2
		c3.2-1.5,7.8-5.1,12.3-9.6s8.1-9.1,9.6-12.3C314.8,43.2,315.5,43.8,316.1,44.5C316.1,44.5,316.1,44.5,316.1,44.5z M292.9,67.2
		c-3.4,1.8-5.3,1.8-5.9,1.2c-0.5-0.5-0.5-1.5-0.1-2.9c0.4-1.3,1.1-2.8,2.1-4.5C289.8,63.3,291.1,65.4,292.9,67.2z M314.4,63.5
		c0.3,0.2,0.6,0.2,0.9,0c1.9-2,3.6-4,5.1-6c-0.5,3.4-2,6.5-4.4,8.9l0,0l0,0c-2.4,2.4-5.5,3.9-8.9,4.4c2-1.5,4.1-3.3,6.2-5.2
		c0.3-0.2,0.3-0.6,0-0.9c-0.2-0.3-0.6-0.3-0.9,0c-2.5,2.4-5.2,4.6-7.7,6.3c-1.4,0-2.9-0.2-4.3-0.6c3.7-2.5,7.4-5.6,10.6-8.9
		c3.2-3.2,6.3-6.8,8.9-10.6c0.4,1.4,0.6,2.8,0.6,4.3c-1.7,2.4-3.8,5-6.1,7.5C314.1,62.8,314.2,63.2,314.4,63.5L314.4,63.5
		L314.4,63.5z M321.9,44.9c-0.7,1.3-1.5,2.7-2.4,4.2c0,0,0,0,0,0c-2.6,4-6,8-9.4,11.4c-4.4,4.4-10.1,9.1-15.6,11.8
		c-4.6,2.3-8.2,2.7-9.7,1.2c-2.1-2.1-0.6-7.5,3.7-14.1c0,0,0,0.1,0,0.1c-1.9,2.9-4.5,7.8-2.4,9.9c2.1,2.1,7.1-0.7,9.6-2.3
		c4.2-2.6,8.4-6.3,11.9-9.8c7.6-7.7,14.3-17.7,11.3-20.7c-2-2-6.9,0.6-9.9,2.4c0,0-0.1,0-0.1,0c6.6-4.3,12.1-5.8,14.1-3.7
		C324.6,36.8,324.2,40.3,321.9,44.9L321.9,44.9L321.9,44.9z"/>
</g>
<g id="Layer_1-2_20_">
	<path class="st3" d="M113,59.3l-2.7-7.2c-1.2-3.2-3.9-5.7-7.2-6.8l-7.3-2.3c-3.3-1.1-6.9-0.5-9.8,1.4l-6.4,4.3
		c-0.2,0.2-0.5,0.3-0.7,0.5c-2.5,1.9-4.1,4.8-4.4,8l-0.7,7.6c-0.3,3.4,1,6.8,3.5,9.2l5.5,5.2c2.5,2.4,6,3.5,9.4,3l7.6-1.1
		c3-0.4,5.7-2,7.5-4.4c0.3-0.4,0.5-0.7,0.8-1.1l3.9-6.6C113.9,66.2,114.2,62.6,113,59.3L113,59.3z"/>
	<path class="st11" d="M107.4,76.9c-1.8,2.4-4.5,3.9-7.5,4.4l-7.6,1.1c-3.4,0.5-6.9-0.6-9.4-3l-5.5-5.2c-2.5-2.4-3.8-5.8-3.5-9.2
		l0.7-7.6c0.3-3.2,1.9-6.1,4.4-8c-1.3,1.7-2.1,3.8-2.4,5.9l-0.7,7.6c-0.3,3.4,1,6.8,3.5,9.2l5.5,5.2c2.5,2.4,6,3.5,9.4,3l7.6-1.1
		C103.9,78.9,105.8,78.1,107.4,76.9L107.4,76.9z"/>
	<path class="st11" d="M88.9,56.3c0,2.3-1.9,4.1-4.1,4.1s-4.1-1.9-4.1-4.1s1.9-4.1,4.1-4.1S88.9,54,88.9,56.3z"/>
	<g class="st12">
		<path class="st7" d="M84.1,68c0,1.1-0.9,2.1-2.1,2.1c-1.1,0-2.1-0.9-2.1-2.1c0-1.1,0.9-2.1,2.1-2.1C83.2,66,84.1,66.9,84.1,68z"/>
		<path class="st7" d="M97.8,50.8c0,1.1-0.9,2.1-2.1,2.1s-2.1-0.9-2.1-2.1s0.9-2.1,2.1-2.1S97.8,49.7,97.8,50.8z"/>
		<path class="st7" d="M102.7,70.1c0,0.8-0.6,1.4-1.4,1.4s-1.4-0.6-1.4-1.4s0.6-1.4,1.4-1.4S102.7,69.3,102.7,70.1z"/>
		<path class="st7" d="M95.1,63.9c0,1.1-0.9,2.1-2.1,2.1C91.9,66,91,65,91,63.9s0.9-2.1,2.1-2.1C94.2,61.8,95.1,62.8,95.1,63.9z"/>
		<path class="st7" d="M92.9,77.1c0,1.1-0.9,2.1-2.1,2.1c-1.1,0-2.1-0.9-2.1-2.1c0-1.1,0.9-2.1,2.1-2.1C92,75,92.9,75.9,92.9,77.1z"
			/>
	</g>
	<path class="st13" d="M106.8,68c-0.2,0-0.4-0.1-0.5-0.2s-0.2-0.3-0.2-0.5c0-0.1,0-0.2,0.1-0.3c0-0.1,0.1-0.2,0.1-0.2
		c0.2-0.2,0.5-0.3,0.8-0.1c0.2,0.1,0.3,0.2,0.4,0.4c0,0.1,0.1,0.2,0.1,0.3c0,0.2-0.1,0.4-0.2,0.5c-0.1,0.1-0.1,0.1-0.2,0.1
		C107,68,106.9,68,106.8,68z"/>
	<path class="st13" d="M94.4,72.2c-0.2,0-0.4-0.1-0.5-0.2c-0.1-0.1-0.2-0.3-0.2-0.5c0-0.1,0-0.2,0.1-0.3c0-0.1,0.1-0.2,0.1-0.2
		c0.2-0.2,0.5-0.3,0.8-0.1c0.2,0.1,0.3,0.2,0.4,0.4c0,0.1,0.1,0.2,0.1,0.3c0,0.2-0.1,0.4-0.2,0.5c-0.1,0.1-0.1,0.1-0.2,0.1
		C94.6,72.1,94.5,72.2,94.4,72.2z"/>
	<path class="st13" d="M88.9,71.5c-0.2,0-0.4-0.1-0.5-0.2c-0.1-0.1-0.2-0.3-0.2-0.5c0-0.1,0-0.2,0.1-0.3c0-0.1,0.1-0.2,0.1-0.2
		c0.2-0.2,0.5-0.3,0.8-0.1c0.1,0,0.2,0.1,0.2,0.1c0.1,0.1,0.1,0.1,0.1,0.2c0,0.1,0.1,0.2,0.1,0.3c0,0.3-0.2,0.5-0.4,0.6
		C89.1,71.5,89,71.5,88.9,71.5z"/>
	<path class="st13" d="M95.1,57.7c-0.2,0-0.4-0.1-0.5-0.2c-0.1-0.1-0.2-0.3-0.2-0.5c0-0.1,0-0.2,0.1-0.3c0-0.1,0.1-0.2,0.1-0.2
		c0.2-0.2,0.5-0.3,0.8-0.1c0.1,0,0.2,0.1,0.2,0.1c0.1,0.1,0.1,0.1,0.1,0.2c0,0.1,0.1,0.2,0.1,0.3c0,0.3-0.2,0.5-0.4,0.6
		C95.3,57.7,95.2,57.7,95.1,57.7z"/>
	<path class="st11" d="M112.1,69.1l-3.9,6.6c-0.2,0.4-0.5,0.8-0.8,1.1c-1,0.8-2.1,1.4-3.2,1.8c0.2-0.3,0.4-0.5,0.6-0.8l3.9-6.6
		c1.8-3,2.1-6.6,0.9-9.8l-2.7-7.2c-1.2-3.2-3.9-5.7-7.2-6.8l-7.3-2.3c-2.6-0.8-5.4-0.7-7.9,0.4l1.5-1c2.9-2,6.5-2.5,9.8-1.4l7.3,2.3
		c3.3,1.1,5.9,3.6,7.2,6.8l2.7,7.2C114.2,62.6,113.8,66.2,112.1,69.1L112.1,69.1z"/>
	<path class="st11" d="M109.6,58.4c0,2.3-1.9,4.1-4.1,4.1s-4.1-1.9-4.1-4.1s1.9-4.1,4.1-4.1S109.6,56.1,109.6,58.4z"/>
	<path d="M106.8,68c-0.2,0-0.4-0.1-0.5-0.2s-0.2-0.3-0.2-0.5c0-0.1,0-0.2,0.1-0.3c0-0.1,0.1-0.2,0.1-0.2c0.2-0.2,0.5-0.3,0.8-0.1
		c0.2,0.1,0.3,0.2,0.4,0.4c0,0.1,0.1,0.2,0.1,0.3c0,0.2-0.1,0.4-0.2,0.5c-0.1,0.1-0.1,0.1-0.2,0.1C107,68,106.9,68,106.8,68z"/>
	<path d="M94.4,72.2c-0.2,0-0.4-0.1-0.5-0.2c-0.1-0.1-0.2-0.3-0.2-0.5c0-0.1,0-0.2,0.1-0.3c0-0.1,0.1-0.2,0.1-0.2
		c0.2-0.2,0.5-0.3,0.8-0.1c0.2,0.1,0.3,0.2,0.4,0.4c0,0.1,0.1,0.2,0.1,0.3c0,0.2-0.1,0.4-0.2,0.5c-0.1,0.1-0.1,0.1-0.2,0.1
		C94.6,72.1,94.5,72.2,94.4,72.2z"/>
	<path d="M88.9,71.5c-0.2,0-0.4-0.1-0.5-0.2c-0.1-0.1-0.2-0.3-0.2-0.5c0-0.1,0-0.2,0.1-0.3c0-0.1,0.1-0.2,0.1-0.2
		c0.2-0.2,0.5-0.3,0.8-0.1c0.1,0,0.2,0.1,0.2,0.1c0.1,0.1,0.1,0.1,0.1,0.2c0,0.1,0.1,0.2,0.1,0.3c0,0.3-0.2,0.5-0.4,0.6
		C89.1,71.5,89,71.5,88.9,71.5z"/>
	<path d="M95.1,57.7c-0.2,0-0.4-0.1-0.5-0.2c-0.1-0.1-0.2-0.3-0.2-0.5c0-0.1,0-0.2,0.1-0.3c0-0.1,0.1-0.2,0.1-0.2
		c0.2-0.2,0.5-0.3,0.8-0.1c0.1,0,0.2,0.1,0.2,0.1c0.1,0.1,0.1,0.1,0.1,0.2c0,0.1,0.1,0.2,0.1,0.3c0,0.3-0.2,0.5-0.4,0.6
		C95.3,57.7,95.2,57.7,95.1,57.7z"/>
	<path d="M110.9,51.9c-1.3-3.4-4.1-6.1-7.6-7.2L96,42.4c-3.5-1.1-7.3-0.5-10.4,1.5l-6.4,4.3c-3.1,2-5.1,5.4-5.4,9l-0.7,7.6
		c-0.3,3.7,1,7.3,3.7,9.8l5.5,5.2c2.2,2.1,5.2,3.3,8.2,3.3c0.6,0,1.2,0,1.8-0.1L100,82c3.7-0.5,6.9-2.7,8.8-5.8l3.9-6.6
		c1.9-3.1,2.3-7,0.9-10.4L110.9,51.9L110.9,51.9z M111.5,68.8L111.5,68.8l-3.9,6.6c-1.7,2.8-4.5,4.7-7.8,5.2l-7.6,1.1
		c-3.2,0.5-6.5-0.5-8.9-2.8l-5.5-5.2c-2.4-2.2-3.6-5.4-3.3-8.7l0.7-7.6c0.3-3.3,2.1-6.2,4.8-8l6.4-4.3c2.7-1.8,6.1-2.3,9.2-1.3
		l7.3,2.3c3.1,1,5.6,3.3,6.7,6.4l2.7,7.1C113.5,62.6,113.2,66,111.5,68.8L111.5,68.8L111.5,68.8z"/>
	<path d="M105.4,53.6c-2.3,0-4.3,1.6-4.7,3.9c-0.4,2.3,0.8,4.5,2.9,5.4c2.1,0.9,4.6,0.1,5.9-1.8c1.3-1.9,1-4.5-0.6-6.1
		C107.9,54.1,106.7,53.6,105.4,53.6L105.4,53.6z M107.9,60.8c-1.2,1.2-3,1.3-4.3,0.4c-1.4-0.9-1.9-2.7-1.3-4.2
		c0.6-1.5,2.2-2.4,3.9-2.1c1.6,0.3,2.8,1.7,2.8,3.4C108.9,59.3,108.5,60.2,107.9,60.8L107.9,60.8z"/>
	<path d="M89.6,56.3c0-2.3-1.6-4.3-3.9-4.7c-2.3-0.4-4.5,0.8-5.4,2.9c-0.9,2.1-0.1,4.6,1.8,5.9c1.9,1.3,4.5,1,6.1-0.6
		C89.1,58.8,89.6,57.6,89.6,56.3z M84.8,59.8c-1.6,0-3.1-1.2-3.4-2.8c-0.3-1.6,0.5-3.2,2.1-3.9c1.5-0.6,3.3-0.1,4.2,1.3
		s0.7,3.2-0.4,4.3C86.6,59.4,85.7,59.8,84.8,59.8L84.8,59.8z"/>
	<path d="M82,65.3c-1.3,0-2.4,0.9-2.7,2.2c-0.3,1.3,0.4,2.6,1.6,3.1c1.2,0.5,2.6,0.1,3.3-1c0.7-1.1,0.6-2.5-0.3-3.5
		C83.4,65.6,82.7,65.3,82,65.3L82,65.3z M83,69c-0.5,0.5-1.4,0.5-1.9,0c-0.4-0.4-0.5-1-0.3-1.5c0.2-0.5,0.7-0.8,1.3-0.8
		s1.1,0.3,1.3,0.8C83.5,68,83.4,68.6,83,69z"/>
	<path d="M95.8,48.1c-1.3,0-2.4,0.9-2.7,2.2c-0.3,1.3,0.4,2.6,1.6,3.1c1.2,0.5,2.6,0.1,3.3-1c0.7-1.1,0.6-2.5-0.3-3.5
		C97.2,48.4,96.5,48.1,95.8,48.1z M96.8,51.8c-0.5,0.5-1.4,0.5-1.9,0c-0.4-0.4-0.5-1-0.3-1.5c0.2-0.5,0.7-0.8,1.3-0.8
		s1.1,0.3,1.3,0.8C97.3,50.8,97.1,51.4,96.8,51.8z"/>
	<path d="M99.8,68.6c-0.5,0.5-0.7,1.3-0.5,2c0.2,0.7,0.7,1.3,1.5,1.5c0.7,0.2,1.5,0,2-0.5c0.8-0.8,0.8-2.1,0-2.9
		C101.9,67.8,100.6,67.8,99.8,68.6L99.8,68.6L99.8,68.6z M101.8,70.6c-0.2,0.2-0.6,0.3-0.9,0.1s-0.4-0.5-0.3-0.8
		c0.1-0.3,0.4-0.5,0.8-0.4c0.3,0.1,0.6,0.3,0.6,0.7C102,70.3,101.9,70.5,101.8,70.6L101.8,70.6z"/>
	<path d="M93,61.1c-1.3,0-2.4,0.9-2.7,2.2c-0.3,1.3,0.4,2.6,1.6,3.1c1.2,0.5,2.6,0.1,3.3-1s0.6-2.5-0.3-3.5
		C94.5,61.4,93.8,61.1,93,61.1L93,61.1z M94,64.9c-0.5,0.5-1.4,0.5-1.9,0c-0.4-0.4-0.5-1-0.3-1.5c0.2-0.5,0.7-0.8,1.3-0.8
		c0.6,0,1.1,0.3,1.3,0.8C94.5,63.9,94.4,64.5,94,64.9z"/>
	<path d="M90.9,74.3c-1.3,0-2.4,0.9-2.7,2.2c-0.3,1.3,0.4,2.6,1.6,3.1c1.2,0.5,2.6,0.1,3.3-1c0.7-1.1,0.6-2.5-0.3-3.5
		C92.3,74.6,91.6,74.3,90.9,74.3z M91.9,78c-0.5,0.5-1.4,0.5-1.9,0c-0.4-0.4-0.5-1-0.3-1.5c0.2-0.5,0.7-0.8,1.3-0.8s1.1,0.3,1.3,0.8
		C92.4,77.1,92.2,77.6,91.9,78z"/>
</g>
<g id="Layer_1-2_22_">
	<g id="Fill_Outline">
		<g id="Color">
			<path class="st14" d="M192.2,387.6c0.5-0.3,0.9-0.6,1.2-1.1c0.3-0.5,0.4-1,0.4-1.5c0-2.2,0.8-4.3,2.3-5.9c7.4-7,19-6.7,26.1,0.6
				c4.3,4.5,6,10.9,4.6,17c-0.2,1-0.8,1.9-1.7,2.4c-0.2,0.1-0.4,0.2-0.5,0.4l-0.7,0.6c-0.4,0.3-0.7,0.8-0.9,1.3l-0.1,0.3
				c-0.2,0.6-0.3,1.1-0.3,1.7c0,0.9-0.4,1.7-1.1,2.4c-5.6,5.2-13.8,6.5-20.7,3.2c-1-0.5-1.7-1.4-2-2.5c-0.1-0.5-0.3-1-0.7-1.4
				l-0.3-0.3c-0.6-0.7-1.5-1.3-2.4-1.6l-0.5-0.2c0,0,0,0,0,0c-1-0.3-1.8-0.9-2.3-1.8c-2-3.6-2.7-7.7-2-11.7
				C190.8,388.7,191.3,388,192.2,387.6L192.2,387.6L192.2,387.6z"/>
			<path class="st9" d="M223,401.2c0,0,0,0.1-0.1,0.2l-0.1,0.3c-0.2,0.6-0.3,1.1-0.3,1.7c0,0.9-0.4,1.8-1.1,2.4
				c-5.6,5.2-13.8,6.5-20.7,3.2c-1-0.5-1.7-1.4-2-2.5c-0.1-0.5-0.3-1-0.7-1.4l-0.3-0.3c-0.6-0.7-1.5-1.3-2.4-1.6l-0.5-0.2
				c0,0,0,0,0,0c-1-0.3-1.8-0.9-2.3-1.8c-1.5-2.7-2.3-5.8-2.3-8.9c0-1,0.1-1.9,0.2-2.9c0.1-0.8,0.7-1.6,1.4-1.9l0.1,0
				c0.5-0.3,0.9-0.6,1.2-1.1c0.3-0.5,0.4-1,0.4-1.5c0-2.2,0.8-4.3,2.3-5.9c1.5-1.4,3.2-2.6,5.1-3.4c-1.3,2.4-2.1,5.1-2.3,7.8
				c0,1,0.3,2,1,2.7c0.4,0.5,0.4,0.5,0,0l0.3,0.4c0.6,0.7,1,1.6,1.2,2.6l0.1,0.4c0.1,0.5,0,1.1-0.2,1.6c-0.4,1-0.2,2.2,0.4,3.2
				c4.1,6.5,11.7,9.8,19.2,8.3C221.8,402.4,222.5,401.9,223,401.2L223,401.2L223,401.2z"/>
			<path class="st14" d="M199.2,377.2l-1.6-0.8c-0.8-0.4-1.8-0.1-2.2,0.7c-0.1,0.1-0.1,0.2-0.1,0.4c-0.1,0.3-0.2,0.6-0.5,0.8
				l-0.2,0.2c-0.6,0.6-0.7,1.5-0.2,2.2l0.9,1.1L199.2,377.2L199.2,377.2z"/>
			<path class="st15" d="M194.7,378.4c0.9-0.3,1.9-0.5,2.8-0.7c0.5-0.1,1.1-0.3,1.5-0.6l0.2,0.1l-4,4.5l-0.9-1.1
				c-0.5-0.7-0.4-1.6,0.2-2.2L194.7,378.4L194.7,378.4z"/>
			<path class="st14" d="M218.6,406.7l0.4,0.9c0.3,0.6,0,1.3-0.6,1.6c-0.1,0-0.1,0.1-0.2,0.1h0c-0.3,0.1-0.5,0.3-0.7,0.5
				c-0.3,0.6-1.1,0.8-1.6,0.4c-0.1,0-0.1-0.1-0.2-0.1l-1.4-1.2L218.6,406.7L218.6,406.7z"/>
			<path class="st14" d="M204.4,384l0.7,0.8c0.7,0.8,1,1.9,0.6,3c-0.2,0.7-0.7,1.3-1.4,1.7l-0.7,0.4c-0.7,0.4-1.6,0.5-2.4,0.2
				l-0.7-0.2c-0.5-0.2-0.9-0.5-1.3-0.9l-0.6-0.7c-0.8-0.9-1-2.1-0.6-3.1l0.2-0.6c0.3-0.9,1.1-1.6,2-1.8h0c0.6-0.2,1.2-0.1,1.7,0
				l1.1,0.4C203.6,383.3,204,383.6,204.4,384L204.4,384L204.4,384z"/>
			<path class="st14" d="M210.5,400.7l0.6-0.4c1-0.7,2.3-0.7,3.2,0l0.1,0.1c0.8,0.5,1.3,1.5,1.3,2.4v0.2c0,1.3-0.9,2.5-2.2,2.8
				l-0.6,0.2c-0.8,0.2-1.6,0.1-2.3-0.4l-0.1-0.1c-1.1-0.7-1.6-2.1-1.2-3.4C209.6,401.6,210,401.1,210.5,400.7L210.5,400.7
				L210.5,400.7z"/>
			<path class="st14" d="M215.1,387l0.4-0.3c0.6-0.4,1.4-0.4,2,0l0.1,0.1c0.5,0.3,0.8,0.9,0.8,1.5v0.2c0,0.8-0.6,1.6-1.4,1.8
				l-0.4,0.1c-0.5,0.1-1,0-1.4-0.3l-0.1-0.1c-0.7-0.5-1-1.3-0.7-2.1C214.5,387.5,214.7,387.2,215.1,387L215.1,387L215.1,387z"/>
			<path class="st14" d="M223.3,394.6l0.4-0.3c0.6-0.4,1.4-0.4,2,0l0.1,0.1c0.5,0.3,0.8,0.9,0.8,1.5v0.2c0,0.8-0.6,1.6-1.4,1.8
				l-0.4,0.1c-0.5,0.1-1,0-1.4-0.3l-0.1-0.1c-0.7-0.5-1-1.3-0.7-2.1C222.7,395.2,223,394.8,223.3,394.6L223.3,394.6L223.3,394.6z"/>
			<path class="st14" d="M205.5,392.7l0.4-0.3c0.6-0.4,1.4-0.4,2,0l0.1,0.1c0.5,0.3,0.8,0.9,0.8,1.5v0.2c0,0.8-0.6,1.6-1.4,1.8
				l-0.4,0.1c-0.5,0.1-1,0-1.4-0.3l-0.1-0.1c-0.7-0.5-1-1.3-0.7-2.1C204.9,393.3,205.2,392.9,205.5,392.7L205.5,392.7z"/>
			<path class="st14" d="M209.3,378.7l0.4-0.3c0.6-0.4,1.4-0.4,2,0l0.1,0.1c0.5,0.3,0.8,0.9,0.8,1.5v0.2c0,0.8-0.6,1.6-1.4,1.8
				l-0.4,0.1c-0.5,0.1-1,0-1.4-0.3l-0.1-0.1c-0.7-0.5-1-1.3-0.7-2.1C208.8,379.3,209,378.9,209.3,378.7L209.3,378.7L209.3,378.7z"/>
			<circle class="st14" cx="217.1" cy="394.3" r="1.3"/>
			<circle class="st14" cx="203.1" cy="404.5" r="1.3"/>
			<circle class="st14" cx="199.9" cy="397.5" r="1.3"/>
			<path class="st14" d="M195.3,396.3v0.2c0,1.3-0.9,2.5-2.2,2.8l-0.6,0.2c-0.2,0.1-0.4,0.1-0.6,0.1c-0.8-1.8-1.3-3.8-1.4-5.7
				l0.2-0.1c1-0.7,2.3-0.7,3.2,0l0.1,0.1C194.8,394.4,195.3,395.3,195.3,396.3L195.3,396.3L195.3,396.3z"/>
			<path class="st14" d="M227.2,391.4c-0.4,0.1-0.9,0-1.3-0.1l-0.7-0.2c-0.5-0.2-0.9-0.5-1.3-0.9l-0.6-0.7c-0.8-0.9-1-2.1-0.6-3.1
				l0.2-0.6c0.3-0.9,1.1-1.6,2-1.8h0c0.1,0,0.1,0,0.2,0C226.4,386.2,227.1,388.8,227.2,391.4L227.2,391.4L227.2,391.4z"/>
			<path class="st15" d="M201.5,389.6l-0.1-0.4c-0.2-1-0.6-1.9-1.2-2.6l-0.3-0.4c0,0,0,0,0,0c-0.7-0.8-1-1.7-1-2.7c0,0,0,0,0-0.1
				c-0.3,0.3-0.6,0.7-0.7,1.1l-0.2,0.6c-0.4,1.1-0.2,2.3,0.6,3.1l0.6,0.7c0.3,0.4,0.8,0.7,1.3,0.9l0.7,0.2c0.1,0,0.2,0.1,0.4,0.1
				C201.5,390,201.5,389.8,201.5,389.6L201.5,389.6L201.5,389.6z"/>
			<path class="st15" d="M205.1,384.8l-0.7-0.8c-0.3-0.4-0.8-0.7-1.3-0.9l-1.1-0.4c-0.6-0.2-1.2-0.2-1.7,0h0
				c-0.4,0.1-0.8,0.3-1.1,0.5c0.3,0,0.6,0,0.9,0.1l1.1,0.4c0.5,0.2,0.9,0.5,1.3,0.9l0.7,0.8c1.1,1.2,1,3.2-0.2,4.3
				c-0.2,0.1-0.3,0.3-0.5,0.4l-0.3,0.1c0.5,0,1-0.1,1.4-0.4l0.7-0.4c1.5-0.8,2-2.7,1.2-4.1C205.4,385.1,205.2,384.9,205.1,384.8
				L205.1,384.8L205.1,384.8z"/>
			<path class="st15" d="M214.5,400.4l-0.1-0.1c-1-0.7-2.3-0.7-3.2,0l-0.6,0.4c-1.3,0.9-1.7,2.7-0.8,4.1c0.2,0.3,0.5,0.6,0.8,0.8
				l0.1,0.1c0.7,0.5,1.5,0.6,2.3,0.4l0.6-0.2c1.3-0.3,2.2-1.5,2.2-2.8v-0.2C215.8,401.9,215.3,401,214.5,400.4L214.5,400.4
				L214.5,400.4z M209.8,401.4C209.8,401.4,209.9,401.4,209.8,401.4l0.6-0.4c1-0.7,2.3-0.7,3.2,0l0.1,0.1c0.6,0.4,1.1,1,1.2,1.8
				C213.3,402.6,211.5,402.1,209.8,401.4L209.8,401.4L209.8,401.4z"/>
			<path class="st15" d="M218.4,388.3v0.2c0,0.8-0.6,1.6-1.4,1.8l-0.4,0.1c0.3-0.3,0.5-0.8,0.5-1.2v-0.2c0-0.6-0.3-1.2-0.8-1.5
				l-0.1-0.1c-0.4-0.2-0.8-0.3-1.2-0.3c0,0,0.1-0.1,0.1-0.1l0.4-0.3c0.6-0.4,1.4-0.4,2,0l0.1,0.1
				C218.1,387.1,218.4,387.7,218.4,388.3L218.4,388.3L218.4,388.3z"/>
			<path class="st15" d="M212.6,380v0.2c0,0.8-0.6,1.6-1.4,1.8l-0.4,0.1c0.3-0.3,0.5-0.8,0.5-1.2v-0.2c0-0.6-0.3-1.2-0.8-1.5
				l-0.1-0.1c-0.4-0.2-0.8-0.3-1.2-0.3c0,0,0.1-0.1,0.1-0.1l0.4-0.3c0.6-0.4,1.4-0.4,2,0l0.1,0.1C212.3,378.9,212.6,379.4,212.6,380
				L212.6,380L212.6,380z"/>
			<path class="st15" d="M222.8,387.5c0.3-0.4,0.6-0.8,1.1-1.1l0.8-0.5c0.4-0.2,0.8-0.3,1.2-0.4c-0.2-0.6-0.5-1.1-0.8-1.6
				c-0.1,0-0.1,0-0.2,0h0c-0.9,0.2-1.7,0.9-2,1.8l-0.2,0.6c-0.2,0.5-0.3,1-0.2,1.5L222.8,387.5L222.8,387.5z"/>
			<path class="st15" d="M226.6,395.9v0.2c0,0.5-0.2,1-0.6,1.4c0,0,0-0.1,0-0.1v-0.2c0-0.6-0.3-1.2-0.8-1.5l-0.1-0.1
				c-0.6-0.4-1.4-0.4-2,0l-0.4,0.3c-0.1,0-0.1,0.1-0.2,0.1c0-0.2,0-0.3,0.1-0.5c0.1-0.4,0.4-0.7,0.7-0.9l0.4-0.3
				c0.6-0.4,1.4-0.4,2,0l0.1,0.1C226.3,394.8,226.6,395.3,226.6,395.9L226.6,395.9L226.6,395.9z"/>
			<path class="st15" d="M208.8,394v0.2c0,0.5-0.2,1-0.6,1.4c0,0,0-0.1,0-0.1v-0.2c0-0.6-0.3-1.2-0.8-1.5l-0.1-0.1
				c-0.6-0.4-1.4-0.4-2,0l-0.4,0.3c-0.1,0-0.1,0.1-0.2,0.1c0-0.2,0-0.3,0.1-0.5c0.1-0.4,0.4-0.7,0.7-0.9l0.4-0.3
				c0.6-0.4,1.4-0.4,2,0l0.1,0.1C208.5,392.8,208.8,393.4,208.8,394L208.8,394L208.8,394z"/>
			<path class="st15" d="M217.1,393.1c-0.5,0-1,0.3-1.2,0.7c0.6-0.3,1.4,0,1.7,0.6c0.2,0.3,0.2,0.7,0,1.1c0.6-0.3,0.9-1,0.6-1.7
				C218,393.3,217.6,393.1,217.1,393.1z"/>
			<path class="st15" d="M199.9,396.2c-0.5,0-1,0.3-1.2,0.7c0.6-0.3,1.4,0,1.7,0.6c0.2,0.3,0.2,0.7,0,1.1c0.6-0.3,0.9-1,0.6-1.7
				C200.9,396.5,200.4,396.2,199.9,396.2z"/>
			<path class="st15" d="M203.1,403.2c-0.5,0-1,0.3-1.2,0.7c0.6-0.3,1.4,0,1.7,0.6c0.2,0.3,0.2,0.7,0,1.1c0.6-0.3,0.9-1,0.6-1.7
				C204.1,403.5,203.6,403.2,203.1,403.2z"/>
			<path class="st15" d="M195.3,396.3v0.3c0,1.3-0.9,2.5-2.2,2.8l-0.6,0.2c0,0-0.1,0-0.1,0c0.8-0.5,1.2-1.4,1.2-2.4v-0.3
				c0-1-0.5-1.9-1.3-2.4l-0.1-0.1c-0.5-0.3-1.1-0.5-1.7-0.5v0l0.2-0.1c1-0.7,2.2-0.7,3.2,0l0.1,0.1
				C194.8,394.4,195.3,395.3,195.3,396.3L195.3,396.3L195.3,396.3z"/>
			<path class="st14" d="M220.8,381.2c1,0.2,2.1-0.3,2.5-1.2l0.1-0.2c0.4-0.8,0.1-1.8-0.7-2.2c-0.1-0.1-0.2-0.1-0.4-0.1
				c-0.3-0.1-0.6-0.2-0.8-0.5l-0.2-0.2c-0.6-0.6-1.5-0.7-2.2-0.2l-1.2,0.9l1.1,2.4C219.5,380.6,220.1,381.1,220.8,381.2L220.8,381.2
				L220.8,381.2z"/>
		</g>
		<g id="Outline_copy">
			<path class="st16" d="M223.7,380.6l0.3-0.5c0.6-1.1,0.1-2.5-1-3c-0.2-0.1-0.3-0.1-0.5-0.2c-0.2,0-0.4-0.1-0.5-0.3l-0.2-0.2
				c-0.8-0.9-2.1-1-3-0.2l-1.2,0.9c-0.3,0.2-0.3,0.6-0.1,0.9c0.2,0.3,0.6,0.3,0.9,0.1l1.2-0.9c0.4-0.3,1-0.3,1.3,0.1l0.2,0.2
				c0.3,0.3,0.7,0.6,1.1,0.7c0.5,0.1,0.8,0.6,0.7,1.2c0,0.1,0,0.2-0.1,0.2l-0.9,1.8c-0.2,0.3,0,0.7,0.3,0.9c0.2,0.1,0.5,0.1,0.7-0.1
				c0.1,0,0.1-0.1,0.1-0.2l0,0c0.4,0.6,0.8,1.1,1.2,1.7c-0.9,0.4-1.5,1.1-1.9,2l-0.2,0.6c-0.5,1.3-0.3,2.8,0.7,3.8l0.6,0.7
				c0.4,0.5,1,0.8,1.6,1l0.7,0.2c0.3,0.1,0.6,0.1,0.9,0.2c0,0.7,0,1.4-0.1,2.1c-0.1-0.1-0.2-0.2-0.4-0.3l-0.1-0.1
				c-0.8-0.6-1.9-0.6-2.7,0l-0.4,0.3c-1.2,0.8-1.5,2.5-0.5,3.7c0.1,0.2,0.3,0.3,0.5,0.4l0.1,0c0.4,0.3,0.9,0.4,1.4,0.4
				c0.1,0,0.1,0,0.2,0c-0.2,0.1-0.4,0.2-0.5,0.4l-0.7,0.6c-0.5,0.4-0.8,1-1,1.6l-0.1,0.3c-0.2,0.6-0.3,1.3-0.3,1.9
				c0,0.7-0.3,1.4-0.9,2c-0.5,0.5-1.1,0.9-1.7,1.4l-0.2-0.3c-0.1-0.3-0.5-0.4-0.8-0.3c-0.4,0.1-0.5,0.5-0.4,0.9l0.4,0.9
				c0.1,0.1,0.1,0.3,0,0.5c-0.1,0.2-0.2,0.3-0.4,0.3c-0.5,0.1-0.8,0.4-1.1,0.8c-0.2,0.3-0.5,0.4-0.8,0.2c0,0-0.1,0-0.1-0.1l-1.4-1.2
				c-0.3-0.2-0.7-0.2-0.9,0.1c-0.2,0.3-0.2,0.7,0.1,0.9l0,0l0.1,0.1c-4.3,1.3-8.9,1-13-1c-0.8-0.4-1.4-1.1-1.6-2
				c-0.1-0.3-0.4-0.6-0.8-0.5c-0.3,0.1-0.5,0.4-0.5,0.7c0.3,1.3,1.1,2.4,2.3,2.9c4.6,2.2,9.9,2.5,14.7,0.8l0.2,0.2
				c0.3,0.3,0.8,0.4,1.2,0.4c0.1,0,0.2,0,0.3,0c0.5-0.1,1-0.4,1.3-0.9c0.1-0.1,0.2-0.2,0.3-0.3c0.8-0.2,1.4-1,1.3-1.8
				c0.7-0.5,1.4-1.1,2.1-1.7c0.8-0.7,1.2-1.7,1.3-2.8c0-0.5,0.1-1.1,0.3-1.6l0.1-0.3c0.1-0.4,0.4-0.7,0.7-1l0.7-0.6
				c0.1-0.1,0.3-0.2,0.4-0.3c1-0.6,1.8-1.6,2-2.8C228.8,391.2,227.4,385.2,223.7,380.6L223.7,380.6L223.7,380.6z M225.4,390.5
				c-0.4-0.1-0.7-0.4-1-0.7l-0.6-0.7c-0.6-0.7-0.8-1.6-0.4-2.5l0.2-0.6c0.2-0.6,0.7-1.1,1.3-1.3c0.9,1.9,1.5,4,1.7,6.1
				c-0.1,0-0.3,0-0.4-0.1L225.4,390.5L225.4,390.5z M223.8,397.2L223.8,397.2c-0.6-0.4-0.8-1.2-0.4-1.7c0.1-0.1,0.2-0.2,0.3-0.3
				l0.4-0.3c0.4-0.3,0.9-0.3,1.3,0l0.1,0.1c0.3,0.2,0.5,0.6,0.5,1v0.2c0,0.5-0.4,1-0.9,1.1l-0.4,0.1
				C224.4,397.4,224,397.3,223.8,397.2L223.8,397.2z"/>
			<path class="st16" d="M198,404.1c-0.7-0.7-1.5-1.2-2.4-1.4l-0.4-0.1c0,0,0,0-0.1,0c-0.8-0.2-1.5-0.8-1.9-1.5
				c-0.2-0.3-0.3-0.6-0.4-0.8l0.5-0.1c1.6-0.4,2.7-1.8,2.7-3.5v-0.2c0-1.2-0.6-2.3-1.6-3l-0.1-0.1c-0.9-0.6-2.1-0.8-3.2-0.4
				c0-0.2,0-0.3,0-0.5c0-0.9,0.1-1.9,0.2-2.8c0.1-0.6,0.5-1.2,1.1-1.5l0.1-0.1c0.6-0.3,1.1-0.8,1.4-1.3c0.3-0.6,0.5-1.2,0.5-1.9
				c0-0.9,0.2-1.9,0.5-2.8c0.1,0.1,0.2,0.1,0.3,0.1c0.3,0,0.6-0.3,0.6-0.6c0-0.1,0-0.3-0.1-0.4l-0.8-1.1c-0.3-0.4-0.3-1,0.1-1.3
				l0.2-0.2c0.3-0.3,0.6-0.7,0.7-1.1c0.1-0.5,0.6-0.8,1.2-0.7c0.1,0,0.2,0,0.2,0.1l1.6,0.8c0.3,0.2,0.7,0,0.9-0.3l0,0
				c0.1-0.1,0.1-0.2,0.1-0.4c3.2-1.9,6.8-2.7,10.5-2.4c2,0.2,3.9,0.7,5.7,1.5c0.3,0.1,0.7,0,0.8-0.3c0.1-0.3,0-0.7-0.3-0.8
				c-1.9-0.9-4-1.4-6.1-1.6c-4.1-0.3-8.2,0.6-11.7,2.8l-0.9-0.5c-1.1-0.6-2.5-0.1-3,1c-0.1,0.2-0.1,0.3-0.2,0.5
				c0,0.2-0.1,0.4-0.3,0.5l-0.2,0.2c-0.9,0.8-1,2.1-0.2,3l0.1,0.1c-0.5,1.2-0.8,2.5-0.8,3.8c0,0.4-0.1,0.9-0.4,1.2
				c-0.2,0.3-0.5,0.6-0.9,0.8l-0.1,0c-1,0.5-1.6,1.4-1.8,2.4c-0.7,4.2,0.1,8.4,2.1,12.1c0.6,1,1.5,1.7,2.6,2.1c0,0,0,0,0,0l0.5,0.2
				c0.7,0.2,1.4,0.6,1.9,1.2c0.3,0.2,0.7,0.2,0.9,0C198.3,404.7,198.3,404.3,198,404.1L198,404.1L198,404.1z M193.5,394.3l0.1,0.1
				c0.6,0.4,1,1.1,1,1.9v0.2c0,1.1-0.7,2-1.7,2.2l-0.6,0.2l-0.1,0c-0.6-1.5-1-3.1-1.1-4.7C191.9,393.8,192.8,393.8,193.5,394.3
				L193.5,394.3L193.5,394.3z"/>
			<path class="st16" d="M198.6,389.4c0.4,0.5,1,0.8,1.6,1l0.7,0.2c1,0.3,2,0.2,2.9-0.3l0.5-0.3c0.3-0.2,0.4-0.6,0.2-0.9
				s-0.6-0.4-0.9-0.2l0,0l-0.5,0.3c-0.6,0.3-1.3,0.4-1.9,0.2l-0.7-0.2c-0.4-0.1-0.7-0.4-1-0.7l-0.6-0.7c-0.6-0.7-0.8-1.6-0.4-2.5
				l0.2-0.6c0.5-1.2,1.8-1.8,3-1.4l1.1,0.4c0.4,0.1,0.7,0.4,1,0.7l0.7,0.8c0.6,0.6,0.8,1.5,0.5,2.3c-0.1,0.3,0.1,0.7,0.4,0.8
				c0.3,0.1,0.7-0.1,0.8-0.4c0.4-1.2,0.1-2.6-0.7-3.6l-0.7-0.8c-0.4-0.5-1-0.8-1.6-1l-1.1-0.4c-1.8-0.6-3.8,0.3-4.6,2.1l-0.2,0.6
				c-0.5,1.3-0.3,2.8,0.7,3.8L198.6,389.4L198.6,389.4z"/>
			<path class="st16" d="M210.2,406.1l0.1,0.1c0.8,0.6,1.9,0.7,2.8,0.5l0.6-0.2c1.6-0.4,2.7-1.8,2.7-3.5c0-0.3-0.3-0.6-0.6-0.6
				c-0.3,0-0.6,0.3-0.6,0.6c0,1.1-0.7,2-1.7,2.2l-0.6,0.2c-0.6,0.2-1.3,0-1.8-0.3l-0.1-0.1c-1.1-0.7-1.3-2.1-0.6-3.2
				c0.2-0.3,0.4-0.5,0.6-0.6l0.6-0.4c0.8-0.5,1.8-0.5,2.5,0l0.1,0.1c0.2,0.1,0.3,0.2,0.4,0.4c0.2,0.3,0.6,0.3,0.9,0
				c0.3-0.2,0.3-0.6,0-0.9c-0.2-0.2-0.4-0.4-0.7-0.6l-0.1-0.1c-1.2-0.8-2.8-0.8-4,0l-0.6,0.4c-1.6,1.1-2.1,3.3-1,4.9
				C209.5,405.6,209.8,405.9,210.2,406.1L210.2,406.1L210.2,406.1z"/>
			<path class="st16" d="M215.1,386.2l-0.4,0.3c-1.1,0.8-1.4,2.3-0.7,3.4c0.2,0.3,0.4,0.5,0.7,0.7l0.1,0.1c0.6,0.4,1.3,0.5,2,0.3
				l0.4-0.1c1.1-0.3,1.9-1.3,1.9-2.4v-0.2c0-0.8-0.4-1.6-1.1-2l-0.1-0.1C217,385.7,215.9,385.7,215.1,386.2
				C215.1,386.2,215.1,386.2,215.1,386.2z M217.1,387.3L217.1,387.3c0.4,0.3,0.6,0.6,0.6,1v0.2c0,0.5-0.4,1-0.9,1.1l-0.4,0.1
				c-0.3,0.1-0.7,0-0.9-0.2l-0.1-0.1c-0.5-0.4-0.7-1.1-0.3-1.6c0.1-0.1,0.2-0.2,0.3-0.3l0.4-0.3C216.2,387,216.7,387,217.1,387.3
				L217.1,387.3L217.1,387.3z"/>
			<path class="st16" d="M205.3,396.3c0.6,0.4,1.3,0.5,2,0.3l0.4-0.1c1.1-0.3,1.9-1.3,1.9-2.4V394c0-0.8-0.4-1.6-1.1-2l-0.1-0.1
				c-0.8-0.6-1.9-0.6-2.7,0l-0.4,0.3c-1.1,0.8-1.4,2.3-0.7,3.4C204.7,395.8,204.9,396.1,205.3,396.3
				C205.2,396.3,205.3,396.3,205.3,396.3z M205.4,393.8c0.1-0.2,0.2-0.5,0.5-0.6l0.4-0.3c0.4-0.3,0.9-0.3,1.3,0l0.1,0.1
				c0.3,0.2,0.5,0.6,0.5,1v0.2c0,0.5-0.4,1-0.9,1.1l-0.4,0.1c-0.3,0.1-0.7,0-0.9-0.2l-0.1-0.1C205.4,394.9,205.3,394.3,205.4,393.8z
				"/>
			<path class="st16" d="M213.3,380c0-0.8-0.4-1.6-1.1-2l-0.1-0.1c-0.8-0.6-1.9-0.6-2.7,0l-0.4,0.3c-1.1,0.8-1.4,2.3-0.7,3.4
				c0.2,0.3,0.4,0.5,0.7,0.7l0.1,0.1c0.6,0.4,1.3,0.5,2,0.3l0.4-0.1c1.1-0.3,1.9-1.3,1.9-2.4L213.3,380L213.3,380z M212,380.2
				c0,0.5-0.4,1-0.9,1.1l-0.4,0.1c-0.3,0.1-0.7,0-0.9-0.2l-0.1-0.1c-0.5-0.4-0.7-1.1-0.3-1.6c0.1-0.1,0.2-0.2,0.3-0.3l0.4-0.3
				c0.4-0.3,0.9-0.3,1.3,0l0.1,0.1c0.3,0.2,0.5,0.6,0.5,1V380.2L212,380.2z"/>
			<path class="st16" d="M219,394.3c0-1.1-0.9-1.9-1.9-1.9s-1.9,0.9-1.9,1.9c0,1,0.9,1.9,1.9,1.9C218.1,396.2,219,395.4,219,394.3z
				 M217.1,395c-0.3,0-0.6-0.3-0.6-0.6c0-0.3,0.3-0.6,0.6-0.6s0.6,0.3,0.6,0.6C217.7,394.7,217.4,395,217.1,395z"/>
			<path class="st16" d="M203.1,406.4c1.1,0,1.9-0.9,1.9-1.9c0-1-0.9-1.9-1.9-1.9c-1,0-1.9,0.9-1.9,1.9
				C201.2,405.5,202.1,406.4,203.1,406.4z M203.1,403.9c0.3,0,0.6,0.3,0.6,0.6c0,0.3-0.3,0.6-0.6,0.6s-0.6-0.3-0.6-0.6
				C202.5,404.1,202.8,403.9,203.1,403.9z"/>
			<path class="st16" d="M199.9,399.4c1.1,0,1.9-0.9,1.9-1.9c0-1-0.9-1.9-1.9-1.9c-1,0-1.9,0.9-1.9,1.9
				C198,398.5,198.9,399.4,199.9,399.4z M199.9,396.9c0.3,0,0.6,0.3,0.6,0.6c0,0.3-0.3,0.6-0.6,0.6s-0.6-0.3-0.6-0.6
				C199.3,397.1,199.6,396.9,199.9,396.9z"/>
			<circle class="st16" cx="212" cy="391.8" r="0.6"/>
			<circle class="st16" cx="211.4" cy="386.1" r="0.6"/>
			<circle class="st16" cx="218.2" cy="381.5" r="0.6"/>
			<circle class="st16" cx="217.1" cy="398.1" r="0.6"/>
			<circle class="st16" cx="203.1" cy="379.1" r="0.6"/>
			<circle class="st16" cx="196.8" cy="391.1" r="0.6"/>
		</g>
	</g>
</g>
<g id="Layer_1-2" class="st17">
	<path class="st9" d="M349.2,13.5l98.3,1.8c0.1,0,0.2,0.1,0.2,0.2c0,0.1-0.1,0.2-0.2,0.2l-98,7c-2.5,0.2-4.7-1.7-4.9-4.3
		c-0.2-2.5,1.7-4.7,4.3-4.9C349,13.5,349.1,13.5,349.2,13.5z"/>
</g>
<g id="Layer_1-2_1_" class="st17">
	<path class="st9" d="M233.6,434.7l111.1,2c0.1,0,0.2,0.1,0.2,0.2c0,0.1-0.1,0.2-0.2,0.2l-110.9,7.9c-2.9,0.2-5.4-2-5.6-4.8
		c-0.2-2.9,2-5.4,4.8-5.6C233.2,434.7,233.4,434.7,233.6,434.7z"/>
</g>
<g id="Layer_1-2_6_" class="st17">
	<path class="st9" d="M446.8,318.7l76.9,1.4c0.1,0,0.1,0.1,0.1,0.2c0,0.1-0.1,0.1-0.1,0.1l-76.7,5.5c-2,0.1-3.7-1.4-3.9-3.3
		c-0.1-2,1.4-3.7,3.3-3.9C446.6,318.7,446.7,318.7,446.8,318.7z"/>
</g>
<g id="Layer_1-2_8_" class="st17">
	<path class="st9" d="M304.9,91.6l84,1.5c0.1,0,0.2,0.1,0.2,0.2c0,0.1-0.1,0.2-0.2,0.2l-83.8,6c-2.2,0.2-4.1-1.5-4.2-3.6
		c-0.2-2.2,1.5-4.1,3.6-4.2C304.6,91.6,304.7,91.6,304.9,91.6z"/>
</g>
<g id="Layer_1-2_10_">
	<path class="st18" d="M295.3,118.9c1.3-0.1,2.4-1.2,2.5-2.5c0.1-1.1,0.8-5.7,0.8-5.7s0.6,4.7,0.8,5.7c0.3,1.6,1.2,2.4,2.5,2.5
		c1.1,0.1,5.7,0.8,5.7,0.8c0,0-4.7,0.7-5.7,0.8c-1.7,0.2-2.4,1.3-2.5,2.5c-0.1,1.1-0.8,5.7-0.8,5.7s-0.7-4.7-0.8-5.7
		c-0.1-1.4-1.2-2.4-2.5-2.5c-1.1-0.1-5.7-0.8-5.7-0.8C289.6,119.7,294.3,119,295.3,118.9z"/>
</g>
<circle class="st19" cx="358" cy="71.5" r="1.5"/>
<circle class="st19" cx="308.8" cy="353.7" r="1.5"/>
<circle class="st20" cx="230.2" cy="22.7" r="2.3"/>
<g id="Layer_1-2_2_" class="st17">
	<path class="st9" d="M380.5,364.1l98.3,1.8c0.1,0,0.2,0.1,0.2,0.2c0,0.1-0.1,0.2-0.2,0.2l-98,7c-2.5,0.2-4.7-1.7-4.9-4.3
		c-0.2-2.5,1.7-4.7,4.3-4.9C380.2,364.1,380.4,364.1,380.5,364.1z"/>
</g>
<g id="Layer_1-2_3_" class="st17">
	<path class="st9" d="M419.9,45.5l84,1.5c0.1,0,0.2,0.1,0.2,0.2c0,0.1-0.1,0.2-0.2,0.2l-83.8,6c-2.2,0.2-4.1-1.5-4.2-3.6
		c-0.2-2.2,1.5-4.1,3.6-4.2C419.7,45.5,419.8,45.5,419.9,45.5z"/>
</g>
<circle class="st20" cx="113.3" cy="419.5" r="2.3"/>
<circle class="st19" cx="475.9" cy="88.3" r="1.5"/>
<circle class="st20" cx="328.7" cy="406.2" r="2.3"/>
<g id="Layer_1-2_13_">
	<path class="st18" d="M143.1,425.6c0.8-0.1,1.6-0.8,1.7-1.7c0.1-0.7,0.5-3.8,0.5-3.8s0.4,3.1,0.5,3.8c0.2,1,0.8,1.5,1.7,1.7
		c0.7,0.1,3.8,0.5,3.8,0.5c0,0-3.1,0.4-3.8,0.5c-1.1,0.1-1.6,0.9-1.7,1.7c-0.1,0.7-0.5,3.8-0.5,3.8s-0.5-3.1-0.5-3.8
		c-0.1-0.9-0.8-1.6-1.7-1.7c-0.7-0.1-3.8-0.5-3.8-0.5C139.3,426.1,142.4,425.6,143.1,425.6z"/>
	<path class="st18" d="M150.4,434.3c0.6-0.1,1.1-0.5,1.1-1.1c0-0.5,0.4-2.6,0.4-2.6s0.3,2.1,0.4,2.6c0.1,0.7,0.5,1,1.1,1.1
		c0.5,0.1,2.6,0.4,2.6,0.4c0,0-2.1,0.3-2.6,0.4c-0.8,0.1-1.1,0.6-1.1,1.1c-0.1,0.5-0.4,2.6-0.4,2.6s-0.3-2.1-0.4-2.6
		c-0.1-0.6-0.5-1.1-1.1-1.1c-0.5-0.1-2.6-0.4-2.6-0.4C147.9,434.6,149.9,434.3,150.4,434.3z"/>
</g>
<g id="Layer_1-2_4_">
	<path class="st18" d="M194.4,9.6c0.8-0.1,1.6-0.8,1.7-1.7c0.1-0.7,0.5-3.8,0.5-3.8s0.4,3.1,0.5,3.8c0.2,1,0.8,1.5,1.7,1.7
		c0.7,0.1,3.8,0.5,3.8,0.5c0,0-3.1,0.4-3.8,0.5c-1.1,0.1-1.6,0.9-1.7,1.7c-0.1,0.7-0.5,3.8-0.5,3.8s-0.5-3.1-0.5-3.8
		c-0.1-0.9-0.8-1.6-1.7-1.7c-0.7-0.1-3.8-0.5-3.8-0.5C190.6,10.2,193.7,9.7,194.4,9.6z"/>
	<path class="st18" d="M201.7,18.4c0.6-0.1,1.1-0.5,1.1-1.1c0-0.5,0.4-2.6,0.4-2.6s0.3,2.1,0.4,2.6c0.1,0.7,0.5,1,1.1,1.1
		c0.5,0.1,2.6,0.4,2.6,0.4c0,0-2.1,0.3-2.6,0.4c-0.8,0.1-1.1,0.6-1.1,1.1c-0.1,0.5-0.4,2.6-0.4,2.6s-0.3-2.1-0.4-2.6
		c-0.1-0.6-0.5-1.1-1.1-1.1c-0.5-0.1-2.6-0.4-2.6-0.4C199.1,18.7,201.2,18.4,201.7,18.4z"/>
</g>
<g id="Layer_1-2_5_">
	<path class="st18" d="M482.3,391.6c1.3-0.1,2.4-1.2,2.5-2.5c0.1-1.1,0.8-5.7,0.8-5.7s0.6,4.7,0.8,5.7c0.3,1.6,1.2,2.4,2.5,2.5
		c1.1,0.1,5.7,0.8,5.7,0.8c0,0-4.7,0.7-5.7,0.8c-1.7,0.2-2.4,1.3-2.5,2.5c-0.1,1.1-0.8,5.7-0.8,5.7s-0.7-4.7-0.8-5.7
		c-0.1-1.4-1.2-2.4-2.5-2.5c-1.1-0.1-5.7-0.8-5.7-0.8C476.6,392.4,481.3,391.7,482.3,391.6z"/>
</g>
<g id="Layer_1-2_7_">
	<path class="st18" d="M324.1,318.1c0.9-0.1,1.7-0.8,1.8-1.8c0.1-0.7,0.5-4,0.5-4s0.4,3.2,0.6,4c0.2,1.1,0.8,1.6,1.8,1.8
		c0.7,0.1,4,0.6,4,0.6c0,0-3.2,0.5-4,0.6c-1.2,0.2-1.6,0.9-1.8,1.8c-0.1,0.7-0.6,4-0.6,4s-0.5-3.2-0.6-4c-0.1-1-0.8-1.6-1.8-1.8
		c-0.7-0.1-4-0.6-4-0.5C320.1,318.7,323.3,318.2,324.1,318.1z"/>
</g>
</svg>
