<svg id="visual" xmlns="http://www.w3.org/2000/svg" viewBox="0 0 767 450"><defs><style>.cls-1{fill:#f2f7a1;}</style></defs><title>Artboard 1</title><path class="cls-1" d="M0,0C169.8,1.85,233.12,35.42,255.19,71.44c17.72,28.93,8.89,59.55,34.57,70.19,45.92,19,118.45-58.71,161.42-40.26,28.85,12.39,8.68,55.08,55.39,84.13,11.73,7.3,26.95,13.26,26,21.86-1,8.93-18.23,10.67-32.8,19.95-36.3,23.12-10.28,64.08-36.47,80.51-28.37,17.8-72.53-21.7-117.52-8.25-60.43,18.06-37.7,106.32-95.24,123.35-51,15.11-115-40.63-144.54-21.68-17.32,11.14-1.85,34.65-21.61,48.76C65.12,463.79,27.91,457.37,0,450Z"/></svg>