<svg id="visual" xmlns="http://www.w3.org/2000/svg" viewBox="0 0 767 450"><defs><style>.cls-1{fill:#453c67;}.cls-2{fill:#f2f7a1;}.cls-3{fill:#fff;}.cls-4{fill:#46c2cb;}.cls-5{fill:#6d67e4;}.cls-6,.cls-8{fill:#25223a;}.cls-11,.cls-15,.cls-6,.cls-7{opacity:0.2;}.cls-11,.cls-15,.cls-6{isolation:isolate;}.cls-9{fill:#bdc3c7;}.cls-10{fill:#a8edef;}.cls-11,.cls-12{fill:#323232;}.cls-13{fill:#eded8e;}.cls-14{fill:#ddda76;}</style></defs><title>backgroundnaut</title><g id="Layer_1-2" data-name="Layer 1-2"><path class="cls-1" d="M464.08,122.21c34.42,33.53,70.14,29,114.3,19.93,47.4-9.72,172.1-55.28,174-39.87,1.15,9.1-170.15,54.37-166.25,86.09s80.53,11.78,82.47,28.1S537.47,243.64,461.48,341.52c-48.71,62.75-24.67-2.72,11.69-42.59S524.68,212,487.46,190.18c-57.15-33.54-63.93-129.8-53.25-122.35C439.4,71.46,447.24,105.8,464.08,122.21Z"/></g><circle class="cls-2" cx="126.08" cy="225" r="260.52"/><g id="Layer_1-2-2" data-name="Layer 1-2"><path class="cls-3" d="M645.74,62.73a1.62,1.62,0,0,0,1.43-1.43c.05-.6.45-3.24.45-3.24s.34,2.64.45,3.24a1.58,1.58,0,0,0,1.42,1.42l3.24.45s-2.64.38-3.24.45a1.53,1.53,0,0,0-1.42,1.43c-.08.6-.45,3.24-.45,3.24s-.39-2.64-.45-3.24a1.58,1.58,0,0,0-1.43-1.43c-.6-.06-3.24-.45-3.24-.45S645.14,62.79,645.74,62.73Z"/><path class="cls-3" d="M652.06,70.22a1.08,1.08,0,0,0,1-1c0-.41.31-2.2.31-2.2s.23,1.8.3,2.2a1.08,1.08,0,0,0,1,1l2.2.31-2.2.31a1,1,0,0,0-1,1c-.06.4-.31,2.2-.31,2.2s-.27-1.8-.31-2.2a1,1,0,0,0-1-1l-2.2-.31Z"/></g><g id="Layer_1-2-3" data-name="Layer 1-2"><path class="cls-3" d="M425.84,308.4a2,2,0,0,0,1.77-1.77c.06-.74.56-4,.56-4s.42,3.29.56,4a2,2,0,0,0,1.77,1.77l4,.56-4,.56a1.9,1.9,0,0,0-1.77,1.77c-.1.74-.56,4-.56,4s-.48-3.27-.56-4a2,2,0,0,0-1.77-1.77c-.74-.08-4-.56-4-.56S425.1,308.49,425.84,308.4Z"/></g><g id="Layer_1-2-4" data-name="Layer 1-2"><path class="cls-3" d="M430.77,169.05a2.06,2.06,0,0,0,1.83-1.83c.07-.77.58-4.16.58-4.16s.44,3.4.58,4.16a2,2,0,0,0,1.83,1.83l4.15.58-4.15.57a2,2,0,0,0-1.83,1.84c-.1.76-.58,4.15-.58,4.15s-.5-3.39-.58-4.15a2,2,0,0,0-1.83-1.84c-.77-.08-4.15-.57-4.15-.57S430,169.14,430.77,169.05Z"/></g><g id="Layer_1-2-5" data-name="Layer 1-2"><path class="cls-3" d="M460,76.23a2.16,2.16,0,0,0,1.91-1.91c.06-.79.6-4.31.6-4.31s.45,3.53.59,4.31A2.13,2.13,0,0,0,465,76.23l4.32.6s-3.52.5-4.32.6a2,2,0,0,0-1.9,1.91l-.6,4.31s-.53-3.52-.61-4.31a2.09,2.09,0,0,0-1.9-1.91c-.8-.09-4.32-.6-4.32-.6S459.19,76.32,460,76.23Z"/><path class="cls-3" d="M468.42,86.24a1.48,1.48,0,0,0,1.3-1.3c0-.55.41-2.94.41-2.94s.31,2.4.41,2.94a1.43,1.43,0,0,0,1.29,1.29l2.94.41-2.94.41a1.39,1.39,0,0,0-1.29,1.3c-.07.54-.41,2.94-.41,2.94s-.36-2.4-.41-2.94a1.42,1.42,0,0,0-1.3-1.3c-.54-.06-2.94-.41-2.94-.41S467.88,86.3,468.42,86.24Z"/></g><g id="Layer_1-2-6" data-name="Layer 1-2"><path class="cls-3" d="M475.56,389.9a1.7,1.7,0,0,0,1.5-1.5c.05-.63.47-3.4.47-3.4s.36,2.78.47,3.4a1.67,1.67,0,0,0,1.5,1.5l3.4.47-3.4.47a1.61,1.61,0,0,0-1.5,1.5c-.08.62-.47,3.4-.47,3.4s-.41-2.77-.47-3.4a1.66,1.66,0,0,0-1.5-1.5c-.63-.07-3.4-.47-3.4-.47S474.93,390,475.56,389.9Z"/></g><g id="Layer_1-2-7" data-name="Layer 1-2"><path class="cls-3" d="M623.65,348a2.21,2.21,0,0,0,2-1.95c.06-.81.61-4.39.61-4.39s.46,3.59.61,4.39a2.16,2.16,0,0,0,1.94,1.95l4.4.61-4.4.61a2.08,2.08,0,0,0-1.94,1.94c-.11.81-.61,4.4-.61,4.4s-.53-3.59-.62-4.4a2.11,2.11,0,0,0-1.94-1.94c-.81-.09-4.39-.61-4.39-.61S622.84,348.08,623.65,348Z"/></g><g id="Layer_1-2-8" data-name="Layer 1-2"><path class="cls-3" d="M540.06,351.1a2,2,0,0,0,1.72-1.71c.06-.72.54-3.88.54-3.88s.41,3.17.54,3.88a1.9,1.9,0,0,0,1.71,1.71l3.88.54-3.88.54a1.83,1.83,0,0,0-1.71,1.72l-.54,3.88s-.47-3.17-.54-3.88a1.89,1.89,0,0,0-1.72-1.72c-.71-.08-3.88-.54-3.88-.54Z"/><path class="cls-3" d="M547.65,360.1a1.32,1.32,0,0,0,1.16-1.17c0-.49.37-2.64.37-2.64s.28,2.16.37,2.64a1.29,1.29,0,0,0,1.16,1.17l2.65.37-2.65.36a1.25,1.25,0,0,0-1.16,1.17l-.37,2.64s-.32-2.15-.37-2.64a1.27,1.27,0,0,0-1.16-1.17c-.49-.05-2.65-.36-2.65-.36Z"/></g><g id="Layer_1-2-9" data-name="Layer 1-2"><path class="cls-3" d="M719.91,255.83a1.94,1.94,0,0,0,1.71-1.71c0-.71.53-3.86.53-3.86s.41,3.16.54,3.86a1.9,1.9,0,0,0,1.7,1.71l3.87.53s-3.15.45-3.87.54a1.83,1.83,0,0,0-1.7,1.71l-.54,3.86s-.46-3.15-.54-3.86a1.85,1.85,0,0,0-1.7-1.71c-.71-.08-3.87-.54-3.87-.54S719.2,255.91,719.91,255.83Z"/></g><g id="Layer_1-2-10" data-name="Layer 1-2"><path class="cls-3" d="M708.53,152.63a1.74,1.74,0,0,0,1.54-1.54c0-.64.48-3.48.48-3.48s.37,2.85.48,3.48a1.7,1.7,0,0,0,1.54,1.54l3.47.48-3.47.48a1.65,1.65,0,0,0-1.54,1.54c-.08.64-.48,3.48-.48,3.48s-.42-2.84-.49-3.48a1.67,1.67,0,0,0-1.53-1.54c-.64-.07-3.48-.48-3.48-.48S707.89,152.7,708.53,152.63Z"/></g><g id="Layer_1-2-11" data-name="Layer 1-2"><path class="cls-3" d="M556.12,113.33a1.86,1.86,0,0,0,1.64-1.64c0-.69.51-3.71.51-3.71s.39,3,.52,3.71a1.81,1.81,0,0,0,1.63,1.63l3.71.52-3.71.52a1.74,1.74,0,0,0-1.63,1.63c-.1.68-.52,3.71-.52,3.71s-.45-3-.52-3.71a1.79,1.79,0,0,0-1.63-1.64c-.68-.07-3.71-.51-3.71-.51S555.44,113.4,556.12,113.33Z"/></g><g id="Layer_1-2-12" data-name="Layer 1-2"><path class="cls-3" d="M683.86,210.8a2,2,0,0,0,1.72-1.71c.06-.72.54-3.89.54-3.89s.41,3.18.54,3.89a1.9,1.9,0,0,0,1.71,1.71l3.88.54s-3.16.45-3.88.54a1.83,1.83,0,0,0-1.71,1.71l-.54,3.89s-.47-3.17-.54-3.89a1.87,1.87,0,0,0-1.72-1.71c-.71-.08-3.88-.54-3.88-.54S683.15,210.88,683.86,210.8Z"/><path class="cls-3" d="M691.45,219.8a1.33,1.33,0,0,0,1.17-1.17c0-.49.36-2.64.36-2.64s.28,2.16.37,2.64a1.31,1.31,0,0,0,1.17,1.17l2.64.36-2.64.37a1.25,1.25,0,0,0-1.17,1.17c-.06.48-.37,2.64-.37,2.64s-.32-2.15-.37-2.64a1.27,1.27,0,0,0-1.16-1.17c-.49-.05-2.64-.37-2.64-.37S691,219.85,691.45,219.8Z"/></g><circle class="cls-4" cx="348.64" cy="79.9" r="2.06"/><circle class="cls-3" cx="446.26" cy="62.94" r="1.35"/><circle class="cls-3" cx="509.11" cy="128.15" r="2.27"/><circle class="cls-3" cx="589.67" cy="59.6" r="1.54"/><circle class="cls-4" cx="635.19" cy="268.81" r="2.03"/><circle class="cls-3" cx="485.25" cy="264.82" r="2.35"/><circle class="cls-3" cx="649.52" cy="140.93" r="1.9"/><circle class="cls-3" cx="488.78" cy="183.57" r="1.96"/><circle class="cls-4" cx="389.35" cy="378.38" r="2.19"/><circle class="cls-3" cx="534.9" cy="387.92" r="2.45"/><circle class="cls-3" cx="696.46" cy="345.12" r="3.48"/><circle class="cls-4" cx="746.09" cy="293.88" r="2.35"/><circle class="cls-3" cx="729.81" cy="166.9" r="1.55"/><circle class="cls-4" cx="617.6" cy="22.18" r="1.6"/><g id="Layer_1-2-13" data-name="Layer 1-2"><path class="cls-5" d="M399.42,346.46l-1.79-4.77a7.6,7.6,0,0,0-4.79-4.52L388,335.64a7.55,7.55,0,0,0-6.54,1l-4.25,2.84a5.4,5.4,0,0,0-.46.33,7.67,7.67,0,0,0-3,5.35l-.45,5.09a7.54,7.54,0,0,0,2.32,6.15l3.7,3.49a7.54,7.54,0,0,0,6.29,2l5.07-.72a7.76,7.76,0,0,0,5-2.92c.19-.25.36-.5.52-.76l2.61-4.42a7.52,7.52,0,0,0,.59-6.55Z"/><path class="cls-6" d="M395.7,358.19a7.81,7.81,0,0,1-5,2.92l-5.06.72a7.54,7.54,0,0,1-6.29-2l-3.7-3.49a7.58,7.58,0,0,1-2.33-6.15l.46-5.09a7.7,7.7,0,0,1,2.94-5.35,7.76,7.76,0,0,0-1.57,4l-.45,5.09A7.58,7.58,0,0,0,377,355l3.69,3.49a7.57,7.57,0,0,0,6.3,2l5.06-.72a7.76,7.76,0,0,0,3.62-1.54Z"/><path class="cls-6" d="M383.39,344.47a2.76,2.76,0,1,1-2.76-2.76A2.76,2.76,0,0,1,383.39,344.47Z"/><g class="cls-7"><path class="cls-8" d="M380.18,352.27a1.38,1.38,0,1,1-1.38-1.38A1.37,1.37,0,0,1,380.18,352.27Z"/><path class="cls-8" d="M389.35,340.8a1.38,1.38,0,0,1-2.75,0,1.38,1.38,0,1,1,2.75,0Z"/><path class="cls-8" d="M392.57,353.64a.92.92,0,1,1-.92-.92A.92.92,0,0,1,392.57,353.64Z"/><path class="cls-8" d="M387.52,349.51a1.38,1.38,0,1,1-2.75,0,1.38,1.38,0,0,1,2.75,0Z"/><path class="cls-8" d="M386.09,358.29a1.38,1.38,0,1,1-1.38-1.38A1.37,1.37,0,0,1,386.09,358.29Z"/></g><path class="cls-9" d="M395.32,352.27a.47.47,0,0,1-.33-.14.46.46,0,0,1-.13-.32.39.39,0,0,1,0-.18.6.6,0,0,1,.09-.15.49.49,0,0,1,.5-.1.44.44,0,0,1,.25.25.58.58,0,0,1,0,.18.45.45,0,0,1-.14.32.31.31,0,0,1-.15.1A.47.47,0,0,1,395.32,352.27Z"/><path class="cls-9" d="M387.06,355a.44.44,0,0,1-.46-.46.57.57,0,0,1,0-.18,1.3,1.3,0,0,1,.1-.15.48.48,0,0,1,.5-.09.4.4,0,0,1,.25.24.58.58,0,0,1,0,.18.47.47,0,0,1-.14.33.38.38,0,0,1-.15.09A.33.33,0,0,1,387.06,355Z"/><path class="cls-9" d="M383.39,354.56a.49.49,0,0,1-.33-.13.51.51,0,0,1-.13-.33.57.57,0,0,1,0-.18,1.3,1.3,0,0,1,.1-.15.48.48,0,0,1,.5-.09.38.38,0,0,1,.15.09.65.65,0,0,1,.1.15.58.58,0,0,1,0,.18.43.43,0,0,1-.29.42A.33.33,0,0,1,383.39,354.56Z"/><path class="cls-9" d="M387.52,345.38a.46.46,0,0,1-.33-.13.49.49,0,0,1-.13-.33.47.47,0,0,1,0-.17.56.56,0,0,1,.1-.15.47.47,0,0,1,.5-.1.46.46,0,0,1,.25.25.47.47,0,0,1,0,.17.46.46,0,0,1-.29.43A.47.47,0,0,1,387.52,345.38Z"/><path class="cls-6" d="M398.82,353l-2.6,4.42c-.16.26-.33.51-.52.76a7.61,7.61,0,0,1-2.15,1.17,4.81,4.81,0,0,0,.37-.55l2.61-4.42a7.58,7.58,0,0,0,.6-6.56l-1.8-4.76a7.6,7.6,0,0,0-4.78-4.53L385.69,337a7.56,7.56,0,0,0-5.26.25l1-.67a7.55,7.55,0,0,1,6.54-1l4.86,1.52a7.6,7.6,0,0,1,4.78,4.53l1.8,4.77a7.56,7.56,0,0,1-.6,6.55Z"/><path class="cls-6" d="M397.15,345.84a2.75,2.75,0,1,1-2.75-2.75A2.76,2.76,0,0,1,397.15,345.84Z"/><path d="M395.32,352.27a.47.47,0,0,1-.33-.14.46.46,0,0,1-.13-.32.39.39,0,0,1,0-.18.6.6,0,0,1,.09-.15.49.49,0,0,1,.5-.1.44.44,0,0,1,.25.25.58.58,0,0,1,0,.18.45.45,0,0,1-.14.32.31.31,0,0,1-.15.1A.47.47,0,0,1,395.32,352.27Z"/><path d="M387.06,355a.44.44,0,0,1-.46-.46.57.57,0,0,1,0-.18,1.3,1.3,0,0,1,.1-.15.48.48,0,0,1,.5-.09.4.4,0,0,1,.25.24.58.58,0,0,1,0,.18.47.47,0,0,1-.14.33.38.38,0,0,1-.15.09A.33.33,0,0,1,387.06,355Z"/><path d="M383.39,354.56a.49.49,0,0,1-.33-.13.51.51,0,0,1-.13-.33.57.57,0,0,1,0-.18,1.3,1.3,0,0,1,.1-.15.48.48,0,0,1,.5-.09.38.38,0,0,1,.15.09.65.65,0,0,1,.1.15.58.58,0,0,1,0,.18.43.43,0,0,1-.29.42A.33.33,0,0,1,383.39,354.56Z"/><path d="M387.52,345.38a.46.46,0,0,1-.33-.13.49.49,0,0,1-.13-.33.47.47,0,0,1,0-.17.56.56,0,0,1,.1-.15.47.47,0,0,1,.5-.1.46.46,0,0,1,.25.25.47.47,0,0,1,0,.17.46.46,0,0,1-.29.43A.47.47,0,0,1,387.52,345.38Z"/><path d="M398.06,341.53a8.14,8.14,0,0,0-5.08-4.8l-4.87-1.53a8.1,8.1,0,0,0-6.93,1l-4.25,2.84a8.13,8.13,0,0,0-3.61,6l-.45,5.1a7.94,7.94,0,0,0,2.46,6.52l3.7,3.48a7.9,7.9,0,0,0,5.49,2.19,9.36,9.36,0,0,0,1.18-.08l5.06-.72a8.14,8.14,0,0,0,5.85-3.9l2.61-4.41a8,8,0,0,0,.63-6.95l-1.8-4.77Zm.37,11.25h0l-2.6,4.41a7.24,7.24,0,0,1-5.19,3.46l-5.07.72a7.07,7.07,0,0,1-5.91-1.86L376,356a7,7,0,0,1-2.18-5.77l.45-5.09a7.26,7.26,0,0,1,3.2-5.35l4.26-2.84a7.17,7.17,0,0,1,6.15-.89l4.86,1.52a7.21,7.21,0,0,1,4.5,4.25l1.79,4.76a7.08,7.08,0,0,1-.56,6.16h0Z"/><path d="M394.4,342.63a3.21,3.21,0,1,0,2.27.94,3.21,3.21,0,0,0-2.27-.94Zm1.62,4.84a2.3,2.3,0,1,1-1.17-3.88,2.3,2.3,0,0,1,1.18,3.88Z"/><path d="M383.85,344.47a3.21,3.21,0,1,0-.94,2.27A3.21,3.21,0,0,0,383.85,344.47Zm-3.21,2.29a2.29,2.29,0,1,1,1.62-.67,2.28,2.28,0,0,1-1.62.67Z"/><path d="M378.8,350.43a1.83,1.83,0,0,0-.7,3.53,1.83,1.83,0,1,0,.7-3.53Zm.65,2.48a.94.94,0,0,1-1.3,0,.92.92,0,1,1,1.3,0Z"/><path d="M388,339a1.84,1.84,0,1,0,1.29.54A1.8,1.8,0,0,0,388,339Zm.65,2.48a.94.94,0,0,1-1.3,0,.91.91,0,0,1,.65-1.56.92.92,0,0,1,.65,1.56Z"/><path d="M390.69,352.67a1.37,1.37,0,0,0-.36,1.33,1.39,1.39,0,0,0,1,1,1.37,1.37,0,1,0-.62-2.3h0ZM392,354a.47.47,0,0,1-.58,0,.46.46,0,0,1,.34-.83.45.45,0,0,1,.37.45.44.44,0,0,1-.13.33Z"/><path d="M386.14,347.68a1.84,1.84,0,1,0,1.3.54,1.82,1.82,0,0,0-1.3-.54Zm.65,2.48a.94.94,0,0,1-1.3,0,.92.92,0,0,1,.65-1.56.91.91,0,0,1,.65,1.56Z"/><path d="M384.71,356.45a1.84,1.84,0,1,0,1.3.54A1.81,1.81,0,0,0,384.71,356.45Zm.65,2.48a.94.94,0,0,1-1.3,0,.91.91,0,0,1-.2-1,.92.92,0,0,1,1.7,0A.91.91,0,0,1,385.36,358.93Z"/></g><g id="Layer_1-2-14" data-name="Layer 1-2"><g id="Fill_Outline" data-name="Fill Outline"><g id="Color"><path class="cls-10" d="M500.81,58.71a2.75,2.75,0,0,0,1.47-2.4A7.5,7.5,0,0,1,504.42,51a16.87,16.87,0,0,1,28,16.16,3.38,3.38,0,0,1-1.57,2.17,1.94,1.94,0,0,0-.47.34l-.66.58a2.87,2.87,0,0,0-.78,1.18l-.09.29a6.1,6.1,0,0,0-.28,1.59,3.34,3.34,0,0,1-1,2.18,16.9,16.9,0,0,1-18.93,2.9,3.32,3.32,0,0,1-1.81-2.28,2.86,2.86,0,0,0-.64-1.29l-.24-.26a5.17,5.17,0,0,0-2.2-1.45l-.45-.14h0a3.54,3.54,0,0,1-2.07-1.65,16.78,16.78,0,0,1-1.87-10.74,2.41,2.41,0,0,1,1.32-1.77l.09,0Z"/><path class="cls-4" d="M529,71.24l-.06.14-.09.29a6.1,6.1,0,0,0-.28,1.59,3.29,3.29,0,0,1-1,2.18,16.91,16.91,0,0,1-18.94,2.9,3.28,3.28,0,0,1-1.8-2.28,2.78,2.78,0,0,0-.65-1.29l-.23-.26a5.23,5.23,0,0,0-2.2-1.45l-.44-.14h0a3.57,3.57,0,0,1-2.07-1.65,16.79,16.79,0,0,1-1.87-10.74,2.39,2.39,0,0,1,1.32-1.77l.08,0a2.76,2.76,0,0,0,1.07-1,2.82,2.82,0,0,0,.41-1.41A7.5,7.5,0,0,1,504.43,51a17.05,17.05,0,0,1,4.62-3.13A16.68,16.68,0,0,0,507,55a3.63,3.63,0,0,0,.89,2.5c.4.46.4.46,0,0l.29.36a5.1,5.1,0,0,1,1.1,2.38l.07.36a2.83,2.83,0,0,1-.14,1.44,3.3,3.3,0,0,0,.33,2.88,16.85,16.85,0,0,0,17.59,7.57,3.17,3.17,0,0,0,1.92-1.25h0Z"/><path class="cls-10" d="M507.24,49.21l-1.48-.76a1.46,1.46,0,0,0-2,.63.93.93,0,0,0-.12.33,1.47,1.47,0,0,1-.43.73l-.23.21a1.48,1.48,0,0,0-.15,2l.78,1,3.61-4.12Z"/><path class="cls-11" d="M503.14,50.31a17.33,17.33,0,0,1,2.56-.61,2.74,2.74,0,0,0,1.37-.57l.17.08-3.61,4.12-.78-1a1.46,1.46,0,0,1,.15-2l.14,0Z"/><path class="cls-10" d="M525,76.2l.39.79a1.11,1.11,0,0,1-.51,1.47.48.48,0,0,1-.18.06h0a1.16,1.16,0,0,0-.65.5,1.1,1.1,0,0,1-1.5.39l-.15-.11-1.32-1.13,3.94-2Z"/><path class="cls-10" d="M512,55.43l.65.73a2.78,2.78,0,0,1,.57,2.72,2.72,2.72,0,0,1-1.28,1.53l-.66.37A2.76,2.76,0,0,1,509,61l-.68-.22a2.84,2.84,0,0,1-1.18-.78l-.58-.65a2.77,2.77,0,0,1-.51-2.86l.23-.58a2.77,2.77,0,0,1,1.84-1.64h0a2.72,2.72,0,0,1,1.6,0l1.05.35a2.78,2.78,0,0,1,1.18.78Z"/><path class="cls-10" d="M517.6,70.78l.56-.38a2.68,2.68,0,0,1,3,0l.13.09a2.69,2.69,0,0,1,1.2,2.23V73a2.68,2.68,0,0,1-2,2.6l-.57.14a2.7,2.7,0,0,1-2.14-.37l-.12-.08a2.67,2.67,0,0,1,0-4.46Z"/><path class="cls-10" d="M521.77,58.19l.35-.23A1.66,1.66,0,0,1,524,58l.09.06a1.65,1.65,0,0,1,.73,1.38v.14a1.67,1.67,0,0,1-1.25,1.61l-.36.09a1.67,1.67,0,0,1-1.32-.23l-.08-.06a1.66,1.66,0,0,1-.66-1.91,1.64,1.64,0,0,1,.66-.85Z"/><path class="cls-10" d="M529.33,65.17l.35-.23a1.64,1.64,0,0,1,1.85,0l.08,0a1.67,1.67,0,0,1,.74,1.38v.14a1.67,1.67,0,0,1-1.26,1.62l-.35.08a1.68,1.68,0,0,1-1.33-.23l-.08,0a1.66,1.66,0,0,1-.65-1.91,1.63,1.63,0,0,1,.65-.86h0Z"/><path class="cls-10" d="M513.05,63.43l.35-.24a1.66,1.66,0,0,1,1.84,0l.08.06a1.65,1.65,0,0,1,.74,1.38v.14a1.65,1.65,0,0,1-1.26,1.61l-.35.09a1.69,1.69,0,0,1-1.33-.23l-.07,0a1.66,1.66,0,0,1-.66-1.91,1.7,1.7,0,0,1,.66-.86Z"/><path class="cls-10" d="M516.53,50.63l.36-.23a1.63,1.63,0,0,1,1.84,0l.08.05a1.65,1.65,0,0,1,.74,1.39V52a1.67,1.67,0,0,1-1.26,1.62l-.35.08a1.65,1.65,0,0,1-1.33-.23l-.08,0a1.66,1.66,0,0,1-.65-1.91,1.74,1.74,0,0,1,.65-.86h0Z"/><circle class="cls-10" cx="523.62" cy="64.91" r="1.16"/><circle class="cls-10" cx="510.82" cy="74.21" r="1.16"/><circle class="cls-10" cx="507.92" cy="67.81" r="1.16"/><path class="cls-10" d="M503.7,66.73V67a2.69,2.69,0,0,1-2,2.61l-.57.14a2.78,2.78,0,0,1-.57.07,16.71,16.71,0,0,1-1.29-5.25l.17-.11a2.68,2.68,0,0,1,3,0l.13.09a2.66,2.66,0,0,1,1.19,2.23Z"/><path class="cls-10" d="M532.9,62.27a2.53,2.53,0,0,1-1.19-.11l-.68-.23a2.69,2.69,0,0,1-1.18-.78l-.58-.65a2.75,2.75,0,0,1-.51-2.86l.23-.58a2.75,2.75,0,0,1,1.84-1.64h0l.17,0a16.79,16.79,0,0,1,1.9,6.89h0Z"/><path class="cls-11" d="M509.34,60.59l-.07-.35a5.09,5.09,0,0,0-1.1-2.39l-.29-.36h0A3.62,3.62,0,0,1,507,55a.15.15,0,0,1,0-.07,2.79,2.79,0,0,0-.68,1l-.23.57a2.76,2.76,0,0,0,.51,2.87l.58.65a2.78,2.78,0,0,0,1.18.78L509,61l.34.07a4,4,0,0,0,0-.49Z"/><path class="cls-11" d="M512.63,56.16l-.65-.73a2.75,2.75,0,0,0-1.18-.78l-1.05-.35a2.73,2.73,0,0,0-1.6,0h0a2.81,2.81,0,0,0-1,.5,2.7,2.7,0,0,1,.85.13l1,.35a2.81,2.81,0,0,1,1.19.78l.65.73a2.76,2.76,0,0,1-.22,3.9,2.32,2.32,0,0,1-.49.35l-.23.13a2.64,2.64,0,0,0,1.31-.34l.66-.37A2.75,2.75,0,0,0,513,56.65a2.09,2.09,0,0,0-.35-.49Z"/><path class="cls-11" d="M521.26,70.49l-.13-.09a2.68,2.68,0,0,0-3,0l-.56.38a2.69,2.69,0,0,0-.75,3.72,2.78,2.78,0,0,0,.75.74l.12.08a2.7,2.7,0,0,0,2.14.37l.57-.14a2.68,2.68,0,0,0,2-2.6v-.23a2.69,2.69,0,0,0-1.2-2.23Zm-4.27.88h0l.56-.38a2.68,2.68,0,0,1,3,0l.14.09a2.7,2.7,0,0,1,1.12,1.62A16.77,16.77,0,0,1,517,71.37Z"/><path class="cls-11" d="M524.78,59.4v.14a1.67,1.67,0,0,1-1.25,1.61l-.34.08a1.63,1.63,0,0,0,.43-1.11V60a1.66,1.66,0,0,0-.74-1.38l-.09-.06a1.67,1.67,0,0,0-1.13-.26l.11-.09.35-.23A1.66,1.66,0,0,1,524,58l.08,0a1.68,1.68,0,0,1,.74,1.39Z"/><path class="cls-11" d="M519.55,51.84V52a1.66,1.66,0,0,1-1.26,1.61l-.34.08a1.58,1.58,0,0,0,.43-1.11v-.14a1.69,1.69,0,0,0-.73-1.38l-.09-.06a1.68,1.68,0,0,0-1.13-.26l.1-.09.36-.23a1.65,1.65,0,0,1,1.83,0l.09.05a1.68,1.68,0,0,1,.74,1.39Z"/><path class="cls-11" d="M528.81,58.65a2.74,2.74,0,0,1,1-1l.76-.43a2.58,2.58,0,0,1,1.12-.35c-.21-.52-.44-1-.69-1.51l-.17.05h0A2.76,2.76,0,0,0,529,57.06l-.22.58a2.78,2.78,0,0,0-.17,1.37l.21-.36Z"/><path class="cls-11" d="M532.34,66.38v.14a1.67,1.67,0,0,1-.58,1.27v-.25a1.68,1.68,0,0,0-.73-1.38l-.09-.06a1.66,1.66,0,0,0-1.84,0l-.35.24-.16.12a1.57,1.57,0,0,1,.09-.43,1.65,1.65,0,0,1,.66-.86l.35-.23a1.65,1.65,0,0,1,1.83,0l.09,0a1.68,1.68,0,0,1,.74,1.39h0Z"/><path class="cls-11" d="M516.06,64.63v.14a1.65,1.65,0,0,1-.59,1.27.37.37,0,0,0,0-.11v-.14a1.67,1.67,0,0,0-.74-1.38l-.08,0a1.63,1.63,0,0,0-1.84,0l-.35.23-.16.12a1.56,1.56,0,0,1,.08-.43,1.64,1.64,0,0,1,.66-.85l.35-.24a1.66,1.66,0,0,1,1.84,0l.09.06a1.64,1.64,0,0,1,.73,1.38Z"/><path class="cls-11" d="M523.62,63.74a1.16,1.16,0,0,0-1.06.69A1.16,1.16,0,0,1,524.1,66a1.16,1.16,0,0,0-.48-2.22Z"/><path class="cls-11" d="M507.92,66.65a1.17,1.17,0,0,0-1.06.68,1.17,1.17,0,0,1,1.54.58,1.23,1.23,0,0,1,0,1,1.16,1.16,0,0,0-.48-2.22Z"/><path class="cls-11" d="M510.82,73.05a1.15,1.15,0,0,0-1.05.68,1.16,1.16,0,0,1,1.53,1.54,1.16,1.16,0,0,0-.48-2.22Z"/><path class="cls-11" d="M503.7,66.72V67a2.66,2.66,0,0,1-2,2.58l-.58.14-.13,0a2.64,2.64,0,0,0,1.12-2.16V67.3a2.66,2.66,0,0,0-1.18-2.21l-.13-.08a2.66,2.66,0,0,0-1.52-.45v0l.17-.11a2.64,2.64,0,0,1,2.95,0l.13.09a2.62,2.62,0,0,1,1.18,2.21Z"/><path class="cls-10" d="M527,52.91a2.14,2.14,0,0,0,2.33-1.11l.09-.17a1.47,1.47,0,0,0-.63-2,1.4,1.4,0,0,0-.34-.13,1.34,1.34,0,0,1-.73-.43l-.21-.22a1.46,1.46,0,0,0-2-.15l-1.06.82,1,2.19a2.14,2.14,0,0,0,1.5,1.19h0Z"/></g><g id="Outline_copy" data-name="Outline copy"><path class="cls-12" d="M529.69,52.36l.24-.44a2.06,2.06,0,0,0-.88-2.77,2.64,2.64,0,0,0-.47-.17.89.89,0,0,1-.45-.26l-.21-.22a2,2,0,0,0-2.76-.22l-1.06.82a.58.58,0,0,0,.72.92l1.06-.83a.89.89,0,0,1,1.2.1l.2.22a2,2,0,0,0,1,.6.89.89,0,0,1,.66,1.07.7.7,0,0,1-.08.2L528.06,53a.59.59,0,0,0,.25.78.57.57,0,0,0,.67-.1.48.48,0,0,0,.12-.16h0a16.65,16.65,0,0,1,1,1.58,3.38,3.38,0,0,0-1.71,1.8l-.23.57a3.34,3.34,0,0,0,.62,3.47l.58.65a3.46,3.46,0,0,0,1.43,1l.68.22a3.84,3.84,0,0,0,.81.15,17.6,17.6,0,0,1-.07,1.92,3.17,3.17,0,0,0-.34-.28l-.08,0a2.22,2.22,0,0,0-2.49,0l-.35.23a2.25,2.25,0,0,0-.42,3.37,2.27,2.27,0,0,0,.44.38l.06,0a2.28,2.28,0,0,0,1.24.37h.17a2.73,2.73,0,0,0-.47.35l-.66.58a3.38,3.38,0,0,0-.94,1.43l-.1.29a7.75,7.75,0,0,0-.31,1.73,2.72,2.72,0,0,1-.8,1.8,16.31,16.31,0,0,1-1.51,1.24l-.14-.29a.58.58,0,1,0-1.05.49l.38.79a.5.5,0,0,1,0,.43.54.54,0,0,1-.34.29,1.65,1.65,0,0,0-1,.76.53.53,0,0,1-.71.18l-.07-.05-1.33-1.13a.58.58,0,0,0-.82.06.58.58,0,0,0,.07.82h0l.11.1A16.24,16.24,0,0,1,509,77.84,2.71,2.71,0,0,1,507.46,76a.59.59,0,0,0-.7-.44.58.58,0,0,0-.44.67,3.85,3.85,0,0,0,2.12,2.68,17.5,17.5,0,0,0,13.45.75l.16.14a1.68,1.68,0,0,0,1.09.39,1.27,1.27,0,0,0,.28,0,1.66,1.66,0,0,0,1.17-.8.53.53,0,0,1,.31-.24,1.66,1.66,0,0,0,1.22-1.68A17.62,17.62,0,0,0,528,75.88a3.88,3.88,0,0,0,1.16-2.56,6,6,0,0,1,.25-1.45l.1-.28a2.18,2.18,0,0,1,.62-.94l.65-.59a3.09,3.09,0,0,1,.37-.26A4,4,0,0,0,533,67.27a17.32,17.32,0,0,0-3.34-14.92h0Zm1.52,9a2.31,2.31,0,0,1-.93-.62l-.58-.65a2.18,2.18,0,0,1-.4-2.26l.23-.58a2.17,2.17,0,0,1,1.18-1.18,16.25,16.25,0,0,1,1.56,5.59,1.53,1.53,0,0,1-.37-.08l-.68-.22Zm-1.48,6.11-.08,0a1.08,1.08,0,0,1,0-1.8l.35-.23a1,1,0,0,1,1.19,0l.09,0a1.08,1.08,0,0,1,.48.9v.14a1.08,1.08,0,0,1-.82,1l-.35.09a1,1,0,0,1-.86-.15Z"/><path class="cls-12" d="M506.17,73.84A5.93,5.93,0,0,0,504,72.52l-.41-.14-.05,0A3.07,3.07,0,0,1,501.77,71c-.14-.25-.26-.51-.39-.76l.43-.11A3.24,3.24,0,0,0,504.28,67v-.22A3.24,3.24,0,0,0,502.84,64l-.13-.08a3.22,3.22,0,0,0-2.92-.35c0-.14,0-.28,0-.42a16.75,16.75,0,0,1,.2-2.55,1.8,1.8,0,0,1,1-1.33l.11-.05a3.44,3.44,0,0,0,1.28-1.2,3.3,3.3,0,0,0,.5-1.7,8.11,8.11,0,0,1,.44-2.53.6.6,0,0,0,.32.12.59.59,0,0,0,.46-.94l-.78-1a.89.89,0,0,1,.1-1.2l.22-.21a2,2,0,0,0,.6-1,.89.89,0,0,1,1.07-.66l.2.08,1.48.77a.58.58,0,0,0,.79-.25h0a.57.57,0,0,0,0-.34,16.17,16.17,0,0,1,9.63-2.21,15.9,15.9,0,0,1,5.2,1.34.58.58,0,0,0,.48-1.06,17.22,17.22,0,0,0-5.58-1.44,17.41,17.41,0,0,0-10.69,2.58l-.82-.43a2.06,2.06,0,0,0-2.76.88,2,2,0,0,0-.17.47.89.89,0,0,1-.26.45l-.22.2a2,2,0,0,0-.22,2.77l.07.1a9.22,9.22,0,0,0-.76,3.51,2.22,2.22,0,0,1-.33,1.12,2.17,2.17,0,0,1-.82.77l-.08,0a3,3,0,0,0-1.64,2.2,17.41,17.41,0,0,0,1.93,11.12,4.17,4.17,0,0,0,2.37,1.91h0l.44.15a4.67,4.67,0,0,1,1.74,1.06.58.58,0,0,0,.82,0,.59.59,0,0,0,0-.81h0Zm-4.11-8.94.12.09a2,2,0,0,1,.93,1.74V67a2.09,2.09,0,0,1-1.58,2l-.58.14-.08,0a16.13,16.13,0,0,1-1-4.27,2.08,2.08,0,0,1,2.21.08Z"/><path class="cls-12" d="M506.73,60.38a3.43,3.43,0,0,0,1.44.95l.67.22a3.35,3.35,0,0,0,2.7-.25l.42-.24a.58.58,0,1,0-.57-1h0l-.42.24a2.25,2.25,0,0,1-1.76.16l-.68-.22a2.09,2.09,0,0,1-.93-.62L507,59a2.15,2.15,0,0,1-.4-2.26l.22-.57a2.2,2.2,0,0,1,2.73-1.27l1.05.35a2.09,2.09,0,0,1,.93.62l.66.73a2.21,2.21,0,0,1,.44,2.15.58.58,0,1,0,1.1.36,3.37,3.37,0,0,0-.67-3.29l-.66-.73a3.29,3.29,0,0,0-1.43-.94l-1.05-.35a3.34,3.34,0,0,0-4.17,1.94l-.23.57a3.32,3.32,0,0,0,.62,3.46l.58.65Z"/><path class="cls-12" d="M517.3,75.72l.12.09a3.31,3.31,0,0,0,2.6.45l.57-.15A3.24,3.24,0,0,0,523.06,73a.58.58,0,1,0-1.16,0,2.1,2.1,0,0,1-1.59,2l-.57.14a2.1,2.1,0,0,1-1.67-.29l-.12-.08a2.09,2.09,0,0,1-.58-2.91,2,2,0,0,1,.58-.58l.56-.38a2.1,2.1,0,0,1,2.33,0L521,71a2.18,2.18,0,0,1,.4.34.57.57,0,0,0,.82,0,.59.59,0,0,0,0-.82,3.36,3.36,0,0,0-.61-.52l-.14-.09a3.23,3.23,0,0,0-3.62,0l-.56.37a3.27,3.27,0,0,0-.9,4.53,3.21,3.21,0,0,0,.9.9h0Z"/><path class="cls-12" d="M521.79,57.47l-.35.24a2.24,2.24,0,0,0-.62,3.11,2.44,2.44,0,0,0,.62.62l.08.05a2.27,2.27,0,0,0,1.79.31l.36-.09a2.22,2.22,0,0,0,1.69-2.17V59.4a2.26,2.26,0,0,0-1-1.87l-.09-.06a2.25,2.25,0,0,0-2.49,0Zm1.85,1,.08.06a1.07,1.07,0,0,1,.48.89v.14a1.08,1.08,0,0,1-.81,1l-.36.09a1.06,1.06,0,0,1-.86-.15l-.08-.05a1.08,1.08,0,0,1-.3-1.5,1.22,1.22,0,0,1,.3-.3l.35-.23a1.09,1.09,0,0,1,1.2,0Z"/><path class="cls-12" d="M512.8,66.73a2.26,2.26,0,0,0,1.79.31l.35-.09a2.24,2.24,0,0,0,1.7-2.18v-.13a2.24,2.24,0,0,0-1-1.87l-.08-.06a2.25,2.25,0,0,0-2.49,0l-.35.23a2.24,2.24,0,0,0-.62,3.11,2.48,2.48,0,0,0,.62.63Zm.14-2.26a1.14,1.14,0,0,1,.43-.56l.35-.23a1.05,1.05,0,0,1,1.2,0l.08.06a1.07,1.07,0,0,1,.48.9v.13a1.08,1.08,0,0,1-.82,1l-.35.09a1.05,1.05,0,0,1-.86-.15l-.08-.05A1.1,1.1,0,0,1,512.94,64.47Z"/><path class="cls-12" d="M520.13,51.84a2.24,2.24,0,0,0-1-1.87l-.08-.06a2.25,2.25,0,0,0-2.49,0l-.35.23a2.24,2.24,0,0,0-.62,3.11,2.48,2.48,0,0,0,.62.63l.08,0a2.26,2.26,0,0,0,1.79.31l.35-.09a2.24,2.24,0,0,0,1.7-2.17v-.14ZM519,52a1.08,1.08,0,0,1-.82,1.05l-.35.09a1.07,1.07,0,0,1-.87-.15l-.08-.05a1.09,1.09,0,0,1-.29-1.5,1.18,1.18,0,0,1,.29-.3l.36-.23a1,1,0,0,1,1.19,0l.09.06a1.05,1.05,0,0,1,.48.89V52Z"/><path class="cls-12" d="M525.37,64.91a1.75,1.75,0,1,0-1.75,1.74A1.75,1.75,0,0,0,525.37,64.91Zm-1.75.58a.58.58,0,1,1,.58-.58A.58.58,0,0,1,523.62,65.49Z"/><path class="cls-12" d="M510.82,76a1.75,1.75,0,1,0-1.74-1.75A1.75,1.75,0,0,0,510.82,76Zm0-2.33a.58.58,0,1,1-.58.58A.58.58,0,0,1,510.82,73.63Z"/><path class="cls-12" d="M507.92,69.56a1.75,1.75,0,1,0-1.75-1.74A1.74,1.74,0,0,0,507.92,69.56Zm0-2.33a.58.58,0,1,1-.58.58A.58.58,0,0,1,507.92,67.23Z"/><circle class="cls-12" cx="518.97" cy="62.58" r="0.58"/><circle class="cls-12" cx="518.39" cy="57.35" r="0.58"/><circle class="cls-12" cx="524.66" cy="53.15" r="0.58"/><circle class="cls-12" cx="523.62" cy="68.4" r="0.58"/><circle class="cls-12" cx="510.82" cy="50.95" r="0.58"/><circle class="cls-12" cx="505.01" cy="62" r="0.58"/></g></g></g><g id="Layer_1-2-15" data-name="Layer 1-2"><path class="cls-13" d="M703.18,63.71l-.58-.62a1.6,1.6,0,0,1,0-2.18l.58-.62a.39.39,0,0,0-.13-.62l-.77-.35a1.59,1.59,0,0,1-.83-2l.3-.8a.4.4,0,0,0-.35-.53l-.85,0A1.59,1.59,0,0,1,699,54.42l0-.85a.39.39,0,0,0-.53-.35l-.8.3a1.58,1.58,0,0,1-2-.84l-.36-.77a.39.39,0,0,0-.62-.12l-.62.58a1.6,1.6,0,0,1-1.66.32h-.79l-3.09,2.08-2.14,3.53v8.79l4.33,3.78,1.69.44a1.58,1.58,0,0,1,1.66.32l.62.58a.39.39,0,0,0,.62-.12l.36-.78a1.59,1.59,0,0,1,2-.83l.8.3a.4.4,0,0,0,.53-.35l0-.85A1.6,1.6,0,0,1,700.55,68l.85,0a.39.39,0,0,0,.35-.52l-.3-.8a1.59,1.59,0,0,1,.83-2l.77-.36a.38.38,0,0,0,.13-.61Z"/><path class="cls-14" d="M686.16,62a10,10,0,0,1,6.25-9.31,1.66,1.66,0,0,1-.52-.32l-.62-.58a.39.39,0,0,0-.62.12l-.35.77a1.59,1.59,0,0,1-2,.84l-.8-.3a.38.38,0,0,0-.52.35l0,.85A1.59,1.59,0,0,1,685.4,56l-.85,0a.4.4,0,0,0-.35.53l.3.8a1.6,1.6,0,0,1-.83,2l-.78.35a.39.39,0,0,0-.12.62l.58.62a1.6,1.6,0,0,1,0,2.18l-.58.62a.39.39,0,0,0,.12.62l.78.35a1.6,1.6,0,0,1,.83,2l-.3.8a.4.4,0,0,0,.35.53l.85,0a1.59,1.59,0,0,1,1.54,1.53l0,.85a.38.38,0,0,0,.52.35l.8-.3a1.6,1.6,0,0,1,2,.84l.35.77a.39.39,0,0,0,.62.12l.62-.58a1.66,1.66,0,0,1,.52-.32A10,10,0,0,1,686.16,62Z"/><path class="cls-2" d="M694.37,54.76a7.55,7.55,0,0,0,0,14.47,7.37,7.37,0,0,0,0-14.47Z"/><path class="cls-15" d="M689.12,62a7.37,7.37,0,0,1,5.61-7.16,7.17,7.17,0,0,0-1.75-.21,7.37,7.37,0,0,0,0,14.73,7.17,7.17,0,0,0,1.75-.21A7.36,7.36,0,0,1,689.12,62Z"/><path d="M682.54,63.49a.71.71,0,0,0-.17.62.69.69,0,0,0,.39.5l.78.36a1.28,1.28,0,0,1,.67,1.61l-.3.8A.7.7,0,0,0,684,68a.69.69,0,0,0,.56.31l.85,0a1.3,1.3,0,0,1,1.24,1.24l0,.85A.72.72,0,0,0,687,71a.7.7,0,0,0,.63.07l.8-.3a1.3,1.3,0,0,1,1.62.67l.35.78a.69.69,0,0,0,.5.39.71.71,0,0,0,.62-.17l.62-.58a1.27,1.27,0,0,1,.29-.21.31.31,0,1,0-.29-.55,2.08,2.08,0,0,0-.43.3l-.62.58a.07.07,0,0,1-.07,0,.05.05,0,0,1,0,0l-.36-.78a1.91,1.91,0,0,0-2.4-1l-.8.3a.08.08,0,0,1-.07,0,.09.09,0,0,1,0-.06l0-.85a1.92,1.92,0,0,0-1.84-1.84l-.85,0a.09.09,0,0,1-.06,0,.1.1,0,0,1,0-.08l.3-.8a1.9,1.9,0,0,0-1-2.39L683,64s0,0,0-.06a.08.08,0,0,1,0-.06l.58-.63a1.89,1.89,0,0,0,0-2.6l-.58-.62a.1.1,0,0,1,0-.07s0,0,0,0l.77-.36a1.9,1.9,0,0,0,1-2.4l-.3-.8a.08.08,0,0,1,0-.07.07.07,0,0,1,.06,0l.85,0a1.92,1.92,0,0,0,1.84-1.84l0-.85a.09.09,0,0,1,0-.06.08.08,0,0,1,.07,0l.8.3a1.91,1.91,0,0,0,2.4-1l.36-.78a.05.05,0,0,1,0,0s0,0,.07,0l.62.58a1.91,1.91,0,0,0,2.6,0l.62-.58s.05,0,.07,0a.07.07,0,0,1,.06,0l.35.78a1.92,1.92,0,0,0,2.4,1l.8-.3a.08.08,0,0,1,.07,0,.07.07,0,0,1,0,.06l0,.85a1.91,1.91,0,0,0,1.84,1.84l.85,0a.09.09,0,0,1,.06,0,.08.08,0,0,1,0,.07l-.3.8a1.91,1.91,0,0,0,1,2.4L703,60a.05.05,0,0,1,0,0,.1.1,0,0,1,0,.07l-.58.62a1.91,1.91,0,0,0,0,2.6l.58.63a.08.08,0,0,1,0,.06.06.06,0,0,1,0,.06l-.78.36a1.9,1.9,0,0,0-1,2.39l.3.8a.11.11,0,0,1,0,.08.09.09,0,0,1-.06,0l-.85,0a1.9,1.9,0,0,0-1.84,1.84l0,.85a.07.07,0,0,1,0,.06s0,0-.07,0l-.8-.3a1.92,1.92,0,0,0-2.4,1L695,72a.06.06,0,0,1-.06,0s0,0-.07,0l-.62-.58a1.84,1.84,0,0,0-.43-.3.31.31,0,0,0-.42.13.31.31,0,0,0,.14.42,1.94,1.94,0,0,1,.29.21l.62.58a.71.71,0,0,0,.48.19l.13,0a.69.69,0,0,0,.5-.39l.36-.78a1.29,1.29,0,0,1,1.61-.67l.8.3A.73.73,0,0,0,699,71a.69.69,0,0,0,.31-.56l0-.85a1.28,1.28,0,0,1,1.24-1.23l.85,0A.71.71,0,0,0,702,68a.73.73,0,0,0,.08-.64l-.3-.8a1.27,1.27,0,0,1,.67-1.61l.77-.36a.7.7,0,0,0,.4-.5.68.68,0,0,0-.18-.61l-.58-.62a1.28,1.28,0,0,1,0-1.75l.58-.63a.68.68,0,0,0,.18-.61.7.7,0,0,0-.4-.5l-.77-.36a1.27,1.27,0,0,1-.67-1.61l.3-.8A.73.73,0,0,0,702,56a.67.67,0,0,0-.55-.3l-.85,0a1.29,1.29,0,0,1-1.24-1.24l0-.85a.7.7,0,0,0-.95-.63l-.8.3a1.29,1.29,0,0,1-1.61-.67l-.36-.78a.67.67,0,0,0-.5-.39.68.68,0,0,0-.61.17l-.62.58a1.28,1.28,0,0,1-1.75,0l-.62-.58a.71.71,0,0,0-.62-.17.69.69,0,0,0-.5.39l-.35.78a1.3,1.3,0,0,1-1.62.67l-.8-.3A.7.7,0,0,0,687,53a.68.68,0,0,0-.31.56l0,.85a1.3,1.3,0,0,1-1.24,1.24l-.85,0a.71.71,0,0,0-.56.3.73.73,0,0,0-.07.64l.3.8a1.28,1.28,0,0,1-.67,1.61l-.78.36a.69.69,0,0,0-.39.5.71.71,0,0,0,.17.61l.58.63a1.28,1.28,0,0,1,0,1.75l-.58.62Z"/><path d="M693,54.94a7,7,0,0,1,7,6.36.31.31,0,1,0,.62-.06,7.68,7.68,0,1,0,0,1.51.31.31,0,0,0-.28-.34.32.32,0,0,0-.34.28,7.05,7.05,0,1,1-7-7.75Z"/></g><circle class="cls-4" cx="476.74" cy="345.51" r="2.03"/><circle class="cls-4" cx="591.21" cy="353.18" r="2.03"/><circle class="cls-4" cx="417.42" cy="225" r="2.03"/><circle class="cls-4" cx="528.65" cy="153.71" r="2.03"/><g id="Layer_1-2-16" data-name="Layer 1-2"><path class="cls-3" d="M317.18,30.25A1.46,1.46,0,0,0,318.47,29c0-.54.4-2.9.4-2.9s.3,2.37.4,2.9a1.43,1.43,0,0,0,1.28,1.28l2.9.4-2.9.41a1.36,1.36,0,0,0-1.28,1.28c-.07.53-.4,2.9-.4,2.9s-.35-2.37-.41-2.9a1.41,1.41,0,0,0-1.28-1.29c-.53-.05-2.9-.4-2.9-.4S316.65,30.31,317.18,30.25Z"/></g><circle class="cls-3" cx="363.96" cy="20.98" r="1.49"/></svg>