<?xml version="1.0" encoding="utf-8"?>
<!-- Generator: Adobe Illustrator 23.0.1, SVG Export Plug-In . SVG Version: 6.00 Build 0)  -->
<svg version="1.1" id="visual" xmlns="http://www.w3.org/2000/svg" xmlns:xlink="http://www.w3.org/1999/xlink" x="0px" y="0px"
	 viewBox="0 0 767 450" style="enable-background:new 0 0 767 450;" xml:space="preserve">
<style type="text/css">
	.st0{fill:#453C67;}
	.st1{fill:#F2F7A1;}
	.st2{opacity:0.6;}
	.st3{fill:#46C2CB;}
	.st4{fill:#FFFFFF;}
	.st5{opacity:0.86;fill:#46C2CC;}
	.st6{opacity:0.89;fill:#FFFFFF;}
	.st7{fill:#FB5FA7;}
	.st8{fill:#FB4297;}
	.st9{fill:#6D67E4;}
	.st10{fill:#5757D3;}
	.st11{fill:#E5E588;}
	.st12{fill:#25223A;}
	.st13{fill:#FFA90F;}
	.st14{fill:#FF5249;}
	.st15{opacity:0.2;fill:#25223A;enable-background:new    ;}
	.st16{opacity:0.2;}
	.st17{fill:#BDC3C7;}
	.st18{fill:#A8EDEF;}
	.st19{opacity:0.2;fill:#323232;enable-background:new    ;}
	.st20{fill:#323232;}
</style>
<g id="Layer_1-2_18_">
	<path class="st0" d="M677.8,125.9c100.9,37.1-14.4,65-168.4,150.8c-88.4,49.2-89.5,138.7,114.6,100.6c91-17,147.5,37,156.8,73.2
		H210.5c0.7-5.3,1.9-10.1,3.7-16c37.2-121.7,317.1-158.8,298.1-186.3c-19-27.5-79.3,11.3-75.1-26.5c3-27.5,165.4-29.6,124.4-97.4
		c-41-67.8-265.5,105.9-327,1.1c-36.9-63,59.1-104,141.6-125.6h409.2C617.8,42.8,600.5,97.5,677.8,125.9z"/>
</g>
<title>Artboard 1</title>
<path class="st1" d="M0,0c169.8,1.9,233.1,35.4,255.2,71.4c17.7,28.9,8.9,59.6,34.6,70.2c45.9,19,118.5-58.7,161.4-40.3
	c28.9,12.4,8.7,55.1,55.4,84.1c11.7,7.3,27,13.3,26,21.9c-1,8.9-18.2,10.7-32.8,19.9c-36.3,23.1-10.3,64.1-36.5,80.5
	c-28.4,17.8-72.5-21.7-117.5-8.3c-60.4,18.1-37.7,106.3-95.2,123.4c-51,15.1-115-40.6-144.5-21.7c-17.3,11.1-1.8,34.6-21.6,48.8
	c-19.3,13.8-56.5,7.4-84.4,0V0z"/>
<g id="Layer_1-2" class="st2">
	<path class="st3" d="M478.3,57.2l98.3,1.8c0.1,0,0.2,0.1,0.2,0.2c0,0.1-0.1,0.2-0.2,0.2l-98,7c-2.5,0.2-4.7-1.7-4.9-4.3
		c-0.2-2.5,1.7-4.7,4.3-4.9C478,57.2,478.2,57.2,478.3,57.2z"/>
</g>
<g id="Layer_1-2_1_" class="st2">
	<path class="st3" d="M275.3,26.1l111.1,2c0.1,0,0.2,0.1,0.2,0.2c0,0.1-0.1,0.2-0.2,0.2l-110.9,7.9c-2.9,0.2-5.4-2-5.6-4.8
		c-0.2-2.9,2-5.4,4.8-5.6C275,26.1,275.2,26.1,275.3,26.1z"/>
</g>
<g id="Layer_1-2_2_" class="st2">
	<path class="st3" d="M352.5,327.6l100.8,1.8c0.1,0,0.2,0.1,0.2,0.2c0,0.1-0.1,0.2-0.2,0.2L352.7,337c-2.6,0.2-4.9-1.8-5-4.4
		c-0.2-2.6,1.8-4.9,4.4-5C352.2,327.6,352.4,327.6,352.5,327.6z"/>
</g>
<g id="Layer_1-2_3_" class="st2">
	<path class="st3" d="M513.7,379.7l91.7,1.7c0.1,0,0.2,0.1,0.2,0.2c0,0.1-0.1,0.2-0.2,0.2l-91.4,6.6c-2.4,0.2-4.4-1.6-4.6-4
		c-0.2-2.4,1.6-4.4,4-4.6C513.4,379.7,513.6,379.7,513.7,379.7z"/>
</g>
<g id="Layer_1-2_4_" class="st2">
	<path class="st3" d="M320.2,410.3l100.9,1.8c0.1,0,0.2,0.1,0.2,0.2c0,0.1-0.1,0.2-0.2,0.2l-100.7,7.2c-2.6,0.2-4.9-1.8-5.1-4.4
		c-0.2-2.6,1.8-4.9,4.4-5.1C320,410.3,320.1,410.3,320.2,410.3z"/>
</g>
<g id="Layer_1-2_5_" class="st2">
	<path class="st3" d="M561.4,276l84,1.5c0.1,0,0.2,0.1,0.2,0.2c0,0.1-0.1,0.2-0.2,0.2l-83.8,6c-2.2,0.2-4.1-1.5-4.2-3.6
		c-0.2-2.2,1.5-4.1,3.6-4.2C561.2,276,561.3,276,561.4,276z"/>
</g>
<g id="Layer_1-2_6_" class="st2">
	<path class="st3" d="M311,81.4l76.9,1.4c0.1,0,0.1,0.1,0.1,0.2c0,0.1-0.1,0.1-0.1,0.1l-76.7,5.5c-2,0.1-3.7-1.4-3.9-3.3
		c-0.1-2,1.4-3.7,3.3-3.9C310.8,81.4,310.9,81.4,311,81.4z"/>
</g>
<g id="Layer_1-2_7_" class="st2">
	<path class="st3" d="M654.6,313.1l84,1.5c0.1,0,0.2,0.1,0.2,0.2c0,0.1-0.1,0.2-0.2,0.2l-83.8,6c-2.2,0.2-4.1-1.5-4.2-3.6
		c-0.2-2.2,1.5-4.1,3.6-4.2C654.3,313.1,654.5,313.1,654.6,313.1z"/>
</g>
<g id="Layer_1-2_8_" class="st2">
	<path class="st3" d="M605.5,32.6l84,1.5c0.1,0,0.2,0.1,0.2,0.2c0,0.1-0.1,0.2-0.2,0.2l-83.8,6c-2.2,0.2-4.1-1.5-4.2-3.6
		c-0.2-2.2,1.5-4.1,3.6-4.2C605.3,32.6,605.4,32.6,605.5,32.6z"/>
</g>
<g id="Layer_1-2_9_" class="st2">
	<path class="st3" d="M641.8,112.3l84,1.5c0.1,0,0.2,0.1,0.2,0.2c0,0.1-0.1,0.2-0.2,0.2l-83.8,6c-2.2,0.2-4.1-1.5-4.2-3.6
		c-0.2-2.2,1.5-4.1,3.6-4.2C641.6,112.3,641.7,112.3,641.8,112.3z"/>
</g>
<g id="Layer_1-2_10_">
	<path class="st4" d="M384.7,58.6c1.3-0.1,2.4-1.2,2.5-2.5c0.1-1.1,0.8-5.7,0.8-5.7s0.6,4.7,0.8,5.7c0.3,1.6,1.2,2.4,2.5,2.5
		c1.1,0.1,5.7,0.8,5.7,0.8c0,0-4.7,0.7-5.7,0.8c-1.7,0.2-2.4,1.3-2.5,2.5c-0.1,1.1-0.8,5.7-0.8,5.7s-0.7-4.7-0.8-5.7
		c-0.1-1.4-1.2-2.4-2.5-2.5c-1.1-0.1-5.7-0.8-5.7-0.8C379,59.4,383.7,58.7,384.7,58.6z"/>
</g>
<g id="Layer_1-2_11_">
	<path class="st4" d="M495.1,287.1c1.1-0.1,2.1-1,2.2-2.2c0.1-0.9,0.7-5,0.7-5s0.5,4.1,0.7,5c0.2,1.3,1,2,2.2,2.2
		c0.9,0.1,5,0.7,5,0.7c0,0-4.1,0.6-5,0.7c-1.5,0.2-2,1.1-2.2,2.2c-0.1,0.9-0.7,5-0.7,5s-0.6-4.1-0.7-5c-0.1-1.2-1-2.1-2.2-2.2
		c-0.9-0.1-5-0.7-5-0.7C490.2,287.8,494.2,287.2,495.1,287.1z"/>
</g>
<g id="Layer_1-2_12_">
	<path class="st4" d="M116.2,407.9c1.3-0.1,2.4-1.2,2.5-2.5c0.1-1.1,0.8-5.8,0.8-5.8s0.6,4.7,0.8,5.8c0.3,1.6,1.2,2.4,2.5,2.5
		c1.1,0.1,5.8,0.8,5.8,0.8c0,0-4.7,0.7-5.8,0.8c-1.7,0.2-2.4,1.3-2.5,2.5c-0.1,1.1-0.8,5.8-0.8,5.8s-0.7-4.7-0.8-5.8
		c-0.1-1.4-1.2-2.4-2.5-2.5c-1.1-0.1-5.8-0.8-5.8-0.8C110.4,408.7,115.1,408,116.2,407.9z"/>
</g>
<g id="Layer_1-2_13_">
	<path class="st4" d="M626,357.1c0.8-0.1,1.6-0.8,1.7-1.7c0.1-0.7,0.5-3.8,0.5-3.8s0.4,3.1,0.5,3.8c0.2,1,0.8,1.5,1.7,1.7
		c0.7,0.1,3.8,0.5,3.8,0.5c0,0-3.1,0.4-3.8,0.5c-1.1,0.1-1.6,0.9-1.7,1.7c-0.1,0.7-0.5,3.8-0.5,3.8s-0.5-3.1-0.5-3.8
		c-0.1-0.9-0.8-1.6-1.7-1.7c-0.7-0.1-3.8-0.5-3.8-0.5C622.3,357.6,625.3,357.2,626,357.1z"/>
	<path class="st4" d="M633.4,365.8c0.6-0.1,1.1-0.5,1.1-1.1c0-0.5,0.4-2.6,0.4-2.6s0.3,2.1,0.4,2.6c0.1,0.7,0.5,1,1.1,1.1
		c0.5,0.1,2.6,0.4,2.6,0.4c0,0-2.1,0.3-2.6,0.4c-0.8,0.1-1.1,0.6-1.1,1.1c-0.1,0.5-0.4,2.6-0.4,2.6s-0.3-2.1-0.4-2.6
		c-0.1-0.6-0.5-1.1-1.1-1.1c-0.5-0.1-2.6-0.4-2.6-0.4C630.8,366.1,632.9,365.8,633.4,365.8z"/>
</g>
<g id="Layer_1-2_14_">
	<path class="st4" d="M658.9,58.6c1.2-0.1,2.2-1.1,2.3-2.3c0.1-1,0.7-5.2,0.7-5.2s0.6,4.3,0.7,5.2c0.3,1.4,1.1,2.1,2.3,2.3
		c1,0.1,5.2,0.7,5.2,0.7c0,0-4.3,0.6-5.2,0.7c-1.5,0.2-2.2,1.2-2.3,2.3c-0.1,1-0.7,5.2-0.7,5.2s-0.6-4.3-0.7-5.2
		c-0.1-1.3-1.1-2.2-2.3-2.3c-1-0.1-5.2-0.7-5.2-0.7C653.7,59.4,658,58.7,658.9,58.6z"/>
	<path class="st4" d="M669.1,70.8c0.8-0.1,1.5-0.7,1.6-1.6c0.1-0.7,0.5-3.6,0.5-3.6s0.4,2.9,0.5,3.6c0.2,1,0.7,1.5,1.6,1.6
		c0.7,0.1,3.6,0.5,3.6,0.5c0,0-2.9,0.4-3.6,0.5c-1,0.1-1.5,0.8-1.6,1.6c-0.1,0.7-0.5,3.6-0.5,3.6s-0.4-2.9-0.5-3.6
		c-0.1-0.9-0.7-1.5-1.6-1.6c-0.7-0.1-3.6-0.5-3.6-0.5C665.6,71.2,668.5,70.8,669.1,70.8z"/>
</g>
<g id="Layer_1-2_15_">
	<path class="st4" d="M521.9,110.3c1.3-0.1,2.4-1.2,2.5-2.5c0.1-1.1,0.8-5.7,0.8-5.7s0.6,4.7,0.8,5.7c0.3,1.6,1.2,2.4,2.5,2.5
		c1.1,0.1,5.7,0.8,5.7,0.8c0,0-4.7,0.7-5.7,0.8c-1.7,0.2-2.4,1.3-2.5,2.5c-0.1,1.1-0.8,5.7-0.8,5.7s-0.7-4.7-0.8-5.7
		c-0.1-1.4-1.2-2.4-2.5-2.5c-1.1-0.1-5.7-0.8-5.7-0.8C516.1,111.1,520.8,110.5,521.9,110.3z"/>
</g>
<g id="Layer_1-2_16_">
	<path class="st4" d="M325,350.9c1.3-0.1,2.4-1.2,2.5-2.5c0.1-1.1,0.8-5.8,0.8-5.8s0.6,4.7,0.8,5.8c0.3,1.6,1.2,2.4,2.5,2.5
		c1.1,0.1,5.8,0.8,5.8,0.8c0,0-4.7,0.7-5.8,0.8c-1.7,0.2-2.4,1.3-2.5,2.5c-0.1,1.1-0.8,5.8-0.8,5.8s-0.7-4.7-0.8-5.8
		c-0.1-1.4-1.2-2.4-2.5-2.5c-1.1-0.1-5.8-0.8-5.8-0.8C319.2,351.7,323.9,351,325,350.9z"/>
</g>
<circle class="st5" cx="451.2" cy="364.3" r="2.2"/>
<circle class="st6" cx="465" cy="46.4" r="1.5"/>
<circle class="st6" cx="291.6" cy="125.4" r="1.5"/>
<circle class="st5" cx="257.8" cy="53.4" r="2.3"/>
<circle class="st5" cx="294.8" cy="393.9" r="1.7"/>
<circle class="st6" cx="559.4" cy="338.9" r="1.9"/>
<circle class="st5" cx="505.5" cy="246.4" r="1.8"/>
<g id="Layer_1-2_17_">
	<path class="st1" d="M503.7,367.7c0-0.1-0.2-0.2-0.3-0.2c-5.8,0.9-23.3,2.3-29.8-9.1l-0.5,0.5l0,1.7c0,0,2.1,4.7,2.2,4.8
		c0.1,0.1,2.9,2.8,2.9,2.8l2.8,1.5l0.8,0.3c4.1,1,8.9,1.2,13.7,0.3c2.9-0.5,5.5-1.3,8-2.4C503.6,367.9,503.7,367.8,503.7,367.7
		L503.7,367.7L503.7,367.7z"/>
	<path class="st1" d="M473.7,359.7c-0.1-0.4-0.1-0.9-0.2-1.3c-0.9-1.5-1.5-3.3-2-5.3l0.7-0.3l-0.5-3.2l2.5-6.3l1.7-2.2l0-0.2
		c-6.1,4.3-9.5,10.4-8.4,16.5c1.1,6.2,6.7,10.9,14.2,12.7C477.5,367.7,474.5,364.1,473.7,359.7C473.7,359.7,473.7,359.7,473.7,359.7
		z"/>
	<path class="st1" d="M518.1,339.9c-0.3-1.6-0.9-3.1-1.7-4.5c0,0-1.3-1.2-1.3-1.3c0-0.1-4.9-3-4.9-3l-9.3-2l-1.8,1.1
		c6.8,1.5,13.2,5.4,15,14.1l0,0l-0.4,0.9l-1.6,7c0,0-2.1,2.9-2.2,3.1c-0.1,0.2-0.3,1.3-0.3,1.3C515.7,352.1,519.2,346,518.1,339.9
		L518.1,339.9L518.1,339.9z"/>
	<path class="st1" d="M516.3,335.4c-4.2-6.9-14.8-10.6-26.2-8.5c-2.9,0.5-5.5,1.3-8,2.4c-0.1,0.1-0.2,0.2-0.2,0.3
		c0,0.1,0.2,0.2,0.3,0.2c3.3-0.5,10.1-1.2,16.7,0.3C505.9,330,512.1,331.9,516.3,335.4z"/>
	<path class="st1" d="M514.2,344.8c-0.5-2.6-1.8-4.8-3.9-6.6c-4.4-1.9-10-2.5-15.8-1.5c-12,2.1-20.5,10.5-19,18.7
		c0.4,2.1,1.3,3.9,2.7,5.5c4.5,2.5,10.7,3.5,17.3,2.3C507.2,361.2,515.6,352.9,514.2,344.8z"/>
	<path class="st1" d="M475.8,355.4c-1.4-8.1,6.9-16.4,18.7-18.5c6.1-1.1,12-0.3,16.4,1.9c-4.3-4.3-12.2-6.4-20.7-4.9
		c-11.8,2.1-20.2,10.4-18.7,18.5c0.7,3.9,3.5,7,7.6,9C477.4,359.7,476.2,357.7,475.8,355.4L475.8,355.4z"/>
	<path class="st7" d="M507.9,345.9c-0.3-1.6-1.1-3.1-2.3-4.3c-3-1.1-6.6-1.4-10.4-0.8c-8.5,1.5-14.6,7.5-13.5,13.5
		c0.2,1.3,0.8,2.4,1.5,3.4c3.1,1.5,7.2,2,11.5,1.3C503,357.6,508.9,351.7,507.9,345.9L507.9,345.9L507.9,345.9z"/>
	<path class="st8" d="M482,354.3c-1-5.8,4.9-11.7,13.2-13.2c4-0.7,7.8-0.3,10.8,1c-2.9-3.4-8.8-5.1-15.1-4
		c-8.3,1.5-14.3,7.4-13.2,13.2c0.5,3,2.9,5.4,6.2,6.8C482.9,357,482.3,355.7,482,354.3L482,354.3L482,354.3z"/>
	<path class="st9" d="M501.7,347c-0.1-0.7-0.4-1.4-0.8-2c-1.5-0.4-3.2-0.5-5-0.1c-5,0.9-8.6,4.6-7.9,8.4c0.1,0.6,0.3,1.1,0.6,1.6
		c1.6,0.5,3.4,0.6,5.4,0.3C498.9,354.3,502.4,350.7,501.7,347L501.7,347L501.7,347z"/>
	<path class="st10" d="M488.2,353.2c-0.6-3.6,2.8-7.3,7.7-8.2c1.8-0.3,3.6-0.2,5.1,0.2c-1.6-2.6-5.3-4-9.4-3.2
		c-4.9,0.9-8.4,4.5-7.7,8.2c0.4,2.3,2.4,4,5,4.8C488.6,354.4,488.4,353.9,488.2,353.2L488.2,353.2z"/>
	<path d="M505.4,354.7c5.6-5.5,4.3-12.8-2.9-16.1c-11.2-5.1-27.3,2.8-25.5,12.8C478.7,361.4,496.6,363.4,505.4,354.7L505.4,354.7z
		 M491.1,338.9c7.9-1.4,15.1,1.8,16.1,7.2l0,0c0.5,2.5-0.6,5.2-2.9,7.5c-8,8-24.3,6.1-25.8-2.4C477.6,345.8,483.2,340.3,491.1,338.9
		L491.1,338.9L491.1,338.9z"/>
	<path d="M500.5,352.7c1.6-1.7,2.3-3.8,2-5.8c-0.2-1.2-0.7-2.2-1.6-3.1c-0.3-0.3-0.8-0.3-1.1,0c-0.3,0.3-0.3,0.8,0,1.1
		c0.6,0.7,1,1.5,1.2,2.3c0.3,1.5-0.3,3.1-1.6,4.4c-4.4,4.7-13.8,3.6-14.7-1.5c-0.9-4.8,6.5-9,12.4-6.9c0.4,0.1,0.8-0.1,1-0.5
		s-0.1-0.8-0.5-1c-6.9-2.4-15.5,2.6-14.4,8.7C484.3,356.8,495.2,358.2,500.5,352.7L500.5,352.7z"/>
	<path d="M503.3,366.7c-9.1,1.3-21.1,0.8-27.2-6.2c0.1,0,0.1,0.1,0.2,0.1c9.2,6.4,25.3,4.6,33.9-3.7c6.5-4.7,9.8-11.1,8.7-17.2
		c-2.2-12.6-21.2-18.2-37-11.2c-0.4,0.2-0.7,0.7-0.6,1.1c0.1,0.6,0.6,0.9,1.2,0.9c9.1-1.3,21.1-0.8,27.2,6.2
		c-9.2-6.6-25.5-4.8-34.1,3.5c-16.3,11.6-9,29.9,11.4,31.4c0.4,0,0.8-0.3,0.8-0.7c0-0.4-0.3-0.8-0.7-0.8
		c-15.7-1.1-23.8-13-15.7-23.8c-0.7,2-1,4.1-0.6,6.2c2.4,13.4,15.2,17.1,28.7,16.1c-2.8,0.8-5.8,1.4-9,1.5c-0.4,0-0.8,0.4-0.7,0.8
		c0,0.4,0.4,0.8,0.8,0.7c4.5-0.2,9.1-1.2,13.3-3c0.4-0.2,0.7-0.7,0.6-1.1C504.3,367,503.8,366.6,503.3,366.7L503.3,366.7
		L503.3,366.7z M486.2,328.6c1.3-0.4,2.7-0.7,4.1-1l0,0c13.1-2.3,25.4,3.1,27.1,12.4c0.7,3.7-0.4,7.4-3,10.9c0.8-2,1-4.1,0.6-6.2
		C512.5,331.3,499.7,327.6,486.2,328.6L486.2,328.6z M490.3,334.7c15.2-2.7,27.6,6.5,21.8,17.2c-3.1,5.8-10.3,9.4-16.8,10.6
		c-11.2,2-21.7-2.5-23.1-10.2C470.9,344.6,479,336.7,490.3,334.7L490.3,334.7L490.3,334.7z"/>
</g>
<g id="Layer_1-2_19_">
	<path class="st9" d="M622.5,66.6c-0.8-0.8-1.6-1.5-2.5-2l-0.9,0.5l-0.2-0.1l-1,2.3l-3.7,4.5l-6.7,7.6l-6.2,4.7
		c0.6,1.5,1.5,3,2.5,4.2l4.3-3l8.8-8l6-8.2v-2C622.8,67,622.7,66.8,622.5,66.6C622.5,66.6,622.5,66.6,622.5,66.6z"/>
	<path class="st9" d="M602.4,83.3l-1.2,1l-3.5,1.9l-0.2,0.9c0.6,0.9,1.3,1.7,2,2.5c0.2,0.2,0.4,0.4,0.6,0.5h1.3l3.4-2.4
		C603.8,86.4,603,84.9,602.4,83.3z"/>
	<path class="st0" d="M625.1,72.7l-18.5,18.2c1.7,1.4,3.8,2.4,6,2.9l7.8-6.3l5.7-7l1.1-2.5c0-2-0.4-4-1.1-5.9L625.1,72.7L625.1,72.7
		z"/>
	<path class="st0" d="M607.2,90.3l-2.1,2v0.8c1.9,0.7,3.9,1.1,5.9,1.1l1.5-0.4l0.5-0.4C610.8,92.9,608.8,91.7,607.2,90.3L607.2,90.3
		z"/>
	<path class="st1" d="M629.7,57.5c-0.3-0.3-0.7-0.6-1.2-0.8l-0.9,0l-4.8,1.7l-0.4,0.7c0.9-0.1,1.7,0.1,2.1,0.5
		c2.4,2.4-2.9,11.4-11.7,20.2c-7.7,7.7-15.5,12.6-19,12.2l-0.6,0.7v2.5l1.5,2.1h1.4c5.4-1.3,13.2-6.3,20.6-13.7
		C627.5,72.9,633.3,61.2,629.7,57.5L629.7,57.5L629.7,57.5z"/>
	<path class="st11" d="M615.3,62.4c2.9-1.9,5.4-3,7.2-3.2c2.2-1.2,4.2-2,6-2.4c-3-1.2-8.7,0.9-15,5.3l-0.9,0.6l1.7,0.7L615.3,62.4
		L615.3,62.4z"/>
	<path class="st11" d="M595.3,96.7c-1-1-1.3-2.6-1-4.5c-0.5-0.1-0.9-0.2-1.2-0.5c-1.3-1.3-0.2-4.9,2.7-9.3l0.5-0.6l-0.4-2l-0.5,0.9
		c-5,7.3-7,13.6-4.5,16.2c1.2,1.2,3.1,1.4,5.6,0.8C596.1,97.3,595.7,97,595.3,96.7L595.3,96.7z"/>
	<path class="st7" d="M616.9,63.8v-0.9c-1.2-0.5-2.5-0.8-3.8-1c-2.3,0.5-4.4,1.5-6.3,2.9l-3.6,3.7c-1.8,2.6-2.9,5.9-2.9,9.3
		c0,1.3,0.1,2.5,0.4,3.7l6.4-5.7l7.7-8l2.2-4.1L616.9,63.8L616.9,63.8z"/>
	<path class="st7" d="M601.5,77.8c0-7.6,5.1-13.9,12-15.8c-0.9-0.1-1.8-0.2-2.7-0.2l-2,0.8l-12.7,13.3l-1.4,2c0,2,0.3,4.1,1.1,6h1
		l0.2,0.3l3.5-2.4l1.2-1.1C601.6,79.8,601.5,78.8,601.5,77.8z"/>
	<path class="st12" d="M619.9,86.9c-2.7,2.7-5.4,4.9-7.9,6.7c0.6,0.2,1.2,0.3,1.8,0.4c3.2-0.6,6.2-2.1,8.7-4.5
		c3.2-3.2,4.8-7.3,4.8-11.5C625.4,80.9,622.9,83.9,619.9,86.9L619.9,86.9z"/>
	<path class="st13" d="M612.4,93.3c-0.5,0.3-0.9,0.7-1.4,1c1.2,0,2.3-0.1,3.5-0.4C613.8,93.8,613.1,93.6,612.4,93.3z"/>
	<path class="st3" d="M616.9,62.9c-1.5,3-4.9,7.4-9.3,11.7c-2.4,2.4-4.8,4.5-7,6.2c0.2,1.3,0.6,2.6,1.1,3.7c2.5-1.8,5.5-4.3,8.5-7.3
		c4.9-4.9,8.5-9.8,9.8-12.8C619,63.9,618,63.3,616.9,62.9C616.9,62.9,616.9,62.9,616.9,62.9z"/>
	<path class="st3" d="M601.7,80c-2.2,1.7-4.2,3.1-5.8,3.9c0.4,1.1,1,2.1,1.6,3.1c1.4-0.6,3.2-1.7,5.2-3.1
		C602.2,82.7,601.8,81.4,601.7,80L601.7,80L601.7,80z"/>
	<path class="st8" d="M601.2,72.7c0.7-0.7,1.5-1.4,2.2-2.2c2.6-2.6,4.9-5.2,6.6-7.6C605.9,64.8,602.7,68.3,601.2,72.7L601.2,72.7z"
		/>
	<path class="st14" d="M609.4,63.8c0.5-0.7,1-1.4,1.5-2c-4.1,0-8.2,1.6-11.3,4.8c-3.1,3.1-4.7,7.2-4.8,11.3c2.5-1.7,5.4-4.2,8.3-7.1
		C604.4,67.9,606.6,65.5,609.4,63.8L609.4,63.8z"/>
	<path d="M630.1,57.1c-3.7-3.7-12.5,1.3-16.8,4.3c-0.8-0.1-1.5-0.2-2.3-0.2c-0.1,0-0.1,0-0.2,0l0,0c0,0,0,0,0,0
		c-4.5,0-8.6,1.8-11.8,4.9c-3.9,3.9-5.5,9.2-4.8,14.2c-3,4.3-7.9,13.1-4.3,16.8c2.6,2.6,7.8,0.7,11.1-0.9c1.3-0.6,2.7-1.4,4-2.3
		c5.9,2.2,12.9,1,17.7-3.9c4.8-4.8,6.1-11.8,3.9-17.7C629.4,68.2,633.4,60.5,630.1,57.1L630.1,57.1L630.1,57.1z M600,67
		c2.7-2.7,6.1-4.2,9.6-4.5c-1.8,2.4-4.1,5-6.6,7.5c-2.5,2.5-5.2,4.8-7.5,6.6C595.8,73.1,597.3,69.7,600,67C600,67,600,67,600,67z
		 M603.9,70.9c2.9-2.9,5.4-5.9,7.3-8.5c1.6,0,3.3,0.3,4.8,0.8c-1.5,2.7-4.3,6.3-7.8,9.8c-0.2,0.3-0.2,0.6,0,0.9
		c0.3,0.2,0.6,0.2,0.9,0c3.6-3.7,6.5-7.4,8-10.3c0.7,0.3,1.4,0.7,2,1.1c-1.4,3.1-5,7.6-9.4,12.1s-9,8-12.1,9.4
		c-0.4-0.7-0.8-1.3-1.1-2c2.9-1.6,6.6-4.5,10.4-8.2c0.2-0.2,0.3-0.6,0-0.9c-0.2-0.2-0.6-0.3-0.9,0c-3.6,3.5-7.2,6.4-10,7.9
		c-0.5-1.5-0.8-3.1-0.8-4.8C598,76.4,601,73.8,603.9,70.9L603.9,70.9L603.9,70.9z M616.7,62.2c1.7-1,3.2-1.7,4.5-2.1
		c1.4-0.4,2.4-0.4,2.9,0.1c0.6,0.6,0.6,2.5-1.2,5.9C621.1,64.3,619,63,616.7,62.2C616.7,62.2,616.7,62.2,616.7,62.2z M622.3,67.2
		c-2.5,4.3-6.4,8.8-9.8,12.2c-3.5,3.5-8,7.4-12.2,9.8c-0.6-0.6-1.2-1.3-1.8-2c3.2-1.5,7.8-5.1,12.3-9.6c4.5-4.5,8.1-9.1,9.6-12.3
		C621,66,621.6,66.6,622.3,67.2C622.3,67.2,622.3,67.2,622.3,67.2z M599,90c-3.4,1.8-5.3,1.8-5.9,1.2c-0.5-0.5-0.5-1.5-0.1-2.9
		c0.4-1.3,1.1-2.8,2.1-4.5C595.9,86.1,597.3,88.2,599,90z M620.5,86.2c0.3,0.2,0.6,0.2,0.9,0c1.9-2,3.6-4,5.1-6
		c-0.5,3.4-2,6.5-4.4,8.9l0,0l0,0c-2.4,2.4-5.5,3.9-8.9,4.4c2-1.5,4.1-3.3,6.2-5.2c0.3-0.2,0.3-0.6,0-0.9c-0.2-0.3-0.6-0.3-0.9,0
		c-2.5,2.4-5.2,4.6-7.7,6.3c-1.4,0-2.9-0.2-4.3-0.6c3.7-2.5,7.4-5.6,10.6-8.9c3.2-3.2,6.3-6.8,8.9-10.6c0.4,1.4,0.6,2.8,0.6,4.3
		c-1.7,2.4-3.8,5-6.1,7.5C620.3,85.6,620.3,86,620.5,86.2L620.5,86.2L620.5,86.2z M628,67.7c-0.7,1.3-1.5,2.7-2.4,4.2c0,0,0,0,0,0
		c-2.6,4-6,8-9.4,11.4c-4.4,4.4-10.1,9.1-15.6,11.8c-4.6,2.3-8.2,2.7-9.7,1.2c-2.1-2.1-0.6-7.5,3.7-14.1c0,0,0,0.1,0,0.1
		c-1.9,2.9-4.5,7.8-2.4,9.9c2.1,2.1,7.1-0.7,9.6-2.3c4.2-2.6,8.4-6.3,11.9-9.8c7.6-7.7,14.3-17.7,11.3-20.7c-2-2-6.9,0.6-9.9,2.4
		c0,0-0.1,0-0.1,0c6.6-4.3,12.1-5.8,14.1-3.7C630.7,59.5,630.3,63,628,67.7L628,67.7L628,67.7z"/>
</g>
<g id="Layer_1-2_20_">
	<path class="st9" d="M168.2,73.4l-2.7-7.2c-1.2-3.2-3.9-5.7-7.2-6.8l-7.3-2.3c-3.3-1.1-6.9-0.5-9.8,1.4l-6.4,4.3
		c-0.2,0.2-0.5,0.3-0.7,0.5c-2.5,1.9-4.1,4.8-4.4,8L129,79c-0.3,3.4,1,6.8,3.5,9.2l5.5,5.2c2.5,2.4,6,3.5,9.4,3l7.6-1.1
		c3-0.4,5.7-2,7.5-4.4c0.3-0.4,0.5-0.7,0.8-1.1l3.9-6.6C169.1,80.3,169.4,76.6,168.2,73.4L168.2,73.4z"/>
	<path class="st15" d="M162.6,91c-1.8,2.4-4.5,3.9-7.5,4.4l-7.6,1.1c-3.4,0.5-6.9-0.6-9.4-3l-5.5-5.2c-2.5-2.4-3.8-5.8-3.5-9.2
		l0.7-7.6c0.3-3.2,1.9-6.1,4.4-8c-1.3,1.7-2.1,3.8-2.4,5.9l-0.7,7.6c-0.3,3.4,1,6.8,3.5,9.2l5.5,5.2c2.5,2.4,6,3.5,9.4,3l7.6-1.1
		C159.1,93,161,92.2,162.6,91L162.6,91z"/>
	<path class="st15" d="M144.1,70.4c0,2.3-1.9,4.1-4.1,4.1c-2.3,0-4.1-1.9-4.1-4.1s1.9-4.1,4.1-4.1C142.3,66.3,144.1,68.1,144.1,70.4
		z"/>
	<g class="st16">
		<path class="st12" d="M139.3,82.1c0,1.1-0.9,2.1-2.1,2.1s-2.1-0.9-2.1-2.1c0-1.1,0.9-2.1,2.1-2.1S139.3,81,139.3,82.1z"/>
		<path class="st12" d="M153.1,64.9c0,1.1-0.9,2.1-2.1,2.1c-1.1,0-2.1-0.9-2.1-2.1c0-1.1,0.9-2.1,2.1-2.1
			C152.1,62.8,153.1,63.8,153.1,64.9z"/>
		<path class="st12" d="M157.9,84.2c0,0.8-0.6,1.4-1.4,1.4c-0.8,0-1.4-0.6-1.4-1.4s0.6-1.4,1.4-1.4
			C157.3,82.8,157.9,83.4,157.9,84.2z"/>
		<path class="st12" d="M150.3,78c0,1.1-0.9,2.1-2.1,2.1c-1.1,0-2.1-0.9-2.1-2.1c0-1.1,0.9-2.1,2.1-2.1
			C149.4,75.9,150.3,76.8,150.3,78z"/>
		<path class="st12" d="M148.2,91.1c0,1.1-0.9,2.1-2.1,2.1c-1.1,0-2.1-0.9-2.1-2.1s0.9-2.1,2.1-2.1C147.2,89.1,148.2,90,148.2,91.1z
			"/>
	</g>
	<path class="st17" d="M162,82.1c-0.2,0-0.4-0.1-0.5-0.2c-0.1-0.1-0.2-0.3-0.2-0.5c0-0.1,0-0.2,0.1-0.3c0-0.1,0.1-0.2,0.1-0.2
		c0.2-0.2,0.5-0.3,0.8-0.1c0.2,0.1,0.3,0.2,0.4,0.4c0,0.1,0.1,0.2,0.1,0.3c0,0.2-0.1,0.4-0.2,0.5c-0.1,0.1-0.1,0.1-0.2,0.1
		C162.2,82.1,162.1,82.1,162,82.1z"/>
	<path class="st17" d="M149.6,86.2c-0.2,0-0.4-0.1-0.5-0.2c-0.1-0.1-0.2-0.3-0.2-0.5c0-0.1,0-0.2,0.1-0.3c0-0.1,0.1-0.2,0.1-0.2
		c0.2-0.2,0.5-0.3,0.8-0.1c0.2,0.1,0.3,0.2,0.4,0.4c0,0.1,0.1,0.2,0.1,0.3c0,0.2-0.1,0.4-0.2,0.5c-0.1,0.1-0.1,0.1-0.2,0.1
		C149.8,86.2,149.7,86.2,149.6,86.2z"/>
	<path class="st17" d="M144.1,85.6c-0.2,0-0.4-0.1-0.5-0.2c-0.1-0.1-0.2-0.3-0.2-0.5c0-0.1,0-0.2,0.1-0.3c0-0.1,0.1-0.2,0.1-0.2
		c0.2-0.2,0.5-0.3,0.8-0.1c0.1,0,0.2,0.1,0.2,0.1c0.1,0.1,0.1,0.1,0.1,0.2c0,0.1,0.1,0.2,0.1,0.3c0,0.3-0.2,0.5-0.4,0.6
		C144.3,85.5,144.2,85.6,144.1,85.6z"/>
	<path class="st17" d="M150.3,71.8c-0.2,0-0.4-0.1-0.5-0.2c-0.1-0.1-0.2-0.3-0.2-0.5c0-0.1,0-0.2,0.1-0.3c0-0.1,0.1-0.2,0.1-0.2
		c0.2-0.2,0.5-0.3,0.8-0.1c0.1,0,0.2,0.1,0.2,0.1c0.1,0.1,0.1,0.1,0.1,0.2c0,0.1,0.1,0.2,0.1,0.3c0,0.3-0.2,0.5-0.4,0.6
		C150.5,71.8,150.4,71.8,150.3,71.8z"/>
	<path class="st15" d="M167.3,83.2l-3.9,6.6c-0.2,0.4-0.5,0.8-0.8,1.1c-1,0.8-2.1,1.4-3.2,1.8c0.2-0.3,0.4-0.5,0.6-0.8l3.9-6.6
		c1.8-3,2.1-6.6,0.9-9.8l-2.7-7.2c-1.2-3.2-3.9-5.7-7.2-6.8l-7.3-2.3c-2.6-0.8-5.4-0.7-7.9,0.4l1.5-1c2.9-2,6.5-2.5,9.8-1.4l7.3,2.3
		c3.3,1.1,5.9,3.6,7.2,6.8l2.7,7.2C169.4,76.6,169.1,80.3,167.3,83.2L167.3,83.2z"/>
	<path class="st15" d="M164.8,72.5c0,2.3-1.9,4.1-4.1,4.1c-2.3,0-4.1-1.9-4.1-4.1s1.9-4.1,4.1-4.1C162.9,68.3,164.8,70.2,164.8,72.5
		z"/>
	<path d="M162,82.1c-0.2,0-0.4-0.1-0.5-0.2c-0.1-0.1-0.2-0.3-0.2-0.5c0-0.1,0-0.2,0.1-0.3c0-0.1,0.1-0.2,0.1-0.2
		c0.2-0.2,0.5-0.3,0.8-0.1c0.2,0.1,0.3,0.2,0.4,0.4c0,0.1,0.1,0.2,0.1,0.3c0,0.2-0.1,0.4-0.2,0.5c-0.1,0.1-0.1,0.1-0.2,0.1
		C162.2,82.1,162.1,82.1,162,82.1z"/>
	<path d="M149.6,86.2c-0.2,0-0.4-0.1-0.5-0.2c-0.1-0.1-0.2-0.3-0.2-0.5c0-0.1,0-0.2,0.1-0.3c0-0.1,0.1-0.2,0.1-0.2
		c0.2-0.2,0.5-0.3,0.8-0.1c0.2,0.1,0.3,0.2,0.4,0.4c0,0.1,0.1,0.2,0.1,0.3c0,0.2-0.1,0.4-0.2,0.5c-0.1,0.1-0.1,0.1-0.2,0.1
		C149.8,86.2,149.7,86.2,149.6,86.2z"/>
	<path d="M144.1,85.6c-0.2,0-0.4-0.1-0.5-0.2c-0.1-0.1-0.2-0.3-0.2-0.5c0-0.1,0-0.2,0.1-0.3c0-0.1,0.1-0.2,0.1-0.2
		c0.2-0.2,0.5-0.3,0.8-0.1c0.1,0,0.2,0.1,0.2,0.1c0.1,0.1,0.1,0.1,0.1,0.2c0,0.1,0.1,0.2,0.1,0.3c0,0.3-0.2,0.5-0.4,0.6
		C144.3,85.5,144.2,85.6,144.1,85.6z"/>
	<path d="M150.3,71.8c-0.2,0-0.4-0.1-0.5-0.2c-0.1-0.1-0.2-0.3-0.2-0.5c0-0.1,0-0.2,0.1-0.3c0-0.1,0.1-0.2,0.1-0.2
		c0.2-0.2,0.5-0.3,0.8-0.1c0.1,0,0.2,0.1,0.2,0.1c0.1,0.1,0.1,0.1,0.1,0.2c0,0.1,0.1,0.2,0.1,0.3c0,0.3-0.2,0.5-0.4,0.6
		C150.5,71.8,150.4,71.8,150.3,71.8z"/>
	<path d="M166.1,66c-1.3-3.4-4.1-6.1-7.6-7.2l-7.3-2.3c-3.5-1.1-7.3-0.5-10.4,1.5l-6.4,4.3c-3.1,2-5.1,5.4-5.4,9l-0.7,7.6
		c-0.3,3.7,1,7.3,3.7,9.8l5.5,5.2c2.2,2.1,5.2,3.3,8.2,3.3c0.6,0,1.2,0,1.8-0.1l7.6-1.1c3.7-0.5,6.9-2.7,8.8-5.8l3.9-6.6
		c1.9-3.1,2.3-7,0.9-10.4L166.1,66L166.1,66z M166.7,82.9L166.7,82.9l-3.9,6.6c-1.7,2.8-4.5,4.7-7.8,5.2l-7.6,1.1
		c-3.2,0.5-6.5-0.5-8.9-2.8l-5.5-5.2c-2.4-2.2-3.6-5.4-3.3-8.7l0.7-7.6c0.3-3.3,2.1-6.2,4.8-8l6.4-4.3c2.7-1.8,6.1-2.3,9.2-1.3
		l7.3,2.3c3.1,1,5.6,3.3,6.7,6.4l2.7,7.1C168.7,76.7,168.4,80.1,166.7,82.9L166.7,82.9L166.7,82.9z"/>
	<path d="M160.6,67.7c-2.3,0-4.3,1.6-4.7,3.9c-0.4,2.3,0.8,4.5,2.9,5.4c2.1,0.9,4.6,0.1,5.9-1.8c1.3-1.9,1-4.5-0.6-6.1
		C163.2,68.2,161.9,67.7,160.6,67.7L160.6,67.7z M163.1,74.9c-1.2,1.2-3,1.3-4.3,0.4c-1.4-0.9-1.9-2.7-1.3-4.2
		c0.6-1.5,2.2-2.4,3.9-2.1c1.6,0.3,2.8,1.7,2.8,3.4C164.1,73.4,163.7,74.3,163.1,74.9L163.1,74.9z"/>
	<path d="M144.8,70.4c0-2.3-1.6-4.3-3.9-4.7c-2.3-0.4-4.5,0.8-5.4,2.9c-0.9,2.1-0.1,4.6,1.8,5.9c1.9,1.3,4.5,1,6.1-0.6
		C144.3,72.9,144.8,71.7,144.8,70.4z M140,73.9c-1.6,0-3.1-1.2-3.4-2.8c-0.3-1.6,0.5-3.2,2.1-3.9c1.5-0.6,3.3-0.1,4.2,1.3
		c0.9,1.4,0.7,3.2-0.4,4.3C141.8,73.5,140.9,73.9,140,73.9L140,73.9z"/>
	<path d="M137.2,79.4c-1.3,0-2.4,0.9-2.7,2.2c-0.3,1.3,0.4,2.6,1.6,3.1c1.2,0.5,2.6,0.1,3.3-1c0.7-1.1,0.6-2.5-0.3-3.5
		C138.7,79.6,138,79.4,137.2,79.4L137.2,79.4z M138.2,83.1c-0.5,0.5-1.4,0.5-1.9,0c-0.4-0.4-0.5-1-0.3-1.5c0.2-0.5,0.7-0.8,1.3-0.8
		s1.1,0.3,1.3,0.8C138.7,82.1,138.6,82.7,138.2,83.1z"/>
	<path d="M151,62.1c-1.3,0-2.4,0.9-2.7,2.2c-0.3,1.3,0.4,2.6,1.6,3.1c1.2,0.5,2.6,0.1,3.3-1c0.7-1.1,0.6-2.5-0.3-3.5
		C152.4,62.4,151.7,62.1,151,62.1z M152,65.9c-0.5,0.5-1.4,0.5-1.9,0c-0.4-0.4-0.5-1-0.3-1.5c0.2-0.5,0.7-0.8,1.3-0.8
		s1.1,0.3,1.3,0.8C152.5,64.9,152.4,65.5,152,65.9z"/>
	<path d="M155.1,82.7c-0.5,0.5-0.7,1.3-0.5,2c0.2,0.7,0.7,1.3,1.5,1.5c0.7,0.2,1.5,0,2-0.5c0.8-0.8,0.8-2.1,0-2.9
		C157.2,81.9,155.9,81.9,155.1,82.7L155.1,82.7L155.1,82.7z M157,84.7c-0.2,0.2-0.6,0.3-0.9,0.1c-0.3-0.2-0.4-0.5-0.3-0.8
		s0.4-0.5,0.8-0.4c0.3,0.1,0.6,0.3,0.6,0.7C157.2,84.4,157.1,84.5,157,84.7L157,84.7z"/>
	<path d="M148.2,75.2c-1.3,0-2.4,0.9-2.7,2.2c-0.3,1.3,0.4,2.6,1.6,3.1c1.2,0.5,2.6,0.1,3.3-1c0.7-1.1,0.6-2.5-0.3-3.5
		C149.7,75.5,149,75.2,148.2,75.2L148.2,75.2z M149.2,79c-0.5,0.5-1.4,0.5-1.9,0c-0.4-0.4-0.5-1-0.3-1.5c0.2-0.5,0.7-0.8,1.3-0.8
		c0.6,0,1.1,0.3,1.3,0.8C149.7,78,149.6,78.6,149.2,79z"/>
	<path d="M146.1,88.4c-1.3,0-2.4,0.9-2.7,2.2c-0.3,1.3,0.4,2.6,1.6,3.1c1.2,0.5,2.6,0.1,3.3-1c0.7-1.1,0.6-2.5-0.3-3.5
		C147.5,88.7,146.8,88.4,146.1,88.4z M147.1,92.1c-0.5,0.5-1.4,0.5-1.9,0c-0.4-0.4-0.5-1-0.3-1.5c0.2-0.5,0.7-0.8,1.3-0.8
		s1.1,0.3,1.3,0.8C147.6,91.1,147.5,91.7,147.1,92.1z"/>
</g>
<g id="Layer_1-2_22_">
	<g id="Fill_Outline">
		<g id="Color">
			<path class="st18" d="M225.5,362.9c0.7-0.4,1.3-0.9,1.7-1.6c0.4-0.7,0.7-1.5,0.7-2.3c-0.1-3.3,1.2-6.4,3.5-8.8
				c11.1-10.5,28.5-10.1,39.1,1c6.5,6.8,9,16.4,6.9,25.5c-0.3,1.5-1.3,2.8-2.6,3.6c-0.3,0.2-0.5,0.3-0.8,0.6l-1.1,0.9
				c-0.6,0.5-1,1.2-1.3,1.9l-0.2,0.5c-0.3,0.8-0.4,1.7-0.5,2.6c-0.1,1.3-0.6,2.6-1.6,3.6c-8.3,7.9-20.7,9.7-31,4.8
				c-1.5-0.7-2.6-2.1-3-3.7c-0.2-0.8-0.5-1.5-1.1-2.1l-0.4-0.4c-1-1.1-2.2-1.9-3.6-2.4l-0.7-0.2c0,0,0,0,0,0
				c-1.4-0.4-2.7-1.4-3.4-2.7c-2.9-5.4-4-11.6-3.1-17.6c0.2-1.3,1-2.3,2.2-2.9L225.5,362.9L225.5,362.9z"/>
			<path class="st3" d="M271.7,383.4c0,0.1-0.1,0.1-0.1,0.2l-0.2,0.5c-0.3,0.8-0.4,1.7-0.5,2.6c-0.1,1.3-0.6,2.6-1.6,3.6
				c-8.3,7.9-20.7,9.7-31,4.8c-1.5-0.7-2.6-2.1-3-3.7c-0.2-0.8-0.5-1.5-1.1-2.1l-0.4-0.4c-1-1.1-2.2-1.9-3.6-2.4l-0.7-0.2
				c0,0,0,0,0,0c-1.4-0.4-2.7-1.4-3.4-2.7c-2.2-4.1-3.4-8.6-3.4-13.3c0-1.4,0.1-2.9,0.3-4.3c0.2-1.3,1-2.3,2.2-2.9l0.1-0.1
				c0.7-0.4,1.3-0.9,1.8-1.6c0.4-0.7,0.7-1.5,0.7-2.3c0-3.3,1.2-6.4,3.5-8.8c2.2-2.1,4.8-3.9,7.6-5.1c-2,3.6-3.2,7.6-3.4,11.7
				c0,1.5,0.5,3,1.5,4.1c0.7,0.8,0.7,0.8,0,0l0.5,0.6c0.9,1.1,1.6,2.5,1.8,3.9l0.1,0.6c0.1,0.8,0.1,1.6-0.2,2.4
				c-0.6,1.6-0.4,3.3,0.5,4.7c6.1,9.7,17.6,14.6,28.8,12.4C269.9,385.2,271,384.4,271.7,383.4L271.7,383.4L271.7,383.4z"/>
			<path class="st18" d="M236,347.3l-2.4-1.3c-1.2-0.6-2.6-0.1-3.2,1c-0.1,0.2-0.2,0.4-0.2,0.5c-0.1,0.5-0.4,0.9-0.7,1.2l-0.4,0.3
				c-0.9,0.9-1,2.3-0.3,3.2l1.3,1.6L236,347.3L236,347.3z"/>
			<path class="st19" d="M229.3,349.1c1.4-0.4,2.8-0.8,4.2-1c0.8-0.1,1.6-0.4,2.2-0.9l0.3,0.1l-5.9,6.7l-1.3-1.6
				c-0.8-1-0.7-2.4,0.3-3.2L229.3,349.1L229.3,349.1z"/>
			<path class="st18" d="M265.2,391.5l0.6,1.3c0.4,0.9,0.1,2-0.8,2.4c-0.1,0-0.2,0.1-0.3,0.1h0c-0.4,0.1-0.8,0.4-1.1,0.8
				c-0.5,0.9-1.6,1.1-2.5,0.6c-0.1-0.1-0.2-0.1-0.3-0.2l-2.2-1.8L265.2,391.5L265.2,391.5z"/>
			<path class="st18" d="M243.8,357.5l1.1,1.2c1.1,1.2,1.4,2.9,0.9,4.5c-0.4,1.1-1.1,2-2.1,2.5l-1.1,0.6c-1.1,0.6-2.4,0.7-3.6,0.3
				l-1.1-0.4c-0.7-0.3-1.4-0.7-1.9-1.3l-0.9-1.1c-1.1-1.3-1.5-3.1-0.8-4.7l0.4-0.9c0.5-1.3,1.6-2.3,3-2.7h0c0.9-0.2,1.8-0.2,2.6,0.1
				l1.7,0.6C242.6,356.5,243.3,356.9,243.8,357.5L243.8,357.5L243.8,357.5z"/>
			<path class="st18" d="M253,382.6l0.9-0.6c1.5-1,3.4-1,4.9,0l0.2,0.1c1.2,0.8,2,2.2,2,3.6v0.4c0,2-1.4,3.8-3.3,4.3l-0.9,0.2
				c-1.2,0.3-2.5,0.1-3.5-0.6l-0.2-0.1c-1.7-1.1-2.4-3.2-1.7-5C251.6,384,252.2,383.2,253,382.6L253,382.6L253,382.6z"/>
			<path class="st18" d="M259.8,362l0.6-0.4c0.9-0.6,2.1-0.6,3,0l0.1,0.1c0.8,0.5,1.2,1.3,1.2,2.3v0.2c0,1.3-0.9,2.3-2.1,2.6
				l-0.6,0.1c-0.7,0.2-1.5,0-2.2-0.4l-0.1-0.1c-1-0.7-1.5-2-1.1-3.1C258.9,362.9,259.3,362.4,259.8,362L259.8,362L259.8,362z"/>
			<path class="st18" d="M272.2,373.5l0.6-0.4c0.9-0.6,2.1-0.6,3,0l0.1,0.1c0.8,0.5,1.2,1.4,1.2,2.3v0.2c0,1.3-0.9,2.3-2.1,2.6
				l-0.6,0.1c-0.7,0.2-1.5,0-2.2-0.4l-0.1-0.1c-1-0.7-1.5-2-1.1-3.1C271.3,374.3,271.7,373.8,272.2,373.5L272.2,373.5L272.2,373.5z"
				/>
			<path class="st18" d="M245.5,370.6l0.6-0.4c0.9-0.6,2.1-0.6,3,0l0.1,0.1c0.8,0.5,1.2,1.4,1.2,2.3v0.2c0,1.3-0.9,2.3-2.1,2.6
				l-0.6,0.1c-0.7,0.2-1.5,0-2.2-0.4l-0.1-0.1c-1-0.7-1.5-2-1.1-3.1C244.6,371.4,245,370.9,245.5,370.6L245.5,370.6z"/>
			<path class="st18" d="M251.2,349.6l0.6-0.4c0.9-0.6,2.1-0.6,3,0l0.1,0.1c0.8,0.5,1.2,1.4,1.2,2.3v0.2c0,1.3-0.9,2.3-2.1,2.6
				l-0.6,0.1c-0.7,0.2-1.5,0-2.2-0.4l-0.1-0.1c-1-0.7-1.5-2-1.1-3.1C250.4,350.5,250.7,350,251.2,349.6L251.2,349.6L251.2,349.6z"/>
			<circle class="st18" cx="262.8" cy="373" r="1.9"/>
			<circle class="st18" cx="241.9" cy="388.3" r="1.9"/>
			<circle class="st18" cx="237.1" cy="377.8" r="1.9"/>
			<path class="st18" d="M230.2,376v0.4c0,2-1.4,3.8-3.3,4.3l-0.9,0.2c-0.3,0.1-0.6,0.1-0.9,0.1c-1.2-2.7-1.9-5.6-2.1-8.6l0.3-0.2
				c1.5-1,3.4-1,4.9,0l0.2,0.1C229.5,373.2,230.2,374.5,230.2,376L230.2,376L230.2,376z"/>
			<path class="st18" d="M278,368.7c-0.7,0.1-1.3,0-2-0.2l-1.1-0.4c-0.7-0.3-1.4-0.7-1.9-1.3l-0.9-1.1c-1.1-1.3-1.5-3.1-0.8-4.7
				l0.4-0.9c0.5-1.3,1.6-2.3,3-2.7h0c0.1,0,0.2,0,0.3-0.1C276.8,360.9,277.8,364.8,278,368.7L278,368.7L278,368.7z"/>
			<path class="st19" d="M239.5,366l-0.1-0.6c-0.2-1.4-0.9-2.8-1.8-3.9l-0.5-0.6c0,0,0,0,0,0c-1-1.1-1.5-2.6-1.5-4.1
				c0,0,0-0.1,0-0.1c-0.5,0.5-0.9,1-1.1,1.6l-0.4,0.9c-0.6,1.6-0.3,3.4,0.8,4.7l0.9,1.1c0.5,0.6,1.2,1,1.9,1.3l1.1,0.4
				c0.2,0.1,0.4,0.1,0.6,0.1C239.5,366.5,239.5,366.2,239.5,366L239.5,366L239.5,366z"/>
			<path class="st19" d="M244.9,358.7l-1.1-1.2c-0.5-0.6-1.2-1-1.9-1.3l-1.7-0.6c-0.8-0.3-1.8-0.3-2.6-0.1h0
				c-0.6,0.2-1.1,0.4-1.6,0.8c0.5,0,0.9,0.1,1.4,0.2l1.7,0.6c0.7,0.3,1.4,0.7,1.9,1.3l1.1,1.2c1.7,1.9,1.5,4.7-0.4,6.4
				c-0.2,0.2-0.5,0.4-0.8,0.6l-0.4,0.2c0.8,0,1.5-0.2,2.1-0.6l1.1-0.6c2.2-1.2,3-4,1.7-6.2C245.3,359.2,245.1,358.9,244.9,358.7
				L244.9,358.7L244.9,358.7z"/>
			<path class="st19" d="M259,382.2l-0.2-0.1c-1.5-1-3.4-1-4.9,0l-0.9,0.6c-2,1.3-2.6,4.1-1.2,6.1c0.3,0.5,0.7,0.9,1.2,1.2l0.2,0.1
				c1,0.7,2.3,0.9,3.5,0.6l0.9-0.2c2-0.5,3.3-2.2,3.3-4.3v-0.4C260.9,384.4,260.2,383,259,382.2L259,382.2L259,382.2z M252,383.6
				C252,383.6,252,383.6,252,383.6l0.9-0.6c1.5-1,3.4-1,4.9,0l0.2,0.1c0.9,0.6,1.6,1.6,1.8,2.7C257.2,385.4,254.5,384.7,252,383.6
				L252,383.6L252,383.6z"/>
			<path class="st19" d="M264.8,364v0.2c0,1.2-0.9,2.3-2.1,2.6l-0.6,0.1c0.5-0.5,0.7-1.1,0.7-1.8V365c0-0.9-0.5-1.8-1.2-2.3
				l-0.1-0.1c-0.5-0.4-1.2-0.5-1.9-0.4c0.1-0.1,0.1-0.1,0.2-0.1l0.6-0.4c0.9-0.6,2.1-0.6,3,0l0.1,0.1
				C264.3,362.2,264.7,363.1,264.8,364L264.8,364L264.8,364z"/>
			<path class="st19" d="M256.2,351.6v0.2c0,1.2-0.9,2.3-2.1,2.6l-0.6,0.1c0.5-0.5,0.7-1.1,0.7-1.8v-0.2c0-0.9-0.5-1.8-1.2-2.3
				l-0.1-0.1c-0.5-0.4-1.2-0.5-1.9-0.4c0.1-0.1,0.1-0.1,0.2-0.1l0.6-0.4c0.9-0.6,2.1-0.6,3,0l0.1,0.1
				C255.7,349.9,256.2,350.7,256.2,351.6L256.2,351.6L256.2,351.6z"/>
			<path class="st19" d="M271.3,362.8c0.4-0.7,1-1.2,1.7-1.6l1.2-0.7c0.6-0.3,1.2-0.5,1.8-0.6c-0.3-0.8-0.7-1.7-1.1-2.5
				c-0.1,0-0.2,0-0.3,0.1h0c-1.4,0.4-2.5,1.4-3,2.7l-0.4,0.9c-0.3,0.7-0.4,1.5-0.3,2.2L271.3,362.8L271.3,362.8z"/>
			<path class="st19" d="M277.1,375.4v0.2c0,0.8-0.4,1.6-1,2.1c0-0.1,0-0.1,0-0.2v-0.2c0-0.9-0.5-1.8-1.2-2.3l-0.1-0.1
				c-0.9-0.6-2.1-0.6-3,0l-0.6,0.4c-0.1,0.1-0.2,0.1-0.3,0.2c0-0.2,0.1-0.5,0.1-0.7c0.2-0.6,0.6-1.1,1.1-1.4l0.6-0.4
				c0.9-0.6,2.1-0.6,3,0l0.1,0.1C276.7,373.7,277.1,374.5,277.1,375.4L277.1,375.4L277.1,375.4z"/>
			<path class="st19" d="M250.5,372.6v0.2c0,0.8-0.4,1.6-1,2.1c0-0.1,0-0.1,0-0.2v-0.2c0-0.9-0.5-1.8-1.2-2.3l-0.1-0.1
				c-0.9-0.6-2.1-0.6-3,0l-0.6,0.4c-0.1,0.1-0.2,0.1-0.3,0.2c0-0.2,0.1-0.5,0.1-0.7c0.2-0.6,0.6-1.1,1.1-1.4l0.6-0.4
				c0.9-0.6,2.1-0.6,3,0l0.1,0.1C250,370.8,250.5,371.7,250.5,372.6L250.5,372.6L250.5,372.6z"/>
			<path class="st19" d="M262.8,371.1c-0.7,0-1.4,0.4-1.7,1.1c1-0.4,2.1,0,2.5,0.9c0.2,0.5,0.2,1.1,0,1.6c1-0.4,1.4-1.6,0.9-2.5
				C264.3,371.6,263.6,371.1,262.8,371.1z"/>
			<path class="st19" d="M237.1,375.9c-0.7,0-1.4,0.4-1.7,1.1c1-0.4,2.1,0,2.5,0.9c0.2,0.5,0.2,1.1,0,1.6c1-0.4,1.4-1.6,0.9-2.5
				C238.6,376.3,237.9,375.9,237.1,375.9z"/>
			<path class="st19" d="M241.9,386.4c-0.7,0-1.4,0.4-1.7,1.1c1-0.4,2.1,0,2.5,0.9c0.2,0.5,0.2,1.1,0,1.6c1-0.4,1.4-1.6,0.9-2.5
				C243.3,386.8,242.6,386.4,241.9,386.4z"/>
			<path class="st19" d="M230.2,376v0.4c0,2-1.4,3.7-3.3,4.2l-0.9,0.2c-0.1,0-0.1,0-0.2,0c1.2-0.8,1.8-2.1,1.8-3.5V377
				c0-1.5-0.7-2.8-1.9-3.6l-0.2-0.1c-0.7-0.5-1.6-0.7-2.5-0.7v0l0.3-0.2c1.5-1,3.4-1,4.8,0l0.2,0.1
				C229.5,373.2,230.2,374.5,230.2,376L230.2,376L230.2,376z"/>
			<path class="st18" d="M268.4,353.4c1.5,0.3,3.1-0.4,3.8-1.8l0.1-0.3c0.6-1.2,0.1-2.6-1-3.2c-0.2-0.1-0.4-0.2-0.5-0.2
				c-0.5-0.1-0.9-0.4-1.2-0.7l-0.3-0.4c-0.9-0.9-2.3-1-3.2-0.3l-1.7,1.3l1.7,3.6C266.4,352.5,267.3,353.2,268.4,353.4L268.4,353.4
				L268.4,353.4z"/>
		</g>
		<g id="Outline_copy">
			<path class="st20" d="M272.8,352.5l0.4-0.7c0.9-1.6,0.2-3.7-1.4-4.5c-0.2-0.1-0.5-0.2-0.8-0.3c-0.3-0.1-0.5-0.2-0.7-0.4l-0.3-0.4
				c-1.2-1.3-3.2-1.4-4.5-0.4l-1.7,1.3c-0.4,0.3-0.5,0.9-0.1,1.3c0.3,0.4,0.9,0.5,1.3,0.2l1.7-1.3c0.6-0.5,1.4-0.4,2,0.2l0.3,0.4
				c0.4,0.5,1,0.8,1.7,1c0.8,0.2,1.3,1,1.1,1.8c0,0.1-0.1,0.2-0.1,0.3l-1.4,2.6c-0.2,0.5-0.1,1,0.4,1.3c0.3,0.2,0.8,0.1,1.1-0.2
				c0.1-0.1,0.1-0.2,0.2-0.3l0,0c0.6,0.8,1.2,1.7,1.7,2.6c-1.3,0.6-2.3,1.6-2.8,2.9l-0.4,0.9c-0.8,1.9-0.4,4.1,1,5.7l0.9,1.1
				c0.6,0.7,1.4,1.2,2.3,1.5l1.1,0.4c0.4,0.1,0.9,0.2,1.3,0.2c0,1,0,2.1-0.1,3.1c-0.2-0.2-0.4-0.3-0.5-0.5l-0.1-0.1
				c-1.2-0.8-2.8-0.8-4.1,0l-0.6,0.4c-1.8,1.2-2.2,3.8-0.7,5.5c0.2,0.2,0.5,0.4,0.7,0.6l0.1,0.1c0.6,0.4,1.3,0.6,2,0.6
				c0.1,0,0.2,0,0.3,0c-0.3,0.2-0.5,0.4-0.8,0.6l-1.1,0.9c-0.7,0.6-1.2,1.4-1.5,2.3l-0.2,0.5c-0.3,0.9-0.5,1.9-0.5,2.8
				c-0.1,1.1-0.5,2.2-1.3,2.9c-0.8,0.7-1.6,1.4-2.5,2l-0.2-0.5c-0.2-0.4-0.7-0.7-1.2-0.5c-0.6,0.2-0.8,0.8-0.6,1.3l0.6,1.3
				c0.1,0.2,0.1,0.5,0,0.7c-0.1,0.2-0.3,0.4-0.6,0.5c-0.7,0.2-1.3,0.6-1.6,1.2c-0.2,0.4-0.8,0.5-1.2,0.3c0,0-0.1-0.1-0.1-0.1
				l-2.2-1.8c-0.4-0.3-1-0.3-1.3,0.1c-0.3,0.4-0.3,1,0.1,1.3l0,0l0.2,0.2c-6.4,2-13.4,1.5-19.5-1.5c-1.2-0.6-2.1-1.7-2.4-3.1
				c-0.1-0.5-0.6-0.8-1.1-0.7c-0.5,0.1-0.8,0.6-0.7,1.1c0.4,1.9,1.7,3.5,3.5,4.4c6.9,3.3,14.8,3.8,22,1.2l0.3,0.2
				c0.5,0.4,1.1,0.7,1.8,0.7c0.2,0,0.3,0,0.5,0c0.8-0.1,1.5-0.6,1.9-1.3c0.1-0.2,0.3-0.3,0.5-0.4c1.2-0.3,2-1.5,2-2.7
				c1.1-0.8,2.1-1.6,3.1-2.5c1.1-1.1,1.8-2.6,1.9-4.2c0-0.8,0.2-1.6,0.4-2.4l0.2-0.5c0.2-0.6,0.5-1.1,1-1.5l1.1-1
				c0.2-0.2,0.4-0.3,0.6-0.4c1.5-0.9,2.6-2.4,3-4.2C280.3,368.3,278.3,359.3,272.8,352.5L272.8,352.5L272.8,352.5z M275.3,367.3
				c-0.6-0.2-1.1-0.5-1.5-1l-0.9-1.1c-0.9-1-1.2-2.4-0.7-3.7l0.4-0.9c0.4-0.9,1.1-1.6,1.9-1.9c1.4,2.9,2.3,6,2.6,9.2
				c-0.2,0-0.4-0.1-0.6-0.1L275.3,367.3L275.3,367.3z M272.8,377.3l-0.1-0.1c-0.8-0.5-1-1.6-0.5-2.5c0.1-0.2,0.3-0.4,0.5-0.5
				l0.6-0.4c0.6-0.4,1.4-0.4,2,0l0.1,0.1c0.5,0.3,0.8,0.9,0.8,1.5v0.2c0,0.8-0.6,1.5-1.3,1.7l-0.6,0.1
				C273.8,377.6,273.3,377.5,272.8,377.3L272.8,377.3z"/>
			<path class="st20" d="M234.3,387.7c-1-1-2.2-1.7-3.6-2.2l-0.7-0.2c0,0,0,0-0.1,0c-1.2-0.4-2.2-1.2-2.9-2.2
				c-0.2-0.4-0.4-0.8-0.6-1.3l0.7-0.2c2.4-0.6,4-2.7,4-5.2V376c0-1.8-0.9-3.5-2.4-4.4l-0.2-0.1c-1.4-0.9-3.2-1.2-4.8-0.6
				c0-0.2,0-0.5,0-0.7c0-1.4,0.1-2.8,0.3-4.2c0.2-0.9,0.8-1.8,1.6-2.2l0.2-0.1c0.9-0.5,1.6-1.1,2.1-2c0.5-0.8,0.8-1.8,0.8-2.8
				c0-1.4,0.3-2.8,0.7-4.1c0.2,0.1,0.3,0.2,0.5,0.2c0.5,0,1-0.4,1-0.9c0-0.2-0.1-0.4-0.2-0.6l-1.3-1.6c-0.5-0.6-0.4-1.4,0.2-2
				l0.4-0.3c0.5-0.4,0.8-1,1-1.7c0.2-0.8,1-1.3,1.8-1.1c0.1,0,0.2,0.1,0.3,0.1l2.4,1.3c0.5,0.2,1,0.1,1.3-0.4l0,0
				c0.1-0.2,0.1-0.4,0.1-0.6c4.7-2.8,10.3-4.1,15.8-3.6c2.9,0.2,5.8,1,8.5,2.2c0.5,0.2,1,0,1.3-0.5c0.2-0.5,0-1-0.5-1.3
				c-2.9-1.3-6-2.1-9.1-2.3c-6.1-0.5-12.3,1-17.5,4.2l-1.3-0.7c-1.6-0.9-3.7-0.2-4.5,1.4c-0.1,0.2-0.2,0.5-0.3,0.8
				c-0.1,0.3-0.2,0.5-0.4,0.7l-0.4,0.3c-1.3,1.2-1.4,3.2-0.4,4.5l0.1,0.2c-0.8,1.8-1.2,3.8-1.2,5.8c0,0.6-0.2,1.3-0.5,1.8
				c-0.3,0.5-0.8,1-1.3,1.3l-0.1,0.1c-1.4,0.7-2.4,2-2.7,3.6c-1,6.3,0.1,12.7,3.2,18.2c0.9,1.5,2.2,2.6,3.9,3.1c0,0,0,0,0.1,0
				l0.7,0.2c1.1,0.4,2,0.9,2.8,1.7c0.4,0.4,1,0.3,1.3,0S234.6,388,234.3,387.7L234.3,387.7L234.3,387.7z M227.5,373l0.2,0.1
				c1,0.6,1.5,1.7,1.5,2.9v0.4c0,1.6-1.1,3-2.6,3.3l-0.9,0.2l-0.1-0.1c-0.9-2.2-1.4-4.6-1.7-7C225.1,372.2,226.5,372.3,227.5,373
				L227.5,373L227.5,373z"/>
			<path class="st20" d="M235.2,365.6c0.6,0.7,1.4,1.2,2.3,1.5l1.1,0.4c1.5,0.5,3.1,0.3,4.4-0.4l0.7-0.4c0.5-0.3,0.6-0.8,0.4-1.3
				s-0.8-0.6-1.3-0.4l0,0l-0.7,0.4c-0.9,0.5-1.9,0.6-2.9,0.3l-1.1-0.4c-0.6-0.2-1.1-0.5-1.5-1l-0.9-1.1c-0.9-1-1.2-2.4-0.7-3.7
				l0.4-0.9c0.7-1.8,2.7-2.7,4.5-2.1l1.7,0.6c0.6,0.2,1.1,0.5,1.5,1l1.1,1.2c0.9,1,1.1,2.3,0.7,3.5c-0.2,0.5,0.1,1,0.6,1.2
				c0.5,0.2,1-0.1,1.2-0.6c0.6-1.9,0.2-3.9-1.1-5.4l-1.1-1.2c-0.6-0.7-1.4-1.2-2.3-1.5l-1.7-0.6c-2.8-0.9-5.8,0.5-6.8,3.2l-0.4,0.9
				c-0.8,1.9-0.4,4.1,1,5.7L235.2,365.6L235.2,365.6z"/>
			<path class="st20" d="M252.5,390.7l0.2,0.1c1.3,0.8,2.8,1.1,4.3,0.7l0.9-0.2c2.4-0.6,4-2.7,4-5.2c0-0.5-0.4-0.9-0.9-0.9
				s-0.9,0.4-0.9,0.9c0,1.6-1.1,3-2.6,3.3l-0.9,0.2c-0.9,0.2-1.9,0.1-2.7-0.5l-0.2-0.1c-1.6-1.1-2-3.2-0.9-4.8
				c0.3-0.4,0.6-0.7,0.9-0.9l0.9-0.6c1.2-0.8,2.7-0.8,3.8,0l0.2,0.1c0.2,0.2,0.4,0.3,0.6,0.6c0.4,0.4,1,0.4,1.3,0.1
				c0.4-0.4,0.4-1,0.1-1.3c-0.3-0.3-0.6-0.6-1-0.9l-0.2-0.1c-1.8-1.2-4.1-1.2-5.9,0l-0.9,0.6c-2.5,1.6-3.1,4.9-1.5,7.4
				C251.4,389.9,251.9,390.4,252.5,390.7L252.5,390.7L252.5,390.7z"/>
			<path class="st20" d="M259.9,360.9l-0.6,0.4c-1.7,1.1-2.1,3.4-1,5.1c0.3,0.4,0.6,0.8,1,1l0.1,0.1c0.9,0.6,1.9,0.8,2.9,0.5
				l0.6-0.1c1.6-0.4,2.8-1.9,2.8-3.6V364c0-1.2-0.6-2.4-1.6-3.1l-0.1-0.1C262.7,360,261.1,360,259.9,360.9
				C259.9,360.9,259.9,360.9,259.9,360.9z M262.9,362.4l0.1,0.1c0.5,0.3,0.8,0.9,0.8,1.5v0.2c0,0.8-0.6,1.5-1.3,1.7l-0.6,0.1
				c-0.5,0.1-1,0-1.4-0.2l-0.1-0.1c-0.8-0.5-1-1.6-0.5-2.5c0.1-0.2,0.3-0.4,0.5-0.5l0.6-0.4C261.5,362,262.3,362,262.9,362.4
				L262.9,362.4L262.9,362.4z"/>
			<path class="st20" d="M245.1,376c0.9,0.6,1.9,0.8,2.9,0.5l0.6-0.1c1.6-0.4,2.8-1.9,2.8-3.6v-0.2c0-1.2-0.6-2.4-1.6-3.1l-0.1-0.1
				c-1.2-0.8-2.8-0.8-4.1,0l-0.6,0.4c-1.7,1.1-2.1,3.4-1,5.1c0.3,0.4,0.6,0.8,1,1C245,375.9,245.1,376,245.1,376z M245.4,372.3
				c0.1-0.4,0.4-0.7,0.7-0.9l0.6-0.4c0.6-0.4,1.4-0.4,2,0l0.1,0.1c0.5,0.3,0.8,0.9,0.8,1.5v0.2c0,0.8-0.6,1.5-1.3,1.7l-0.6,0.1
				c-0.5,0.1-1,0-1.4-0.2l-0.1-0.1C245.4,373.9,245.1,373.1,245.4,372.3z"/>
			<path class="st20" d="M257.1,351.6c0-1.2-0.6-2.4-1.6-3.1l-0.1-0.1c-1.2-0.8-2.8-0.8-4.1,0l-0.6,0.4c-1.7,1.1-2.1,3.4-1,5.1
				c0.3,0.4,0.6,0.8,1,1l0.1,0.1c0.9,0.6,1.9,0.8,2.9,0.5l0.6-0.1c1.6-0.4,2.8-1.9,2.8-3.6V351.6L257.1,351.6z M255.2,351.8
				c0,0.8-0.6,1.5-1.3,1.7l-0.6,0.1c-0.5,0.1-1,0-1.4-0.2l-0.1-0.1c-0.8-0.5-1-1.6-0.5-2.5c0.1-0.2,0.3-0.4,0.5-0.5l0.6-0.4
				c0.6-0.4,1.4-0.4,2,0l0.1,0.1c0.5,0.3,0.8,0.9,0.8,1.5V351.8L255.2,351.8z"/>
			<path class="st20" d="M265.7,373c0-1.6-1.3-2.9-2.9-2.9c-1.6,0-2.9,1.3-2.9,2.9c0,1.6,1.3,2.9,2.9,2.9
				C264.4,375.9,265.7,374.6,265.7,373z M262.9,374c-0.5,0-0.9-0.4-0.9-0.9s0.4-0.9,0.9-0.9s0.9,0.4,0.9,0.9S263.4,374,262.9,374z"
				/>
			<path class="st20" d="M241.9,391.1c1.6,0,2.9-1.3,2.9-2.9c0-1.6-1.3-2.9-2.9-2.9c-1.6,0-2.9,1.3-2.9,2.9
				C239,389.8,240.3,391.1,241.9,391.1z M241.9,387.3c0.5,0,0.9,0.4,0.9,0.9c0,0.5-0.4,0.9-0.9,0.9c-0.5,0-0.9-0.4-0.9-0.9
				C240.9,387.7,241.4,387.3,241.9,387.3z"/>
			<path class="st20" d="M237.1,380.6c1.6,0,2.9-1.3,2.9-2.9c0-1.6-1.3-2.9-2.9-2.9c-1.6,0-2.9,1.3-2.9,2.9
				C234.3,379.4,235.6,380.6,237.1,380.6z M237.1,376.8c0.5,0,0.9,0.4,0.9,0.9s-0.4,0.9-0.9,0.9c-0.5,0-0.9-0.4-0.9-0.9
				S236.6,376.8,237.1,376.8z"/>
			<circle class="st20" cx="255.2" cy="369.2" r="0.9"/>
			<circle class="st20" cx="254.3" cy="360.6" r="0.9"/>
			<circle class="st20" cx="264.5" cy="353.8" r="0.9"/>
			<circle class="st20" cx="262.8" cy="378.7" r="0.9"/>
			<circle class="st20" cx="241.9" cy="350.2" r="0.9"/>
			<circle class="st20" cx="232.4" cy="368.3" r="0.9"/>
		</g>
	</g>
</g>
</svg>
