<svg id="visual" xmlns="http://www.w3.org/2000/svg" viewBox="0 0 774.06 450"><defs><style>.cls-1{fill:#f2f7a1;}.cls-2{fill:#46c2cb;}.cls-3{fill:#fff;}</style></defs><title>backgroundiss</title><path class="cls-1" d="M521,0l.3,5.3c.4,5.4,1,16-12.1,26.7S469,53.3,466.8,64s20.5,21.3,16.5,32.2S448.7,118,436,128.8s-7.3,21.5,5.5,32.2,33.2,21.3,41.8,32,5.7,21.3-11.3,32-48,21.3-78,32-59,21.3-58,32,32,21.3,62.7,32.2,61,21.8,48.5,32.6-67.9,21.5-100,32.2-41.2,21.3-43,32,3.5,21.3,6.1,26.7L313,450H0V0Z"/><circle class="cls-2" cx="560.75" cy="11.54" r="0.96"/><circle class="cls-2" cx="733.62" cy="48.51" r="1.26"/><circle class="cls-2" cx="761.68" cy="207.89" r="1.24"/><circle class="cls-3" cx="601.57" cy="199.5" r="1.06"/><circle class="cls-3" cx="640.99" cy="103.63" r="2.09"/><circle class="cls-3" cx="730.83" cy="158.52" r="1.78"/><circle class="cls-3" cx="492.88" cy="254.45" r="1.99"/><circle class="cls-2" cx="399.15" cy="407.75" r="1.19"/><circle class="cls-2" cx="676.87" cy="330.41" r="1.7"/><g id="Layer_1-2" data-name="Layer 1-2"><path class="cls-3" d="M718,44.48,765.58-.16a.13.13,0,0,1,.18,0,.14.14,0,0,1,0,.17L722.39,48.74a3.06,3.06,0,0,1-4.57-4.06Z"/></g><g id="Layer_1-2-2" data-name="Layer 1-2"><path class="cls-3" d="M529.88,108.59l24.69-23.16a.06.06,0,1,1,.09.09l-22.5,25.29a1.59,1.59,0,0,1-2.38-2.11Z"/></g><g id="Layer_1-2-3" data-name="Layer 1-2"><path class="cls-3" d="M615,264.45l37.68-35.36a.11.11,0,0,1,.15,0,.12.12,0,0,1,0,.14l-34.36,38.6a2.42,2.42,0,0,1-3.62-3.22Z"/></g><g id="Layer_1-2-4" data-name="Layer 1-2"><path class="cls-3" d="M386.17,283.06,421,250.37a.09.09,0,0,1,.13,0,.11.11,0,0,1,0,.13l-31.77,35.69a2.24,2.24,0,0,1-3.34-3Z"/></g><g id="Layer_1-2-5" data-name="Layer 1-2"><path class="cls-3" d="M724.28,146.49l34.83-32.69a.11.11,0,0,1,.14,0,.11.11,0,0,1,0,.13l-31.77,35.69a2.24,2.24,0,0,1-3.35-3Z"/></g><g id="Layer_1-2-6" data-name="Layer 1-2"><path class="cls-3" d="M665.66,392l34.83-32.7a.12.12,0,0,1,.14,0,.1.1,0,0,1,0,.13l-31.77,35.69a2.24,2.24,0,1,1-3.34-3A.93.93,0,0,1,665.66,392Z"/></g><g id="Layer_1-2-7" data-name="Layer 1-2"><path class="cls-3" d="M450.38,402.07l40.33-37.85a.11.11,0,0,1,.15,0,.1.1,0,0,1,0,.14l-36.77,41.32a2.59,2.59,0,1,1-3.87-3.45Z"/></g></svg>