<?xml version="1.0" encoding="utf-8"?>
<!-- Generator: Adobe Illustrator 23.0.1, SVG Export Plug-In . SVG Version: 6.00 Build 0)  -->
<svg version="1.1" id="visual" xmlns="http://www.w3.org/2000/svg" xmlns:xlink="http://www.w3.org/1999/xlink" x="0px" y="0px"
	 viewBox="0 0 437.2 450" style="enable-background:new 0 0 437.2 450;" xml:space="preserve">
<style type="text/css">
	.st0{fill:#453C67;}
	.st1{fill:#FFFFFF;}
	.st2{fill:#46C2CB;}
	.st3{fill:#6D67E4;}
	.st4{opacity:0.2;fill:#25223A;enable-background:new    ;}
	.st5{opacity:0.2;}
	.st6{fill:#25223A;}
	.st7{fill:#BDC3C7;}
	.st8{fill:#EDED8E;}
	.st9{fill:#DDDA76;}
	.st10{fill:#F2F7A1;}
	.st11{opacity:0.2;enable-background:new    ;}
	.st12{fill:#A8EDEF;}
	.st13{opacity:0.2;fill:#323232;enable-background:new    ;}
	.st14{fill:#323232;}
	.st15{fill:#FF5249;}
</style>
<title>Artboard 1</title>
<g id="Layer_1-2_2_">
	<path class="st0" d="M372.1,136.4c34.4,33.5,70.1,29,114.3,19.9c47.4-9.7,172.1-55.3,174-39.9c1.2,9.1-170.2,54.4-166.3,86.1
		c3.9,31.7,80.5,11.8,82.5,28.1c1.9,16.3-131.2,27.2-207.2,125.1c-48.7,62.8-24.7-2.7,11.7-42.6c36.4-39.9,51.5-86.9,14.3-108.8
		c-57.2-33.5-63.9-129.8-53.3-122.3C347.4,85.7,355.2,120,372.1,136.4z"/>
</g>
<g id="Layer_1-2">
	<path class="st1" d="M553.7,77c0.7-0.1,1.4-0.7,1.4-1.4c0-0.6,0.4-3.2,0.4-3.2s0.3,2.6,0.4,3.2c0.2,0.9,0.7,1.3,1.4,1.4
		c0.6,0.1,3.2,0.5,3.2,0.5c0,0-2.6,0.4-3.2,0.4c-1,0.1-1.3,0.7-1.4,1.4c-0.1,0.6-0.5,3.2-0.5,3.2s-0.4-2.6-0.5-3.2
		c-0.1-0.8-0.7-1.3-1.4-1.4c-0.6-0.1-3.2-0.4-3.2-0.4C550.5,77.4,553.1,77,553.7,77z"/>
	<path class="st1" d="M560.1,84.5c0.5-0.1,0.9-0.4,1-1c0-0.4,0.3-2.2,0.3-2.2s0.2,1.8,0.3,2.2c0.1,0.6,0.5,0.9,1,1
		c0.4,0.1,2.2,0.3,2.2,0.3c0,0-1.8,0.3-2.2,0.3c-0.6,0.1-0.9,0.5-1,1c-0.1,0.4-0.3,2.2-0.3,2.2s-0.3-1.8-0.3-2.2
		c-0.1-0.5-0.5-0.9-1-1c-0.4,0-2.2-0.3-2.2-0.3C557.8,84.8,559.6,84.5,560.1,84.5z"/>
</g>
<g id="Layer_1-2_1_">
	<path class="st1" d="M333.8,322.6c0.9-0.1,1.7-0.8,1.8-1.8c0.1-0.7,0.6-4,0.6-4s0.4,3.3,0.6,4c0.2,1.1,0.8,1.6,1.8,1.8
		c0.7,0.1,4,0.6,4,0.6c0,0-3.3,0.5-4,0.6c-1.2,0.2-1.7,0.9-1.8,1.8c-0.1,0.7-0.6,4-0.6,4s-0.5-3.3-0.6-4c-0.1-1-0.8-1.7-1.8-1.8
		c-0.7-0.1-4-0.6-4-0.6C329.8,323.2,333.1,322.7,333.8,322.6z"/>
</g>
<g id="Layer_1-2_3_">
	<path class="st1" d="M338.8,183.3c0.9-0.1,1.8-0.8,1.8-1.8c0.1-0.8,0.6-4.2,0.6-4.2s0.4,3.4,0.6,4.2c0.2,1.1,0.9,1.7,1.8,1.8
		c0.8,0.1,4.2,0.6,4.2,0.6c0,0-3.4,0.5-4.2,0.6c-1.2,0.2-1.7,0.9-1.8,1.8c-0.1,0.8-0.6,4.2-0.6,4.2s-0.5-3.4-0.6-4.2
		c-0.1-1-0.9-1.7-1.8-1.8c-0.8-0.1-4.2-0.6-4.2-0.6C334.6,183.9,338,183.4,338.8,183.3z"/>
</g>
<g id="Layer_1-2_4_">
	<path class="st1" d="M368,90.5c1-0.1,1.8-0.9,1.9-1.9c0.1-0.8,0.6-4.3,0.6-4.3s0.5,3.5,0.6,4.3c0.2,1.2,0.9,1.8,1.9,1.9
		c0.8,0.1,4.3,0.6,4.3,0.6c0,0-3.5,0.5-4.3,0.6c-1.3,0.2-1.8,1-1.9,1.9c-0.1,0.8-0.6,4.3-0.6,4.3s-0.5-3.5-0.6-4.3
		c-0.1-1.1-0.9-1.8-1.9-1.9c-0.8-0.1-4.3-0.6-4.3-0.6C363.7,91.1,367.2,90.6,368,90.5z"/>
	<path class="st1" d="M376.4,100.5c0.7-0.1,1.2-0.6,1.3-1.3c0-0.5,0.4-2.9,0.4-2.9s0.3,2.4,0.4,2.9c0.1,0.8,0.6,1.2,1.3,1.3
		c0.5,0.1,2.9,0.4,2.9,0.4c0,0-2.4,0.3-2.9,0.4c-0.9,0.1-1.2,0.7-1.3,1.3c-0.1,0.5-0.4,2.9-0.4,2.9s-0.4-2.4-0.4-2.9
		c-0.1-0.7-0.6-1.2-1.3-1.3c-0.5-0.1-2.9-0.4-2.9-0.4C373.5,100.9,375.9,100.5,376.4,100.5z"/>
</g>
<g id="Layer_1-2_5_">
	<path class="st1" d="M383.5,404.1c0.8-0.1,1.4-0.7,1.5-1.5c0.1-0.6,0.5-3.4,0.5-3.4s0.4,2.8,0.5,3.4c0.2,0.9,0.7,1.4,1.5,1.5
		c0.6,0.1,3.4,0.5,3.4,0.5c0,0-2.8,0.4-3.4,0.5c-1,0.1-1.4,0.8-1.5,1.5c-0.1,0.6-0.5,3.4-0.5,3.4s-0.4-2.8-0.5-3.4
		c-0.1-0.8-0.7-1.4-1.5-1.5c-0.6-0.1-3.4-0.5-3.4-0.5C380.2,404.6,382.9,404.2,383.5,404.1z"/>
</g>
<g id="Layer_1-2_6_">
	<path class="st1" d="M531.6,362.2c1-0.1,1.9-0.9,1.9-1.9c0.1-0.8,0.6-4.4,0.6-4.4s0.5,3.6,0.6,4.4c0.2,1.2,0.9,1.8,1.9,1.9
		c0.8,0.1,4.4,0.6,4.4,0.6c0,0-3.6,0.5-4.4,0.6c-1.3,0.2-1.8,1-1.9,1.9c-0.1,0.8-0.6,4.4-0.6,4.4s-0.5-3.6-0.6-4.4
		c-0.1-1.1-0.9-1.8-1.9-1.9c-0.8-0.1-4.4-0.6-4.4-0.6C527.2,362.8,530.8,362.3,531.6,362.2z"/>
</g>
<g id="Layer_1-2_7_">
	<path class="st1" d="M448.1,365.3c0.9-0.1,1.6-0.8,1.7-1.7c0.1-0.7,0.5-3.9,0.5-3.9s0.4,3.2,0.5,3.9c0.2,1.1,0.8,1.6,1.7,1.7
		c0.7,0.1,3.9,0.5,3.9,0.5c0,0-3.2,0.4-3.9,0.5c-1.1,0.2-1.6,0.9-1.7,1.7c-0.1,0.7-0.5,3.9-0.5,3.9s-0.5-3.2-0.5-3.9
		c-0.1-1-0.8-1.6-1.7-1.7c-0.7-0.1-3.9-0.5-3.9-0.5C444.2,365.9,447.3,365.4,448.1,365.3z"/>
	<path class="st1" d="M455.6,374.3c0.6-0.1,1.1-0.5,1.2-1.2c0-0.5,0.4-2.6,0.4-2.6s0.3,2.2,0.4,2.6c0.1,0.7,0.6,1.1,1.2,1.2
		c0.5,0.1,2.6,0.4,2.6,0.4c0,0-2.2,0.3-2.6,0.4c-0.8,0.1-1.1,0.6-1.2,1.2c-0.1,0.5-0.4,2.6-0.4,2.6s-0.3-2.2-0.4-2.6
		c-0.1-0.7-0.5-1.1-1.2-1.2c-0.5-0.1-2.6-0.4-2.6-0.4C453,374.7,455.2,374.4,455.6,374.3z"/>
</g>
<g id="Layer_1-2_8_">
	<path class="st1" d="M627.9,270.1c0.9-0.1,1.6-0.8,1.7-1.7c0.1-0.7,0.5-3.9,0.5-3.9s0.4,3.2,0.5,3.9c0.2,1,0.8,1.6,1.7,1.7
		c0.7,0.1,3.9,0.5,3.9,0.5c0,0-3.2,0.4-3.9,0.5c-1.1,0.2-1.6,0.9-1.7,1.7c-0.1,0.7-0.5,3.9-0.5,3.9s-0.5-3.2-0.5-3.9
		c-0.1-1-0.8-1.6-1.7-1.7c-0.7-0.1-3.9-0.5-3.9-0.5C624,270.6,627.2,270.1,627.9,270.1z"/>
</g>
<g id="Layer_1-2_9_">
	<path class="st1" d="M616.5,166.9c0.8-0.1,1.5-0.7,1.5-1.5c0.1-0.6,0.5-3.5,0.5-3.5s0.4,2.8,0.5,3.5c0.2,0.9,0.7,1.4,1.5,1.5
		c0.6,0.1,3.5,0.5,3.5,0.5c0,0-2.8,0.4-3.5,0.5c-1,0.1-1.4,0.8-1.5,1.5c-0.1,0.6-0.5,3.5-0.5,3.5s-0.4-2.8-0.5-3.5
		c-0.1-0.9-0.7-1.4-1.5-1.5c-0.6-0.1-3.5-0.5-3.5-0.5C613,167.3,615.9,166.9,616.5,166.9z"/>
</g>
<g id="Layer_1-2_10_">
	<path class="st1" d="M464.1,127.6c0.8-0.1,1.6-0.8,1.6-1.6c0.1-0.7,0.5-3.7,0.5-3.7s0.4,3,0.5,3.7c0.2,1,0.8,1.5,1.6,1.6
		c0.7,0.1,3.7,0.5,3.7,0.5c0,0-3,0.4-3.7,0.5c-1.1,0.1-1.5,0.8-1.6,1.6c-0.1,0.7-0.5,3.7-0.5,3.7s-0.4-3-0.5-3.7
		c-0.1-0.9-0.8-1.5-1.6-1.6c-0.7-0.1-3.7-0.5-3.7-0.5C460.4,128.1,463.4,127.6,464.1,127.6z"/>
</g>
<g id="Layer_1-2_11_">
	<path class="st1" d="M591.9,225c0.9-0.1,1.6-0.8,1.7-1.7c0.1-0.7,0.5-3.9,0.5-3.9s0.4,3.2,0.5,3.9c0.2,1.1,0.8,1.6,1.7,1.7
		c0.7,0.1,3.9,0.5,3.9,0.5c0,0-3.2,0.4-3.9,0.5c-1.1,0.2-1.6,0.9-1.7,1.7c-0.1,0.7-0.5,3.9-0.5,3.9s-0.5-3.2-0.5-3.9
		c-0.1-1-0.8-1.6-1.7-1.7c-0.7-0.1-3.9-0.5-3.9-0.5C588,225.6,591.1,225.1,591.9,225z"/>
	<path class="st1" d="M599.4,234c0.6-0.1,1.1-0.5,1.2-1.2c0-0.5,0.4-2.6,0.4-2.6s0.3,2.2,0.4,2.6c0.1,0.7,0.6,1.1,1.2,1.2
		c0.5,0.1,2.6,0.4,2.6,0.4c0,0-2.2,0.3-2.6,0.4c-0.8,0.1-1.1,0.6-1.2,1.2c-0.1,0.5-0.4,2.6-0.4,2.6s-0.3-2.2-0.4-2.6
		c-0.1-0.7-0.5-1.1-1.2-1.2c-0.5-0.1-2.6-0.4-2.6-0.4C596.8,234.4,599,234.1,599.4,234z"/>
</g>
<circle class="st2" cx="256.6" cy="94.1" r="2.1"/>
<circle class="st1" cx="354.3" cy="77.2" r="1.4"/>
<circle class="st1" cx="417.1" cy="142.4" r="2.3"/>
<circle class="st1" cx="497.7" cy="73.8" r="1.5"/>
<circle class="st2" cx="543.2" cy="283" r="2"/>
<circle class="st1" cx="393.2" cy="279.1" r="2.4"/>
<circle class="st1" cx="557.5" cy="155.2" r="1.9"/>
<circle class="st1" cx="396.8" cy="197.8" r="2"/>
<circle class="st2" cx="297.3" cy="392.6" r="2.2"/>
<circle class="st1" cx="442.9" cy="402.1" r="2.5"/>
<circle class="st1" cx="604.5" cy="359.4" r="3.5"/>
<circle class="st2" cx="654.1" cy="308.1" r="2.3"/>
<circle class="st1" cx="637.8" cy="181.1" r="1.5"/>
<circle class="st2" cx="525.6" cy="36.4" r="1.6"/>
<g id="Layer_1-2_12_">
	<path class="st3" d="M307.4,360.7l-1.8-4.8c-0.8-2.2-2.6-3.8-4.8-4.5l-4.9-1.5c-2.2-0.7-4.6-0.4-6.5,1l-4.3,2.8
		c-0.2,0.1-0.3,0.2-0.5,0.3c-1.7,1.3-2.7,3.2-2.9,5.3l-0.5,5.1c-0.2,2.3,0.7,4.6,2.3,6.1l3.7,3.5c1.7,1.6,4,2.3,6.3,2l5.1-0.7
		c2-0.3,3.8-1.3,5-2.9c0.2-0.2,0.4-0.5,0.5-0.8l2.6-4.4C308,365.3,308.2,362.8,307.4,360.7L307.4,360.7z"/>
	<path class="st4" d="M303.7,372.4c-1.2,1.6-3,2.6-5,2.9l-5.1,0.7c-2.3,0.3-4.6-0.4-6.3-2l-3.7-3.5c-1.7-1.6-2.5-3.8-2.3-6.1
		l0.5-5.1c0.2-2.1,1.3-4,2.9-5.3c-0.9,1.1-1.4,2.5-1.6,4l-0.5,5.1c-0.2,2.3,0.7,4.6,2.3,6.1l3.7,3.5c1.7,1.6,4,2.3,6.3,2l5.1-0.7
		C301.4,373.8,302.6,373.2,303.7,372.4L303.7,372.4z"/>
	<path class="st4" d="M291.4,358.7c0,1.5-1.2,2.8-2.8,2.8c-1.5,0-2.8-1.2-2.8-2.8s1.2-2.8,2.8-2.8
		C290.1,355.9,291.4,357.2,291.4,358.7z"/>
	<g class="st5">
		<path class="st6" d="M288.2,366.5c0,0.8-0.6,1.4-1.4,1.4s-1.4-0.6-1.4-1.4s0.6-1.4,1.4-1.4S288.2,365.7,288.2,366.5z"/>
		<path class="st6" d="M297.3,355c0,0.8-0.6,1.4-1.4,1.4c-0.8,0-1.4-0.6-1.4-1.4c0-0.8,0.6-1.4,1.4-1.4
			C296.7,353.7,297.3,354.3,297.3,355z"/>
		<path class="st6" d="M300.6,367.9c0,0.5-0.4,0.9-0.9,0.9s-0.9-0.4-0.9-0.9s0.4-0.9,0.9-0.9S300.6,367.4,300.6,367.9z"/>
		<path class="st6" d="M295.5,363.7c0,0.8-0.6,1.4-1.4,1.4s-1.4-0.6-1.4-1.4s0.6-1.4,1.4-1.4S295.5,363,295.5,363.7z"/>
		<path class="st6" d="M294.1,372.5c0,0.8-0.6,1.4-1.4,1.4s-1.4-0.6-1.4-1.4s0.6-1.4,1.4-1.4S294.1,371.8,294.1,372.5z"/>
	</g>
	<path class="st7" d="M303.3,366.5c-0.1,0-0.2,0-0.3-0.1s-0.1-0.2-0.1-0.3c0-0.1,0-0.1,0-0.2c0-0.1,0.1-0.1,0.1-0.2
		c0.1-0.1,0.3-0.2,0.5-0.1c0.1,0,0.2,0.1,0.2,0.2c0,0.1,0,0.1,0,0.2c0,0.1-0.1,0.2-0.1,0.3c0,0-0.1,0.1-0.2,0.1
		S303.4,366.5,303.3,366.5z"/>
	<path class="st7" d="M295.1,369.3c-0.1,0-0.2,0-0.3-0.1s-0.1-0.2-0.1-0.3c0-0.1,0-0.1,0-0.2s0.1-0.1,0.1-0.2
		c0.1-0.1,0.3-0.2,0.5-0.1c0.1,0,0.2,0.1,0.2,0.2c0,0.1,0,0.1,0,0.2c0,0.1-0.1,0.2-0.1,0.3c0,0-0.1,0.1-0.2,0.1
		S295.1,369.3,295.1,369.3z"/>
	<path class="st7" d="M291.4,368.8c-0.1,0-0.2,0-0.3-0.1s-0.1-0.2-0.1-0.3c0-0.1,0-0.1,0-0.2c0-0.1,0.1-0.1,0.1-0.2
		c0.1-0.1,0.3-0.2,0.5-0.1c0.1,0,0.1,0.1,0.2,0.1c0,0,0.1,0.1,0.1,0.2c0,0.1,0,0.1,0,0.2c0,0.2-0.1,0.4-0.3,0.4
		C291.5,368.8,291.4,368.8,291.4,368.8z"/>
	<path class="st7" d="M295.5,359.6c-0.1,0-0.2,0-0.3-0.1s-0.1-0.2-0.1-0.3c0-0.1,0-0.1,0-0.2s0.1-0.1,0.1-0.2
		c0.1-0.1,0.3-0.2,0.5-0.1c0.1,0,0.1,0.1,0.2,0.1c0,0,0.1,0.1,0.1,0.2c0,0.1,0,0.1,0,0.2c0,0.2-0.1,0.4-0.3,0.4
		C295.6,359.6,295.6,359.6,295.5,359.6z"/>
	<path class="st4" d="M306.8,367.2l-2.6,4.4c-0.2,0.3-0.3,0.5-0.5,0.8c-0.6,0.5-1.4,0.9-2.1,1.2c0.1-0.2,0.3-0.4,0.4-0.6l2.6-4.4
		c1.2-2,1.4-4.4,0.6-6.6l-1.8-4.8c-0.8-2.2-2.6-3.8-4.8-4.5l-4.9-1.5c-1.7-0.5-3.6-0.5-5.3,0.3l1-0.7c1.9-1.3,4.3-1.7,6.5-1l4.9,1.5
		c2.2,0.7,4,2.4,4.8,4.5l1.8,4.8C308.2,362.8,308,365.3,306.8,367.2L306.8,367.2z"/>
	<path class="st4" d="M305.1,360.1c0,1.5-1.2,2.8-2.8,2.8s-2.8-1.2-2.8-2.8s1.2-2.8,2.8-2.8S305.1,358.6,305.1,360.1z"/>
	<path d="M303.3,366.5c-0.1,0-0.2,0-0.3-0.1s-0.1-0.2-0.1-0.3c0-0.1,0-0.1,0-0.2c0-0.1,0.1-0.1,0.1-0.2c0.1-0.1,0.3-0.2,0.5-0.1
		c0.1,0,0.2,0.1,0.2,0.2c0,0.1,0,0.1,0,0.2c0,0.1-0.1,0.2-0.1,0.3c0,0-0.1,0.1-0.2,0.1S303.4,366.5,303.3,366.5z"/>
	<path d="M295.1,369.3c-0.1,0-0.2,0-0.3-0.1s-0.1-0.2-0.1-0.3c0-0.1,0-0.1,0-0.2s0.1-0.1,0.1-0.2c0.1-0.1,0.3-0.2,0.5-0.1
		c0.1,0,0.2,0.1,0.2,0.2c0,0.1,0,0.1,0,0.2c0,0.1-0.1,0.2-0.1,0.3c0,0-0.1,0.1-0.2,0.1S295.1,369.3,295.1,369.3z"/>
	<path d="M291.4,368.8c-0.1,0-0.2,0-0.3-0.1s-0.1-0.2-0.1-0.3c0-0.1,0-0.1,0-0.2c0-0.1,0.1-0.1,0.1-0.2c0.1-0.1,0.3-0.2,0.5-0.1
		c0.1,0,0.1,0.1,0.2,0.1c0,0,0.1,0.1,0.1,0.2c0,0.1,0,0.1,0,0.2c0,0.2-0.1,0.4-0.3,0.4C291.5,368.8,291.4,368.8,291.4,368.8z"/>
	<path d="M295.5,359.6c-0.1,0-0.2,0-0.3-0.1s-0.1-0.2-0.1-0.3c0-0.1,0-0.1,0-0.2s0.1-0.1,0.1-0.2c0.1-0.1,0.3-0.2,0.5-0.1
		c0.1,0,0.1,0.1,0.2,0.1c0,0,0.1,0.1,0.1,0.2c0,0.1,0,0.1,0,0.2c0,0.2-0.1,0.4-0.3,0.4C295.6,359.6,295.6,359.6,295.5,359.6z"/>
	<path d="M306,355.8c-0.9-2.3-2.7-4-5.1-4.8l-4.9-1.5c-2.3-0.7-4.9-0.4-6.9,1l-4.3,2.8c-2.1,1.4-3.4,3.6-3.6,6l-0.5,5.1
		c-0.2,2.4,0.7,4.8,2.5,6.5l3.7,3.5c1.5,1.4,3.4,2.2,5.5,2.2c0.4,0,0.8,0,1.2-0.1l5.1-0.7c2.4-0.4,4.6-1.8,5.8-3.9l2.6-4.4
		c1.3-2.1,1.5-4.7,0.6-7L306,355.8L306,355.8z M306.4,367L306.4,367l-2.6,4.4c-1.1,1.9-3,3.1-5.2,3.5l-5.1,0.7
		c-2.2,0.3-4.3-0.4-5.9-1.9l-3.7-3.5c-1.6-1.5-2.4-3.6-2.2-5.8l0.5-5.1c0.2-2.2,1.4-4.1,3.2-5.3l4.3-2.8c1.8-1.2,4.1-1.5,6.1-0.9
		l4.9,1.5c2.1,0.7,3.7,2.2,4.5,4.2l1.8,4.8C307.8,362.9,307.5,365.1,306.4,367L306.4,367L306.4,367z"/>
	<path d="M302.4,356.9c-1.5,0-2.9,1.1-3.1,2.6c-0.3,1.5,0.5,3,1.9,3.6c1.4,0.6,3,0.1,3.9-1.2c0.9-1.3,0.7-3-0.4-4.1
		C304.1,357.2,303.2,356.9,302.4,356.9L302.4,356.9z M304,361.7c-0.8,0.8-2,0.9-2.9,0.3c-0.9-0.6-1.3-1.8-0.8-2.8
		c0.4-1,1.5-1.6,2.6-1.4c1.1,0.2,1.8,1.2,1.8,2.3C304.7,360.7,304.5,361.3,304,361.7L304,361.7z"/>
	<path d="M291.8,358.7c0-1.5-1.1-2.9-2.6-3.1c-1.5-0.3-3,0.5-3.6,1.9c-0.6,1.4-0.1,3,1.2,3.9c1.3,0.9,3,0.7,4.1-0.4
		C291.5,360.4,291.8,359.6,291.8,358.7z M288.6,361c-1.1,0-2-0.8-2.3-1.8s0.4-2.1,1.4-2.6c1-0.4,2.2-0.1,2.8,0.8
		c0.6,0.9,0.5,2.1-0.3,2.9C289.8,360.8,289.2,361,288.6,361L288.6,361z"/>
	<path d="M286.8,364.7c-0.9,0-1.6,0.6-1.8,1.5c-0.2,0.9,0.3,1.7,1.1,2.1c0.8,0.3,1.7,0.1,2.2-0.7c0.5-0.7,0.4-1.7-0.2-2.3
		C287.7,364.9,287.3,364.7,286.8,364.7L286.8,364.7z M287.4,367.1c-0.4,0.3-0.9,0.3-1.3,0c-0.3-0.3-0.3-0.7-0.2-1
		c0.1-0.3,0.5-0.6,0.8-0.6c0.4,0,0.7,0.2,0.8,0.6C287.8,366.5,287.7,366.9,287.4,367.1z"/>
	<path d="M296,353.2c-0.9,0-1.6,0.6-1.8,1.5s0.3,1.7,1.1,2.1c0.8,0.3,1.7,0.1,2.2-0.7c0.5-0.7,0.4-1.7-0.2-2.3
		C296.9,353.4,296.5,353.2,296,353.2z M296.6,355.7c-0.4,0.3-0.9,0.3-1.3,0c-0.3-0.3-0.3-0.7-0.2-1c0.1-0.3,0.5-0.6,0.8-0.6
		c0.4,0,0.7,0.2,0.8,0.6C297,355,296.9,355.4,296.6,355.7z"/>
	<path d="M298.7,366.9c-0.3,0.3-0.5,0.9-0.4,1.3c0.1,0.5,0.5,0.8,1,1c0.5,0.1,1,0,1.3-0.4c0.5-0.5,0.5-1.4,0-1.9
		S299.2,366.4,298.7,366.9L298.7,366.9L298.7,366.9z M300,368.2c-0.2,0.2-0.4,0.2-0.6,0.1c-0.2-0.1-0.3-0.4-0.2-0.6s0.3-0.3,0.5-0.3
		c0.2,0,0.4,0.2,0.4,0.5C300.1,368,300,368.1,300,368.2L300,368.2z"/>
	<path d="M294.1,361.9c-0.9,0-1.6,0.6-1.8,1.5c-0.2,0.9,0.3,1.7,1.1,2.1c0.8,0.3,1.7,0.1,2.2-0.7c0.5-0.7,0.4-1.7-0.2-2.3
		C295.1,362.1,294.6,361.9,294.1,361.9L294.1,361.9z M294.8,364.4c-0.4,0.3-0.9,0.3-1.3,0c-0.3-0.3-0.3-0.7-0.2-1
		c0.1-0.3,0.5-0.6,0.8-0.6c0.4,0,0.7,0.2,0.8,0.6C295.1,363.7,295,364.1,294.8,364.4z"/>
	<path d="M292.7,370.7c-0.9,0-1.6,0.6-1.8,1.5c-0.2,0.9,0.3,1.7,1.1,2.1c0.8,0.3,1.7,0.1,2.2-0.7c0.5-0.7,0.4-1.7-0.2-2.3
		C293.7,370.9,293.2,370.7,292.7,370.7z M293.4,373.2c-0.4,0.3-0.9,0.3-1.3,0c-0.3-0.3-0.3-0.7-0.2-1c0.1-0.3,0.5-0.6,0.8-0.6
		c0.4,0,0.7,0.2,0.8,0.6S293.6,372.9,293.4,373.2z"/>
</g>
<g id="Layer_1-2_14_">
	<path class="st8" d="M611.2,77.9l-0.6-0.6c-0.6-0.6-0.6-1.6,0-2.2l0.6-0.6c0.2-0.2,0.1-0.5-0.1-0.6l-0.8-0.4
		c-0.8-0.3-1.1-1.2-0.8-2l0.3-0.8c0.1-0.2-0.1-0.5-0.4-0.5l-0.8,0c-0.8,0-1.5-0.7-1.5-1.5l0-0.8c0-0.3-0.3-0.4-0.5-0.4l-0.8,0.3
		c-0.8,0.3-1.7-0.1-2-0.8l-0.4-0.8c-0.1-0.2-0.4-0.3-0.6-0.1l-0.6,0.6c-0.5,0.4-1.1,0.5-1.7,0.3h-0.8l-3.1,2.1l-2.1,3.5v8.8l4.3,3.8
		l1.7,0.4c0.6-0.2,1.2-0.1,1.7,0.3l0.6,0.6c0.2,0.2,0.5,0.1,0.6-0.1l0.4-0.8c0.3-0.8,1.2-1.1,2-0.8l0.8,0.3c0.2,0.1,0.5-0.1,0.5-0.4
		l0-0.8c0-0.8,0.7-1.5,1.5-1.5l0.8,0c0.3,0,0.4-0.3,0.4-0.5l-0.3-0.8c-0.3-0.8,0.1-1.7,0.8-2l0.8-0.4
		C611.3,78.4,611.4,78.1,611.2,77.9L611.2,77.9L611.2,77.9z"/>
	<path class="st9" d="M594.1,76.2c0-4.2,2.6-7.8,6.2-9.3c-0.2-0.1-0.4-0.2-0.5-0.3l-0.6-0.6c-0.2-0.2-0.5-0.1-0.6,0.1l-0.4,0.8
		c-0.3,0.8-1.2,1.1-2,0.8l-0.8-0.3c-0.2-0.1-0.5,0.1-0.5,0.4l0,0.8c0,0.8-0.7,1.5-1.5,1.5l-0.8,0c-0.3,0-0.4,0.3-0.4,0.5l0.3,0.8
		c0.3,0.8-0.1,1.7-0.8,2l-0.8,0.4c-0.2,0.1-0.3,0.4-0.1,0.6l0.6,0.6c0.6,0.6,0.6,1.6,0,2.2l-0.6,0.6c-0.2,0.2-0.1,0.5,0.1,0.6
		l0.8,0.4c0.8,0.3,1.1,1.2,0.8,2l-0.3,0.8c-0.1,0.2,0.1,0.5,0.4,0.5l0.8,0c0.8,0,1.5,0.7,1.5,1.5l0,0.8c0,0.3,0.3,0.4,0.5,0.4
		l0.8-0.3c0.8-0.3,1.7,0.1,2,0.8l0.4,0.8c0.1,0.2,0.4,0.3,0.6,0.1l0.6-0.6c0.2-0.1,0.3-0.2,0.5-0.3C596.7,84,594.1,80.4,594.1,76.2
		L594.1,76.2L594.1,76.2z"/>
	<path class="st10" d="M602.4,69c-3.1,0.9-5.4,3.8-5.4,7.2s2.3,6.3,5.4,7.2c3.4-0.6,6-3.6,6-7.2S605.8,69.6,602.4,69z"/>
	<path class="st11" d="M597.1,76.2c0-3.5,2.4-6.4,5.6-7.2c-0.6-0.1-1.1-0.2-1.8-0.2c-4.1,0-7.4,3.3-7.4,7.4s3.3,7.4,7.4,7.4
		c0.6,0,1.2-0.1,1.8-0.2C599.5,82.6,597.1,79.7,597.1,76.2L597.1,76.2L597.1,76.2z"/>
	<path d="M590.5,77.7c-0.2,0.2-0.2,0.4-0.2,0.6c0,0.2,0.2,0.4,0.4,0.5l0.8,0.4c0.6,0.3,0.9,1,0.7,1.6l-0.3,0.8
		c-0.1,0.2-0.1,0.4,0.1,0.6s0.3,0.3,0.6,0.3l0.8,0c0.7,0,1.2,0.6,1.2,1.2l0,0.8c0,0.2,0.1,0.4,0.3,0.6c0.2,0.1,0.4,0.2,0.6,0.1
		l0.8-0.3c0.6-0.2,1.3,0.1,1.6,0.7l0.4,0.8c0.1,0.2,0.3,0.4,0.5,0.4c0.2,0,0.4,0,0.6-0.2l0.6-0.6c0.1-0.1,0.2-0.2,0.3-0.2
		c0.2-0.1,0.2-0.3,0.1-0.4s-0.3-0.2-0.4-0.1c-0.2,0.1-0.3,0.2-0.4,0.3l-0.6,0.6c0,0,0,0-0.1,0c0,0,0,0-0.1,0l-0.4-0.8
		c-0.4-0.9-1.5-1.3-2.4-1l-0.8,0.3c0,0-0.1,0-0.1,0c0,0,0,0,0-0.1l0-0.8c0-1-0.8-1.8-1.8-1.8l-0.8,0c0,0-0.1,0-0.1,0s0,0,0-0.1
		l0.3-0.8c0.3-0.9-0.1-2-1-2.4l-0.8-0.4c0,0,0,0,0-0.1c0,0,0,0,0-0.1l0.6-0.6c0.7-0.7,0.7-1.9,0-2.6l-0.6-0.6c0,0,0,0,0-0.1
		c0,0,0,0,0-0.1l0.8-0.4c0.9-0.4,1.3-1.5,1-2.4l-0.3-0.8c0,0,0-0.1,0-0.1c0,0,0,0,0.1,0l0.8,0c1,0,1.8-0.8,1.8-1.8l0-0.8
		c0,0,0-0.1,0-0.1c0,0,0,0,0.1,0l0.8,0.3c0.9,0.3,2-0.1,2.4-1l0.4-0.8c0,0,0,0,0.1,0c0,0,0,0,0.1,0l0.6,0.6c0.7,0.7,1.9,0.7,2.6,0
		l0.6-0.6c0,0,0,0,0.1,0c0,0,0,0,0.1,0l0.4,0.8c0.4,0.9,1.5,1.3,2.4,1l0.8-0.3c0,0,0.1,0,0.1,0c0,0,0,0,0,0.1l0,0.8
		c0,1,0.8,1.8,1.8,1.8l0.8,0c0,0,0.1,0,0.1,0c0,0,0,0,0,0.1l-0.3,0.8c-0.3,0.9,0.1,2,1,2.4l0.8,0.4c0,0,0,0,0,0.1c0,0,0,0,0,0.1
		l-0.6,0.6c-0.7,0.7-0.7,1.9,0,2.6l0.6,0.6c0,0,0,0,0,0.1c0,0,0,0,0,0.1l-0.8,0.4c-0.9,0.4-1.3,1.5-1,2.4l0.3,0.8c0,0,0,0.1,0,0.1
		c0,0,0,0-0.1,0l-0.8,0c-1,0-1.8,0.8-1.8,1.8l0,0.8c0,0,0,0.1,0,0.1c0,0,0,0-0.1,0l-0.8-0.3c-0.9-0.3-2,0.1-2.4,1l-0.4,0.8
		c0,0,0,0-0.1,0c0,0,0,0-0.1,0l-0.6-0.6c-0.1-0.1-0.3-0.2-0.4-0.3c-0.2-0.1-0.3,0-0.4,0.1c-0.1,0.2,0,0.3,0.1,0.4
		c0.1,0.1,0.2,0.1,0.3,0.2l0.6,0.6c0.1,0.1,0.3,0.2,0.5,0.2c0,0,0.1,0,0.1,0c0.2,0,0.4-0.2,0.5-0.4l0.4-0.8c0.3-0.6,1-0.9,1.6-0.7
		l0.8,0.3c0.2,0.1,0.4,0.1,0.6-0.1c0.2-0.1,0.3-0.3,0.3-0.6l0-0.8c0-0.7,0.6-1.2,1.2-1.2l0.8,0c0.2,0,0.4-0.1,0.6-0.3
		c0.1-0.2,0.2-0.4,0.1-0.6l-0.3-0.8c-0.2-0.6,0.1-1.3,0.7-1.6l0.8-0.4c0.2-0.1,0.4-0.3,0.4-0.5c0-0.2,0-0.4-0.2-0.6l-0.6-0.6
		c-0.5-0.5-0.5-1.3,0-1.8l0.6-0.6c0.2-0.2,0.2-0.4,0.2-0.6c0-0.2-0.2-0.4-0.4-0.5l-0.8-0.4c-0.6-0.3-0.9-1-0.7-1.6l0.3-0.8
		c0.1-0.2,0.1-0.4-0.1-0.6c-0.1-0.2-0.3-0.3-0.6-0.3l-0.8,0c-0.7,0-1.2-0.6-1.2-1.2l0-0.8c0-0.2-0.1-0.4-0.3-0.6
		c-0.2-0.1-0.4-0.2-0.6-0.1l-0.8,0.3c-0.6,0.2-1.3-0.1-1.6-0.7l-0.4-0.8c-0.1-0.2-0.3-0.4-0.5-0.4c-0.2,0-0.4,0-0.6,0.2l-0.6,0.6
		c-0.5,0.5-1.3,0.5-1.8,0l-0.6-0.6c-0.2-0.2-0.4-0.2-0.6-0.2c-0.2,0-0.4,0.2-0.5,0.4l-0.4,0.8c-0.3,0.6-1,0.9-1.6,0.7l-0.8-0.3
		c-0.2-0.1-0.4-0.1-0.6,0.1c-0.2,0.1-0.3,0.3-0.3,0.6l0,0.8c0,0.7-0.6,1.2-1.2,1.2l-0.8,0c-0.2,0-0.4,0.1-0.6,0.3
		c-0.1,0.2-0.2,0.4-0.1,0.6l0.3,0.8c0.2,0.6-0.1,1.3-0.7,1.6l-0.8,0.4c-0.2,0.1-0.4,0.3-0.4,0.5c0,0.2,0,0.4,0.2,0.6l0.6,0.6
		c0.5,0.5,0.5,1.3,0,1.8L590.5,77.7L590.5,77.7z"/>
	<path d="M601,69.2c3.6,0,6.7,2.7,7,6.4c0,0.2,0.2,0.3,0.3,0.3c0.2,0,0.3-0.2,0.3-0.3c-0.4-3.9-3.7-6.9-7.6-6.9
		c-4.2,0-7.7,3.4-7.7,7.7s3.4,7.7,7.7,7.7c4,0,7.3-3,7.6-6.9c0-0.2-0.1-0.3-0.3-0.3c-0.2,0-0.3,0.1-0.3,0.3c-0.4,3.6-3.4,6.4-7,6.4
		c-3.9,0-7.1-3.2-7.1-7.1S597.1,69.2,601,69.2L601,69.2z"/>
</g>
<circle class="st2" cx="384.7" cy="359.7" r="2"/>
<circle class="st2" cx="499.2" cy="367.4" r="2"/>
<circle class="st2" cx="325.4" cy="239.2" r="2"/>
<circle class="st2" cx="436.6" cy="167.9" r="2"/>
<g id="Layer_1-2_15_">
	<path class="st1" d="M225.2,44.5c0.6-0.1,1.2-0.6,1.3-1.3c0-0.5,0.4-2.9,0.4-2.9s0.3,2.4,0.4,2.9c0.1,0.8,0.6,1.2,1.3,1.3
		c0.5,0.1,2.9,0.4,2.9,0.4c0,0-2.4,0.3-2.9,0.4c-0.9,0.1-1.2,0.7-1.3,1.3c-0.1,0.5-0.4,2.9-0.4,2.9s-0.3-2.4-0.4-2.9
		c-0.1-0.7-0.6-1.2-1.3-1.3c-0.5-0.1-2.9-0.4-2.9-0.4C222.3,44.9,224.6,44.5,225.2,44.5z"/>
</g>
<circle class="st1" cx="272" cy="35.2" r="1.5"/>
<circle class="st10" cx="126.1" cy="225" r="260.5"/>
<g id="Layer_1-2_16_">
	<g id="Fill_Outline_1_">
		<g id="Color_1_">
			<path class="st12" d="M253.4,85.1c0.4-0.2,0.8-0.6,1.1-1c0.3-0.4,0.4-0.9,0.4-1.4c0-2,0.7-3.9,2.1-5.4c6.8-6.4,17.4-6.2,23.9,0.6
				c3.9,4.1,5.5,10,4.2,15.6c-0.2,0.9-0.8,1.7-1.6,2.2c-0.2,0.1-0.3,0.2-0.5,0.3l-0.7,0.6c-0.4,0.3-0.6,0.7-0.8,1.2l-0.1,0.3
				c-0.2,0.5-0.3,1.1-0.3,1.6c0,0.8-0.4,1.6-1,2.2c-5.1,4.8-12.6,6-18.9,2.9c-0.9-0.4-1.6-1.3-1.8-2.3c-0.1-0.5-0.3-0.9-0.6-1.3
				l-0.2-0.3c-0.6-0.7-1.4-1.2-2.2-1.4l-0.4-0.1c0,0,0,0,0,0c-0.9-0.3-1.6-0.9-2.1-1.6c-1.8-3.3-2.5-7.1-1.9-10.7
				C252.1,86.1,252.6,85.5,253.4,85.1L253.4,85.1L253.4,85.1z"/>
			<path class="st2" d="M281.6,97.6c0,0,0,0.1-0.1,0.1l-0.1,0.3c-0.2,0.5-0.3,1.1-0.3,1.6c0,0.8-0.4,1.6-1,2.2
				c-5.1,4.8-12.6,6-18.9,2.9c-0.9-0.4-1.6-1.3-1.8-2.3c-0.1-0.5-0.3-0.9-0.6-1.3l-0.2-0.3c-0.6-0.7-1.4-1.2-2.2-1.4l-0.4-0.1
				c0,0,0,0,0,0c-0.9-0.3-1.6-0.9-2.1-1.6c-1.4-2.5-2.1-5.3-2.1-8.1c0-0.9,0.1-1.8,0.2-2.6c0.1-0.8,0.6-1.4,1.3-1.8l0.1,0
				c0.4-0.2,0.8-0.6,1.1-1c0.3-0.4,0.4-0.9,0.4-1.4c0-2,0.7-3.9,2.1-5.4c1.4-1.3,2.9-2.4,4.6-3.1c-1.2,2.2-1.9,4.6-2.1,7.2
				c0,0.9,0.3,1.8,0.9,2.5c0.4,0.5,0.4,0.5,0,0l0.3,0.4c0.6,0.7,0.9,1.5,1.1,2.4l0.1,0.4c0.1,0.5,0,1-0.1,1.4c-0.3,1-0.2,2,0.3,2.9
				c3.7,5.9,10.7,8.9,17.6,7.6C280.5,98.7,281.2,98.2,281.6,97.6L281.6,97.6L281.6,97.6z"/>
			<path class="st12" d="M259.8,75.6l-1.5-0.8c-0.7-0.4-1.6-0.1-2,0.6c-0.1,0.1-0.1,0.2-0.1,0.3c-0.1,0.3-0.2,0.5-0.4,0.7l-0.2,0.2
				c-0.6,0.5-0.6,1.4-0.2,2l0.8,1L259.8,75.6L259.8,75.6z"/>
			<path class="st13" d="M255.7,76.7c0.8-0.3,1.7-0.5,2.6-0.6c0.5-0.1,1-0.3,1.4-0.6l0.2,0.1l-3.6,4.1l-0.8-1
				c-0.5-0.6-0.4-1.5,0.2-2L255.7,76.7L255.7,76.7z"/>
			<path class="st12" d="M277.6,102.6l0.4,0.8c0.3,0.5,0,1.2-0.5,1.5c-0.1,0-0.1,0.1-0.2,0.1h0c-0.3,0.1-0.5,0.3-0.6,0.5
				c-0.3,0.5-1,0.7-1.5,0.4c-0.1,0-0.1-0.1-0.2-0.1l-1.3-1.1L277.6,102.6L277.6,102.6z"/>
			<path class="st12" d="M264.6,81.8l0.7,0.7c0.7,0.7,0.9,1.8,0.6,2.7c-0.2,0.7-0.7,1.2-1.3,1.5l-0.7,0.4c-0.7,0.4-1.5,0.5-2.2,0.2
				l-0.7-0.2c-0.5-0.2-0.9-0.4-1.2-0.8l-0.6-0.7c-0.7-0.8-0.9-1.9-0.5-2.9l0.2-0.6c0.3-0.8,1-1.4,1.8-1.6h0c0.5-0.1,1.1-0.1,1.6,0
				l1,0.4C263.8,81.2,264.2,81.4,264.6,81.8L264.6,81.8L264.6,81.8z"/>
			<path class="st12" d="M270.2,97.1l0.6-0.4c0.9-0.6,2.1-0.6,3,0l0.1,0.1c0.7,0.5,1.2,1.3,1.2,2.2v0.2c0,1.2-0.8,2.3-2,2.6
				l-0.6,0.1c-0.7,0.2-1.5,0-2.1-0.4l-0.1-0.1c-1-0.7-1.4-1.9-1.1-3.1C269.3,98,269.7,97.5,270.2,97.1L270.2,97.1L270.2,97.1z"/>
			<path class="st12" d="M274.3,84.6l0.4-0.2c0.6-0.4,1.3-0.4,1.8,0l0.1,0.1c0.5,0.3,0.7,0.8,0.7,1.4v0.1c0,0.8-0.5,1.4-1.3,1.6
				l-0.4,0.1c-0.5,0.1-0.9,0-1.3-0.2l-0.1-0.1c-0.6-0.4-0.9-1.2-0.7-1.9C273.8,85.1,274,84.8,274.3,84.6L274.3,84.6L274.3,84.6z"/>
			<path class="st12" d="M281.9,91.5l0.4-0.2c0.6-0.4,1.3-0.4,1.8,0l0.1,0.1c0.5,0.3,0.7,0.8,0.7,1.4v0.1c0,0.8-0.5,1.4-1.3,1.6
				l-0.4,0.1c-0.5,0.1-0.9,0-1.3-0.2l-0.1-0.1c-0.6-0.4-0.9-1.2-0.7-1.9C281.4,92,281.6,91.7,281.9,91.5L281.9,91.5L281.9,91.5z"/>
			<path class="st12" d="M265.6,89.8l0.4-0.2c0.6-0.4,1.3-0.4,1.8,0l0.1,0.1c0.5,0.3,0.7,0.8,0.7,1.4v0.1c0,0.8-0.5,1.4-1.3,1.6
				l-0.4,0.1c-0.5,0.1-0.9,0-1.3-0.2l-0.1-0.1c-0.6-0.4-0.9-1.2-0.7-1.9C265.1,90.3,265.3,90,265.6,89.8L265.6,89.8z"/>
			<path class="st12" d="M269.1,77l0.4-0.2c0.6-0.4,1.3-0.4,1.8,0l0.1,0.1c0.5,0.3,0.7,0.8,0.7,1.4v0.1c0,0.8-0.5,1.4-1.3,1.6
				l-0.4,0.1c-0.5,0.1-0.9,0-1.3-0.2l-0.1-0.1c-0.6-0.4-0.9-1.2-0.7-1.9C268.6,77.5,268.8,77.2,269.1,77L269.1,77L269.1,77z"/>
			<circle class="st12" cx="276.2" cy="91.3" r="1.2"/>
			<circle class="st12" cx="263.4" cy="100.6" r="1.2"/>
			<circle class="st12" cx="260.5" cy="94.2" r="1.2"/>
			<path class="st12" d="M256.3,93.1v0.2c0,1.2-0.8,2.3-2,2.6l-0.6,0.1c-0.2,0-0.4,0.1-0.6,0.1c-0.7-1.7-1.1-3.4-1.3-5.2l0.2-0.1
				c0.9-0.6,2.1-0.6,3,0l0.1,0.1C255.8,91.4,256.3,92.2,256.3,93.1L256.3,93.1L256.3,93.1z"/>
			<path class="st12" d="M285.5,88.6c-0.4,0.1-0.8,0-1.2-0.1l-0.7-0.2c-0.5-0.2-0.9-0.4-1.2-0.8l-0.6-0.7c-0.7-0.8-0.9-1.9-0.5-2.9
				l0.2-0.6c0.3-0.8,1-1.4,1.8-1.6h0c0.1,0,0.1,0,0.2,0C284.7,83.9,285.4,86.2,285.5,88.6L285.5,88.6L285.5,88.6z"/>
			<path class="st13" d="M261.9,87l-0.1-0.4c-0.2-0.9-0.5-1.7-1.1-2.4l-0.3-0.4c0,0,0,0,0,0c-0.6-0.7-0.9-1.6-0.9-2.5c0,0,0,0,0-0.1
				c-0.3,0.3-0.5,0.6-0.7,1l-0.2,0.6c-0.4,1-0.2,2.1,0.5,2.9l0.6,0.7c0.3,0.4,0.7,0.6,1.2,0.8l0.7,0.2c0.1,0,0.2,0.1,0.3,0.1
				C261.9,87.3,261.9,87.1,261.9,87L261.9,87L261.9,87z"/>
			<path class="st13" d="M265.2,82.5l-0.7-0.7c-0.3-0.4-0.7-0.6-1.2-0.8l-1-0.4c-0.5-0.2-1.1-0.2-1.6,0h0c-0.4,0.1-0.7,0.3-1,0.5
				c0.3,0,0.6,0,0.8,0.1l1,0.4c0.5,0.2,0.9,0.4,1.2,0.8l0.7,0.7c1,1.1,0.9,2.9-0.2,3.9c-0.2,0.1-0.3,0.3-0.5,0.4l-0.2,0.1
				c0.5,0,0.9-0.1,1.3-0.3l0.7-0.4c1.3-0.7,1.8-2.4,1.1-3.8C265.5,82.8,265.3,82.7,265.2,82.5L265.2,82.5L265.2,82.5z"/>
			<path class="st13" d="M273.8,96.9l-0.1-0.1c-0.9-0.6-2.1-0.6-3,0l-0.6,0.4c-1.2,0.8-1.6,2.5-0.7,3.7c0.2,0.3,0.4,0.5,0.7,0.7
				l0.1,0.1c0.6,0.4,1.4,0.6,2.1,0.4l0.6-0.1c1.2-0.3,2-1.4,2-2.6v-0.2C275,98.2,274.6,97.4,273.8,96.9L273.8,96.9L273.8,96.9z
				 M269.6,97.7C269.6,97.7,269.6,97.7,269.6,97.7l0.6-0.4c0.9-0.6,2.1-0.6,3,0l0.1,0.1c0.6,0.4,1,1,1.1,1.6
				C272.7,98.9,271.1,98.4,269.6,97.7L269.6,97.7L269.6,97.7z"/>
			<path class="st13" d="M277.4,85.8v0.1c0,0.8-0.5,1.4-1.3,1.6l-0.3,0.1c0.3-0.3,0.4-0.7,0.4-1.1v-0.1c0-0.6-0.3-1.1-0.7-1.4
				l-0.1-0.1c-0.3-0.2-0.7-0.3-1.1-0.3c0,0,0.1-0.1,0.1-0.1l0.4-0.2c0.6-0.4,1.3-0.4,1.8,0l0.1,0.1
				C277.1,84.7,277.4,85.2,277.4,85.8L277.4,85.8L277.4,85.8z"/>
			<path class="st13" d="M272.1,78.2v0.1c0,0.8-0.5,1.4-1.3,1.6l-0.3,0.1c0.3-0.3,0.4-0.7,0.4-1.1v-0.1c0-0.6-0.3-1.1-0.7-1.4
				l-0.1-0.1c-0.3-0.2-0.7-0.3-1.1-0.3c0,0,0.1-0.1,0.1-0.1l0.4-0.2c0.6-0.4,1.3-0.4,1.8,0l0.1,0.1
				C271.8,77.1,272.1,77.6,272.1,78.2L272.1,78.2L272.1,78.2z"/>
			<path class="st13" d="M281.4,85c0.2-0.4,0.6-0.8,1-1l0.8-0.4c0.3-0.2,0.7-0.3,1.1-0.4c-0.2-0.5-0.4-1-0.7-1.5c-0.1,0-0.1,0-0.2,0
				h0c-0.8,0.2-1.5,0.8-1.8,1.6l-0.2,0.6c-0.2,0.4-0.2,0.9-0.2,1.4L281.4,85L281.4,85z"/>
			<path class="st13" d="M284.9,92.7v0.1c0,0.5-0.2,1-0.6,1.3c0,0,0-0.1,0-0.1v-0.1c0-0.6-0.3-1.1-0.7-1.4l-0.1-0.1
				c-0.6-0.4-1.3-0.4-1.8,0l-0.4,0.2c-0.1,0-0.1,0.1-0.2,0.1c0-0.1,0-0.3,0.1-0.4c0.1-0.4,0.4-0.7,0.7-0.9l0.4-0.2
				c0.6-0.4,1.3-0.4,1.8,0l0.1,0.1C284.6,91.7,284.9,92.2,284.9,92.7L284.9,92.7L284.9,92.7z"/>
			<path class="st13" d="M268.6,91v0.1c0,0.5-0.2,1-0.6,1.3c0,0,0-0.1,0-0.1v-0.1c0-0.6-0.3-1.1-0.7-1.4l-0.1-0.1
				c-0.6-0.4-1.3-0.4-1.8,0L265,91c-0.1,0-0.1,0.1-0.2,0.1c0-0.1,0-0.3,0.1-0.4c0.1-0.4,0.4-0.7,0.7-0.9l0.4-0.2
				c0.6-0.4,1.3-0.4,1.8,0l0.1,0.1C268.4,89.9,268.6,90.4,268.6,91L268.6,91L268.6,91z"/>
			<path class="st13" d="M276.2,90.1c-0.5,0-0.9,0.3-1.1,0.7c0.6-0.3,1.3,0,1.5,0.6c0.1,0.3,0.1,0.7,0,1c0.6-0.3,0.8-1,0.6-1.5
				C277.1,90.4,276.6,90.1,276.2,90.1z"/>
			<path class="st13" d="M260.5,93c-0.5,0-0.9,0.3-1.1,0.7c0.6-0.3,1.3,0,1.5,0.6c0.1,0.3,0.1,0.7,0,1c0.6-0.3,0.8-1,0.6-1.5
				C261.4,93.3,260.9,93,260.5,93z"/>
			<path class="st13" d="M263.4,99.4c-0.5,0-0.9,0.3-1.1,0.7c0.6-0.3,1.3,0,1.5,0.6c0.1,0.3,0.1,0.7,0,1c0.6-0.3,0.8-1,0.6-1.5
				C264.3,99.7,263.9,99.4,263.4,99.4z"/>
			<path class="st13" d="M256.3,93.1v0.2c0,1.2-0.8,2.3-2,2.6l-0.6,0.1c0,0-0.1,0-0.1,0c0.7-0.5,1.1-1.3,1.1-2.2v-0.2
				c0-0.9-0.4-1.7-1.2-2.2l-0.1-0.1c-0.4-0.3-1-0.5-1.5-0.5v0l0.2-0.1c0.9-0.6,2.1-0.6,3,0l0.1,0.1
				C255.8,91.4,256.3,92.2,256.3,93.1L256.3,93.1L256.3,93.1z"/>
			<path class="st12" d="M279.6,79.3c0.9,0.2,1.9-0.3,2.3-1.1L282,78c0.4-0.7,0.1-1.6-0.6-2c-0.1-0.1-0.2-0.1-0.3-0.1
				c-0.3-0.1-0.5-0.2-0.7-0.4l-0.2-0.2c-0.5-0.6-1.4-0.6-2-0.2l-1.1,0.8l1,2.2C278.4,78.7,278.9,79.1,279.6,79.3L279.6,79.3
				L279.6,79.3z"/>
		</g>
		<g id="Outline_copy_1_">
			<path class="st14" d="M282.3,78.7l0.2-0.4c0.5-1,0.1-2.2-0.9-2.8c-0.1-0.1-0.3-0.1-0.5-0.2c-0.2,0-0.3-0.1-0.4-0.3l-0.2-0.2
				c-0.7-0.8-1.9-0.9-2.8-0.2l-1.1,0.8c-0.2,0.2-0.3,0.6-0.1,0.8c0.2,0.2,0.6,0.3,0.8,0.1l1.1-0.8c0.4-0.3,0.9-0.2,1.2,0.1l0.2,0.2
				c0.3,0.3,0.6,0.5,1,0.6c0.5,0.1,0.8,0.6,0.7,1.1c0,0.1,0,0.1-0.1,0.2l-0.8,1.6c-0.1,0.3,0,0.6,0.2,0.8c0.2,0.1,0.5,0.1,0.7-0.1
				c0,0,0.1-0.1,0.1-0.2l0,0c0.4,0.5,0.7,1,1.1,1.6c-0.8,0.4-1.4,1-1.7,1.8l-0.2,0.6c-0.5,1.2-0.2,2.5,0.6,3.5l0.6,0.7
				c0.4,0.4,0.9,0.8,1.4,0.9l0.7,0.2c0.3,0.1,0.5,0.1,0.8,0.2c0,0.6,0,1.3-0.1,1.9c-0.1-0.1-0.2-0.2-0.3-0.3l-0.1-0.1
				c-0.8-0.5-1.7-0.5-2.5,0l-0.4,0.2c-1.1,0.7-1.4,2.3-0.4,3.4c0.1,0.1,0.3,0.3,0.4,0.4l0.1,0c0.4,0.2,0.8,0.4,1.2,0.4
				c0.1,0,0.1,0,0.2,0c-0.2,0.1-0.3,0.2-0.5,0.3l-0.7,0.6c-0.4,0.4-0.8,0.9-0.9,1.4l-0.1,0.3c-0.2,0.6-0.3,1.1-0.3,1.7
				c0,0.7-0.3,1.3-0.8,1.8c-0.5,0.4-1,0.9-1.5,1.2l-0.1-0.3c-0.1-0.3-0.4-0.4-0.7-0.3c-0.3,0.1-0.5,0.5-0.4,0.8l0.4,0.8
				c0.1,0.1,0.1,0.3,0,0.4c-0.1,0.1-0.2,0.3-0.3,0.3c-0.4,0.1-0.8,0.4-1,0.8c-0.1,0.2-0.5,0.3-0.7,0.2c0,0,0,0-0.1-0.1l-1.3-1.1
				c-0.2-0.2-0.6-0.2-0.8,0.1c-0.2,0.2-0.2,0.6,0.1,0.8l0,0l0.1,0.1c-3.9,1.2-8.2,0.9-11.9-0.9c-0.8-0.4-1.3-1-1.5-1.9
				c-0.1-0.3-0.4-0.5-0.7-0.4c-0.3,0.1-0.5,0.4-0.4,0.7c0.3,1.2,1,2.2,2.1,2.7c4.2,2,9,2.3,13.4,0.7l0.2,0.1
				c0.3,0.3,0.7,0.4,1.1,0.4c0.1,0,0.2,0,0.3,0c0.5-0.1,0.9-0.4,1.2-0.8c0.1-0.1,0.2-0.2,0.3-0.2c0.7-0.2,1.2-0.9,1.2-1.7
				c0.7-0.5,1.3-1,1.9-1.5c0.7-0.7,1.1-1.6,1.2-2.6c0-0.5,0.1-1,0.3-1.4l0.1-0.3c0.1-0.4,0.3-0.7,0.6-0.9l0.7-0.6
				c0.1-0.1,0.2-0.2,0.4-0.3c0.9-0.6,1.6-1.5,1.9-2.5C286.9,88.4,285.6,82.9,282.3,78.7L282.3,78.7L282.3,78.7z M283.8,87.8
				c-0.4-0.1-0.7-0.3-0.9-0.6l-0.6-0.7c-0.6-0.6-0.7-1.5-0.4-2.3l0.2-0.6c0.2-0.5,0.6-1,1.2-1.2c0.9,1.8,1.4,3.7,1.6,5.6
				c-0.1,0-0.3,0-0.4-0.1L283.8,87.8L283.8,87.8z M282.3,93.9L282.3,93.9c-0.6-0.4-0.7-1.1-0.4-1.6c0.1-0.1,0.2-0.2,0.3-0.3l0.4-0.2
				c0.4-0.2,0.8-0.2,1.2,0l0.1,0.1c0.3,0.2,0.5,0.5,0.5,0.9v0.1c0,0.5-0.3,0.9-0.8,1l-0.4,0.1C282.9,94.1,282.6,94,282.3,93.9
				L282.3,93.9z"/>
			<path class="st14" d="M258.7,100.2c-0.6-0.6-1.4-1.1-2.2-1.3l-0.4-0.1c0,0,0,0,0,0c-0.7-0.2-1.4-0.7-1.8-1.4
				c-0.1-0.3-0.3-0.5-0.4-0.8l0.4-0.1c1.5-0.4,2.5-1.7,2.5-3.2v-0.2c0-1.1-0.5-2.1-1.4-2.7l-0.1-0.1c-0.9-0.6-2-0.7-2.9-0.4
				c0-0.1,0-0.3,0-0.4c0-0.9,0.1-1.7,0.2-2.6c0.1-0.6,0.5-1.1,1-1.3l0.1-0.1c0.5-0.3,1-0.7,1.3-1.2c0.3-0.5,0.5-1.1,0.5-1.7
				c0-0.9,0.2-1.7,0.4-2.5c0.1,0.1,0.2,0.1,0.3,0.1c0.3,0,0.6-0.3,0.6-0.6c0-0.1,0-0.3-0.1-0.4l-0.8-1c-0.3-0.4-0.2-0.9,0.1-1.2
				l0.2-0.2c0.3-0.3,0.5-0.6,0.6-1c0.1-0.5,0.6-0.8,1.1-0.7c0.1,0,0.1,0,0.2,0.1l1.5,0.8c0.3,0.1,0.6,0,0.8-0.2l0,0
				c0.1-0.1,0.1-0.2,0-0.3c2.9-1.7,6.3-2.5,9.6-2.2c1.8,0.1,3.6,0.6,5.2,1.3c0.3,0.1,0.6,0,0.8-0.3c0.1-0.3,0-0.6-0.3-0.8
				c-1.8-0.8-3.7-1.3-5.6-1.4c-3.7-0.3-7.5,0.6-10.7,2.6l-0.8-0.4c-1-0.5-2.2-0.1-2.8,0.9c-0.1,0.2-0.1,0.3-0.2,0.5
				c0,0.2-0.1,0.3-0.3,0.4l-0.2,0.2c-0.8,0.7-0.9,1.9-0.2,2.8l0.1,0.1c-0.5,1.1-0.7,2.3-0.8,3.5c0,0.4-0.1,0.8-0.3,1.1
				c-0.2,0.3-0.5,0.6-0.8,0.8l-0.1,0c-0.9,0.4-1.5,1.2-1.6,2.2c-0.6,3.8,0.1,7.7,1.9,11.1c0.5,0.9,1.4,1.6,2.4,1.9c0,0,0,0,0,0
				l0.4,0.1c0.7,0.2,1.2,0.6,1.7,1.1c0.2,0.2,0.6,0.2,0.8,0C259,100.8,259,100.4,258.7,100.2L258.7,100.2L258.7,100.2z M254.6,91.3
				l0.1,0.1c0.6,0.4,0.9,1,0.9,1.7v0.2c0,1-0.7,1.8-1.6,2l-0.6,0.1l-0.1,0c-0.5-1.4-0.9-2.8-1-4.3C253.1,90.8,254,90.8,254.6,91.3
				L254.6,91.3L254.6,91.3z"/>
			<path class="st14" d="M259.3,86.7c0.4,0.4,0.9,0.8,1.4,0.9l0.7,0.2c0.9,0.3,1.9,0.2,2.7-0.3l0.4-0.2c0.3-0.2,0.4-0.5,0.2-0.8
				c-0.2-0.3-0.5-0.4-0.8-0.2l0,0l-0.4,0.2c-0.5,0.3-1.2,0.4-1.8,0.2l-0.7-0.2c-0.4-0.1-0.7-0.3-0.9-0.6l-0.6-0.7
				c-0.6-0.6-0.7-1.5-0.4-2.3l0.2-0.6c0.4-1.1,1.6-1.6,2.7-1.3l1,0.4c0.4,0.1,0.7,0.3,0.9,0.6l0.7,0.7c0.5,0.6,0.7,1.4,0.4,2.1
				c-0.1,0.3,0.1,0.6,0.4,0.7c0.3,0.1,0.6-0.1,0.7-0.4c0.4-1.1,0.1-2.4-0.7-3.3l-0.7-0.7c-0.4-0.4-0.9-0.8-1.4-0.9l-1-0.4
				c-1.7-0.6-3.5,0.3-4.2,1.9l-0.2,0.6c-0.5,1.2-0.2,2.5,0.6,3.5L259.3,86.7L259.3,86.7z"/>
			<path class="st14" d="M269.9,102.1l0.1,0.1c0.8,0.5,1.7,0.7,2.6,0.5l0.6-0.1c1.5-0.4,2.5-1.7,2.5-3.2c0-0.3-0.3-0.6-0.6-0.6
				s-0.6,0.3-0.6,0.6c0,1-0.7,1.8-1.6,2l-0.6,0.1c-0.6,0.1-1.2,0-1.7-0.3l-0.1-0.1c-1-0.6-1.2-1.9-0.6-2.9c0.2-0.2,0.4-0.4,0.6-0.6
				l0.6-0.4c0.7-0.5,1.6-0.5,2.3,0l0.1,0.1c0.1,0.1,0.3,0.2,0.4,0.3c0.2,0.2,0.6,0.3,0.8,0c0.2-0.2,0.3-0.6,0-0.8
				c-0.2-0.2-0.4-0.4-0.6-0.5l-0.1-0.1c-1.1-0.7-2.5-0.7-3.6,0l-0.6,0.4c-1.5,1-1.9,3-0.9,4.5C269.2,101.6,269.5,101.9,269.9,102.1
				L269.9,102.1L269.9,102.1z"/>
			<path class="st14" d="M274.4,83.8l-0.4,0.2c-1,0.7-1.3,2.1-0.6,3.1c0.2,0.2,0.4,0.5,0.6,0.6l0.1,0.1c0.5,0.4,1.2,0.5,1.8,0.3
				l0.4-0.1c1-0.2,1.7-1.1,1.7-2.2v-0.1c0-0.7-0.4-1.4-1-1.9l-0.1-0.1C276.1,83.3,275.1,83.3,274.4,83.8
				C274.4,83.8,274.4,83.8,274.4,83.8z M276.2,84.8L276.2,84.8c0.4,0.3,0.6,0.6,0.6,1v0.1c0,0.5-0.3,0.9-0.8,1l-0.4,0.1
				c-0.3,0.1-0.6,0-0.9-0.2l-0.1-0.1c-0.5-0.3-0.6-1-0.3-1.5c0.1-0.1,0.2-0.2,0.3-0.3l0.4-0.2C275.4,84.6,275.9,84.6,276.2,84.8
				L276.2,84.8L276.2,84.8z"/>
			<path class="st14" d="M265.4,93.1c0.5,0.4,1.2,0.5,1.8,0.3l0.4-0.1c1-0.2,1.7-1.1,1.7-2.2V91c0-0.7-0.4-1.4-1-1.9l-0.1-0.1
				c-0.8-0.5-1.7-0.5-2.5,0l-0.4,0.2c-1,0.7-1.3,2.1-0.6,3.1C264.8,92.7,265.1,92.9,265.4,93.1C265.3,93,265.4,93.1,265.4,93.1z
				 M265.5,90.8c0.1-0.2,0.2-0.4,0.4-0.6l0.4-0.2c0.4-0.2,0.8-0.2,1.2,0l0.1,0.1c0.3,0.2,0.5,0.5,0.5,0.9v0.1c0,0.5-0.3,0.9-0.8,1
				l-0.4,0.1c-0.3,0.1-0.6,0-0.9-0.2l-0.1-0.1C265.5,91.8,265.4,91.3,265.5,90.8z"/>
			<path class="st14" d="M272.7,78.2c0-0.7-0.4-1.4-1-1.9l-0.1-0.1c-0.8-0.5-1.7-0.5-2.5,0l-0.4,0.2c-1,0.7-1.3,2.1-0.6,3.1
				c0.2,0.2,0.4,0.5,0.6,0.6l0.1,0.1c0.5,0.4,1.2,0.5,1.8,0.3l0.4-0.1c1-0.2,1.7-1.1,1.7-2.2L272.7,78.2L272.7,78.2z M271.5,78.3
				c0,0.5-0.3,0.9-0.8,1l-0.4,0.1c-0.3,0.1-0.6,0-0.9-0.2l-0.1-0.1c-0.5-0.3-0.6-1-0.3-1.5c0.1-0.1,0.2-0.2,0.3-0.3l0.4-0.2
				c0.4-0.2,0.8-0.2,1.2,0l0.1,0.1c0.3,0.2,0.5,0.5,0.5,0.9L271.5,78.3L271.5,78.3z"/>
			<path class="st14" d="M277.9,91.3c0-1-0.8-1.7-1.7-1.7s-1.7,0.8-1.7,1.7s0.8,1.7,1.7,1.7C277.2,93,277.9,92.2,277.9,91.3z
				 M276.2,91.9c-0.3,0-0.6-0.3-0.6-0.6c0-0.3,0.3-0.6,0.6-0.6s0.6,0.3,0.6,0.6C276.8,91.6,276.5,91.9,276.2,91.9z"/>
			<path class="st14" d="M263.4,102.3c1,0,1.7-0.8,1.7-1.7c0-1-0.8-1.7-1.7-1.7c-1,0-1.7,0.8-1.7,1.7
				C261.7,101.5,262.4,102.3,263.4,102.3z M263.4,100c0.3,0,0.6,0.3,0.6,0.6s-0.3,0.6-0.6,0.6s-0.6-0.3-0.6-0.6S263.1,100,263.4,100
				z"/>
			<path class="st14" d="M260.5,95.9c1,0,1.7-0.8,1.7-1.7s-0.8-1.7-1.7-1.7c-1,0-1.7,0.8-1.7,1.7S259.5,95.9,260.5,95.9z
				 M260.5,93.6c0.3,0,0.6,0.3,0.6,0.6c0,0.3-0.3,0.6-0.6,0.6s-0.6-0.3-0.6-0.6C259.9,93.9,260.2,93.6,260.5,93.6z"/>
			<circle class="st14" cx="271.5" cy="88.9" r="0.6"/>
			<circle class="st14" cx="271" cy="83.7" r="0.6"/>
			<circle class="st14" cx="277.2" cy="79.5" r="0.6"/>
			<circle class="st14" cx="276.2" cy="94.8" r="0.6"/>
			<circle class="st14" cx="263.4" cy="77.3" r="0.6"/>
			<circle class="st14" cx="257.6" cy="88.4" r="0.6"/>
		</g>
	</g>
</g>
<g id="Layer_1-2_13_">
	<path class="st3" d="M176.4,379.6l-1.8-4.8c-0.8-2.2-2.6-3.8-4.8-4.5l-4.9-1.5c-2.2-0.7-4.6-0.4-6.5,1l-4.3,2.8
		c-0.2,0.1-0.3,0.2-0.5,0.3c-1.7,1.3-2.7,3.2-2.9,5.3l-0.5,5.1c-0.2,2.3,0.7,4.6,2.3,6.1l3.7,3.5c1.7,1.6,4,2.3,6.3,2l5.1-0.7
		c2-0.3,3.8-1.3,5-2.9c0.2-0.2,0.4-0.5,0.5-0.8l2.6-4.4C177,384.2,177.3,381.8,176.4,379.6L176.4,379.6z"/>
	<path class="st4" d="M172.7,391.4c-1.2,1.6-3,2.6-5,2.9l-5.1,0.7c-2.3,0.3-4.6-0.4-6.3-2l-3.7-3.5c-1.7-1.6-2.5-3.8-2.3-6.1
		l0.5-5.1c0.2-2.1,1.3-4,2.9-5.3c-0.9,1.1-1.4,2.5-1.6,4l-0.5,5.1c-0.2,2.3,0.7,4.6,2.3,6.1l3.7,3.5c1.7,1.6,4,2.3,6.3,2l5.1-0.7
		C170.4,392.7,171.7,392.2,172.7,391.4L172.7,391.4z"/>
	<path class="st4" d="M160.4,377.6c0,1.5-1.2,2.8-2.8,2.8s-2.8-1.2-2.8-2.8c0-1.5,1.2-2.8,2.8-2.8S160.4,376.1,160.4,377.6z"/>
	<g class="st5">
		<path class="st6" d="M157.2,385.4c0,0.8-0.6,1.4-1.4,1.4s-1.4-0.6-1.4-1.4s0.6-1.4,1.4-1.4S157.2,384.7,157.2,385.4z"/>
		<path class="st6" d="M166.4,374c0,0.8-0.6,1.4-1.4,1.4c-0.8,0-1.4-0.6-1.4-1.4s0.6-1.4,1.4-1.4C165.7,372.6,166.4,373.2,166.4,374
			z"/>
		<path class="st6" d="M169.6,386.8c0,0.5-0.4,0.9-0.9,0.9c-0.5,0-0.9-0.4-0.9-0.9c0-0.5,0.4-0.9,0.9-0.9
			C169.2,385.9,169.6,386.3,169.6,386.8z"/>
		<path class="st6" d="M164.5,382.7c0,0.8-0.6,1.4-1.4,1.4s-1.4-0.6-1.4-1.4s0.6-1.4,1.4-1.4S164.5,381.9,164.5,382.7z"/>
		<path class="st6" d="M163.1,391.5c0,0.8-0.6,1.4-1.4,1.4s-1.4-0.6-1.4-1.4s0.6-1.4,1.4-1.4S163.1,390.7,163.1,391.5z"/>
	</g>
	<path class="st7" d="M172.3,385.4c-0.1,0-0.2,0-0.3-0.1c-0.1-0.1-0.1-0.2-0.1-0.3c0-0.1,0-0.1,0-0.2s0.1-0.1,0.1-0.2
		c0.1-0.1,0.3-0.2,0.5-0.1c0.1,0,0.2,0.1,0.2,0.2c0,0.1,0,0.1,0,0.2c0,0.1-0.1,0.2-0.1,0.3c0,0-0.1,0.1-0.2,0.1
		C172.4,385.4,172.4,385.4,172.3,385.4z"/>
	<path class="st7" d="M164.1,388.2c-0.1,0-0.2,0-0.3-0.1s-0.1-0.2-0.1-0.3c0-0.1,0-0.1,0-0.2s0.1-0.1,0.1-0.2
		c0.1-0.1,0.3-0.2,0.5-0.1c0.1,0,0.2,0.1,0.2,0.2c0,0.1,0,0.1,0,0.2c0,0.1-0.1,0.2-0.1,0.3c0,0-0.1,0.1-0.2,0.1
		C164.2,388.2,164.1,388.2,164.1,388.2z"/>
	<path class="st7" d="M160.4,387.7c-0.1,0-0.2,0-0.3-0.1s-0.1-0.2-0.1-0.3c0-0.1,0-0.1,0-0.2s0.1-0.1,0.1-0.2
		c0.1-0.1,0.3-0.2,0.5-0.1c0.1,0,0.1,0.1,0.2,0.1c0,0,0.1,0.1,0.1,0.2c0,0.1,0,0.1,0,0.2c0,0.2-0.1,0.4-0.3,0.4
		C160.5,387.7,160.5,387.7,160.4,387.7z"/>
	<path class="st7" d="M164.5,378.5c-0.1,0-0.2,0-0.3-0.1s-0.1-0.2-0.1-0.3c0-0.1,0-0.1,0-0.2s0.1-0.1,0.1-0.2
		c0.1-0.1,0.3-0.2,0.5-0.1c0.1,0,0.1,0.1,0.2,0.1c0,0,0.1,0.1,0.1,0.2c0,0.1,0,0.1,0,0.2c0,0.2-0.1,0.4-0.3,0.4
		C164.6,378.5,164.6,378.5,164.5,378.5z"/>
	<path class="st4" d="M175.8,386.2l-2.6,4.4c-0.2,0.3-0.3,0.5-0.5,0.8c-0.6,0.5-1.4,0.9-2.1,1.2c0.1-0.2,0.3-0.4,0.4-0.6l2.6-4.4
		c1.2-2,1.4-4.4,0.6-6.6l-1.8-4.8c-0.8-2.2-2.6-3.8-4.8-4.5l-4.9-1.5c-1.7-0.5-3.6-0.5-5.3,0.3l1-0.7c1.9-1.3,4.3-1.7,6.5-1l4.9,1.5
		c2.2,0.7,4,2.4,4.8,4.5l1.8,4.8C177.2,381.8,177,384.2,175.8,386.2L175.8,386.2z"/>
	<path class="st4" d="M174.2,379c0,1.5-1.2,2.8-2.8,2.8s-2.8-1.2-2.8-2.8s1.2-2.8,2.8-2.8S174.2,377.5,174.2,379z"/>
	<path d="M172.3,385.4c-0.1,0-0.2,0-0.3-0.1c-0.1-0.1-0.1-0.2-0.1-0.3c0-0.1,0-0.1,0-0.2s0.1-0.1,0.1-0.2c0.1-0.1,0.3-0.2,0.5-0.1
		c0.1,0,0.2,0.1,0.2,0.2c0,0.1,0,0.1,0,0.2c0,0.1-0.1,0.2-0.1,0.3c0,0-0.1,0.1-0.2,0.1C172.4,385.4,172.4,385.4,172.3,385.4z"/>
	<path d="M164.1,388.2c-0.1,0-0.2,0-0.3-0.1s-0.1-0.2-0.1-0.3c0-0.1,0-0.1,0-0.2s0.1-0.1,0.1-0.2c0.1-0.1,0.3-0.2,0.5-0.1
		c0.1,0,0.2,0.1,0.2,0.2c0,0.1,0,0.1,0,0.2c0,0.1-0.1,0.2-0.1,0.3c0,0-0.1,0.1-0.2,0.1C164.2,388.2,164.1,388.2,164.1,388.2z"/>
	<path d="M160.4,387.7c-0.1,0-0.2,0-0.3-0.1s-0.1-0.2-0.1-0.3c0-0.1,0-0.1,0-0.2s0.1-0.1,0.1-0.2c0.1-0.1,0.3-0.2,0.5-0.1
		c0.1,0,0.1,0.1,0.2,0.1c0,0,0.1,0.1,0.1,0.2c0,0.1,0,0.1,0,0.2c0,0.2-0.1,0.4-0.3,0.4C160.5,387.7,160.5,387.7,160.4,387.7z"/>
	<path d="M164.5,378.5c-0.1,0-0.2,0-0.3-0.1s-0.1-0.2-0.1-0.3c0-0.1,0-0.1,0-0.2s0.1-0.1,0.1-0.2c0.1-0.1,0.3-0.2,0.5-0.1
		c0.1,0,0.1,0.1,0.2,0.1c0,0,0.1,0.1,0.1,0.2c0,0.1,0,0.1,0,0.2c0,0.2-0.1,0.4-0.3,0.4C164.6,378.5,164.6,378.5,164.5,378.5z"/>
	<path d="M175.1,374.7c-0.9-2.3-2.7-4-5.1-4.8l-4.9-1.5c-2.3-0.7-4.9-0.4-6.9,1l-4.3,2.8c-2.1,1.4-3.4,3.6-3.6,6l-0.5,5.1
		c-0.2,2.4,0.7,4.8,2.5,6.5l3.7,3.5c1.5,1.4,3.4,2.2,5.5,2.2c0.4,0,0.8,0,1.2-0.1l5.1-0.7c2.4-0.4,4.6-1.8,5.8-3.9l2.6-4.4
		c1.3-2.1,1.5-4.7,0.6-7L175.1,374.7L175.1,374.7z M175.4,385.9L175.4,385.9l-2.6,4.4c-1.1,1.9-3,3.1-5.2,3.5l-5.1,0.7
		c-2.2,0.3-4.3-0.4-5.9-1.9l-3.7-3.5c-1.6-1.5-2.4-3.6-2.2-5.8l0.5-5.1c0.2-2.2,1.4-4.1,3.2-5.3l4.3-2.8c1.8-1.2,4.1-1.5,6.1-0.9
		l4.9,1.5c2.1,0.7,3.7,2.2,4.5,4.2l1.8,4.8C176.8,381.8,176.6,384.1,175.4,385.9L175.4,385.9L175.4,385.9z"/>
	<path d="M171.4,375.8c-1.5,0-2.9,1.1-3.1,2.6c-0.3,1.5,0.5,3,1.9,3.6c1.4,0.6,3,0.1,3.9-1.2c0.9-1.3,0.7-3-0.4-4.1
		C173.1,376.1,172.3,375.8,171.4,375.8L171.4,375.8z M173,380.6c-0.8,0.8-2,0.9-2.9,0.3c-0.9-0.6-1.3-1.8-0.8-2.8
		c0.4-1,1.5-1.6,2.6-1.4c1.1,0.2,1.8,1.2,1.8,2.3C173.7,379.6,173.5,380.2,173,380.6L173,380.6z"/>
	<path d="M160.9,377.6c0-1.5-1.1-2.9-2.6-3.1c-1.5-0.3-3,0.5-3.6,1.9c-0.6,1.4-0.1,3,1.2,3.9c1.3,0.9,3,0.7,4.1-0.4
		C160.5,379.3,160.9,378.5,160.9,377.6z M157.6,379.9c-1.1,0-2-0.8-2.3-1.8s0.4-2.1,1.4-2.6c1-0.4,2.2-0.1,2.8,0.8
		c0.6,0.9,0.5,2.1-0.3,2.9C158.8,379.7,158.3,379.9,157.6,379.9L157.6,379.9z"/>
	<path d="M155.8,383.6c-0.9,0-1.6,0.6-1.8,1.5c-0.2,0.9,0.3,1.7,1.1,2.1c0.8,0.3,1.7,0.1,2.2-0.7c0.5-0.7,0.4-1.7-0.2-2.3
		C156.8,383.8,156.3,383.6,155.8,383.6L155.8,383.6z M156.5,386.1c-0.4,0.3-0.9,0.3-1.3,0c-0.3-0.3-0.3-0.7-0.2-1
		c0.1-0.3,0.5-0.6,0.8-0.6s0.7,0.2,0.8,0.6C156.8,385.4,156.7,385.8,156.5,386.1z"/>
	<path d="M165,372.1c-0.9,0-1.6,0.6-1.8,1.5c-0.2,0.9,0.3,1.7,1.1,2.1c0.8,0.3,1.7,0.1,2.2-0.7s0.4-1.7-0.2-2.3
		C165.9,372.3,165.5,372.1,165,372.1z M165.6,374.6c-0.4,0.3-0.9,0.3-1.3,0c-0.3-0.3-0.3-0.7-0.2-1c0.1-0.3,0.5-0.6,0.8-0.6
		c0.4,0,0.7,0.2,0.8,0.6C166,373.9,165.9,374.3,165.6,374.6z"/>
	<path d="M167.7,385.8c-0.3,0.3-0.5,0.9-0.4,1.3c0.1,0.5,0.5,0.8,1,1c0.5,0.1,1,0,1.3-0.4c0.5-0.5,0.5-1.4,0-1.9
		C169.1,385.3,168.2,385.3,167.7,385.8L167.7,385.8L167.7,385.8z M169,387.1c-0.2,0.2-0.4,0.2-0.6,0.1c-0.2-0.1-0.3-0.4-0.2-0.6
		c0.1-0.2,0.3-0.3,0.5-0.3c0.2,0,0.4,0.2,0.4,0.5C169.1,386.9,169.1,387,169,387.1L169,387.1z"/>
	<path d="M163.2,380.8c-0.9,0-1.6,0.6-1.8,1.5c-0.2,0.9,0.3,1.7,1.1,2.1c0.8,0.3,1.7,0.1,2.2-0.7c0.5-0.7,0.4-1.7-0.2-2.3
		C164.1,381,163.6,380.8,163.2,380.8L163.2,380.8z M163.8,383.3c-0.4,0.3-0.9,0.3-1.3,0c-0.3-0.3-0.3-0.7-0.2-1
		c0.1-0.3,0.5-0.6,0.8-0.6s0.7,0.2,0.8,0.6S164.1,383.1,163.8,383.3z"/>
	<path d="M161.7,389.6c-0.9,0-1.6,0.6-1.8,1.5c-0.2,0.9,0.3,1.7,1.1,2.1s1.7,0.1,2.2-0.7c0.5-0.7,0.4-1.7-0.2-2.3
		C162.7,389.8,162.2,389.6,161.7,389.6z M162.4,392.1c-0.4,0.3-0.9,0.3-1.3,0c-0.3-0.3-0.3-0.7-0.2-1c0.1-0.3,0.5-0.6,0.8-0.6
		s0.7,0.2,0.8,0.6C162.7,391.4,162.6,391.8,162.4,392.1z"/>
</g>
<g id="Layer_1-2_17_">
	<path class="st15" d="M174.7,37.3c0,0-4.6,4.4-11.6,7.9l-0.3-15.4C169.9,33.1,174.7,37.3,174.7,37.3L174.7,37.3z"/>
	<path class="st1" d="M162.8,29.8l0.3,15.4c-4.6,2.3-10.2,4.2-16.4,4.3c-5.7,0.1-11.3-0.9-16.5-2.8l-0.3-17.2
		c3.4-1.4,7.4-2.5,11.7-3.1c1.5-0.2,3.1-0.3,4.7-0.3C152.4,25.9,158.1,27.6,162.8,29.8L162.8,29.8z"/>
	<path class="st2" d="M155.9,37.6c0,2.6-2,4.7-4.6,4.8c-2.6,0-4.7-2-4.8-4.6c0-2.6,2-4.7,4.6-4.8C153.7,32.9,155.8,35,155.9,37.6z"
		/>
	<path class="st15" d="M142,49.6c-2,10.7-14.2,7.1-18.8,2.7c4.7-0.1,7-3.8,7-3.8l0-1.8c3.4,1.3,7.5,2.3,11.8,2.7
		C142,49.3,142,49.6,142,49.6z"/>
	<path class="st15" d="M122.9,34.7l0-0.3c0-0.8,0.4-1.6,1-2c1.7-1,3.7-2.1,5.9-3l0.3,17.2c-2.3-0.8-4.3-1.8-6-2.8
		c-0.7-0.4-1.1-1.2-1.1-2l0-0.3L122.9,34.7L122.9,34.7z"/>
	<path class="st15" d="M141.6,26.1l0,0.3c-4.3,0.5-8.3,1.7-11.7,3.1l0-1.8c0,0-2.4-3.7-7.1-3.6C127.2,19.5,139.2,15.4,141.6,26.1z"
		/>
	<path class="st10" d="M122.9,34.7l0.1,7c-1.2,0.8-2.9,1.2-4.7,1.3c-3.9,0.1-9.5-4.5-9.5-4.5s5.4-4.8,9.3-4.9
		C120,33.5,121.7,33.9,122.9,34.7z"/>
	<path d="M134.8,39.2c0.6,0,1.2-0.5,1.2-1.2c0-0.6-0.5-1.2-1.2-1.2c-0.6,0-1.2,0.5-1.2,1.2C133.6,38.7,134.1,39.2,134.8,39.2z"/>
	<path d="M151.3,43.6c3.2-0.1,5.8-2.7,5.8-6c-0.1-3.2-2.7-5.8-6-5.8c-3.2,0.1-5.8,2.7-5.8,6C145.4,41,148,43.6,151.3,43.6z
		 M151.1,34.2c1.9,0,3.5,1.5,3.6,3.5c0,1.9-1.5,3.5-3.5,3.6c-1.9,0-3.5-1.5-3.6-3.5S149.2,34.2,151.1,34.2z"/>
	<path d="M121.7,24.6c0.1,0.1,0.2,0.3,0.3,0.4c0.2,0.2,0.5,0.3,0.8,0.3c3.3-0.1,5.3,2.1,5.9,2.8l0,0.6c-1.9,0.8-3.7,1.7-5.4,2.8
		c-0.6,0.4-1,0.9-1.3,1.6c-1.2-0.4-2.5-0.6-3.8-0.6c-4.3,0.1-9.8,4.9-10.1,5.2c-0.3,0.2-0.4,0.6-0.4,0.9c0,0.3,0.1,0.6,0.4,0.8
		c0,0,0,0,0.1,0.1c0.2,0.2,6,4.9,10.2,4.8c1.3,0,2.6-0.3,3.8-0.7c0.3,0.7,0.8,1.2,1.4,1.5c1.7,0.9,3.5,1.8,5.5,2.6l0,0.6
		c-0.6,0.8-2.5,3-5.8,3c-0.5,0-0.9,0.3-1.1,0.7c-0.2,0.4-0.1,0.9,0.3,1.3c3.3,3.2,9.9,5.8,14.8,4.2c2.1-0.7,4.7-2.4,5.8-6.7
		c1.2,0.1,2.5,0.1,3.7,0.1c5.5-0.1,11.2-1.6,16.9-4.4c7.1-3.6,11.7-7.9,11.9-8.1c0.2-0.2,0.4-0.5,0.4-0.9c0-0.3-0.1-0.6-0.4-0.8
		c-0.2-0.2-4.9-4.4-12.2-7.7c-5.8-2.7-11.5-4-17-3.9c-1.2,0-2.5,0.1-3.7,0.2c-1.2-4.3-3.9-5.9-6-6.5c-4.9-1.4-11.4,1.4-14.6,4.7
		C121.6,23.6,121.5,24.1,121.7,24.6L121.7,24.6z M118.4,41.8c-2.3,0-5.6-2-7.6-3.4c1.9-1.5,5.2-3.6,7.4-3.6c1.3,0,2.5,0.2,3.5,0.7
		l0.1,5.6C120.9,41.5,119.6,41.8,118.4,41.8z M124.7,42.9c-0.3-0.2-0.5-0.5-0.5-1c-0.1-8.1,0,2.3-0.1-7.5c0-0.4,0.2-0.8,0.5-1
		c1.3-0.8,2.7-1.5,4.2-2.2l0.2,13.7C127.5,44.3,126.1,43.6,124.7,42.9L124.7,42.9z M136.5,55.1c-3.1,1-7.4-0.2-10.4-2.1
		c2.3-0.7,4.3-2.5,5.2-4c0.2-0.3,0.2-0.6,0.2-0.7c3,1,6.1,1.7,9.2,2C139.9,52.8,138.5,54.4,136.5,55.1L136.5,55.1z M164.2,43.3
		L164,31.7c4.2,2.1,7.3,4.4,8.9,5.7C171.4,38.6,168.3,41,164.2,43.3L164.2,43.3z M146.3,27.2c4.9-0.1,10.1,1,15.3,3.4l0.2,13.9
		c-5.2,2.5-10.3,3.8-15.2,3.9c-1.5,0-3,0-4.5-0.2c-3.7-0.3-7.3-1.1-10.8-2.3l-0.3-15.6c3.4-1.3,7-2.2,10.7-2.7
		C143.3,27.3,144.8,27.2,146.3,27.2z M135.9,20.8c2.1,0.6,3.5,2.1,4.3,4.6c-3.1,0.5-6.2,1.3-9.1,2.4c0,0,0-0.4-0.2-0.7
		c-0.1-0.1-1.9-2.8-5.3-3.8C128.5,21.2,132.8,19.9,135.9,20.8z"/>
	<path d="M113.8,51.3l4.7-0.1c0.6,0,1.2-0.5,1.2-1.2c0-0.6-0.5-1.2-1.2-1.2l-4.7,0.1c-0.6,0-1.2,0.5-1.2,1.2
		C112.6,50.8,113.2,51.3,113.8,51.3z"/>
	<path d="M113.4,27.8l4.7-0.1c0.6,0,1.2-0.5,1.2-1.2c0-0.6-0.5-1.2-1.2-1.2l-4.7,0.1c-0.6,0-1.2,0.5-1.2,1.2
		C112.2,27.3,112.8,27.8,113.4,27.8z"/>
	<path d="M111.4,44.3l-11.2,0.2c-0.6,0-1.2,0.5-1.2,1.2c0,0.6,0.5,1.2,1.2,1.2l11.2-0.2c0.6,0,1.2-0.5,1.2-1.2
		C112.5,44.8,112,44.2,111.4,44.3z"/>
	<path d="M104.6,37.7l-11.2,0.2c-0.6,0-1.2,0.5-1.2,1.2c0,0.6,0.5,1.2,1.2,1.2l11.2-0.2c0.6,0,1.2-0.5,1.2-1.2
		C105.8,38.2,105.2,37.7,104.6,37.7z"/>
	<path d="M99.9,32.7l11.2-0.2c0.6,0,1.2-0.5,1.2-1.2c0-0.6-0.5-1.2-1.2-1.2l-11.2,0.2c-0.6,0-1.2,0.5-1.2,1.2S99.3,32.7,99.9,32.7z"
		/>
	<path d="M139.5,39.1l2.3,0c0.6,0,1.2-0.5,1.2-1.2c0-0.6-0.5-1.2-1.2-1.2l-2.3,0c-0.6,0-1.2,0.5-1.2,1.2
		C138.3,38.6,138.8,39.1,139.5,39.1z"/>
</g>
</svg>
