<?xml version="1.0" encoding="utf-8"?>
<!-- Generator: Adobe Illustrator 23.0.1, SVG Export Plug-In . SVG Version: 6.00 Build 0)  -->
<svg version="1.1" id="visual" xmlns="http://www.w3.org/2000/svg" xmlns:xlink="http://www.w3.org/1999/xlink" x="0px" y="0px"
	 viewBox="0 0 767 450" style="enable-background:new 0 0 767 450;" xml:space="preserve">
<style type="text/css">
	.st0{fill:#F2F7A1;}
</style>
<path class="st0" d="M521,0l0.3,5.3c0.4,5.4,1,16-12.1,26.7C496,42.7,469,53.3,466.8,64c-2.1,10.7,20.5,21.3,16.5,32.2
	c-4,10.8-34.6,21.8-47.3,32.6c-12.7,10.9-7.3,21.5,5.5,32.2s33.2,21.3,41.8,32c8.7,10.7,5.7,21.3-11.3,32s-48,21.3-78,32
	s-59,21.3-58,32s32,21.3,62.7,32.2c30.6,10.8,61,21.8,48.5,32.6c-12.5,10.9-67.9,21.5-100,32.2c-32.2,10.7-41.2,21.3-43,32
	c-1.9,10.7,3.5,21.3,6.1,26.7l2.7,5.3H0v-5.3c0-5.4,0-16,0-26.7s0-21.3,0-32s0-21.3,0-32.2C0,343,0,332,0,321.2
	c0-10.9,0-21.5,0-32.2s0-21.3,0-32c0-10.7,0-21.3,0-32s0-21.3,0-32s0-21.3,0-32s0-21.3,0-32.2C0,118,0,107,0,96.2
	C0,85.3,0,74.7,0,64s0-21.3,0-32S0,10.7,0,5.3V0H521z"/>
</svg>
