<?xml version="1.0" encoding="utf-8"?>
<!-- Generator: Adobe Illustrator 23.0.1, SVG Export Plug-In . SVG Version: 6.00 Build 0)  -->
<svg version="1.1" id="visual" xmlns="http://www.w3.org/2000/svg" xmlns:xlink="http://www.w3.org/1999/xlink" x="0px" y="0px"
	 viewBox="0 0 767 450" style="enable-background:new 0 0 767 450;" xml:space="preserve">
<style type="text/css">
	.st0{fill:#453C67;}
	.st1{fill:#F2F7A1;}
	.st2{fill:#FFFFFF;}
	.st3{fill:#46C2CB;}
	.st4{fill:#6D67E4;}
	.st5{opacity:0.2;fill:#25223A;enable-background:new    ;}
	.st6{opacity:0.2;}
	.st7{fill:#25223A;}
	.st8{fill:#BDC3C7;}
	.st9{fill:#A8EDEF;}
	.st10{opacity:0.2;fill:#323232;enable-background:new    ;}
	.st11{fill:#323232;}
	.st12{fill:#EDED8E;}
	.st13{fill:#DDDA76;}
	.st14{opacity:0.2;enable-background:new    ;}
</style>
<title>Artboard 1</title>
<g id="Layer_1-2_2_">
	<path class="st0" d="M464.1,122.2c34.4,33.5,70.1,29,114.3,19.9c47.4-9.7,172.1-55.3,174-39.9c1.2,9.1-170.2,54.4-166.3,86.1
		c3.9,31.7,80.5,11.8,82.5,28.1c1.9,16.3-131.2,27.2-207.2,125.1c-48.7,62.8-24.7-2.7,11.7-42.6c36.4-39.9,51.5-86.9,14.3-108.8
		c-57.2-33.5-63.9-129.8-53.3-122.3C439.4,71.5,447.2,105.8,464.1,122.2z"/>
</g>
<circle class="st1" cx="126.1" cy="225" r="260.5"/>
<g id="Layer_1-2">
	<path class="st2" d="M645.7,62.7c0.7-0.1,1.4-0.7,1.4-1.4c0-0.6,0.4-3.2,0.4-3.2s0.3,2.6,0.4,3.2c0.2,0.9,0.7,1.3,1.4,1.4
		c0.6,0.1,3.2,0.5,3.2,0.5c0,0-2.6,0.4-3.2,0.4c-1,0.1-1.3,0.7-1.4,1.4c-0.1,0.6-0.5,3.2-0.5,3.2s-0.4-2.6-0.5-3.2
		c-0.1-0.8-0.7-1.3-1.4-1.4c-0.6-0.1-3.2-0.4-3.2-0.4C642.5,63.2,645.1,62.8,645.7,62.7z"/>
	<path class="st2" d="M652.1,70.2c0.5-0.1,0.9-0.4,1-1c0-0.4,0.3-2.2,0.3-2.2s0.2,1.8,0.3,2.2c0.1,0.6,0.5,0.9,1,1
		c0.4,0.1,2.2,0.3,2.2,0.3c0,0-1.8,0.3-2.2,0.3c-0.6,0.1-0.9,0.5-1,1c-0.1,0.4-0.3,2.2-0.3,2.2s-0.3-1.8-0.3-2.2
		c-0.1-0.5-0.5-0.9-1-1c-0.4,0-2.2-0.3-2.2-0.3C649.9,70.5,651.7,70.3,652.1,70.2z"/>
</g>
<g id="Layer_1-2_1_">
	<path class="st2" d="M425.8,308.4c0.9-0.1,1.7-0.8,1.8-1.8c0.1-0.7,0.6-4,0.6-4s0.4,3.3,0.6,4c0.2,1.1,0.8,1.6,1.8,1.8
		c0.7,0.1,4,0.6,4,0.6c0,0-3.3,0.5-4,0.6c-1.2,0.2-1.7,0.9-1.8,1.8c-0.1,0.7-0.6,4-0.6,4s-0.5-3.3-0.6-4c-0.1-1-0.8-1.7-1.8-1.8
		c-0.7-0.1-4-0.6-4-0.6C421.8,309,425.1,308.5,425.8,308.4z"/>
</g>
<g id="Layer_1-2_3_">
	<path class="st2" d="M430.8,169.1c0.9-0.1,1.8-0.8,1.8-1.8c0.1-0.8,0.6-4.2,0.6-4.2s0.4,3.4,0.6,4.2c0.2,1.1,0.9,1.7,1.8,1.8
		c0.8,0.1,4.2,0.6,4.2,0.6c0,0-3.4,0.5-4.2,0.6c-1.2,0.2-1.7,0.9-1.8,1.8c-0.1,0.8-0.6,4.2-0.6,4.2s-0.5-3.4-0.6-4.2
		c-0.1-1-0.9-1.7-1.8-1.8c-0.8-0.1-4.2-0.6-4.2-0.6C426.6,169.6,430,169.1,430.8,169.1z"/>
</g>
<g id="Layer_1-2_4_">
	<path class="st2" d="M460,76.2c1-0.1,1.8-0.9,1.9-1.9c0.1-0.8,0.6-4.3,0.6-4.3s0.5,3.5,0.6,4.3c0.2,1.2,0.9,1.8,1.9,1.9
		c0.8,0.1,4.3,0.6,4.3,0.6c0,0-3.5,0.5-4.3,0.6c-1.3,0.2-1.8,1-1.9,1.9c-0.1,0.8-0.6,4.3-0.6,4.3s-0.5-3.5-0.6-4.3
		c-0.1-1.1-0.9-1.8-1.9-1.9c-0.8-0.1-4.3-0.6-4.3-0.6C455.7,76.8,459.2,76.3,460,76.2z"/>
	<path class="st2" d="M468.4,86.2c0.7-0.1,1.2-0.6,1.3-1.3c0-0.5,0.4-2.9,0.4-2.9s0.3,2.4,0.4,2.9c0.1,0.8,0.6,1.2,1.3,1.3
		c0.5,0.1,2.9,0.4,2.9,0.4c0,0-2.4,0.3-2.9,0.4c-0.9,0.1-1.2,0.7-1.3,1.3c-0.1,0.5-0.4,2.9-0.4,2.9s-0.4-2.4-0.4-2.9
		c-0.1-0.7-0.6-1.2-1.3-1.3c-0.5-0.1-2.9-0.4-2.9-0.4C465.5,86.6,467.9,86.3,468.4,86.2z"/>
</g>
<g id="Layer_1-2_5_">
	<path class="st2" d="M475.6,389.9c0.8-0.1,1.4-0.7,1.5-1.5c0.1-0.6,0.5-3.4,0.5-3.4s0.4,2.8,0.5,3.4c0.2,0.9,0.7,1.4,1.5,1.5
		c0.6,0.1,3.4,0.5,3.4,0.5c0,0-2.8,0.4-3.4,0.5c-1,0.1-1.4,0.8-1.5,1.5c-0.1,0.6-0.5,3.4-0.5,3.4s-0.4-2.8-0.5-3.4
		c-0.1-0.8-0.7-1.4-1.5-1.5c-0.6-0.1-3.4-0.5-3.4-0.5C472.2,390.4,474.9,390,475.6,389.9z"/>
</g>
<g id="Layer_1-2_6_">
	<path class="st2" d="M623.7,348c1-0.1,1.9-0.9,1.9-1.9c0.1-0.8,0.6-4.4,0.6-4.4s0.5,3.6,0.6,4.4c0.2,1.2,0.9,1.8,1.9,1.9
		c0.8,0.1,4.4,0.6,4.4,0.6c0,0-3.6,0.5-4.4,0.6c-1.3,0.2-1.8,1-1.9,1.9c-0.1,0.8-0.6,4.4-0.6,4.4s-0.5-3.6-0.6-4.4
		c-0.1-1.1-0.9-1.8-1.9-1.9c-0.8-0.1-4.4-0.6-4.4-0.6C619.3,348.6,622.8,348.1,623.7,348z"/>
</g>
<g id="Layer_1-2_7_">
	<path class="st2" d="M540.1,351.1c0.9-0.1,1.6-0.8,1.7-1.7c0.1-0.7,0.5-3.9,0.5-3.9s0.4,3.2,0.5,3.9c0.2,1.1,0.8,1.6,1.7,1.7
		c0.7,0.1,3.9,0.5,3.9,0.5c0,0-3.2,0.4-3.9,0.5c-1.1,0.2-1.6,0.9-1.7,1.7c-0.1,0.7-0.5,3.9-0.5,3.9s-0.5-3.2-0.5-3.9
		c-0.1-1-0.8-1.6-1.7-1.7c-0.7-0.1-3.9-0.5-3.9-0.5C536.2,351.6,539.3,351.2,540.1,351.1z"/>
	<path class="st2" d="M547.6,360.1c0.6-0.1,1.1-0.5,1.2-1.2c0-0.5,0.4-2.6,0.4-2.6s0.3,2.2,0.4,2.6c0.1,0.7,0.6,1.1,1.2,1.2
		c0.5,0.1,2.6,0.4,2.6,0.4c0,0-2.2,0.3-2.6,0.4c-0.8,0.1-1.1,0.6-1.2,1.2c-0.1,0.5-0.4,2.6-0.4,2.6s-0.3-2.2-0.4-2.6
		c-0.1-0.7-0.5-1.1-1.2-1.2c-0.5-0.1-2.6-0.4-2.6-0.4C545,360.5,547.2,360.2,547.6,360.1z"/>
</g>
<g id="Layer_1-2_8_">
	<path class="st2" d="M719.9,255.8c0.9-0.1,1.6-0.8,1.7-1.7c0.1-0.7,0.5-3.9,0.5-3.9s0.4,3.2,0.5,3.9c0.2,1,0.8,1.6,1.7,1.7
		c0.7,0.1,3.9,0.5,3.9,0.5c0,0-3.2,0.4-3.9,0.5c-1.1,0.2-1.6,0.9-1.7,1.7c-0.1,0.7-0.5,3.9-0.5,3.9s-0.5-3.2-0.5-3.9
		c-0.1-1-0.8-1.6-1.7-1.7c-0.7-0.1-3.9-0.5-3.9-0.5C716,256.4,719.2,255.9,719.9,255.8z"/>
</g>
<g id="Layer_1-2_9_">
	<path class="st2" d="M708.5,152.6c0.8-0.1,1.5-0.7,1.5-1.5c0.1-0.6,0.5-3.5,0.5-3.5s0.4,2.8,0.5,3.5c0.2,0.9,0.7,1.4,1.5,1.5
		c0.6,0.1,3.5,0.5,3.5,0.5c0,0-2.8,0.4-3.5,0.5c-1,0.1-1.4,0.8-1.5,1.5c-0.1,0.6-0.5,3.5-0.5,3.5s-0.4-2.8-0.5-3.5
		c-0.1-0.9-0.7-1.4-1.5-1.5c-0.6-0.1-3.5-0.5-3.5-0.5C705.1,153.1,707.9,152.7,708.5,152.6z"/>
</g>
<g id="Layer_1-2_10_">
	<path class="st2" d="M556.1,113.3c0.8-0.1,1.6-0.8,1.6-1.6c0.1-0.7,0.5-3.7,0.5-3.7s0.4,3,0.5,3.7c0.2,1,0.8,1.5,1.6,1.6
		c0.7,0.1,3.7,0.5,3.7,0.5c0,0-3,0.4-3.7,0.5c-1.1,0.1-1.5,0.8-1.6,1.6c-0.1,0.7-0.5,3.7-0.5,3.7s-0.4-3-0.5-3.7
		c-0.1-0.9-0.8-1.5-1.6-1.6c-0.7-0.1-3.7-0.5-3.7-0.5C552.4,113.8,555.4,113.4,556.1,113.3z"/>
</g>
<g id="Layer_1-2_11_">
	<path class="st2" d="M683.9,210.8c0.9-0.1,1.6-0.8,1.7-1.7c0.1-0.7,0.5-3.9,0.5-3.9s0.4,3.2,0.5,3.9c0.2,1.1,0.8,1.6,1.7,1.7
		c0.7,0.1,3.9,0.5,3.9,0.5c0,0-3.2,0.4-3.9,0.5c-1.1,0.2-1.6,0.9-1.7,1.7c-0.1,0.7-0.5,3.9-0.5,3.9s-0.5-3.2-0.5-3.9
		c-0.1-1-0.8-1.6-1.7-1.7c-0.7-0.1-3.9-0.5-3.9-0.5C680,211.3,683.1,210.9,683.9,210.8z"/>
	<path class="st2" d="M691.4,219.8c0.6-0.1,1.1-0.5,1.2-1.2c0-0.5,0.4-2.6,0.4-2.6s0.3,2.2,0.4,2.6c0.1,0.7,0.6,1.1,1.2,1.2
		c0.5,0.1,2.6,0.4,2.6,0.4c0,0-2.2,0.3-2.6,0.4c-0.8,0.1-1.1,0.6-1.2,1.2c-0.1,0.5-0.4,2.6-0.4,2.6s-0.3-2.2-0.4-2.6
		c-0.1-0.7-0.5-1.1-1.2-1.2c-0.5-0.1-2.6-0.4-2.6-0.4C688.8,220.2,691,219.9,691.4,219.8z"/>
</g>
<circle class="st3" cx="348.6" cy="79.9" r="2.1"/>
<circle class="st2" cx="446.3" cy="62.9" r="1.4"/>
<circle class="st2" cx="509.1" cy="128.1" r="2.3"/>
<circle class="st2" cx="589.7" cy="59.6" r="1.5"/>
<circle class="st3" cx="635.2" cy="268.8" r="2"/>
<circle class="st2" cx="485.2" cy="264.8" r="2.4"/>
<circle class="st2" cx="649.5" cy="140.9" r="1.9"/>
<circle class="st2" cx="488.8" cy="183.6" r="2"/>
<circle class="st3" cx="389.4" cy="378.4" r="2.2"/>
<circle class="st2" cx="534.9" cy="387.9" r="2.5"/>
<circle class="st2" cx="696.5" cy="345.1" r="3.5"/>
<circle class="st3" cx="746.1" cy="293.9" r="2.3"/>
<circle class="st2" cx="729.8" cy="166.9" r="1.5"/>
<circle class="st3" cx="617.6" cy="22.2" r="1.6"/>
<g id="Layer_1-2_12_">
	<path class="st4" d="M399.4,346.5l-1.8-4.8c-0.8-2.2-2.6-3.8-4.8-4.5l-4.9-1.5c-2.2-0.7-4.6-0.4-6.5,1l-4.3,2.8
		c-0.2,0.1-0.3,0.2-0.5,0.3c-1.7,1.3-2.7,3.2-2.9,5.3l-0.5,5.1c-0.2,2.3,0.7,4.6,2.3,6.1l3.7,3.5c1.7,1.6,4,2.3,6.3,2l5.1-0.7
		c2-0.3,3.8-1.3,5-2.9c0.2-0.2,0.4-0.5,0.5-0.8l2.6-4.4C400,351,400.2,348.6,399.4,346.5L399.4,346.5z"/>
	<path class="st5" d="M395.7,358.2c-1.2,1.6-3,2.6-5,2.9l-5.1,0.7c-2.3,0.3-4.6-0.4-6.3-2l-3.7-3.5c-1.7-1.6-2.5-3.8-2.3-6.1
		l0.5-5.1c0.2-2.1,1.3-4,2.9-5.3c-0.9,1.1-1.4,2.5-1.6,4l-0.5,5.1c-0.2,2.3,0.7,4.6,2.3,6.1l3.7,3.5c1.7,1.6,4,2.3,6.3,2l5.1-0.7
		C393.4,359.5,394.7,359,395.7,358.2L395.7,358.2z"/>
	<path class="st5" d="M383.4,344.5c0,1.5-1.2,2.8-2.8,2.8s-2.8-1.2-2.8-2.8s1.2-2.8,2.8-2.8S383.4,342.9,383.4,344.5z"/>
	<g class="st6">
		<path class="st7" d="M380.2,352.3c0,0.8-0.6,1.4-1.4,1.4s-1.4-0.6-1.4-1.4s0.6-1.4,1.4-1.4S380.2,351.5,380.2,352.3z"/>
		<path class="st7" d="M389.4,340.8c0,0.8-0.6,1.4-1.4,1.4s-1.4-0.6-1.4-1.4s0.6-1.4,1.4-1.4S389.4,340,389.4,340.8z"/>
		<path class="st7" d="M392.6,353.6c0,0.5-0.4,0.9-0.9,0.9s-0.9-0.4-0.9-0.9c0-0.5,0.4-0.9,0.9-0.9S392.6,353.1,392.6,353.6z"/>
		<path class="st7" d="M387.5,349.5c0,0.8-0.6,1.4-1.4,1.4s-1.4-0.6-1.4-1.4s0.6-1.4,1.4-1.4S387.5,348.8,387.5,349.5z"/>
		<path class="st7" d="M386.1,358.3c0,0.8-0.6,1.4-1.4,1.4s-1.4-0.6-1.4-1.4s0.6-1.4,1.4-1.4S386.1,357.5,386.1,358.3z"/>
	</g>
	<path class="st8" d="M395.3,352.3c-0.1,0-0.2,0-0.3-0.1c-0.1-0.1-0.1-0.2-0.1-0.3c0-0.1,0-0.1,0-0.2c0-0.1,0.1-0.1,0.1-0.2
		c0.1-0.1,0.3-0.2,0.5-0.1c0.1,0,0.2,0.1,0.2,0.2c0,0.1,0,0.1,0,0.2c0,0.1-0.1,0.2-0.1,0.3c0,0-0.1,0.1-0.2,0.1
		C395.4,352.3,395.4,352.3,395.3,352.3z"/>
	<path class="st8" d="M387.1,355c-0.1,0-0.2,0-0.3-0.1s-0.1-0.2-0.1-0.3c0-0.1,0-0.1,0-0.2c0-0.1,0.1-0.1,0.1-0.2
		c0.1-0.1,0.3-0.2,0.5-0.1c0.1,0,0.2,0.1,0.2,0.2c0,0.1,0,0.1,0,0.2c0,0.1-0.1,0.2-0.1,0.3c0,0-0.1,0.1-0.2,0.1S387.1,355,387.1,355
		z"/>
	<path class="st8" d="M383.4,354.6c-0.1,0-0.2,0-0.3-0.1s-0.1-0.2-0.1-0.3c0-0.1,0-0.1,0-0.2c0-0.1,0.1-0.1,0.1-0.2
		c0.1-0.1,0.3-0.2,0.5-0.1c0.1,0,0.1,0.1,0.2,0.1c0,0,0.1,0.1,0.1,0.2c0,0.1,0,0.1,0,0.2c0,0.2-0.1,0.4-0.3,0.4
		C383.5,354.5,383.4,354.6,383.4,354.6z"/>
	<path class="st8" d="M387.5,345.4c-0.1,0-0.2,0-0.3-0.1s-0.1-0.2-0.1-0.3c0-0.1,0-0.1,0-0.2c0-0.1,0.1-0.1,0.1-0.2
		c0.1-0.1,0.3-0.2,0.5-0.1c0.1,0,0.1,0.1,0.2,0.1c0,0,0.1,0.1,0.1,0.2c0,0.1,0,0.1,0,0.2c0,0.2-0.1,0.4-0.3,0.4
		C387.6,345.4,387.6,345.4,387.5,345.4z"/>
	<path class="st5" d="M398.8,353l-2.6,4.4c-0.2,0.3-0.3,0.5-0.5,0.8c-0.6,0.5-1.4,0.9-2.1,1.2c0.1-0.2,0.3-0.4,0.4-0.6l2.6-4.4
		c1.2-2,1.4-4.4,0.6-6.6l-1.8-4.8c-0.8-2.2-2.6-3.8-4.8-4.5l-4.9-1.5c-1.7-0.5-3.6-0.5-5.3,0.3l1-0.7c1.9-1.3,4.3-1.7,6.5-1l4.9,1.5
		c2.2,0.7,4,2.4,4.8,4.5l1.8,4.8C400.2,348.6,400,351,398.8,353L398.8,353z"/>
	<path class="st5" d="M397.2,345.8c0,1.5-1.2,2.8-2.8,2.8c-1.5,0-2.8-1.2-2.8-2.8c0-1.5,1.2-2.8,2.8-2.8
		C395.9,343.1,397.2,344.3,397.2,345.8z"/>
	<path d="M395.3,352.3c-0.1,0-0.2,0-0.3-0.1c-0.1-0.1-0.1-0.2-0.1-0.3c0-0.1,0-0.1,0-0.2c0-0.1,0.1-0.1,0.1-0.2
		c0.1-0.1,0.3-0.2,0.5-0.1c0.1,0,0.2,0.1,0.2,0.2c0,0.1,0,0.1,0,0.2c0,0.1-0.1,0.2-0.1,0.3c0,0-0.1,0.1-0.2,0.1
		C395.4,352.3,395.4,352.3,395.3,352.3z"/>
	<path d="M387.1,355c-0.1,0-0.2,0-0.3-0.1s-0.1-0.2-0.1-0.3c0-0.1,0-0.1,0-0.2c0-0.1,0.1-0.1,0.1-0.2c0.1-0.1,0.3-0.2,0.5-0.1
		c0.1,0,0.2,0.1,0.2,0.2c0,0.1,0,0.1,0,0.2c0,0.1-0.1,0.2-0.1,0.3c0,0-0.1,0.1-0.2,0.1S387.1,355,387.1,355z"/>
	<path d="M383.4,354.6c-0.1,0-0.2,0-0.3-0.1s-0.1-0.2-0.1-0.3c0-0.1,0-0.1,0-0.2c0-0.1,0.1-0.1,0.1-0.2c0.1-0.1,0.3-0.2,0.5-0.1
		c0.1,0,0.1,0.1,0.2,0.1c0,0,0.1,0.1,0.1,0.2c0,0.1,0,0.1,0,0.2c0,0.2-0.1,0.4-0.3,0.4C383.5,354.5,383.4,354.6,383.4,354.6z"/>
	<path d="M387.5,345.4c-0.1,0-0.2,0-0.3-0.1s-0.1-0.2-0.1-0.3c0-0.1,0-0.1,0-0.2c0-0.1,0.1-0.1,0.1-0.2c0.1-0.1,0.3-0.2,0.5-0.1
		c0.1,0,0.1,0.1,0.2,0.1c0,0,0.1,0.1,0.1,0.2c0,0.1,0,0.1,0,0.2c0,0.2-0.1,0.4-0.3,0.4C387.6,345.4,387.6,345.4,387.5,345.4z"/>
	<path d="M398.1,341.5c-0.9-2.3-2.7-4-5.1-4.8l-4.9-1.5c-2.3-0.7-4.9-0.4-6.9,1l-4.3,2.8c-2.1,1.4-3.4,3.6-3.6,6l-0.5,5.1
		c-0.2,2.4,0.7,4.8,2.5,6.5l3.7,3.5c1.5,1.4,3.4,2.2,5.5,2.2c0.4,0,0.8,0,1.2-0.1l5.1-0.7c2.4-0.4,4.6-1.8,5.8-3.9l2.6-4.4
		c1.3-2.1,1.5-4.7,0.6-7L398.1,341.5L398.1,341.5z M398.4,352.8L398.4,352.8l-2.6,4.4c-1.1,1.9-3,3.1-5.2,3.5l-5.1,0.7
		c-2.2,0.3-4.3-0.4-5.9-1.9L376,356c-1.6-1.5-2.4-3.6-2.2-5.8l0.5-5.1c0.2-2.2,1.4-4.1,3.2-5.3l4.3-2.8c1.8-1.2,4.1-1.5,6.1-0.9
		l4.9,1.5c2.1,0.7,3.7,2.2,4.5,4.2l1.8,4.8C399.8,348.6,399.6,350.9,398.4,352.8L398.4,352.8L398.4,352.8z"/>
	<path d="M394.4,342.6c-1.5,0-2.9,1.1-3.1,2.6c-0.3,1.5,0.5,3,1.9,3.6c1.4,0.6,3,0.1,3.9-1.2c0.9-1.3,0.7-3-0.4-4.1
		C396.1,343,395.3,342.6,394.4,342.6L394.4,342.6z M396,347.5c-0.8,0.8-2,0.9-2.9,0.3c-0.9-0.6-1.3-1.8-0.8-2.8
		c0.4-1,1.5-1.6,2.6-1.4c1.1,0.2,1.8,1.2,1.8,2.3C396.7,346.5,396.5,347,396,347.5L396,347.5z"/>
	<path d="M383.8,344.5c0-1.5-1.1-2.9-2.6-3.1c-1.5-0.3-3,0.5-3.6,1.9c-0.6,1.4-0.1,3,1.2,3.9c1.3,0.9,3,0.7,4.1-0.4
		C383.5,346.1,383.8,345.3,383.8,344.5z M380.6,346.8c-1.1,0-2-0.8-2.3-1.8s0.4-2.1,1.4-2.6c1-0.4,2.2-0.1,2.8,0.8
		c0.6,0.9,0.5,2.1-0.3,2.9C381.8,346.5,381.2,346.8,380.6,346.8L380.6,346.8z"/>
	<path d="M378.8,350.4c-0.9,0-1.6,0.6-1.8,1.5c-0.2,0.9,0.3,1.7,1.1,2.1c0.8,0.3,1.7,0.1,2.2-0.7c0.5-0.7,0.4-1.7-0.2-2.3
		C379.8,350.6,379.3,350.4,378.8,350.4L378.8,350.4z M379.4,352.9c-0.4,0.3-0.9,0.3-1.3,0c-0.3-0.3-0.3-0.7-0.2-1s0.5-0.6,0.8-0.6
		c0.4,0,0.7,0.2,0.8,0.6S379.7,352.7,379.4,352.9z"/>
	<path d="M388,339c-0.9,0-1.6,0.6-1.8,1.5c-0.2,0.9,0.3,1.7,1.1,2.1c0.8,0.3,1.7,0.1,2.2-0.7c0.5-0.7,0.4-1.7-0.2-2.3
		C388.9,339.2,388.5,339,388,339z M388.6,341.4c-0.4,0.3-0.9,0.3-1.3,0c-0.3-0.3-0.3-0.7-0.2-1c0.1-0.3,0.5-0.6,0.8-0.6
		c0.4,0,0.7,0.2,0.8,0.6C389,340.8,388.9,341.2,388.6,341.4z"/>
	<path d="M390.7,352.7c-0.3,0.3-0.5,0.9-0.4,1.3c0.1,0.5,0.5,0.8,1,1c0.5,0.1,1,0,1.3-0.4c0.5-0.5,0.5-1.4,0-1.9
		S391.2,352.1,390.7,352.7L390.7,352.7L390.7,352.7z M392,354c-0.2,0.2-0.4,0.2-0.6,0.1c-0.2-0.1-0.3-0.4-0.2-0.6s0.3-0.3,0.5-0.3
		c0.2,0,0.4,0.2,0.4,0.5C392.1,353.8,392.1,353.9,392,354L392,354z"/>
	<path d="M386.1,347.7c-0.9,0-1.6,0.6-1.8,1.5c-0.2,0.9,0.3,1.7,1.1,2.1c0.8,0.3,1.7,0.1,2.2-0.7c0.5-0.7,0.4-1.7-0.2-2.3
		C387.1,347.9,386.6,347.7,386.1,347.7L386.1,347.7z M386.8,350.2c-0.4,0.3-0.9,0.3-1.3,0c-0.3-0.3-0.3-0.7-0.2-1s0.5-0.6,0.8-0.6
		c0.4,0,0.7,0.2,0.8,0.6S387.1,349.9,386.8,350.2z"/>
	<path d="M384.7,356.5c-0.9,0-1.6,0.6-1.8,1.5c-0.2,0.9,0.3,1.7,1.1,2.1c0.8,0.3,1.7,0.1,2.2-0.7c0.5-0.7,0.4-1.7-0.2-2.3
		C385.7,356.6,385.2,356.5,384.7,356.5z M385.4,358.9c-0.4,0.3-0.9,0.3-1.3,0c-0.3-0.3-0.3-0.7-0.2-1c0.1-0.3,0.5-0.6,0.8-0.6
		c0.4,0,0.7,0.2,0.8,0.6C385.7,358.3,385.6,358.7,385.4,358.9z"/>
</g>
<g id="Layer_1-2_13_">
	<g id="Fill_Outline">
		<g id="Color">
			<path class="st9" d="M500.8,58.7c0.4-0.2,0.8-0.6,1.1-1c0.3-0.4,0.4-0.9,0.4-1.4c0-2,0.7-3.9,2.1-5.4c6.8-6.4,17.4-6.2,23.9,0.6
				c3.9,4.1,5.5,10,4.2,15.6c-0.2,0.9-0.8,1.7-1.6,2.2c-0.2,0.1-0.3,0.2-0.5,0.3l-0.7,0.6c-0.4,0.3-0.6,0.7-0.8,1.2l-0.1,0.3
				c-0.2,0.5-0.3,1.1-0.3,1.6c0,0.8-0.4,1.6-1,2.2c-5.1,4.8-12.6,6-18.9,2.9c-0.9-0.4-1.6-1.3-1.8-2.3c-0.1-0.5-0.3-0.9-0.6-1.3
				l-0.2-0.3c-0.6-0.7-1.4-1.2-2.2-1.4l-0.4-0.1c0,0,0,0,0,0c-0.9-0.3-1.6-0.9-2.1-1.6c-1.8-3.3-2.5-7.1-1.9-10.7
				C499.5,59.7,500,59.1,500.8,58.7L500.8,58.7L500.8,58.7z"/>
			<path class="st3" d="M529,71.2c0,0,0,0.1-0.1,0.1l-0.1,0.3c-0.2,0.5-0.3,1.1-0.3,1.6c0,0.8-0.4,1.6-1,2.2
				c-5.1,4.8-12.6,6-18.9,2.9c-0.9-0.4-1.6-1.3-1.8-2.3c-0.1-0.5-0.3-0.9-0.6-1.3l-0.2-0.3c-0.6-0.7-1.4-1.2-2.2-1.4l-0.4-0.1
				c0,0,0,0,0,0c-0.9-0.3-1.6-0.9-2.1-1.6c-1.4-2.5-2.1-5.3-2.1-8.1c0-0.9,0.1-1.8,0.2-2.6c0.1-0.8,0.6-1.4,1.3-1.8l0.1,0
				c0.4-0.2,0.8-0.6,1.1-1c0.3-0.4,0.4-0.9,0.4-1.4c0-2,0.7-3.9,2.1-5.4c1.4-1.3,2.9-2.4,4.6-3.1c-1.2,2.2-1.9,4.6-2.1,7.2
				c0,0.9,0.3,1.8,0.9,2.5c0.4,0.5,0.4,0.5,0,0l0.3,0.4c0.6,0.7,0.9,1.5,1.1,2.4l0.1,0.4c0.1,0.5,0,1-0.1,1.4c-0.3,1-0.2,2,0.3,2.9
				c3.7,5.9,10.7,8.9,17.6,7.6C527.9,72.3,528.6,71.9,529,71.2L529,71.2L529,71.2z"/>
			<path class="st9" d="M507.2,49.2l-1.5-0.8c-0.7-0.4-1.6-0.1-2,0.6c-0.1,0.1-0.1,0.2-0.1,0.3c-0.1,0.3-0.2,0.5-0.4,0.7l-0.2,0.2
				c-0.6,0.5-0.6,1.4-0.2,2l0.8,1L507.2,49.2L507.2,49.2z"/>
			<path class="st10" d="M503.1,50.3c0.8-0.3,1.7-0.5,2.6-0.6c0.5-0.1,1-0.3,1.4-0.6l0.2,0.1l-3.6,4.1l-0.8-1
				c-0.5-0.6-0.4-1.5,0.2-2L503.1,50.3L503.1,50.3z"/>
			<path class="st9" d="M525,76.2l0.4,0.8c0.3,0.5,0,1.2-0.5,1.5c-0.1,0-0.1,0.1-0.2,0.1h0c-0.3,0.1-0.5,0.3-0.6,0.5
				c-0.3,0.5-1,0.7-1.5,0.4c-0.1,0-0.1-0.1-0.2-0.1l-1.3-1.1L525,76.2L525,76.2z"/>
			<path class="st9" d="M512,55.4l0.7,0.7c0.7,0.7,0.9,1.8,0.6,2.7c-0.2,0.7-0.7,1.2-1.3,1.5l-0.7,0.4c-0.7,0.4-1.5,0.5-2.2,0.2
				l-0.7-0.2c-0.5-0.2-0.9-0.4-1.2-0.8l-0.6-0.7c-0.7-0.8-0.9-1.9-0.5-2.9l0.2-0.6c0.3-0.8,1-1.4,1.8-1.6h0c0.5-0.1,1.1-0.1,1.6,0
				l1,0.4C511.3,54.8,511.7,55.1,512,55.4L512,55.4L512,55.4z"/>
			<path class="st9" d="M517.6,70.8l0.6-0.4c0.9-0.6,2.1-0.6,3,0l0.1,0.1c0.7,0.5,1.2,1.3,1.2,2.2v0.2c0,1.2-0.8,2.3-2,2.6l-0.6,0.1
				c-0.7,0.2-1.5,0-2.1-0.4l-0.1-0.1c-1-0.7-1.4-1.9-1.1-3.1C516.7,71.6,517.1,71.1,517.6,70.8L517.6,70.8L517.6,70.8z"/>
			<path class="st9" d="M521.8,58.2l0.4-0.2c0.6-0.4,1.3-0.4,1.8,0L524,58c0.5,0.3,0.7,0.8,0.7,1.4v0.1c0,0.8-0.5,1.4-1.3,1.6
				l-0.4,0.1c-0.5,0.1-0.9,0-1.3-0.2l-0.1-0.1c-0.6-0.4-0.9-1.2-0.7-1.9C521.2,58.7,521.5,58.4,521.8,58.2L521.8,58.2L521.8,58.2z"
				/>
			<path class="st9" d="M529.3,65.2l0.4-0.2c0.6-0.4,1.3-0.4,1.8,0l0.1,0.1c0.5,0.3,0.7,0.8,0.7,1.4v0.1c0,0.8-0.5,1.4-1.3,1.6
				l-0.4,0.1c-0.5,0.1-0.9,0-1.3-0.2l-0.1-0.1c-0.6-0.4-0.9-1.2-0.7-1.9C528.8,65.7,529,65.4,529.3,65.2L529.3,65.2L529.3,65.2z"/>
			<path class="st9" d="M513,63.4l0.4-0.2c0.6-0.4,1.3-0.4,1.8,0l0.1,0.1c0.5,0.3,0.7,0.8,0.7,1.4v0.1c0,0.8-0.5,1.4-1.3,1.6
				l-0.4,0.1c-0.5,0.1-0.9,0-1.3-0.2l-0.1-0.1c-0.6-0.4-0.9-1.2-0.7-1.9C512.5,63.9,512.7,63.6,513,63.4L513,63.4z"/>
			<path class="st9" d="M516.5,50.6l0.4-0.2c0.6-0.4,1.3-0.4,1.8,0l0.1,0.1c0.5,0.3,0.7,0.8,0.7,1.4V52c0,0.8-0.5,1.4-1.3,1.6
				l-0.4,0.1c-0.5,0.1-0.9,0-1.3-0.2l-0.1-0.1c-0.6-0.4-0.9-1.2-0.7-1.9C516,51.1,516.2,50.8,516.5,50.6L516.5,50.6L516.5,50.6z"/>
			<circle class="st9" cx="523.6" cy="64.9" r="1.2"/>
			<circle class="st9" cx="510.8" cy="74.2" r="1.2"/>
			<circle class="st9" cx="507.9" cy="67.8" r="1.2"/>
			<path class="st9" d="M503.7,66.7V67c0,1.2-0.8,2.3-2,2.6l-0.6,0.1c-0.2,0-0.4,0.1-0.6,0.1c-0.7-1.7-1.1-3.4-1.3-5.2l0.2-0.1
				c0.9-0.6,2.1-0.6,3,0l0.1,0.1C503.3,65,503.7,65.8,503.7,66.7L503.7,66.7L503.7,66.7z"/>
			<path class="st9" d="M532.9,62.3c-0.4,0.1-0.8,0-1.2-0.1l-0.7-0.2c-0.5-0.2-0.9-0.4-1.2-0.8l-0.6-0.7c-0.7-0.8-0.9-1.9-0.5-2.9
				l0.2-0.6c0.3-0.8,1-1.4,1.8-1.6h0c0.1,0,0.1,0,0.2,0C532.1,57.5,532.8,59.9,532.9,62.3L532.9,62.3L532.9,62.3z"/>
			<path class="st10" d="M509.3,60.6l-0.1-0.4c-0.2-0.9-0.5-1.7-1.1-2.4l-0.3-0.4c0,0,0,0,0,0c-0.6-0.7-0.9-1.6-0.9-2.5
				c0,0,0,0,0-0.1c-0.3,0.3-0.5,0.6-0.7,1l-0.2,0.6c-0.4,1-0.2,2.1,0.5,2.9l0.6,0.7c0.3,0.4,0.7,0.6,1.2,0.8L509,61
				c0.1,0,0.2,0.1,0.3,0.1C509.4,60.9,509.4,60.8,509.3,60.6L509.3,60.6L509.3,60.6z"/>
			<path class="st10" d="M512.6,56.2l-0.7-0.7c-0.3-0.4-0.7-0.6-1.2-0.8l-1-0.4c-0.5-0.2-1.1-0.2-1.6,0h0c-0.4,0.1-0.7,0.3-1,0.5
				c0.3,0,0.6,0,0.8,0.1l1,0.4c0.5,0.2,0.9,0.4,1.2,0.8l0.7,0.7c1,1.1,0.9,2.9-0.2,3.9c-0.2,0.1-0.3,0.3-0.5,0.4l-0.2,0.1
				c0.5,0,0.9-0.1,1.3-0.3l0.7-0.4c1.3-0.7,1.8-2.4,1.1-3.8C512.9,56.5,512.8,56.3,512.6,56.2L512.6,56.2L512.6,56.2z"/>
			<path class="st10" d="M521.3,70.5l-0.1-0.1c-0.9-0.6-2.1-0.6-3,0l-0.6,0.4c-1.2,0.8-1.6,2.5-0.7,3.7c0.2,0.3,0.4,0.5,0.7,0.7
				l0.1,0.1c0.6,0.4,1.4,0.6,2.1,0.4l0.6-0.1c1.2-0.3,2-1.4,2-2.6v-0.2C522.5,71.8,522,71,521.3,70.5L521.3,70.5L521.3,70.5z
				 M517,71.4C517,71.4,517,71.4,517,71.4l0.6-0.4c0.9-0.6,2.1-0.6,3,0l0.1,0.1c0.6,0.4,1,1,1.1,1.6C520.1,72.5,518.5,72,517,71.4
				L517,71.4L517,71.4z"/>
			<path class="st10" d="M524.8,59.4v0.1c0,0.8-0.5,1.4-1.3,1.6l-0.3,0.1c0.3-0.3,0.4-0.7,0.4-1.1V60c0-0.6-0.3-1.1-0.7-1.4
				l-0.1-0.1c-0.3-0.2-0.7-0.3-1.1-0.3c0,0,0.1-0.1,0.1-0.1l0.4-0.2c0.6-0.4,1.3-0.4,1.8,0L524,58C524.5,58.3,524.8,58.8,524.8,59.4
				L524.8,59.4L524.8,59.4z"/>
			<path class="st10" d="M519.6,51.8V52c0,0.8-0.5,1.4-1.3,1.6l-0.3,0.1c0.3-0.3,0.4-0.7,0.4-1.1v-0.1c0-0.6-0.3-1.1-0.7-1.4
				l-0.1-0.1c-0.3-0.2-0.7-0.3-1.1-0.3c0,0,0.1-0.1,0.1-0.1l0.4-0.2c0.6-0.4,1.3-0.4,1.8,0l0.1,0.1
				C519.3,50.8,519.5,51.3,519.6,51.8L519.6,51.8L519.6,51.8z"/>
			<path class="st10" d="M528.8,58.6c0.2-0.4,0.6-0.8,1-1l0.8-0.4c0.3-0.2,0.7-0.3,1.1-0.4c-0.2-0.5-0.4-1-0.7-1.5
				c-0.1,0-0.1,0-0.2,0h0c-0.8,0.2-1.5,0.8-1.8,1.6l-0.2,0.6c-0.2,0.4-0.2,0.9-0.2,1.4L528.8,58.6L528.8,58.6z"/>
			<path class="st10" d="M532.3,66.4v0.1c0,0.5-0.2,1-0.6,1.3c0,0,0-0.1,0-0.1v-0.1c0-0.6-0.3-1.1-0.7-1.4l-0.1-0.1
				c-0.6-0.4-1.3-0.4-1.8,0l-0.4,0.2c-0.1,0-0.1,0.1-0.2,0.1c0-0.1,0-0.3,0.1-0.4c0.1-0.4,0.4-0.7,0.7-0.9l0.4-0.2
				c0.6-0.4,1.3-0.4,1.8,0l0.1,0.1C532.1,65.3,532.3,65.8,532.3,66.4L532.3,66.4L532.3,66.4z"/>
			<path class="st10" d="M516.1,64.6v0.1c0,0.5-0.2,1-0.6,1.3c0,0,0-0.1,0-0.1v-0.1c0-0.6-0.3-1.1-0.7-1.4l-0.1-0.1
				c-0.6-0.4-1.3-0.4-1.8,0l-0.4,0.2c-0.1,0-0.1,0.1-0.2,0.1c0-0.1,0-0.3,0.1-0.4c0.1-0.4,0.4-0.7,0.7-0.9l0.4-0.2
				c0.6-0.4,1.3-0.4,1.8,0l0.1,0.1C515.8,63.6,516.1,64.1,516.1,64.6L516.1,64.6L516.1,64.6z"/>
			<path class="st10" d="M523.6,63.7c-0.5,0-0.9,0.3-1.1,0.7c0.6-0.3,1.3,0,1.5,0.6c0.1,0.3,0.1,0.7,0,1c0.6-0.3,0.8-1,0.6-1.5
				C524.5,64,524.1,63.7,523.6,63.7z"/>
			<path class="st10" d="M507.9,66.6c-0.5,0-0.9,0.3-1.1,0.7c0.6-0.3,1.3,0,1.5,0.6c0.1,0.3,0.1,0.7,0,1c0.6-0.3,0.8-1,0.6-1.5
				C508.8,66.9,508.4,66.7,507.9,66.6z"/>
			<path class="st10" d="M510.8,73c-0.5,0-0.9,0.3-1.1,0.7c0.6-0.3,1.3,0,1.5,0.6c0.1,0.3,0.1,0.7,0,1c0.6-0.3,0.8-1,0.6-1.5
				C511.7,73.3,511.3,73.1,510.8,73z"/>
			<path class="st10" d="M503.7,66.7V67c0,1.2-0.8,2.3-2,2.6l-0.6,0.1c0,0-0.1,0-0.1,0c0.7-0.5,1.1-1.3,1.1-2.2v-0.2
				c0-0.9-0.4-1.7-1.2-2.2l-0.1-0.1c-0.4-0.3-1-0.5-1.5-0.5v0l0.2-0.1c0.9-0.6,2.1-0.6,3,0l0.1,0.1C503.3,65,503.7,65.8,503.7,66.7
				L503.7,66.7L503.7,66.7z"/>
			<path class="st9" d="M527,52.9c0.9,0.2,1.9-0.3,2.3-1.1l0.1-0.2c0.4-0.7,0.1-1.6-0.6-2c-0.1-0.1-0.2-0.1-0.3-0.1
				c-0.3-0.1-0.5-0.2-0.7-0.4l-0.2-0.2c-0.5-0.6-1.4-0.6-2-0.2l-1.1,0.8l1,2.2C525.8,52.3,526.3,52.8,527,52.9L527,52.9L527,52.9z"
				/>
		</g>
		<g id="Outline_copy">
			<path class="st11" d="M529.7,52.4l0.2-0.4c0.5-1,0.1-2.2-0.9-2.8c-0.1-0.1-0.3-0.1-0.5-0.2c-0.2,0-0.3-0.1-0.4-0.3l-0.2-0.2
				c-0.7-0.8-1.9-0.9-2.8-0.2l-1.1,0.8c-0.2,0.2-0.3,0.6-0.1,0.8c0.2,0.2,0.6,0.3,0.8,0.1l1.1-0.8c0.4-0.3,0.9-0.2,1.2,0.1l0.2,0.2
				c0.3,0.3,0.6,0.5,1,0.6c0.5,0.1,0.8,0.6,0.7,1.1c0,0.1,0,0.1-0.1,0.2l-0.8,1.6c-0.1,0.3,0,0.6,0.2,0.8c0.2,0.1,0.5,0.1,0.7-0.1
				c0,0,0.1-0.1,0.1-0.2l0,0c0.4,0.5,0.7,1,1.1,1.6c-0.8,0.4-1.4,1-1.7,1.8l-0.2,0.6c-0.5,1.2-0.2,2.5,0.6,3.5l0.6,0.7
				c0.4,0.4,0.9,0.8,1.4,0.9l0.7,0.2c0.3,0.1,0.5,0.1,0.8,0.2c0,0.6,0,1.3-0.1,1.9c-0.1-0.1-0.2-0.2-0.3-0.3l-0.1-0.1
				c-0.8-0.5-1.7-0.5-2.5,0l-0.4,0.2c-1.1,0.7-1.4,2.3-0.4,3.4c0.1,0.1,0.3,0.3,0.4,0.4l0.1,0c0.4,0.2,0.8,0.4,1.2,0.4
				c0.1,0,0.1,0,0.2,0c-0.2,0.1-0.3,0.2-0.5,0.3l-0.7,0.6c-0.4,0.4-0.8,0.9-0.9,1.4l-0.1,0.3c-0.2,0.6-0.3,1.1-0.3,1.7
				c0,0.7-0.3,1.3-0.8,1.8c-0.5,0.4-1,0.9-1.5,1.2l-0.1-0.3c-0.1-0.3-0.4-0.4-0.7-0.3c-0.3,0.1-0.5,0.5-0.4,0.8l0.4,0.8
				c0.1,0.1,0.1,0.3,0,0.4c-0.1,0.1-0.2,0.3-0.3,0.3c-0.4,0.1-0.8,0.4-1,0.8c-0.1,0.2-0.5,0.3-0.7,0.2c0,0,0,0-0.1-0.1l-1.3-1.1
				c-0.2-0.2-0.6-0.2-0.8,0.1c-0.2,0.2-0.2,0.6,0.1,0.8l0,0l0.1,0.1c-3.9,1.2-8.2,0.9-11.9-0.9c-0.8-0.4-1.3-1-1.5-1.9
				c-0.1-0.3-0.4-0.5-0.7-0.4c-0.3,0.1-0.5,0.4-0.4,0.7c0.3,1.2,1,2.2,2.1,2.7c4.2,2,9,2.3,13.4,0.7l0.2,0.1
				c0.3,0.3,0.7,0.4,1.1,0.4c0.1,0,0.2,0,0.3,0c0.5-0.1,0.9-0.4,1.2-0.8c0.1-0.1,0.2-0.2,0.3-0.2c0.7-0.2,1.2-0.9,1.2-1.7
				c0.7-0.5,1.3-1,1.9-1.5c0.7-0.7,1.1-1.6,1.2-2.6c0-0.5,0.1-1,0.3-1.4l0.1-0.3c0.1-0.4,0.3-0.7,0.6-0.9l0.7-0.6
				c0.1-0.1,0.2-0.2,0.4-0.3c0.9-0.6,1.6-1.5,1.9-2.5C534.3,62,533.1,56.5,529.7,52.4L529.7,52.4L529.7,52.4z M531.2,61.4
				c-0.4-0.1-0.7-0.3-0.9-0.6l-0.6-0.7c-0.6-0.6-0.7-1.5-0.4-2.3l0.2-0.6c0.2-0.5,0.6-1,1.2-1.2c0.9,1.8,1.4,3.7,1.6,5.6
				c-0.1,0-0.3,0-0.4-0.1L531.2,61.4L531.2,61.4z M529.7,67.5L529.7,67.5c-0.6-0.4-0.7-1.1-0.4-1.6c0.1-0.1,0.2-0.2,0.3-0.3l0.4-0.2
				c0.4-0.2,0.8-0.2,1.2,0l0.1,0.1c0.3,0.2,0.5,0.5,0.5,0.9v0.1c0,0.5-0.3,0.9-0.8,1l-0.4,0.1C530.3,67.7,530,67.7,529.7,67.5
				L529.7,67.5z"/>
			<path class="st11" d="M506.2,73.8c-0.6-0.6-1.4-1.1-2.2-1.3l-0.4-0.1c0,0,0,0,0,0c-0.7-0.2-1.4-0.7-1.8-1.4
				c-0.1-0.3-0.3-0.5-0.4-0.8l0.4-0.1c1.5-0.4,2.5-1.7,2.5-3.2v-0.2c0-1.1-0.5-2.1-1.4-2.7l-0.1-0.1c-0.9-0.6-2-0.7-2.9-0.4
				c0-0.1,0-0.3,0-0.4c0-0.9,0.1-1.7,0.2-2.6c0.1-0.6,0.5-1.1,1-1.3l0.1-0.1c0.5-0.3,1-0.7,1.3-1.2c0.3-0.5,0.5-1.1,0.5-1.7
				c0-0.9,0.2-1.7,0.4-2.5c0.1,0.1,0.2,0.1,0.3,0.1c0.3,0,0.6-0.3,0.6-0.6c0-0.1,0-0.3-0.1-0.4l-0.8-1c-0.3-0.4-0.2-0.9,0.1-1.2
				l0.2-0.2c0.3-0.3,0.5-0.6,0.6-1c0.1-0.5,0.6-0.8,1.1-0.7c0.1,0,0.1,0,0.2,0.1l1.5,0.8c0.3,0.1,0.6,0,0.8-0.2l0,0
				c0.1-0.1,0.1-0.2,0-0.3c2.9-1.7,6.3-2.5,9.6-2.2c1.8,0.1,3.6,0.6,5.2,1.3c0.3,0.1,0.6,0,0.8-0.3s0-0.6-0.3-0.8
				c-1.8-0.8-3.7-1.3-5.6-1.4c-3.7-0.3-7.5,0.6-10.7,2.6l-0.8-0.4c-1-0.5-2.2-0.1-2.8,0.9c-0.1,0.2-0.1,0.3-0.2,0.5
				c0,0.2-0.1,0.3-0.3,0.4l-0.2,0.2c-0.8,0.7-0.9,1.9-0.2,2.8l0.1,0.1c-0.5,1.1-0.7,2.3-0.8,3.5c0,0.4-0.1,0.8-0.3,1.1
				c-0.2,0.3-0.5,0.6-0.8,0.8l-0.1,0c-0.9,0.4-1.5,1.2-1.6,2.2c-0.6,3.8,0.1,7.7,1.9,11.1c0.5,0.9,1.4,1.6,2.4,1.9c0,0,0,0,0,0
				l0.4,0.1c0.7,0.2,1.2,0.6,1.7,1.1c0.2,0.2,0.6,0.2,0.8,0C506.4,74.4,506.4,74.1,506.2,73.8L506.2,73.8L506.2,73.8z M502.1,64.9
				l0.1,0.1c0.6,0.4,0.9,1,0.9,1.7V67c0,1-0.7,1.8-1.6,2l-0.6,0.1l-0.1,0c-0.5-1.4-0.9-2.8-1-4.3C500.5,64.4,501.4,64.5,502.1,64.9
				L502.1,64.9L502.1,64.9z"/>
			<path class="st11" d="M506.7,60.4c0.4,0.4,0.9,0.8,1.4,0.9l0.7,0.2c0.9,0.3,1.9,0.2,2.7-0.3l0.4-0.2c0.3-0.2,0.4-0.5,0.2-0.8
				c-0.2-0.3-0.5-0.4-0.8-0.2l0,0l-0.4,0.2c-0.5,0.3-1.2,0.4-1.8,0.2l-0.7-0.2c-0.4-0.1-0.7-0.3-0.9-0.6L507,59
				c-0.6-0.6-0.7-1.5-0.4-2.3l0.2-0.6c0.4-1.1,1.6-1.6,2.7-1.3l1,0.4c0.4,0.1,0.7,0.3,0.9,0.6l0.7,0.7c0.5,0.6,0.7,1.4,0.4,2.1
				c-0.1,0.3,0.1,0.6,0.4,0.7c0.3,0.1,0.6-0.1,0.7-0.4c0.4-1.1,0.1-2.4-0.7-3.3l-0.7-0.7c-0.4-0.4-0.9-0.8-1.4-0.9l-1-0.4
				c-1.7-0.6-3.5,0.3-4.2,1.9l-0.2,0.6c-0.5,1.2-0.2,2.5,0.6,3.5L506.7,60.4L506.7,60.4z"/>
			<path class="st11" d="M517.3,75.7l0.1,0.1c0.8,0.5,1.7,0.7,2.6,0.5l0.6-0.1c1.5-0.4,2.5-1.7,2.5-3.2c0-0.3-0.3-0.6-0.6-0.6
				s-0.6,0.3-0.6,0.6c0,1-0.7,1.8-1.6,2l-0.6,0.1c-0.6,0.1-1.2,0-1.7-0.3l-0.1-0.1c-1-0.6-1.2-1.9-0.6-2.9c0.2-0.2,0.4-0.4,0.6-0.6
				l0.6-0.4c0.7-0.5,1.6-0.5,2.3,0L521,71c0.1,0.1,0.3,0.2,0.4,0.3c0.2,0.2,0.6,0.3,0.8,0s0.3-0.6,0-0.8c-0.2-0.2-0.4-0.4-0.6-0.5
				l-0.1-0.1c-1.1-0.7-2.5-0.7-3.6,0l-0.6,0.4c-1.5,1-1.9,3-0.9,4.5C516.6,75.2,516.9,75.5,517.3,75.7L517.3,75.7L517.3,75.7z"/>
			<path class="st11" d="M521.8,57.5l-0.4,0.2c-1,0.7-1.3,2.1-0.6,3.1c0.2,0.2,0.4,0.5,0.6,0.6l0.1,0.1c0.5,0.4,1.2,0.5,1.8,0.3
				l0.4-0.1c1-0.2,1.7-1.1,1.7-2.2v-0.1c0-0.7-0.4-1.4-1-1.9l-0.1-0.1C523.5,57,522.5,57,521.8,57.5
				C521.8,57.5,521.8,57.5,521.8,57.5z M523.6,58.4L523.6,58.4c0.4,0.3,0.6,0.6,0.6,1v0.1c0,0.5-0.3,0.9-0.8,1l-0.4,0.1
				c-0.3,0.1-0.6,0-0.9-0.2l-0.1-0.1c-0.5-0.3-0.6-1-0.3-1.5c0.1-0.1,0.2-0.2,0.3-0.3l0.4-0.2C522.8,58.2,523.3,58.2,523.6,58.4
				L523.6,58.4L523.6,58.4z"/>
			<path class="st11" d="M512.8,66.7c0.5,0.4,1.2,0.5,1.8,0.3l0.4-0.1c1-0.2,1.7-1.1,1.7-2.2v-0.1c0-0.7-0.4-1.4-1-1.9l-0.1-0.1
				c-0.8-0.5-1.7-0.5-2.5,0l-0.4,0.2c-1,0.7-1.3,2.1-0.6,3.1C512.3,66.3,512.5,66.5,512.8,66.7C512.7,66.7,512.8,66.7,512.8,66.7z
				 M512.9,64.5c0.1-0.2,0.2-0.4,0.4-0.6l0.4-0.2c0.4-0.2,0.8-0.2,1.2,0l0.1,0.1c0.3,0.2,0.5,0.5,0.5,0.9v0.1c0,0.5-0.3,0.9-0.8,1
				l-0.4,0.1c-0.3,0.1-0.6,0-0.9-0.2l-0.1-0.1C513,65.4,512.8,64.9,512.9,64.5z"/>
			<path class="st11" d="M520.1,51.8c0-0.7-0.4-1.4-1-1.9l-0.1-0.1c-0.8-0.5-1.7-0.5-2.5,0l-0.4,0.2c-1,0.7-1.3,2.1-0.6,3.1
				c0.2,0.2,0.4,0.5,0.6,0.6l0.1,0.1c0.5,0.4,1.2,0.5,1.8,0.3l0.4-0.1c1-0.2,1.7-1.1,1.7-2.2V51.8L520.1,51.8z M519,52
				c0,0.5-0.3,0.9-0.8,1l-0.4,0.1c-0.3,0.1-0.6,0-0.9-0.2l-0.1-0.1c-0.5-0.3-0.6-1-0.3-1.5c0.1-0.1,0.2-0.2,0.3-0.3l0.4-0.2
				c0.4-0.2,0.8-0.2,1.2,0l0.1,0.1c0.3,0.2,0.5,0.5,0.5,0.9V52L519,52z"/>
			<path class="st11" d="M525.4,64.9c0-1-0.8-1.7-1.7-1.7s-1.7,0.8-1.7,1.7s0.8,1.7,1.7,1.7S525.4,65.9,525.4,64.9z M523.6,65.5
				c-0.3,0-0.6-0.3-0.6-0.6s0.3-0.6,0.6-0.6s0.6,0.3,0.6,0.6S523.9,65.5,523.6,65.5z"/>
			<path class="st11" d="M510.8,76c1,0,1.7-0.8,1.7-1.7c0-1-0.8-1.7-1.7-1.7c-1,0-1.7,0.8-1.7,1.7C509.1,75.2,509.9,76,510.8,76z
				 M510.8,73.6c0.3,0,0.6,0.3,0.6,0.6s-0.3,0.6-0.6,0.6c-0.3,0-0.6-0.3-0.6-0.6S510.5,73.6,510.8,73.6z"/>
			<path class="st11" d="M507.9,69.6c1,0,1.7-0.8,1.7-1.7s-0.8-1.7-1.7-1.7c-1,0-1.7,0.8-1.7,1.7S507,69.6,507.9,69.6z M507.9,67.2
				c0.3,0,0.6,0.3,0.6,0.6c0,0.3-0.3,0.6-0.6,0.6c-0.3,0-0.6-0.3-0.6-0.6C507.3,67.5,507.6,67.2,507.9,67.2z"/>
			<circle class="st11" cx="519" cy="62.6" r="0.6"/>
			<circle class="st11" cx="518.4" cy="57.3" r="0.6"/>
			<circle class="st11" cx="524.7" cy="53.1" r="0.6"/>
			<circle class="st11" cx="523.6" cy="68.4" r="0.6"/>
			<circle class="st11" cx="510.8" cy="50.9" r="0.6"/>
			<circle class="st11" cx="505" cy="62" r="0.6"/>
		</g>
	</g>
</g>
<g id="Layer_1-2_14_">
	<path class="st12" d="M703.2,63.7l-0.6-0.6c-0.6-0.6-0.6-1.6,0-2.2l0.6-0.6c0.2-0.2,0.1-0.5-0.1-0.6l-0.8-0.4
		c-0.8-0.3-1.1-1.2-0.8-2l0.3-0.8c0.1-0.2-0.1-0.5-0.4-0.5l-0.8,0c-0.8,0-1.5-0.7-1.5-1.5l0-0.8c0-0.3-0.3-0.4-0.5-0.4l-0.8,0.3
		c-0.8,0.3-1.7-0.1-2-0.8l-0.4-0.8c-0.1-0.2-0.4-0.3-0.6-0.1l-0.6,0.6c-0.5,0.4-1.1,0.5-1.7,0.3h-0.8l-3.1,2.1l-2.1,3.5v8.8l4.3,3.8
		l1.7,0.4c0.6-0.2,1.2-0.1,1.7,0.3l0.6,0.6c0.2,0.2,0.5,0.1,0.6-0.1l0.4-0.8c0.3-0.8,1.2-1.1,2-0.8l0.8,0.3c0.2,0.1,0.5-0.1,0.5-0.4
		l0-0.8c0-0.8,0.7-1.5,1.5-1.5l0.8,0c0.3,0,0.4-0.3,0.4-0.5l-0.3-0.8c-0.3-0.8,0.1-1.7,0.8-2l0.8-0.4
		C703.3,64.2,703.4,63.9,703.2,63.7L703.2,63.7L703.2,63.7z"/>
	<path class="st13" d="M686.2,62c0-4.2,2.6-7.8,6.2-9.3c-0.2-0.1-0.4-0.2-0.5-0.3l-0.6-0.6c-0.2-0.2-0.5-0.1-0.6,0.1l-0.4,0.8
		c-0.3,0.8-1.2,1.1-2,0.8l-0.8-0.3c-0.2-0.1-0.5,0.1-0.5,0.4l0,0.8c0,0.8-0.7,1.5-1.5,1.5l-0.8,0c-0.3,0-0.4,0.3-0.4,0.5l0.3,0.8
		c0.3,0.8-0.1,1.7-0.8,2l-0.8,0.4c-0.2,0.1-0.3,0.4-0.1,0.6l0.6,0.6c0.6,0.6,0.6,1.6,0,2.2l-0.6,0.6c-0.2,0.2-0.1,0.5,0.1,0.6
		l0.8,0.4c0.8,0.3,1.1,1.2,0.8,2l-0.3,0.8c-0.1,0.2,0.1,0.5,0.4,0.5l0.8,0c0.8,0,1.5,0.7,1.5,1.5l0,0.8c0,0.3,0.3,0.4,0.5,0.4
		l0.8-0.3c0.8-0.3,1.7,0.1,2,0.8l0.4,0.8c0.1,0.2,0.4,0.3,0.6,0.1l0.6-0.6c0.2-0.1,0.3-0.2,0.5-0.3C688.7,69.8,686.2,66.2,686.2,62
		L686.2,62L686.2,62z"/>
	<path class="st1" d="M694.4,54.8c-3.1,0.9-5.4,3.8-5.4,7.2c0,3.4,2.3,6.3,5.4,7.2c3.4-0.6,6-3.6,6-7.2S697.8,55.4,694.4,54.8z"/>
	<path class="st14" d="M689.1,62c0-3.5,2.4-6.4,5.6-7.2c-0.6-0.1-1.1-0.2-1.8-0.2c-4.1,0-7.4,3.3-7.4,7.4s3.3,7.4,7.4,7.4
		c0.6,0,1.2-0.1,1.8-0.2C691.5,68.4,689.1,65.5,689.1,62L689.1,62L689.1,62z"/>
	<path d="M682.5,63.5c-0.2,0.2-0.2,0.4-0.2,0.6c0,0.2,0.2,0.4,0.4,0.5l0.8,0.4c0.6,0.3,0.9,1,0.7,1.6l-0.3,0.8
		c-0.1,0.2-0.1,0.4,0.1,0.6s0.3,0.3,0.6,0.3l0.8,0c0.7,0,1.2,0.6,1.2,1.2l0,0.8c0,0.2,0.1,0.4,0.3,0.6c0.2,0.1,0.4,0.2,0.6,0.1
		l0.8-0.3c0.6-0.2,1.3,0.1,1.6,0.7l0.4,0.8c0.1,0.2,0.3,0.4,0.5,0.4c0.2,0,0.4,0,0.6-0.2l0.6-0.6c0.1-0.1,0.2-0.2,0.3-0.2
		c0.2-0.1,0.2-0.3,0.1-0.4c-0.1-0.2-0.3-0.2-0.4-0.1c-0.2,0.1-0.3,0.2-0.4,0.3l-0.6,0.6c0,0,0,0-0.1,0c0,0,0,0-0.1,0l-0.4-0.8
		c-0.4-0.9-1.5-1.3-2.4-1l-0.8,0.3c0,0-0.1,0-0.1,0c0,0,0,0,0-0.1l0-0.8c0-1-0.8-1.8-1.8-1.8l-0.8,0c0,0-0.1,0-0.1,0c0,0,0,0,0-0.1
		l0.3-0.8c0.3-0.9-0.1-2-1-2.4L683,64c0,0,0,0,0-0.1c0,0,0,0,0-0.1l0.6-0.6c0.7-0.7,0.7-1.9,0-2.6l-0.6-0.6c0,0,0,0,0-0.1
		c0,0,0,0,0-0.1l0.8-0.4c0.9-0.4,1.3-1.5,1-2.4l-0.3-0.8c0,0,0-0.1,0-0.1c0,0,0,0,0.1,0l0.8,0c1,0,1.8-0.8,1.8-1.8l0-0.8
		c0,0,0-0.1,0-0.1c0,0,0,0,0.1,0l0.8,0.3c0.9,0.3,2-0.1,2.4-1l0.4-0.8c0,0,0,0,0.1,0c0,0,0,0,0.1,0l0.6,0.6c0.7,0.7,1.9,0.7,2.6,0
		l0.6-0.6c0,0,0,0,0.1,0c0,0,0,0,0.1,0l0.4,0.8c0.4,0.9,1.5,1.3,2.4,1l0.8-0.3c0,0,0.1,0,0.1,0c0,0,0,0,0,0.1l0,0.8
		c0,1,0.8,1.8,1.8,1.8l0.8,0c0,0,0.1,0,0.1,0c0,0,0,0,0,0.1l-0.3,0.8c-0.3,0.9,0.1,2,1,2.4l0.8,0.4c0,0,0,0,0,0.1c0,0,0,0,0,0.1
		l-0.6,0.6c-0.7,0.7-0.7,1.9,0,2.6l0.6,0.6c0,0,0,0,0,0.1c0,0,0,0,0,0.1l-0.8,0.4c-0.9,0.4-1.3,1.5-1,2.4l0.3,0.8c0,0,0,0.1,0,0.1
		c0,0,0,0-0.1,0l-0.8,0c-1,0-1.8,0.8-1.8,1.8l0,0.8c0,0,0,0.1,0,0.1s0,0-0.1,0l-0.8-0.3c-0.9-0.3-2,0.1-2.4,1L695,72c0,0,0,0-0.1,0
		c0,0,0,0-0.1,0l-0.6-0.6c-0.1-0.1-0.3-0.2-0.4-0.3c-0.2-0.1-0.3,0-0.4,0.1c-0.1,0.2,0,0.3,0.1,0.4c0.1,0.1,0.2,0.1,0.3,0.2l0.6,0.6
		c0.1,0.1,0.3,0.2,0.5,0.2c0,0,0.1,0,0.1,0c0.2,0,0.4-0.2,0.5-0.4l0.4-0.8c0.3-0.6,1-0.9,1.6-0.7l0.8,0.3c0.2,0.1,0.4,0.1,0.6-0.1
		c0.2-0.1,0.3-0.3,0.3-0.6l0-0.8c0-0.7,0.6-1.2,1.2-1.2l0.8,0c0.2,0,0.4-0.1,0.6-0.3c0.1-0.2,0.2-0.4,0.1-0.6l-0.3-0.8
		c-0.2-0.6,0.1-1.3,0.7-1.6l0.8-0.4c0.2-0.1,0.4-0.3,0.4-0.5c0-0.2,0-0.4-0.2-0.6l-0.6-0.6c-0.5-0.5-0.5-1.3,0-1.8l0.6-0.6
		c0.2-0.2,0.2-0.4,0.2-0.6c0-0.2-0.2-0.4-0.4-0.5l-0.8-0.4c-0.6-0.3-0.9-1-0.7-1.6l0.3-0.8c0.1-0.2,0.1-0.4-0.1-0.6
		s-0.3-0.3-0.6-0.3l-0.8,0c-0.7,0-1.2-0.6-1.2-1.2l0-0.8c0-0.2-0.1-0.4-0.3-0.6c-0.2-0.1-0.4-0.2-0.6-0.1l-0.8,0.3
		c-0.6,0.2-1.3-0.1-1.6-0.7l-0.4-0.8c-0.1-0.2-0.3-0.4-0.5-0.4c-0.2,0-0.4,0-0.6,0.2l-0.6,0.6c-0.5,0.5-1.3,0.5-1.8,0l-0.6-0.6
		c-0.2-0.2-0.4-0.2-0.6-0.2c-0.2,0-0.4,0.2-0.5,0.4l-0.4,0.8c-0.3,0.6-1,0.9-1.6,0.7l-0.8-0.3c-0.2-0.1-0.4-0.1-0.6,0.1
		c-0.2,0.1-0.3,0.3-0.3,0.6l0,0.8c0,0.7-0.6,1.2-1.2,1.2l-0.8,0c-0.2,0-0.4,0.1-0.6,0.3c-0.1,0.2-0.2,0.4-0.1,0.6l0.3,0.8
		c0.2,0.6-0.1,1.3-0.7,1.6l-0.8,0.4c-0.2,0.1-0.4,0.3-0.4,0.5c0,0.2,0,0.4,0.2,0.6l0.6,0.6c0.5,0.5,0.5,1.3,0,1.8L682.5,63.5
		L682.5,63.5z"/>
	<path d="M693,54.9c3.6,0,6.7,2.7,7,6.4c0,0.2,0.2,0.3,0.3,0.3c0.2,0,0.3-0.2,0.3-0.3c-0.4-3.9-3.7-6.9-7.6-6.9
		c-4.2,0-7.7,3.4-7.7,7.7s3.4,7.7,7.7,7.7c4,0,7.3-3,7.6-6.9c0-0.2-0.1-0.3-0.3-0.3s-0.3,0.1-0.3,0.3c-0.4,3.6-3.4,6.4-7,6.4
		c-3.9,0-7.1-3.2-7.1-7.1S689.1,54.9,693,54.9L693,54.9z"/>
</g>
<circle class="st3" cx="476.7" cy="345.5" r="2"/>
<circle class="st3" cx="591.2" cy="353.2" r="2"/>
<circle class="st3" cx="417.4" cy="225" r="2"/>
<circle class="st3" cx="528.6" cy="153.7" r="2"/>
<g id="Layer_1-2_15_">
	<path class="st2" d="M317.2,30.2c0.6-0.1,1.2-0.6,1.3-1.3c0-0.5,0.4-2.9,0.4-2.9s0.3,2.4,0.4,2.9c0.1,0.8,0.6,1.2,1.3,1.3
		c0.5,0.1,2.9,0.4,2.9,0.4c0,0-2.4,0.3-2.9,0.4c-0.9,0.1-1.2,0.7-1.3,1.3c-0.1,0.5-0.4,2.9-0.4,2.9s-0.3-2.4-0.4-2.9
		c-0.1-0.7-0.6-1.2-1.3-1.3c-0.5-0.1-2.9-0.4-2.9-0.4C314.3,30.7,316.6,30.3,317.2,30.2z"/>
</g>
<circle class="st2" cx="364" cy="21" r="1.5"/>
</svg>
