<svg id="visual" xmlns="http://www.w3.org/2000/svg" viewBox="0 0 437.16 450"><defs><style>.cls-1{fill:#453c67;}.cls-2{fill:#fff;}.cls-3{fill:#46c2cb;}.cls-4{fill:#6d67e4;}.cls-5,.cls-7{fill:#25223a;}.cls-11,.cls-5,.cls-6{opacity:0.2;}.cls-11,.cls-5{isolation:isolate;}.cls-8{fill:#bdc3c7;}.cls-9{fill:#f2f7a1;}.cls-10{fill:#a8edef;}.cls-11,.cls-12{fill:#323232;}.cls-13{fill:#ff5249;}</style></defs><title>backgroundnautmob</title><g id="Layer_1-2" data-name="Layer 1-2"><path class="cls-1" d="M372.07,136.44c34.42,33.53,70.14,29,114.31,19.94,47.39-9.73,172.1-55.28,174-39.88,1.16,9.1-170.15,54.38-166.25,86.1s80.53,11.78,82.48,28.09S445.46,257.88,369.48,355.75c-48.72,62.75-24.68-2.72,11.69-42.59s51.5-86.92,14.28-108.75C338.3,170.88,331.52,74.61,342.2,82.06,347.4,85.69,355.23,120,372.07,136.44Z"/></g><g id="Layer_1-2-2" data-name="Layer 1-2"><path class="cls-2" d="M333.83,322.64a2,2,0,0,0,1.78-1.78c.05-.74.55-4,.55-4s.43,3.29.56,4a2,2,0,0,0,1.77,1.78l4,.56s-3.28.46-4,.55a1.91,1.91,0,0,0-1.77,1.78c-.1.74-.56,4-.56,4s-.48-3.28-.56-4a2,2,0,0,0-1.77-1.78c-.74-.08-4-.56-4-.55S333.09,322.72,333.83,322.64Z"/></g><g id="Layer_1-2-3" data-name="Layer 1-2"><path class="cls-2" d="M338.76,183.28a2.06,2.06,0,0,0,1.84-1.83c.06-.77.57-4.15.57-4.15s.44,3.39.58,4.15a2,2,0,0,0,1.83,1.83l4.15.58-4.15.58a2,2,0,0,0-1.83,1.83c-.1.76-.58,4.15-.58,4.15s-.5-3.38-.58-4.15a2,2,0,0,0-1.83-1.83c-.76-.09-4.15-.58-4.15-.58S338,183.37,338.76,183.28Z"/></g><g id="Layer_1-2-4" data-name="Layer 1-2"><path class="cls-2" d="M368,90.46a2.14,2.14,0,0,0,1.91-1.9c.06-.8.6-4.32.6-4.32s.45,3.53.6,4.32a2.12,2.12,0,0,0,1.9,1.9l4.32.6s-3.52.5-4.32.6a2,2,0,0,0-1.9,1.91l-.6,4.32s-.52-3.52-.6-4.32A2.1,2.1,0,0,0,368,91.66c-.79-.09-4.32-.6-4.32-.6Z"/><path class="cls-2" d="M376.42,100.47a1.46,1.46,0,0,0,1.29-1.3c.05-.54.41-2.94.41-2.94s.31,2.4.41,2.94a1.45,1.45,0,0,0,1.3,1.3l2.94.41-2.94.4a1.4,1.4,0,0,0-1.3,1.3c-.07.54-.41,2.94-.41,2.94s-.35-2.4-.41-2.94a1.41,1.41,0,0,0-1.29-1.3c-.55-.06-2.94-.4-2.94-.4S375.87,100.53,376.42,100.47Z"/></g><g id="Layer_1-2-5" data-name="Layer 1-2"><path class="cls-2" d="M383.55,404.13a1.7,1.7,0,0,0,1.5-1.5c.05-.63.47-3.4.47-3.4s.36,2.78.47,3.4a1.68,1.68,0,0,0,1.5,1.5l3.4.47-3.4.47a1.61,1.61,0,0,0-1.5,1.5c-.08.63-.47,3.4-.47,3.4s-.41-2.77-.47-3.4a1.65,1.65,0,0,0-1.5-1.5c-.63-.07-3.4-.47-3.4-.47S382.92,404.2,383.55,404.13Z"/></g><circle class="cls-3" cx="256.63" cy="94.13" r="2.06"/><circle class="cls-2" cx="354.25" cy="77.17" r="1.35"/><circle class="cls-2" cx="417.11" cy="142.38" r="2.27"/><circle class="cls-2" cx="393.24" cy="279.06" r="2.35"/><circle class="cls-2" cx="396.78" cy="197.81" r="1.96"/><circle class="cls-3" cx="297.35" cy="392.62" r="2.19"/><g id="Layer_1-2-6" data-name="Layer 1-2"><path class="cls-4" d="M307.41,360.69l-1.79-4.77a7.63,7.63,0,0,0-4.78-4.52L296,349.88a7.55,7.55,0,0,0-6.54.95l-4.25,2.84-.46.34a7.69,7.69,0,0,0-3,5.34l-.45,5.1a7.53,7.53,0,0,0,2.32,6.14l3.7,3.49a7.54,7.54,0,0,0,6.29,2l5.07-.72a7.77,7.77,0,0,0,5-2.92,6.72,6.72,0,0,0,.51-.76l2.61-4.42a7.56,7.56,0,0,0,.6-6.55Z"/><path class="cls-5" d="M303.69,372.42a7.75,7.75,0,0,1-5,2.92l-5.07.72a7.54,7.54,0,0,1-6.29-2l-3.7-3.49a7.57,7.57,0,0,1-2.33-6.14l.46-5.1a7.65,7.65,0,0,1,3-5.34,7.64,7.64,0,0,0-1.57,4l-.46,5.1a7.56,7.56,0,0,0,2.33,6.14l3.7,3.49a7.54,7.54,0,0,0,6.29,2l5.06-.72a7.69,7.69,0,0,0,3.63-1.54Z"/><path class="cls-5" d="M291.38,358.7a2.76,2.76,0,1,1-2.75-2.75A2.75,2.75,0,0,1,291.38,358.7Z"/><g class="cls-6"><path class="cls-7" d="M288.17,366.5a1.38,1.38,0,1,1-1.38-1.38A1.38,1.38,0,0,1,288.17,366.5Z"/><path class="cls-7" d="M297.35,355a1.38,1.38,0,1,1-1.38-1.38A1.37,1.37,0,0,1,297.35,355Z"/><path class="cls-7" d="M300.56,367.88a.92.92,0,1,1-.92-.92A.92.92,0,0,1,300.56,367.88Z"/><path class="cls-7" d="M295.51,363.75a1.38,1.38,0,1,1-1.38-1.38A1.37,1.37,0,0,1,295.51,363.75Z"/><path class="cls-7" d="M294.08,372.52a1.38,1.38,0,1,1-1.38-1.38A1.37,1.37,0,0,1,294.08,372.52Z"/></g><path class="cls-8" d="M303.31,366.5a.46.46,0,0,1-.32-.13.43.43,0,0,1-.1-.5.31.31,0,0,1,.1-.15.46.46,0,0,1,.5-.1.4.4,0,0,1,.24.25.33.33,0,0,1,0,.17.51.51,0,0,1-.13.33.6.6,0,0,1-.15.09A.39.39,0,0,1,303.31,366.5Z"/><path class="cls-8" d="M295.05,369.25a.51.51,0,0,1-.33-.13.49.49,0,0,1-.13-.33.47.47,0,0,1,0-.17.38.38,0,0,1,.09-.15.48.48,0,0,1,.51-.1.4.4,0,0,1,.24.25.33.33,0,0,1,0,.17.49.49,0,0,1-.13.33l-.15.1Z"/><path class="cls-8" d="M291.38,368.79a.46.46,0,0,1-.33-.13.49.49,0,0,1-.13-.33.33.33,0,0,1,0-.17.38.38,0,0,1,.09-.15.48.48,0,0,1,.51-.1.65.65,0,0,1,.15.1.54.54,0,0,1,.09.15.33.33,0,0,1,0,.17.45.45,0,0,1-.28.43Z"/><path class="cls-8" d="M295.51,359.62a.47.47,0,0,1-.33-.14.46.46,0,0,1-.13-.32.39.39,0,0,1,0-.18.6.6,0,0,1,.09-.15.48.48,0,0,1,.51-.1l.15.1a.6.6,0,0,1,.09.15.39.39,0,0,1,0,.18.44.44,0,0,1-.28.42A.58.58,0,0,1,295.51,359.62Z"/><path class="cls-5" d="M306.82,367.24l-2.61,4.42a7.85,7.85,0,0,1-.52.76,7.69,7.69,0,0,1-2.14,1.17c.13-.17.25-.36.37-.55l2.6-4.42a7.56,7.56,0,0,0,.6-6.55l-1.79-4.77a7.64,7.64,0,0,0-4.79-4.53l-4.86-1.52a7.56,7.56,0,0,0-5.26.25l1-.67a7.59,7.59,0,0,1,6.54-1l4.86,1.53a7.62,7.62,0,0,1,4.79,4.52l1.79,4.77a7.49,7.49,0,0,1-.6,6.55Z"/><path class="cls-5" d="M305.15,360.08a2.76,2.76,0,1,1-2.76-2.76A2.76,2.76,0,0,1,305.15,360.08Z"/><path d="M303.31,366.5a.46.46,0,0,1-.32-.13.43.43,0,0,1-.1-.5.31.31,0,0,1,.1-.15.46.46,0,0,1,.5-.1.4.4,0,0,1,.24.25.33.33,0,0,1,0,.17.51.51,0,0,1-.13.33.6.6,0,0,1-.15.09A.39.39,0,0,1,303.31,366.5Z"/><path d="M295.05,369.25a.51.51,0,0,1-.33-.13.49.49,0,0,1-.13-.33.47.47,0,0,1,0-.17.38.38,0,0,1,.09-.15.48.48,0,0,1,.51-.1.4.4,0,0,1,.24.25.33.33,0,0,1,0,.17.49.49,0,0,1-.13.33l-.15.1Z"/><path d="M291.38,368.79a.46.46,0,0,1-.33-.13.49.49,0,0,1-.13-.33.33.33,0,0,1,0-.17.38.38,0,0,1,.09-.15.48.48,0,0,1,.51-.1.65.65,0,0,1,.15.1.54.54,0,0,1,.09.15.33.33,0,0,1,0,.17.45.45,0,0,1-.28.43Z"/><path d="M295.51,359.62a.47.47,0,0,1-.33-.14.46.46,0,0,1-.13-.32.39.39,0,0,1,0-.18.6.6,0,0,1,.09-.15.48.48,0,0,1,.51-.1l.15.1a.6.6,0,0,1,.09.15.39.39,0,0,1,0,.18.44.44,0,0,1-.28.42A.58.58,0,0,1,295.51,359.62Z"/><path d="M306.05,355.76A8.17,8.17,0,0,0,301,351l-4.86-1.53a8.09,8.09,0,0,0-6.94,1l-4.25,2.84a8.12,8.12,0,0,0-3.61,6l-.45,5.09a8,8,0,0,0,2.47,6.52l3.69,3.49a7.91,7.91,0,0,0,5.49,2.18,7.8,7.8,0,0,0,1.18-.08l5.07-.72a8.2,8.2,0,0,0,5.85-3.89l2.6-4.42a8,8,0,0,0,.63-7l-1.79-4.77Zm.37,11.25h0l-2.6,4.42a7.3,7.3,0,0,1-5.19,3.46l-5.07.71a7,7,0,0,1-5.91-1.86L284,370.25a7,7,0,0,1-2.19-5.77l.45-5.09a7.21,7.21,0,0,1,3.21-5.34l4.25-2.84a7.17,7.17,0,0,1,6.15-.9l4.87,1.52a7.25,7.25,0,0,1,4.49,4.25l1.8,4.77a7,7,0,0,1-.57,6.15h0Z"/><path d="M302.39,356.86a3.22,3.22,0,1,0,2.28.95,3.19,3.19,0,0,0-2.27-.95ZM304,361.7a2.3,2.3,0,0,1-2.9.28,2.29,2.29,0,1,1,2.9-.28Z"/><path d="M291.84,358.7a3.21,3.21,0,1,0-.94,2.27A3.21,3.21,0,0,0,291.84,358.7ZM288.63,361a2.29,2.29,0,0,1-.88-4.41,2.29,2.29,0,0,1,2.5,3.74,2.29,2.29,0,0,1-1.62.67Z"/><path d="M286.79,364.66a1.84,1.84,0,1,0,1.3.54,1.81,1.81,0,0,0-1.3-.54Zm.65,2.49a1,1,0,0,1-1.3,0,.91.91,0,0,1-.19-1,.9.9,0,0,1,.84-.57.91.91,0,0,1,.85.57A.93.93,0,0,1,287.44,367.15Z"/><path d="M296,353.19a1.84,1.84,0,1,0,1.3.54A1.81,1.81,0,0,0,296,353.19Zm.65,2.49a1,1,0,0,1-1.3,0,.92.92,0,1,1,1.3,0Z"/><path d="M298.68,366.9a1.4,1.4,0,0,0-.36,1.33,1.38,1.38,0,0,0,2.3.62,1.38,1.38,0,0,0-1.94-2Zm1.28,1.3a.45.45,0,0,1-.58.06.47.47,0,0,1-.17-.56.45.45,0,0,1,.52-.27.46.46,0,0,1,.37.45.43.43,0,0,1-.14.32Z"/><path d="M294.13,361.91a1.83,1.83,0,0,0-.7,3.53,1.83,1.83,0,0,0,2-3,1.81,1.81,0,0,0-1.3-.54Zm.65,2.48a.92.92,0,0,1-1.29,0,.91.91,0,0,1,.64-1.56.91.91,0,0,1,.85.57A.89.89,0,0,1,294.78,364.39Z"/><path d="M292.7,370.68a1.84,1.84,0,1,0,1.3.54A1.84,1.84,0,0,0,292.7,370.68Zm.65,2.49a1,1,0,0,1-1.3,0,.93.93,0,0,1,.65-1.57.92.92,0,0,1,.65,1.57Z"/></g><circle class="cls-3" cx="384.73" cy="359.74" r="2.03"/><circle class="cls-3" cx="325.41" cy="239.23" r="2.03"/><circle class="cls-3" cx="436.64" cy="167.94" r="2.03"/><g id="Layer_1-2-7" data-name="Layer 1-2"><path class="cls-2" d="M225.18,44.48a1.45,1.45,0,0,0,1.28-1.28c0-.54.4-2.9.4-2.9s.31,2.37.4,2.9a1.42,1.42,0,0,0,1.28,1.28l2.9.4-2.9.41a1.38,1.38,0,0,0-1.28,1.28c-.07.53-.4,2.9-.4,2.9s-.35-2.37-.4-2.9a1.4,1.4,0,0,0-1.28-1.28c-.54-.06-2.9-.41-2.9-.41S224.64,44.54,225.18,44.48Z"/></g><circle class="cls-2" cx="271.95" cy="35.21" r="1.49"/><circle class="cls-9" cx="126.08" cy="225" r="260.52"/><g id="Layer_1-2-8" data-name="Layer 1-2"><g id="Fill_Outline" data-name="Fill Outline"><g id="Color"><path class="cls-10" d="M253.38,85.08a2.83,2.83,0,0,0,1.07-1,2.92,2.92,0,0,0,.41-1.41A7.43,7.43,0,0,1,257,77.31a16.87,16.87,0,0,1,28,16.16,3.34,3.34,0,0,1-1.58,2.17A2.69,2.69,0,0,0,283,96l-.65.58a2.75,2.75,0,0,0-.78,1.18l-.1.29a6.63,6.63,0,0,0-.28,1.6,3.24,3.24,0,0,1-1,2.17,16.9,16.9,0,0,1-18.94,2.9,3.26,3.26,0,0,1-1.8-2.27,2.73,2.73,0,0,0-.65-1.29l-.24-.27a5.09,5.09,0,0,0-2.2-1.44l-.44-.15h0a3.64,3.64,0,0,1-2.08-1.65A16.87,16.87,0,0,1,252,86.88a2.37,2.37,0,0,1,1.32-1.76l.08-.05Z"/><path class="cls-3" d="M281.62,97.6a.42.42,0,0,0-.06.14l-.1.29a6.63,6.63,0,0,0-.28,1.59,3.24,3.24,0,0,1-1,2.18,16.88,16.88,0,0,1-18.93,2.9,3.28,3.28,0,0,1-1.81-2.27,2.81,2.81,0,0,0-.64-1.29l-.24-.27a5.21,5.21,0,0,0-2.2-1.44l-.44-.15h0a3.64,3.64,0,0,1-2.08-1.65A16.81,16.81,0,0,1,252,86.88a2.41,2.41,0,0,1,1.32-1.77l.09,0a2.93,2.93,0,0,0,1.07-1,2.68,2.68,0,0,0,.4-1.4A7.44,7.44,0,0,1,257,77.32a16.32,16.32,0,0,1,4.62-3.13,16.54,16.54,0,0,0-2.06,7.16,3.61,3.61,0,0,0,.88,2.49c.41.46.41.47,0,0l.3.36a5,5,0,0,1,1.1,2.38l.06.35a2.72,2.72,0,0,1-.14,1.44,3.32,3.32,0,0,0,.33,2.89,16.9,16.9,0,0,0,17.59,7.57,3.27,3.27,0,0,0,1.93-1.25h0Z"/><path class="cls-10" d="M259.82,75.58l-1.49-.77a1.48,1.48,0,0,0-2,.63,2,2,0,0,0-.12.34,1.44,1.44,0,0,1-.43.73l-.22.21a1.45,1.45,0,0,0-.16,2l.78,1,3.62-4.12Z"/><path class="cls-11" d="M255.71,76.67a19,19,0,0,1,2.56-.6,2.92,2.92,0,0,0,1.38-.58l.17.09L256.2,79.7l-.78-1a1.47,1.47,0,0,1,.16-2l.14,0Z"/><path class="cls-10" d="M277.62,102.57l.38.79a1.1,1.1,0,0,1-.5,1.46l-.18.07h0a1.11,1.11,0,0,0-.64.5,1.1,1.1,0,0,1-1.5.39l-.16-.11-1.32-1.13,3.94-2Z"/><path class="cls-10" d="M264.56,81.79l.65.73a2.77,2.77,0,0,1-.71,4.26l-.67.37a2.78,2.78,0,0,1-2.22.21l-.68-.23a2.72,2.72,0,0,1-1.19-.78l-.58-.65a2.79,2.79,0,0,1-.51-2.86l.23-.57a2.78,2.78,0,0,1,1.84-1.65h0a2.73,2.73,0,0,1,1.6,0l1.05.35a2.75,2.75,0,0,1,1.18.78h0Z"/><path class="cls-10" d="M270.17,97.14l.56-.37a2.68,2.68,0,0,1,3,0l.14.09A2.69,2.69,0,0,1,275,99.09v.22a2.67,2.67,0,0,1-2,2.6l-.57.14a2.66,2.66,0,0,1-2.14-.37l-.12-.08a2.67,2.67,0,0,1,0-4.46Z"/><path class="cls-10" d="M274.34,84.56l.35-.23a1.64,1.64,0,0,1,1.85,0l.08,0a1.67,1.67,0,0,1,.74,1.38v.14a1.65,1.65,0,0,1-1.26,1.61l-.35.09a1.68,1.68,0,0,1-1.33-.23l-.08-.05a1.67,1.67,0,0,1-.65-1.91,1.63,1.63,0,0,1,.65-.86h0Z"/><path class="cls-10" d="M281.91,91.54l.35-.24a1.66,1.66,0,0,1,1.84,0l.08.06a1.65,1.65,0,0,1,.74,1.38v.14a1.66,1.66,0,0,1-1.26,1.61l-.35.09a1.69,1.69,0,0,1-1.33-.23l-.07-.06a1.64,1.64,0,0,1-.66-1.9,1.66,1.66,0,0,1,.66-.86h0Z"/><path class="cls-10" d="M265.62,89.79l.35-.23a1.66,1.66,0,0,1,1.84,0l.09.06a1.64,1.64,0,0,1,.73,1.38v.14a1.67,1.67,0,0,1-1.25,1.61l-.36.08a1.63,1.63,0,0,1-1.32-.23l-.08,0a1.67,1.67,0,0,1-.66-1.91,1.7,1.7,0,0,1,.66-.86Z"/><path class="cls-10" d="M269.11,77l.35-.24a1.66,1.66,0,0,1,1.84,0l.09.06a1.66,1.66,0,0,1,.73,1.38v.14A1.66,1.66,0,0,1,270.87,80l-.36.09a1.67,1.67,0,0,1-1.32-.23l-.08,0a1.67,1.67,0,0,1-.66-1.91,1.7,1.7,0,0,1,.66-.86h0Z"/><circle class="cls-10" cx="276.19" cy="91.27" r="1.16"/><circle class="cls-10" cx="263.4" cy="100.58" r="1.16"/><circle class="cls-10" cx="260.49" cy="94.18" r="1.16"/><path class="cls-10" d="M256.27,93.09v.23a2.68,2.68,0,0,1-2,2.6l-.58.14a2.7,2.7,0,0,1-.57.08,16.78,16.78,0,0,1-1.29-5.25l.17-.11a2.64,2.64,0,0,1,3,0l.14.09a2.67,2.67,0,0,1,1.19,2.22h0Z"/><path class="cls-10" d="M285.48,88.64a2.73,2.73,0,0,1-1.2-.12l-.68-.22a2.84,2.84,0,0,1-1.18-.78l-.58-.65a2.75,2.75,0,0,1-.5-2.86l.22-.58a2.78,2.78,0,0,1,1.85-1.65h0l.17,0a16.68,16.68,0,0,1,1.9,6.9Z"/><path class="cls-11" d="M261.91,87l-.06-.36a5.06,5.06,0,0,0-1.1-2.38l-.3-.36h0a3.63,3.63,0,0,1-.89-2.5.2.2,0,0,1,0-.07,2.74,2.74,0,0,0-.68,1l-.23.57a2.77,2.77,0,0,0,.51,2.86l.58.65a2.83,2.83,0,0,0,1.19.79l.68.22a2,2,0,0,0,.33.08,2,2,0,0,0,0-.49Z"/><path class="cls-11" d="M265.21,82.52l-.65-.73a2.72,2.72,0,0,0-1.19-.78l-1.05-.35a2.72,2.72,0,0,0-1.6,0h0a2.61,2.61,0,0,0-1,.5,2.68,2.68,0,0,1,.84.13l1.05.35a2.75,2.75,0,0,1,1.18.78l.66.73a2.77,2.77,0,0,1-.23,3.9,2.43,2.43,0,0,1-.49.35l-.23.13a2.72,2.72,0,0,0,1.31-.34l.67-.37A2.77,2.77,0,0,0,265.56,83a2.54,2.54,0,0,0-.35-.49h0Z"/><path class="cls-11" d="M273.84,96.86l-.14-.09a2.68,2.68,0,0,0-3,0l-.56.37a2.69,2.69,0,0,0-.74,3.72,2.61,2.61,0,0,0,.74.74l.12.08a2.66,2.66,0,0,0,2.14.37l.57-.14a2.67,2.67,0,0,0,2-2.6v-.22a2.69,2.69,0,0,0-1.19-2.23Zm-4.27.88,0,0,.56-.37a2.68,2.68,0,0,1,3,0l.13.09a2.66,2.66,0,0,1,1.13,1.62,17.1,17.1,0,0,1-4.81-1.32Z"/><path class="cls-11" d="M277.36,85.76v.14a1.66,1.66,0,0,1-1.26,1.61l-.34.09a1.64,1.64,0,0,0,.43-1.11v-.14a1.68,1.68,0,0,0-.74-1.39l-.08,0a1.65,1.65,0,0,0-1.14-.26.44.44,0,0,1,.11-.09l.35-.23a1.63,1.63,0,0,1,1.84,0l.09,0a1.66,1.66,0,0,1,.73,1.38h0Z"/><path class="cls-11" d="M272.12,78.2v.14A1.66,1.66,0,0,1,270.87,80l-.34.09a1.64,1.64,0,0,0,.43-1.11v-.14a1.68,1.68,0,0,0-.74-1.39l-.09-.05a1.62,1.62,0,0,0-1.13-.26.31.31,0,0,1,.11-.09l.35-.23a1.63,1.63,0,0,1,1.84,0l.08,0a1.65,1.65,0,0,1,.74,1.38Z"/><path class="cls-11" d="M281.38,85a2.9,2.9,0,0,1,1-1l.76-.43a3,3,0,0,1,1.12-.35c-.2-.51-.44-1-.69-1.5l-.17,0h0a2.76,2.76,0,0,0-1.84,1.65l-.23.57a2.82,2.82,0,0,0-.17,1.38l.22-.37Z"/><path class="cls-11" d="M284.92,92.74v.14a1.67,1.67,0,0,1-.59,1.27s0-.07,0-.1v-.14a1.68,1.68,0,0,0-.74-1.39l-.09,0a1.65,1.65,0,0,0-1.83,0l-.35.23-.16.12a1.31,1.31,0,0,1,.08-.43,1.64,1.64,0,0,1,.66-.85l.35-.23a1.63,1.63,0,0,1,1.84,0l.08,0a1.65,1.65,0,0,1,.74,1.38Z"/><path class="cls-11" d="M268.63,91v.14a1.64,1.64,0,0,1-.58,1.26v-.24a1.68,1.68,0,0,0-.73-1.39l-.09,0a1.66,1.66,0,0,0-1.84,0L265,91a.83.83,0,0,0-.16.12,1.57,1.57,0,0,1,.09-.43,1.65,1.65,0,0,1,.66-.86l.35-.23a1.65,1.65,0,0,1,1.83,0l.09,0a1.68,1.68,0,0,1,.74,1.39h0Z"/><path class="cls-11" d="M276.19,90.11a1.15,1.15,0,0,0-1.05.68,1.16,1.16,0,0,1,1.53,1.54,1.16,1.16,0,0,0-.48-2.22Z"/><path class="cls-11" d="M260.49,93a1.19,1.19,0,0,0-1.06.69,1.16,1.16,0,0,1,1.54.57,1.17,1.17,0,0,1,0,1,1.17,1.17,0,0,0-.48-2.23Z"/><path class="cls-11" d="M263.4,99.41a1.18,1.18,0,0,0-1.06.69,1.16,1.16,0,0,1,1.54,1.54,1.16,1.16,0,0,0,.57-1.54A1.17,1.17,0,0,0,263.4,99.41Z"/><path class="cls-11" d="M256.27,93.08v.25a2.65,2.65,0,0,1-2,2.58l-.57.14a.31.31,0,0,1-.13,0,2.7,2.7,0,0,0,1.12-2.17v-.24a2.67,2.67,0,0,0-1.18-2.21l-.14-.09a2.68,2.68,0,0,0-1.51-.45v0l.16-.11a2.64,2.64,0,0,1,3,0l.14.09a2.67,2.67,0,0,1,1.18,2.21h0Z"/><path class="cls-10" d="M279.57,79.27a2.13,2.13,0,0,0,2.32-1.1L282,78a1.47,1.47,0,0,0-.63-2,1.85,1.85,0,0,0-.33-.12,1.5,1.5,0,0,1-.74-.43l-.2-.22a1.47,1.47,0,0,0-2-.16l-1.06.83,1,2.19a2.14,2.14,0,0,0,1.5,1.18h0Z"/></g><g id="Outline_copy" data-name="Outline copy"><path class="cls-12" d="M282.27,78.73l.23-.45a2,2,0,0,0-.88-2.76,2.07,2.07,0,0,0-.47-.18.85.85,0,0,1-.44-.25l-.21-.23a2.05,2.05,0,0,0-2.77-.22l-1.05.83a.57.57,0,0,0-.09.81.58.58,0,0,0,.81.1l1.05-.82a.88.88,0,0,1,1.2.09l.21.23a2,2,0,0,0,1,.6.88.88,0,0,1,.66,1.07.8.8,0,0,1-.07.2l-.83,1.61a.58.58,0,0,0,.92.68.57.57,0,0,0,.11-.16v0a16.8,16.8,0,0,1,1.05,1.59,3.35,3.35,0,0,0-1.71,1.8l-.22.57a3.3,3.3,0,0,0,.61,3.46l.58.66a3.44,3.44,0,0,0,1.43.94l.69.23a3.62,3.62,0,0,0,.81.15,17.61,17.61,0,0,1-.08,1.92,1.75,1.75,0,0,0-.33-.28l-.09-.06a2.24,2.24,0,0,0-2.48,0l-.35.24a2.22,2.22,0,0,0,0,3.74l.06,0a2.22,2.22,0,0,0,1.25.38h.16a3.72,3.72,0,0,0-.47.34l-.65.58a3.34,3.34,0,0,0-.94,1.43l-.1.29a6.84,6.84,0,0,0-.31,1.73,2.77,2.77,0,0,1-.8,1.8,15,15,0,0,1-1.52,1.24l-.14-.29a.58.58,0,1,0-1.05.49l.38.79a.47.47,0,0,1,0,.43.47.47,0,0,1-.34.29,1.68,1.68,0,0,0-1,.76.52.52,0,0,1-.71.19l-.07-.06-1.32-1.13a.59.59,0,0,0-.76.89h0l.12.1a16.19,16.19,0,0,1-11.88-.9,2.71,2.71,0,0,1-1.5-1.86.57.57,0,0,0-.69-.44.58.58,0,0,0-.45.67,3.92,3.92,0,0,0,2.12,2.68,17.45,17.45,0,0,0,13.45.74l.17.14a1.67,1.67,0,0,0,1.09.4l.27,0a1.72,1.72,0,0,0,1.17-.8.51.51,0,0,1,.32-.24,1.67,1.67,0,0,0,1.21-1.68,17.86,17.86,0,0,0,1.91-1.54,3.91,3.91,0,0,0,1.17-2.56,5.87,5.87,0,0,1,.25-1.45l.09-.29a2.34,2.34,0,0,1,.62-.93l.66-.59a1.83,1.83,0,0,1,.36-.26,4,4,0,0,0,1.86-2.54,17.32,17.32,0,0,0-3.33-14.91h0Zm1.52,9a2.16,2.16,0,0,1-.93-.61l-.58-.65a2.17,2.17,0,0,1-.4-2.27l.22-.57a2.19,2.19,0,0,1,1.18-1.19,16.32,16.32,0,0,1,1.57,5.6,2.33,2.33,0,0,1-.38-.08l-.67-.23Zm-1.49,6.12-.08-.06a1.08,1.08,0,0,1-.3-1.5,1.18,1.18,0,0,1,.3-.29l.35-.24a1.09,1.09,0,0,1,1.2,0l.08.06a1.08,1.08,0,0,1,.48.9v.14a1.08,1.08,0,0,1-.81,1.05l-.36.09a1.13,1.13,0,0,1-.86-.15Z"/><path class="cls-12" d="M258.74,100.21a5.74,5.74,0,0,0-2.19-1.33l-.4-.13,0,0a3,3,0,0,1-1.75-1.37c-.14-.26-.27-.51-.39-.77l.43-.1a3.25,3.25,0,0,0,2.46-3.17v-.23a3.18,3.18,0,0,0-1.44-2.71l-.13-.08a3.22,3.22,0,0,0-2.92-.35c0-.14,0-.28,0-.42a16.65,16.65,0,0,1,.2-2.55,1.79,1.79,0,0,1,1-1.33l.11-.06a3.43,3.43,0,0,0,1.28-1.2,3.38,3.38,0,0,0,.49-1.69,8.3,8.3,0,0,1,.44-2.53.56.56,0,0,0,.32.11.59.59,0,0,0,.59-.58.61.61,0,0,0-.13-.36l-.77-1a.88.88,0,0,1,.09-1.2l.22-.2a2,2,0,0,0,.6-1,.89.89,0,0,1,1.07-.66.7.7,0,0,1,.2.08l1.49.76a.58.58,0,0,0,.78-.24h0a.6.6,0,0,0,.05-.35,16.13,16.13,0,0,1,9.62-2.2,15.7,15.7,0,0,1,5.21,1.33.59.59,0,0,0,.77-.29.58.58,0,0,0-.3-.77,16.83,16.83,0,0,0-5.58-1.43,17.31,17.31,0,0,0-10.68,2.58l-.82-.43a2.05,2.05,0,0,0-2.77.88,2.64,2.64,0,0,0-.17.47.83.83,0,0,1-.26.44l-.22.21a2,2,0,0,0-.22,2.76l.08.1a8.87,8.87,0,0,0-.76,3.52A2.24,2.24,0,0,1,254,83.8a2.22,2.22,0,0,1-.82.76l-.09,0a3,3,0,0,0-1.64,2.2,17.47,17.47,0,0,0,1.93,11.12,4.12,4.12,0,0,0,2.37,1.91l0,0,.44.14a4.51,4.51,0,0,1,1.74,1.06.58.58,0,0,0,.82-.83h0Zm-4.11-8.94.13.08a2.1,2.1,0,0,1,.93,1.74v.23a2.11,2.11,0,0,1-1.59,2l-.58.14-.08,0a16.45,16.45,0,0,1-1-4.26,2.1,2.1,0,0,1,2.21.07h0Z"/><path class="cls-12" d="M259.31,86.75a3.29,3.29,0,0,0,1.43.94l.68.23a3.37,3.37,0,0,0,2.69-.26l.42-.23a.58.58,0,1,0-.56-1h0l-.43.23a2.18,2.18,0,0,1-1.75.17l-.68-.23a2.07,2.07,0,0,1-.94-.62l-.58-.65a2.17,2.17,0,0,1-.4-2.26l.23-.57a2.18,2.18,0,0,1,2.72-1.26l1.05.35a2.25,2.25,0,0,1,.94.61l.65.74a2.17,2.17,0,0,1,.44,2.14.58.58,0,0,0,.37.74.59.59,0,0,0,.74-.37,3.35,3.35,0,0,0-.68-3.29l-.65-.73a3.43,3.43,0,0,0-1.44-1l-1-.35a3.36,3.36,0,0,0-4.18,1.94l-.22.58a3.33,3.33,0,0,0,.61,3.46l.58.65Z"/><path class="cls-12" d="M269.87,102.09l.12.08a3.29,3.29,0,0,0,2.61.45l.57-.14a3.26,3.26,0,0,0,2.47-3.16.58.58,0,1,0-1.16,0,2.1,2.1,0,0,1-1.59,2l-.57.15a2.16,2.16,0,0,1-1.68-.29l-.12-.09a2.1,2.1,0,0,1-.58-2.91,2.28,2.28,0,0,1,.58-.58l.57-.37a2.08,2.08,0,0,1,2.32,0l.14.09a2.5,2.5,0,0,1,.39.34.59.59,0,0,0,.82,0,.57.57,0,0,0,0-.82,3.1,3.1,0,0,0-.61-.53l-.13-.09a3.27,3.27,0,0,0-3.62,0l-.56.38a3.27,3.27,0,0,0-.91,4.53,3.39,3.39,0,0,0,.91.9h0Z"/><path class="cls-12" d="M274.37,83.84l-.35.23a2.24,2.24,0,0,0-.62,3.11,2,2,0,0,0,.62.62l.08.06a2.25,2.25,0,0,0,1.79.31l.35-.09a2.25,2.25,0,0,0,1.7-2.18v-.14a2.23,2.23,0,0,0-1-1.86l-.08-.06a2.25,2.25,0,0,0-2.49,0Zm1.84,1,.09,0a1.08,1.08,0,0,1,.48.9v.14a1.08,1.08,0,0,1-.82,1l-.35.09a1.11,1.11,0,0,1-.87-.15l-.07-.06a1.08,1.08,0,0,1-.3-1.5,1.18,1.18,0,0,1,.3-.29l.35-.24a1.07,1.07,0,0,1,1.19,0h0Z"/><path class="cls-12" d="M265.37,93.09a2.23,2.23,0,0,0,1.79.31l.36-.08a2.24,2.24,0,0,0,1.69-2.18V91a2.26,2.26,0,0,0-1-1.87l-.09,0a2.2,2.2,0,0,0-2.48,0l-.35.23a2.24,2.24,0,0,0-.63,3.11,2.32,2.32,0,0,0,.63.62Zm.15-2.26a1,1,0,0,1,.42-.55l.35-.24a1.09,1.09,0,0,1,1.2,0l.08.06a1.08,1.08,0,0,1,.48.9v.14a1.07,1.07,0,0,1-.81,1l-.36.09a1.1,1.1,0,0,1-.86-.15l-.08-.06A1.08,1.08,0,0,1,265.52,90.83Z"/><path class="cls-12" d="M272.7,78.2a2.26,2.26,0,0,0-1-1.87l-.09,0a2.2,2.2,0,0,0-2.48,0l-.35.23a2.23,2.23,0,0,0-.63,3.11,2.32,2.32,0,0,0,.63.62l.07.05a2.23,2.23,0,0,0,1.79.31l.36-.08a2.25,2.25,0,0,0,1.69-2.18V78.2Zm-1.16.14a1.08,1.08,0,0,1-.82,1l-.35.09a1.09,1.09,0,0,1-.86-.15l-.08-.06a1.07,1.07,0,0,1,0-1.79l.35-.24a1.09,1.09,0,0,1,1.2,0l.08.06a1.08,1.08,0,0,1,.48.9v.14Z"/><path class="cls-12" d="M277.94,91.27A1.75,1.75,0,1,0,276.2,93,1.74,1.74,0,0,0,277.94,91.27Zm-1.74.58a.58.58,0,1,1,.58-.58A.58.58,0,0,1,276.2,91.85Z"/><path class="cls-12" d="M263.4,102.32a1.75,1.75,0,1,0-1.75-1.74A1.74,1.74,0,0,0,263.4,102.32Zm0-2.33a.58.58,0,1,1-.58.58A.58.58,0,0,1,263.4,100Z"/><path class="cls-12" d="M260.49,95.92a1.74,1.74,0,1,0-1.74-1.74A1.73,1.73,0,0,0,260.49,95.92Zm0-2.32a.58.58,0,1,1-.58.58A.58.58,0,0,1,260.49,93.6Z"/><circle class="cls-12" cx="271.54" cy="88.95" r="0.58"/><circle class="cls-12" cx="270.96" cy="83.71" r="0.58"/><circle class="cls-12" cx="277.23" cy="79.51" r="0.58"/><circle class="cls-12" cx="276.19" cy="94.76" r="0.58"/><circle class="cls-12" cx="263.4" cy="77.31" r="0.58"/><circle class="cls-12" cx="257.58" cy="88.36" r="0.58"/></g></g></g><g id="Layer_1-2-9" data-name="Layer 1-2"><path class="cls-4" d="M176.43,379.62l-1.79-4.76a7.64,7.64,0,0,0-4.79-4.53L165,368.81a7.58,7.58,0,0,0-6.54.95l-4.25,2.84a5.48,5.48,0,0,0-.46.34,7.67,7.67,0,0,0-3,5.34l-.45,5.1a7.52,7.52,0,0,0,2.32,6.14l3.7,3.49a7.54,7.54,0,0,0,6.29,2l5.07-.71a7.78,7.78,0,0,0,5-2.93,5.67,5.67,0,0,0,.52-.76l2.61-4.42a7.55,7.55,0,0,0,.6-6.55Z"/><path class="cls-5" d="M172.71,391.35a7.8,7.8,0,0,1-5,2.93l-5.07.71a7.54,7.54,0,0,1-6.29-2l-3.7-3.49a7.57,7.57,0,0,1-2.33-6.14l.46-5.1a7.69,7.69,0,0,1,2.94-5.34,7.75,7.75,0,0,0-1.56,4l-.46,5.1a7.56,7.56,0,0,0,2.33,6.14l3.7,3.49a7.51,7.51,0,0,0,6.29,2l5.06-.71a7.77,7.77,0,0,0,3.62-1.55Z"/><path class="cls-5" d="M160.4,377.63a2.76,2.76,0,1,1-2.76-2.75A2.76,2.76,0,0,1,160.4,377.63Z"/><g class="cls-6"><path class="cls-7" d="M157.19,385.43a1.38,1.38,0,1,1-2.75,0,1.38,1.38,0,0,1,2.75,0Z"/><path class="cls-7" d="M166.36,374a1.38,1.38,0,1,1-1.37-1.37A1.37,1.37,0,0,1,166.36,374Z"/><path class="cls-7" d="M169.58,386.81a.92.92,0,1,1-.92-.92A.92.92,0,0,1,169.58,386.81Z"/><path class="cls-7" d="M164.53,382.68a1.38,1.38,0,1,1-1.38-1.38A1.37,1.37,0,0,1,164.53,382.68Z"/><path class="cls-7" d="M163.1,391.45a1.38,1.38,0,1,1-2.75,0,1.38,1.38,0,0,1,2.75,0Z"/></g><path class="cls-8" d="M172.33,385.43a.46.46,0,0,1-.33-.13.49.49,0,0,1-.13-.33.33.33,0,0,1,0-.17.38.38,0,0,1,.09-.15.48.48,0,0,1,.51-.1.4.4,0,0,1,.24.25.33.33,0,0,1,0,.17.49.49,0,0,1-.13.33l-.15.1A.57.57,0,0,1,172.33,385.43Z"/><path class="cls-8" d="M164.07,388.18a.46.46,0,0,1-.33-.13.49.49,0,0,1-.13-.33.35.35,0,0,1,0-.17.38.38,0,0,1,.09-.15.48.48,0,0,1,.51-.1.42.42,0,0,1,.24.25.33.33,0,0,1,0,.17.49.49,0,0,1-.13.33.65.65,0,0,1-.15.1A.57.57,0,0,1,164.07,388.18Z"/><path class="cls-8" d="M160.4,387.72a.46.46,0,0,1-.33-.13.48.48,0,0,1-.13-.32.37.37,0,0,1,0-.18.38.38,0,0,1,.09-.15.47.47,0,0,1,.5-.1.46.46,0,0,1,.25.25.53.53,0,0,1,0,.18.45.45,0,0,1-.29.42A.47.47,0,0,1,160.4,387.72Z"/><path class="cls-8" d="M164.53,378.55a.47.47,0,0,1-.33-.14.46.46,0,0,1-.13-.32.39.39,0,0,1,0-.18.6.6,0,0,1,.09-.15.46.46,0,0,1,.5-.09.51.51,0,0,1,.16.09,1.19,1.19,0,0,1,.09.15.58.58,0,0,1,0,.18.44.44,0,0,1-.29.42A.47.47,0,0,1,164.53,378.55Z"/><path class="cls-5" d="M175.84,386.17l-2.61,4.42a6.79,6.79,0,0,1-.52.76,7.9,7.9,0,0,1-2.15,1.18,4.92,4.92,0,0,0,.37-.56l2.61-4.42a7.56,7.56,0,0,0,.6-6.55l-1.8-4.77a7.58,7.58,0,0,0-4.78-4.52l-4.86-1.53a7.62,7.62,0,0,0-5.26.26l1-.68a7.55,7.55,0,0,1,6.54-.95l4.86,1.52a7.65,7.65,0,0,1,4.79,4.52l1.79,4.77a7.49,7.49,0,0,1-.6,6.55Z"/><path class="cls-5" d="M174.17,379a2.76,2.76,0,1,1-2.76-2.76A2.76,2.76,0,0,1,174.17,379Z"/><path d="M172.33,385.43a.46.46,0,0,1-.33-.13.49.49,0,0,1-.13-.33.33.33,0,0,1,0-.17.38.38,0,0,1,.09-.15.48.48,0,0,1,.51-.1.4.4,0,0,1,.24.25.33.33,0,0,1,0,.17.49.49,0,0,1-.13.33l-.15.1A.57.57,0,0,1,172.33,385.43Z"/><path d="M164.07,388.18a.46.46,0,0,1-.33-.13.49.49,0,0,1-.13-.33.35.35,0,0,1,0-.17.38.38,0,0,1,.09-.15.48.48,0,0,1,.51-.1.42.42,0,0,1,.24.25.33.33,0,0,1,0,.17.49.49,0,0,1-.13.33.65.65,0,0,1-.15.1A.57.57,0,0,1,164.07,388.18Z"/><path d="M160.4,387.72a.46.46,0,0,1-.33-.13.48.48,0,0,1-.13-.32.37.37,0,0,1,0-.18.38.38,0,0,1,.09-.15.47.47,0,0,1,.5-.1.46.46,0,0,1,.25.25.53.53,0,0,1,0,.18.45.45,0,0,1-.29.42A.47.47,0,0,1,160.4,387.72Z"/><path d="M164.53,378.55a.47.47,0,0,1-.33-.14.46.46,0,0,1-.13-.32.39.39,0,0,1,0-.18.6.6,0,0,1,.09-.15.46.46,0,0,1,.5-.09.51.51,0,0,1,.16.09,1.19,1.19,0,0,1,.09.15.58.58,0,0,1,0,.18.44.44,0,0,1-.29.42A.47.47,0,0,1,164.53,378.55Z"/><path d="M175.07,374.69a8.17,8.17,0,0,0-5.08-4.8l-4.86-1.52a8.09,8.09,0,0,0-6.94,1l-4.25,2.84a8.14,8.14,0,0,0-3.61,6l-.45,5.1a8,8,0,0,0,2.46,6.51l3.7,3.49a8,8,0,0,0,5.49,2.19,7.81,7.81,0,0,0,1.18-.09l5.07-.71a8.21,8.21,0,0,0,5.85-3.9l2.6-4.42a8,8,0,0,0,.63-7l-1.8-4.76Zm.37,11.25h0l-2.6,4.42a7.3,7.3,0,0,1-5.19,3.46l-5.07.71a7.06,7.06,0,0,1-5.91-1.85l-3.7-3.49a7.07,7.07,0,0,1-2.18-5.77l.45-5.1a7.24,7.24,0,0,1,3.2-5.34l4.26-2.84a7.17,7.17,0,0,1,6.15-.9l4.86,1.53a7.19,7.19,0,0,1,4.5,4.25l1.8,4.76a7.08,7.08,0,0,1-.57,6.16Z"/><path d="M171.41,375.8a3.2,3.2,0,1,0,2.28.94,3.15,3.15,0,0,0-2.27-.94Zm1.62,4.83a2.27,2.27,0,0,1-2.89.29,2.3,2.3,0,1,1,2.9-.29Z"/><path d="M160.86,377.63a3.21,3.21,0,1,0-.94,2.27A3.21,3.21,0,0,0,160.86,377.63Zm-3.21,2.3a2.3,2.3,0,1,1,1.62-.68,2.26,2.26,0,0,1-1.62.67Z"/><path d="M155.81,383.59a1.84,1.84,0,1,0,1.3.54,1.87,1.87,0,0,0-1.3-.54Zm.65,2.49a.94.94,0,0,1-1.3,0,.93.93,0,0,1,.65-1.57.92.92,0,0,1,.65,1.57Z"/><path d="M165,372.12a1.83,1.83,0,1,0,1.3.54A1.87,1.87,0,0,0,165,372.12Zm.65,2.49a.94.94,0,0,1-1.3,0,.93.93,0,0,1-.2-1A.91.91,0,0,1,165,373a.92.92,0,0,1,.65,1.57Z"/><path d="M167.7,385.83a1.37,1.37,0,0,0-.36,1.33,1.37,1.37,0,0,0,2.3.62,1.38,1.38,0,0,0-1.94-1.95Zm1.28,1.3a.46.46,0,0,1-.58.06.47.47,0,0,1-.17-.56.46.46,0,0,1,.89.18.43.43,0,0,1-.14.32Z"/><path d="M163.15,380.84a1.84,1.84,0,1,0,1.3.54,1.84,1.84,0,0,0-1.3-.54Zm.65,2.49a.94.94,0,0,1-1.3,0,.92.92,0,1,1,1.5-1A.93.93,0,0,1,163.8,383.33Z"/><path d="M161.72,389.62a1.83,1.83,0,1,0,1.3.53A1.83,1.83,0,0,0,161.72,389.62Zm.65,2.48a.94.94,0,0,1-1.3,0,.93.93,0,0,1,.65-1.57.92.92,0,0,1,.65,1.57Z"/></g><g id="Layer_1-2-10" data-name="Layer 1-2"><path class="cls-13" d="M174.65,37.28A51.54,51.54,0,0,1,163,45.19l-.26-15.41a51.45,51.45,0,0,1,11.87,7.51Z"/><path class="cls-2" d="M162.78,29.77,163,45.19a38.42,38.42,0,0,1-16.37,4.31,45.82,45.82,0,0,1-16.49-2.84l-.29-17.25a46.79,46.79,0,0,1,11.72-3.07,44.24,44.24,0,0,1,4.66-.33,38.3,38.3,0,0,1,16.51,3.76Z"/><path class="cls-3" d="M155.86,37.61A4.7,4.7,0,1,1,151.09,33,4.68,4.68,0,0,1,155.86,37.61Z"/><path class="cls-13" d="M142,49.59c-2,10.73-14.18,7.08-18.75,2.67a8.74,8.74,0,0,0,7-3.84l0-1.76A46.44,46.44,0,0,0,142,49.33Z"/><path class="cls-13" d="M122.92,34.66v-.27a2.26,2.26,0,0,1,1-2,40.39,40.39,0,0,1,5.93-3l.3,17.24a41.18,41.18,0,0,1-6-2.77,2.28,2.28,0,0,1-1.1-2v-.26l-.12-7Z"/><path class="cls-13" d="M141.57,26.1l0,.25a47,47,0,0,0-11.73,3.08l0-1.76a8.72,8.72,0,0,0-7.11-3.6C127.15,19.51,139.25,15.44,141.57,26.1Z"/><path class="cls-9" d="M122.92,34.66l.12,7a9.3,9.3,0,0,1-4.67,1.27c-3.89.07-9.48-4.54-9.48-4.54s5.42-4.78,9.32-4.86A9.25,9.25,0,0,1,122.92,34.66Z"/><path d="M134.77,39.16a1.18,1.18,0,0,0,1.15-1.2,1.17,1.17,0,0,0-1.19-1.15,1.18,1.18,0,1,0,0,2.35Z"/><path d="M151.29,43.58a5.88,5.88,0,1,0-6-5.78A5.88,5.88,0,0,0,151.29,43.58Zm-.16-9.4a3.53,3.53,0,1,1-3.47,3.59A3.53,3.53,0,0,1,151.13,34.18Z"/><path d="M121.68,24.56a1.23,1.23,0,0,0,.26.37,1.15,1.15,0,0,0,.84.33,7.47,7.47,0,0,1,5.92,2.82v.59a42,42,0,0,0-5.36,2.75A3.38,3.38,0,0,0,122,33a11,11,0,0,0-3.84-.59c-4.28.07-9.84,4.94-10.07,5.15a1.16,1.16,0,0,0-.4.9,1.15,1.15,0,0,0,.36.83l.06.06c.24.2,6,4.88,10.24,4.81a11.13,11.13,0,0,0,3.82-.72,3.24,3.24,0,0,0,1.37,1.52A41.59,41.59,0,0,0,129,47.51v.58a7.46,7.46,0,0,1-5.82,3,1.18,1.18,0,0,0-.8,2c3.34,3.23,9.94,5.75,14.77,4.2,2.1-.68,4.75-2.4,5.79-6.72,1.24.08,2.5.11,3.73.09a39.27,39.27,0,0,0,16.87-4.43,51.39,51.39,0,0,0,11.9-8.12,1.13,1.13,0,0,0,.36-.86,1.14,1.14,0,0,0-.38-.85,52.26,52.26,0,0,0-12.18-7.7,39.13,39.13,0,0,0-17-3.86c-1.23,0-2.48.09-3.73.22-1.19-4.29-3.89-5.92-6-6.52-4.88-1.38-11.39,1.36-14.62,4.71a1.17,1.17,0,0,0-.23,1.28Zm-3.32,17.22c-2.28,0-5.6-2-7.56-3.39,1.91-1.48,5.16-3.62,7.44-3.65a8.6,8.6,0,0,1,3.54.67l.09,5.59A8.23,8.23,0,0,1,118.36,41.78Zm6.38,1.1a1.09,1.09,0,0,1-.5-1c-.14-8.06,0,2.29-.13-7.54a1.11,1.11,0,0,1,.47-1,37.33,37.33,0,0,1,4.18-2.2L129,44.94a39.77,39.77,0,0,1-4.24-2.06Zm11.73,12.2c-3.1,1-7.36-.17-10.41-2.1a10,10,0,0,0,5.18-4,1.37,1.37,0,0,0,.16-.68,47.86,47.86,0,0,0,9.21,2.05,6.24,6.24,0,0,1-4.14,4.7ZM164.2,43.29,164,31.68a53.32,53.32,0,0,1,8.86,5.65,52.91,52.91,0,0,1-8.67,6ZM146.31,27.21a36.8,36.8,0,0,1,15.33,3.35l.23,13.92a36.59,36.59,0,0,1-15.2,3.87,41,41,0,0,1-4.55-.17,44.77,44.77,0,0,1-10.76-2.33l-.27-15.62a45.62,45.62,0,0,1,10.68-2.7C143.29,27.35,144.81,27.24,146.31,27.21ZM135.9,20.83a6.25,6.25,0,0,1,4.29,4.55,47.59,47.59,0,0,0-9.14,2.36,1.3,1.3,0,0,0-.19-.7,10.09,10.09,0,0,0-5.3-3.76C128.54,21.25,132.76,19.93,135.9,20.83Z"/><path d="M113.83,51.26l4.69-.08A1.18,1.18,0,0,0,119.68,50a1.17,1.17,0,0,0-1.2-1.15l-4.69.08a1.17,1.17,0,1,0,0,2.34Z"/><path d="M113.43,27.78l4.69-.08a1.18,1.18,0,1,0,0-2.35l-4.69.08a1.18,1.18,0,1,0,0,2.35Z"/><path d="M111.36,44.26l-11.25.19a1.18,1.18,0,1,0,0,2.35l11.25-.2a1.18,1.18,0,0,0,1.15-1.19A1.17,1.17,0,0,0,111.36,44.26Z"/><path d="M104.6,37.73l-11.25.19a1.17,1.17,0,0,0,0,2.34l11.25-.19a1.18,1.18,0,0,0,1.15-1.19A1.17,1.17,0,0,0,104.6,37.73Z"/><path d="M99.91,32.7l11.25-.19a1.18,1.18,0,0,0,0-2.35l-11.25.2a1.17,1.17,0,0,0,0,2.34Z"/><path d="M139.46,39.08l2.35,0a1.18,1.18,0,0,0,0-2.35l-2.35,0a1.18,1.18,0,0,0,0,2.35Z"/></g></svg>