<?xml version="1.0" encoding="UTF-8"?><svg id="Layer_2" xmlns="http://www.w3.org/2000/svg" viewBox="0 0 68.78 98.87"><defs><style>.cls-1{fill:#d3d379;}.cls-2{fill:#f2f7a1;}</style></defs><g id="Layer_1-2"><circle class="cls-2" cx="54.06" cy="38.38" r="3.47"/><circle class="cls-2" cx="64.1" cy="87.32" r="3.23"/><circle class="cls-2" cx="4.68" cy="51.48" r="3.23"/><path class="cls-2" d="m27.97,4.77c-.49-1.35-1.48-2.38-2.69-2.94h-1.03l-2.37,2.63-.27,3.7,1.16,1.77,1.32,1.22,1.19.06c2.41-1.11,3.61-3.9,2.69-6.44h0Z"/><path class="cls-1" d="m22.58,8.37c-.92-2.54.28-5.33,2.69-6.44-1.19-.55-2.59-.65-3.92-.17-2.68.97-4.07,3.93-3.11,6.61.97,2.68,3.93,4.07,6.61,3.11.14-.05.28-.11.41-.17-1.21-.56-2.2-1.58-2.69-2.94Z"/><path class="cls-2" d="m20.85,30.26c-.49-1.35-1.48-2.38-2.69-2.94h-1.12l-1.69,2.07-.86,2.22v2.25l2.07,2.42.48.32,1.12.1c2.41-1.11,3.61-3.9,2.69-6.44h0Z"/><path class="cls-1" d="m15.38,33.67c-.92-2.54.28-5.33,2.69-6.44-1.19-.55-2.59-.65-3.92-.17-2.68.97-4.07,3.93-3.11,6.61s3.93,4.07,6.61,3.11c.14-.05.28-.11.41-.17-1.21-.56-2.2-1.58-2.69-2.94Z"/><path class="cls-2" d="m35.53,49.77c-.49-1.35-1.48-2.38-2.69-2.94h-.79l-2.25,2.24-.63,2.25v2.48l1.82,1.8.91.45.94.15c2.41-1.11,3.61-3.9,2.69-6.44h0Z"/><path class="cls-1" d="m30.19,53.23c-.92-2.54.28-5.33,2.69-6.44-1.19-.55-2.59-.65-3.92-.17-2.68.97-4.07,3.93-3.11,6.61s3.93,4.07,6.61,3.11c.14-.05.28-.11.41-.17-1.21-.56-2.21-1.58-2.69-2.94h0Z"/><path class="cls-2" d="m25.1,79.51c-.49-1.35-1.48-2.38-2.69-2.94h-.79l-2.25,2.24-.63,2.25v2.48l1.82,1.8.91.45.94.15c2.41-1.11,3.61-3.9,2.69-6.44h0Z"/><path class="cls-1" d="m19.71,83.06c-.92-2.54.28-5.33,2.69-6.44-1.19-.55-2.59-.65-3.92-.17-2.68.97-4.07,3.93-3.11,6.61s3.93,4.07,6.61,3.11c.14-.05.28-.11.41-.17-1.21-.56-2.2-1.58-2.69-2.94h0Z"/><path class="cls-2" d="m50.21,90.51c-.49-1.35-1.48-2.38-2.69-2.94h-.79l-2.25,2.24-.63,2.25v2.48l1.82,1.8.91.45.94.15c2.41-1.11,3.61-3.9,2.69-6.44h0Z"/><path class="cls-1" d="m44.89,94.01c-.92-2.54.28-5.33,2.69-6.44-1.19-.55-2.59-.65-3.92-.17-2.68.97-4.07,3.93-3.11,6.61.97,2.68,3.93,4.07,6.61,3.11.14-.05.28-.11.41-.17-1.21-.56-2.2-1.58-2.69-2.94h0Z"/><path class="cls-2" d="m62.76,65.99c-.49-1.35-1.48-2.38-2.69-2.94h-1.12l-1.69,2.07-.86,2.22v2.25l2.07,2.42.48.32,1.12.1c2.41-1.11,3.61-3.9,2.69-6.44h0Z"/><path class="cls-1" d="m57.29,69.51c-.92-2.54.28-5.33,2.69-6.44-1.19-.55-2.59-.65-3.92-.17-2.68.97-4.07,3.93-3.11,6.61s3.93,4.07,6.61,3.11c.14-.05.28-.11.41-.17-1.21-.56-2.2-1.58-2.69-2.94h0Z"/><path d="m52.39,33.75c-2.55.92-3.88,3.74-2.96,6.3.92,2.55,3.75,3.88,6.3,2.96,2.55-.92,3.88-3.74,2.96-6.3-.92-2.56-3.74-3.88-6.3-2.96Zm2.35,6.53c-1.05.38-2.21-.17-2.59-1.22-.38-1.05.17-2.21,1.22-2.59,1.05-.38,2.21.17,2.59,1.22.38,1.05-.17,2.21-1.22,2.59Z"/><path d="m68.5,85.73c-.87-2.43-3.56-3.69-5.99-2.81-2.43.87-3.69,3.56-2.82,5.99.88,2.43,3.56,3.69,5.99,2.81,2.43-.88,3.69-3.56,2.81-5.99h0Zm-3.8,3.26c-.93.33-1.95-.15-2.28-1.07-.33-.92.15-1.95,1.07-2.28.92-.33,1.95.15,2.28,1.07.33.93-.15,1.95-1.07,2.28h0Z"/><path d="m3.09,47.08c-2.43.87-3.69,3.56-2.82,5.99.87,2.43,3.56,3.69,5.99,2.81,2.43-.88,3.69-3.56,2.81-5.99-.88-2.43-3.55-3.69-5.99-2.81h0Zm2.19,6.08c-.92.33-1.95-.15-2.28-1.07-.33-.92.15-1.95,1.07-2.28.93-.33,1.95.15,2.28,1.07.33.93-.15,1.95-1.07,2.28Z"/><path d="m13.66,25.7c-3.44,1.24-5.22,5.03-3.98,8.46,1.24,3.43,5.02,5.22,8.46,3.98.17-.06.34-.13.5-.2l7.02,9.27c-1.47,1.75-2,4.21-1.17,6.51.52,1.43,1.48,2.57,2.67,3.33l-6.17,17.69c-.98-.12-2.01-.01-3,.35-3.43,1.24-5.22,5.03-3.98,8.46.38,1.07,1.04,2.02,1.9,2.76.61.52,1.52.46,2.04-.15.52-.61.46-1.52-.15-2.04-.48-.41-.85-.95-1.06-1.55-.7-1.93.3-4.06,2.24-4.76,1.93-.69,4.06.31,4.76,2.24.52,1.44.09,3.07-1.06,4.07-.6.52-.67,1.44-.15,2.04.52.6,1.44.67,2.04.15.38-.33.72-.7,1.01-1.1l13.35,5.81c-.22,1.13-.15,2.33.27,3.49,1.24,3.43,5.04,5.21,8.46,3.98,3.43-1.24,5.22-5.03,3.98-8.46-.42-1.16-1.13-2.13-2.02-2.86l6.57-12.99c1.33.34,2.66.25,3.86-.19,1.07-.38,2.02-1.04,2.76-1.9.52-.61.46-1.52-.15-2.04s-1.52-.46-2.04.15c-.41.48-.95.85-1.55,1.06-1.93.7-4.06-.31-4.76-2.24-.69-1.93.31-4.06,2.24-4.76,1.44-.52,3.07-.09,4.07,1.06.52.6,1.44.67,2.04.15.6-.52.67-1.44.15-2.04-1.78-2.05-4.69-2.81-7.24-1.89-1,.36-1.86.94-2.54,1.66l-16.05-9.64c.45-1.36.47-2.87-.05-4.32-1.24-3.43-5.03-5.22-8.46-3.98-.17.06-.34.13-.5.2l-7.02-9.27c1.47-1.74,2.01-4.19,1.17-6.51-.56-1.54-1.64-2.79-3.06-3.57l3.67-12.9c.91.05,1.77-.07,2.61-.38,3.43-1.24,5.22-5.03,3.98-8.46C28.09.94,24.29-.84,20.86.39c-3.43,1.24-5.22,5.03-3.98,8.46.57,1.58,1.69,2.81,3.06,3.56l-3.67,12.9c-.88-.05-1.76.08-2.62.38h0Zm33.01,70.06c-1.93.69-4.06-.31-4.76-2.24-.7-1.93.31-4.06,2.24-4.76,1.93-.7,4.06.31,4.76,2.24.7,1.93-.31,4.06-2.24,4.76Zm-11.18-39.72l16.05,9.64c-.45,1.36-.47,2.87.05,4.32.41,1.14,1.1,2.12,2.01,2.86l-6.57,12.98c-1.24-.31-2.58-.28-3.86.19-1.29.46-2.34,1.29-3.1,2.32l-13.36-5.81c.22-1.14.14-2.35-.26-3.48-.52-1.45-1.51-2.61-2.73-3.37l6.16-17.66c1.07.14,2.09.02,3.07-.33,1-.36,1.86-.94,2.54-1.66Zm-6.04-8.06c1.93-.7,4.06.31,4.76,2.24.7,1.93-.31,4.06-2.24,4.76-1.93.69-4.06-.31-4.76-2.24-.7-1.93.31-4.06,2.24-4.76h0ZM19.61,7.87c-.7-1.93.31-4.06,2.24-4.76,1.93-.7,4.06.31,4.76,2.24.7,1.93-.31,4.06-2.24,4.76-1.93.7-4.06-.31-4.76-2.24Zm-.21,22.79c.7,1.93-.3,4.06-2.24,4.76-1.93.7-4.06-.3-4.76-2.24-.7-1.93.3-4.06,2.24-4.76,1.93-.7,4.06.3,4.76,2.24Z"/><path d="m35.93,17.48v.96s-.96,0-.96,0c-.74,0-1.4.53-1.49,1.27-.11.88.58,1.63,1.44,1.63h1.02v.96c0,.74.53,1.4,1.27,1.49.88.11,1.63-.58,1.63-1.44v-1.02h.96c.74,0,1.4-.53,1.49-1.27.11-.88-.58-1.63-1.44-1.63h-1.02v-1.02c0-.86-.75-1.54-1.63-1.44-.74.09-1.27.75-1.27,1.49Z"/><path d="m7.93,62.65v1.94s-1.94,0-1.94,0c-.74,0-1.4.53-1.49,1.27-.11.88.58,1.63,1.44,1.63h2v1.94c0,.74.53,1.4,1.27,1.49.88.11,1.63-.58,1.63-1.44v-2h1.94c.74,0,1.4-.53,1.49-1.27.11-.88-.58-1.63-1.44-1.63h-2v-2c0-.86-.75-1.54-1.63-1.44-.74.09-1.27.75-1.27,1.49Z"/></g></svg>