<?xml version="1.0" encoding="UTF-8"?><svg id="Layer_2" xmlns="http://www.w3.org/2000/svg" viewBox="0 0 96.45 96.45"><defs><style>.cls-1{fill:#453c67;}.cls-2{fill:#6d67e4;}.cls-3{fill:#46c2cb;}.cls-4{fill:#c4c5c6;}</style></defs><g id="Layer_1-2"><path class="cls-4" d="m91.63,17.68H4.82c-1.78,0-3.22-1.44-3.22-3.22s1.44-3.22,3.22-3.22h86.81c1.78,0,3.22,1.44,3.22,3.22s-1.44,3.22-3.22,3.22Z"/><circle class="cls-2" cx="20.9" cy="14.47" r="12.86"/><circle class="cls-1" cx="20.9" cy="14.47" r="6.43"/><path class="cls-4" d="m91.63,43.4H4.82c-1.78,0-3.22-1.44-3.22-3.22s1.44-3.22,3.22-3.22h86.81c1.78,0,3.22,1.44,3.22,3.22s-1.44,3.22-3.22,3.22Z"/><circle class="cls-2" cx="69.13" cy="40.19" r="12.86"/><circle class="cls-1" cx="69.13" cy="40.19" r="6.43"/><path class="cls-4" d="m91.63,69.13H4.82c-1.78,0-3.22-1.44-3.22-3.22s1.44-3.22,3.22-3.22h86.81c1.78,0,3.22,1.44,3.22,3.22s-1.44,3.22-3.22,3.22Z"/><circle class="cls-2" cx="40.19" cy="65.91" r="12.86"/><circle class="cls-1" cx="40.19" cy="65.91" r="6.43"/><path class="cls-3" d="m91.79,62.7c-1.85-.09-3.37,1.38-3.37,3.21v-3.12c0-1.73-1.33-3.22-3.06-3.3-1.85-.09-3.37,1.38-3.37,3.21v-3.12c0-1.73-1.33-3.22-3.06-3.3-1.85-.09-3.37,1.38-3.37,3.21v-15.98c0-1.73-1.33-3.22-3.06-3.3-1.85-.09-3.37,1.38-3.37,3.21v25.72h-2.27l-8.14-8.57c-1.26-1.32-3.39-1.4-4.67-.1-1.16,1.18-1.33,3.06-.41,4.45,0,0,7.5,9.97,9.06,13.78.56,1.37,1.16,5.81,1.16,5.81,1.2,6.02,6.48,10.35,12.61,10.35h4.62c6.13,0,11.41-4.33,12.61-10.34l1.15-5.74v-12.77c0-1.73-1.33-3.22-3.06-3.3h0Z"/><path d="m20.9,22.51c4.43,0,8.04-3.61,8.04-8.04s-3.61-8.04-8.04-8.04-8.04,3.61-8.04,8.04,3.61,8.04,8.04,8.04Zm0-12.86c2.66,0,4.82,2.16,4.82,4.82s-2.16,4.82-4.82,4.82-4.82-2.16-4.82-4.82,2.16-4.82,4.82-4.82Zm61.86,35.37h8.87c2.66,0,4.82-2.16,4.82-4.82s-2.16-4.82-4.82-4.82h-8.87c-1.99-5.61-7.35-9.65-13.64-9.65s-11.65,4.03-13.64,9.65H4.82c-2.66,0-4.82,2.16-4.82,4.82s2.16,4.82,4.82,4.82h50.66c1.82,5.13,6.45,8.93,12.03,9.55v6.52h-6.08l-1.56-1.64c-.92-.97-2.21-1.53-3.54-1.54-1.27,0-2.44.46-3.33,1.31-2.42-4.62-7.26-7.78-12.82-7.78-6.29,0-11.65,4.03-13.64,9.65H4.82C2.16,61.09,0,63.25,0,65.91s2.16,4.82,4.82,4.82h21.73c1.99,5.61,7.35,9.65,13.64,9.65,7.04,0,12.92-5.05,14.2-11.72,2.5,3.46,5.86,8.42,6.82,10.64.46,1.08,1.06,5.48,1.07,5.51,1.34,6.75,7.31,11.64,14.19,11.64h4.62c6.87,0,12.84-4.89,14.19-11.63l1.15-5.74c.02-.1.03-.21.03-.32v-12.77c0-2.63-2.02-4.79-4.59-4.91-.7-.03-1.39.08-2.02.34-.55-1.98-2.29-3.45-4.41-3.55-.7-.03-1.39.08-2.02.34-.55-1.98-2.29-3.45-4.41-3.55-.64-.03-1.26.06-1.84.27v-2.71c2.61-1.75,4.56-4.3,5.6-7.21h0Zm8.87-6.43c.89,0,1.61.72,1.61,1.61s-.72,1.61-1.61,1.61h-8.13c.06-.53.09-1.07.09-1.61s-.03-1.08-.09-1.61h8.13Zm-86.81,3.22c-.89,0-1.61-.72-1.61-1.61s.72-1.61,1.61-1.61h49.93c-.06.53-.09,1.06-.09,1.61s.03,1.08.09,1.61H4.82Zm53.05-1.61c0-6.2,5.05-11.25,11.25-11.25s11.25,5.05,11.25,11.25c0,2.97-1.19,5.79-3.22,7.87v-4.66c0-.49-.07-.96-.21-1.4.14-.59.21-1.2.21-1.82,0-4.43-3.61-8.04-8.04-8.04s-8.04,3.61-8.04,8.04c0,3.88,2.77,7.13,6.43,7.88v3.26c-5.45-.78-9.65-5.48-9.65-11.14Zm9.65,3.22v1.33c-1.87-.66-3.22-2.45-3.22-4.55,0-2.66,2.16-4.82,4.82-4.82,2.17,0,4.01,1.44,4.61,3.42-.44-.13-.91-.21-1.4-.21-2.66,0-4.82,2.16-4.82,4.82Zm0,20.9v3.18l-3.02-3.18h3.02Zm-62.7,3.22c-.89,0-1.61-.72-1.61-1.61s.72-1.61,1.61-1.61h20.99c-.06.53-.09,1.06-.09,1.61s.03,1.08.09,1.61H4.82Zm35.37,9.65c-6.21,0-11.25-5.05-11.25-11.25s5.05-11.25,11.25-11.25,11.25,5.05,11.25,11.25-5.05,11.25-11.25,11.25Zm38.58-19.29c.89,0,1.61.72,1.61,1.61v9.65c0,.89.72,1.61,1.61,1.61s1.61-.72,1.61-1.61v-6.43c0-.89.72-1.61,1.61-1.61s1.61.72,1.61,1.61v6.43c0,.89.72,1.61,1.61,1.61s1.61-.72,1.61-1.61v-3.22c0-.89.72-1.61,1.61-1.61s1.61.72,1.61,1.61v12.7l-1.12,5.58c-1.05,5.24-5.69,9.05-11.03,9.05h-4.62c-5.33,0-9.96-3.79-11.03-9.01-.12-.89-.66-4.7-1.25-6.15-1.58-3.86-8.59-13.25-9.23-14.09-.47-.75-.37-1.78.24-2.41.29-.29.68-.46,1.11-.46h.01c.46,0,.91.2,1.23.54l8.14,8.57c.3.32.72.5,1.17.5h2.27c.89,0,1.61-.72,1.61-1.61v-25.72c0-.89.72-1.61,1.61-1.61s1.61.72,1.61,1.61v25.72c0,.89.72,1.61,1.61,1.61s1.61-.72,1.61-1.61v-9.65c0-.89.72-1.61,1.61-1.61h0Zm-38.58,0c-4.43,0-8.04,3.61-8.04,8.04s3.61,8.04,8.04,8.04,8.04-3.61,8.04-8.04-3.61-8.04-8.04-8.04Zm0,12.86c-2.66,0-4.82-2.16-4.82-4.82s2.16-4.82,4.82-4.82,4.82,2.16,4.82,4.82-2.16,4.82-4.82,4.82ZM4.82,19.29h2.44c1.99,5.61,7.35,9.65,13.64,9.65s11.65-4.03,13.64-9.65h57.09c2.66,0,4.82-2.16,4.82-4.82s-2.16-4.82-4.82-4.82h-57.09c-1.99-5.61-7.35-9.65-13.64-9.65S9.25,4.03,7.26,9.65h-2.44C2.16,9.65,0,11.81,0,14.47s2.16,4.82,4.82,4.82Zm86.81-6.43c.89,0,1.61.72,1.61,1.61s-.72,1.61-1.61,1.61h-56.36c.06-.53.09-1.06.09-1.61s-.03-1.08-.09-1.61h56.36ZM20.9,3.22c6.21,0,11.25,5.05,11.25,11.25s-5.05,11.25-11.25,11.25-11.25-5.05-11.25-11.25S14.69,3.22,20.9,3.22ZM4.82,12.86h1.7c-.06.53-.09,1.06-.09,1.61s.03,1.08.09,1.61h-1.7c-.89,0-1.61-.72-1.61-1.61s.72-1.61,1.61-1.61Z"/></g></svg>