<?xml version="1.0" encoding="UTF-8"?><svg id="Layer_2" xmlns="http://www.w3.org/2000/svg" viewBox="0 0 98.83 78.08"><defs><style>.cls-1{fill:#ff5249;}.cls-2{fill:#453c67;}.cls-3{fill:#00c67f;}.cls-4{fill:#6d67e4;}.cls-5{opacity:.2;}.cls-6{fill:#46c2cb;}.cls-7{fill:#e4e4e4;}.cls-8{fill:#f2f7a1;}</style></defs><g id="Layer_1-2"><path class="cls-2" d="m30.51,1.54h-8.21c-1.57,0-2.84,1.27-2.84,2.84v9.32h13.9V4.39c0-1.57-1.27-2.84-2.84-2.84Z"/><path class="cls-5" d="m28.09,1.54h-5.79c-1.57,0-2.84,1.27-2.84,2.84v9.32h5.79V4.4c0-1.58,1.27-2.85,2.84-2.85Z"/><path class="cls-2" d="m68.26,1.54h8.21c1.57,0,2.84,1.27,2.84,2.84v9.32h-13.9V4.39c0-1.57,1.27-2.84,2.84-2.84Z"/><path class="cls-5" d="m74.05,1.54h-5.79c-1.57,0-2.84,1.27-2.84,2.84v9.32h5.79V4.4c0-1.58,1.27-2.85,2.84-2.85Z"/><path class="cls-4" d="m83.95,11.25c-1.04-1.48-2.73-2.37-4.54-2.37h-13.78c-1.47,0-2.87.58-3.91,1.62l-2.14,2.14c-1.43,1.43-3.36,2.23-5.38,2.23h-9.54c-2.05,0-4.01-.81-5.46-2.26l-2.08-2.08c-1.05-1.05-2.48-1.64-3.97-1.64h-13.75c-1.81,0-3.5.88-4.54,2.37C10.85,17,1.34,32.76,1.34,53.25c0,8.24,1.78,13.82,3.98,17.58,4.08,6.96,13.7,7.99,19.23,2.12,6.18-6.56,9.44-16.94,14.92-16.94h19.87c5.48,0,8.74,10.38,14.92,16.94,5.53,5.87,15.14,4.84,19.23-2.12,2.2-3.75,3.98-9.33,3.98-17.58,0-20.49-9.51-36.25-13.53-42Z"/><path class="cls-5" d="m11.19,70.72c-2.2-3.74-3.97-9.32-3.97-17.55,0-20.46,9.49-36.19,13.51-41.93,1.04-1.48,2.73-2.36,4.53-2.36h-5.79c-1.81,0-3.5.88-4.53,2.36C10.91,16.99,1.42,32.72,1.42,53.17c0,8.23,1.77,13.8,3.97,17.55,2.83,4.83,8.33,6.79,13.28,5.58-3-.73-5.75-2.62-7.49-5.58Z"/><path class="cls-2" d="m29.68,29.93h-2.31c-.96,0-1.74-.78-1.74-1.74v-2.31c0-.96-.78-1.74-1.74-1.74h-4.24c-.96,0-1.74.78-1.74,1.74v2.31c0,.96-.78,1.74-1.74,1.74h-2.31c-.96,0-1.74.78-1.74,1.74v4.24c0,.96.78,1.74,1.74,1.74h2.31c.96,0,1.74.78,1.74,1.74v2.31c0,.96.78,1.74,1.74,1.74h4.24c.96,0,1.74-.78,1.74-1.74v-2.31c0-.96.78-1.74,1.74-1.74h2.31c.96,0,1.74-.78,1.74-1.74v-4.24c0-.96-.78-1.74-1.74-1.74Z"/><path class="cls-8" d="m80.36,25.62c0,1.86-1.51,3.37-3.37,3.37s-3.37-1.51-3.37-3.37,1.51-3.37,3.37-3.37,3.37,1.51,3.37,3.37Z"/><path class="cls-3" d="m80.36,42.86c0,1.86-1.51,3.37-3.37,3.37s-3.37-1.51-3.37-3.37,1.51-3.37,3.37-3.37,3.37,1.51,3.37,3.37Z"/><path class="cls-6" d="m88.01,34.24c0,1.86-1.51,3.37-3.37,3.37s-3.37-1.51-3.37-3.37,1.51-3.37,3.37-3.37,3.37,1.51,3.37,3.37Z"/><path class="cls-1" d="m72.71,34.24c0,1.86-1.51,3.37-3.37,3.37s-3.37-1.51-3.37-3.37,1.51-3.37,3.37-3.37,3.37,1.51,3.37,3.37Z"/><path class="cls-7" d="m58.9,30.91c0,5.24-4.25,9.49-9.49,9.49s-9.49-4.25-9.49-9.49,4.25-9.49,9.49-9.49,9.49,4.25,9.49,9.49Z"/><path class="cls-2" d="m52.83,30.91c0,1.89-1.53,3.42-3.42,3.42s-3.42-1.53-3.42-3.42,1.53-3.42,3.42-3.42,3.42,1.53,3.42,3.42Z"/><path d="m34.13,45.72v2.45c0,.74.53,1.4,1.27,1.49.88.11,1.63-.58,1.63-1.44v-2.51c0-.8-.65-1.45-1.45-1.45-.8,0-1.45.65-1.45,1.45Z"/><path d="m61.94,45.76v2.41c0,.74.53,1.4,1.27,1.49.88.11,1.63-.58,1.63-1.44v-2.51c0-.9-.83-1.62-1.77-1.41-.67.14-1.13.77-1.13,1.46Z"/><path d="m51.77,47.1c-.57.65-1.42,1.02-2.33,1.02s-1.77-.37-2.33-1.02c-.53-.6-1.44-.66-2.05-.14s-.66,1.44-.14,2.05c1.12,1.28,2.76,2.01,4.51,2.01s3.4-.73,4.51-2.01c.53-.6.47-1.52-.14-2.05s-1.52-.47-2.05.14Z"/><path d="m17.05,44.8h9.45c.27,0,.49-.22.49-.49v-5.26s.02-.05.05-.05h5.26c.27,0,.49-.22.49-.49v-9.64c0-.27-.22-.49-.49-.49h-5.26s-.05-.02-.05-.05v-5.26c0-.27-.22-.49-.49-.49h-9.45c-.27,0-.49.22-.49.49v5.26s-.02.05-.05.05h-5.26c-.27,0-.49.22-.49.49v9.64c0,.27.22.49.49.49h5.26s.05.02.05.05v5.26c0,.27.22.49.49.49Zm-.79-8.69h-2.31c-.16,0-.3-.13-.3-.3v-4.24c0-.16.13-.29.29-.29h2.3c1.76,0,3.19-1.43,3.19-3.19v-2.3c0-.16.13-.29.29-.29h4.04c.16,0,.29.13.29.29v2.3c0,1.76,1.43,3.19,3.19,3.19h2.3c.16,0,.3.13.3.3v4.24c0,.16-.13.3-.3.3h-2.11c-1.76,0-3.19,1.43-3.19,3.19v2.3c0,.16-.13.3-.3.3h-4.24c-.16,0-.3-.13-.3-.3v-2.27c0-1.78-1.43-3.23-3.19-3.23Z"/><path d="m77.04,30.43c2.66,0,4.82-2.16,4.82-4.82s-2.16-4.82-4.82-4.82-4.82,2.16-4.82,4.82,2.16,4.82,4.82,4.82Zm0-6.74c1.06,0,1.92.86,1.92,1.92s-.86,1.92-1.92,1.92-1.92-.86-1.92-1.92.86-1.92,1.92-1.92Z"/><path d="m77.04,47.68c2.66,0,4.82-2.16,4.82-4.82s-2.16-4.82-4.82-4.82-4.82,2.16-4.82,4.82,2.16,4.82,4.82,4.82Zm0-6.74c1.06,0,1.92.86,1.92,1.92s-.86,1.92-1.92,1.92-1.92-.86-1.92-1.92.86-1.92,1.92-1.92Z"/><path d="m89.51,34.23c0-2.66-2.16-4.82-4.82-4.82s-4.82,2.16-4.82,4.82,2.16,4.82,4.82,4.82,4.82-2.16,4.82-4.82Zm-6.74,0c0-1.06.86-1.92,1.92-1.92s1.92.86,1.92,1.92-.86,1.92-1.92,1.92-1.92-.86-1.92-1.92Z"/><path d="m69.38,39.05c2.66,0,4.82-2.16,4.82-4.82s-2.16-4.82-4.82-4.82-4.82,2.16-4.82,4.82c0,2.66,2.16,4.82,4.82,4.82Zm0-6.74c1.06,0,1.92.86,1.92,1.92s-.86,1.92-1.92,1.92-1.92-.86-1.92-1.92.86-1.92,1.92-1.92Z"/><path d="m60.38,30.9c0-6.03-4.91-10.94-10.94-10.94s-10.94,4.91-10.94,10.94,4.91,10.94,10.94,10.94,10.94-4.91,10.94-10.94Zm-10.94,8.05c-4.44,0-8.05-3.61-8.05-8.05s3.61-8.05,8.05-8.05,8.05,3.61,8.05,8.05-3.61,8.05-8.05,8.05Z"/><path d="m49.44,26.03c-2.69,0-4.87,2.19-4.87,4.87s2.19,4.87,4.87,4.87,4.87-2.19,4.87-4.87-2.19-4.87-4.87-4.87Zm0,6.84c-1.09,0-1.97-.88-1.97-1.97s.88-1.97,1.97-1.97,1.97.88,1.97,1.97c0,1.09-.89,1.97-1.97,1.97Z"/><path d="m10.51,18.47c.7.39,1.58.14,1.97-.55,1.15-2.05,2.41-4.07,3.65-5.83.76-1.09,2.02-1.74,3.35-1.85h13.95c1.09.11,2.12.53,2.89,1.3l2.05,2.05c1.71,1.71,3.99,2.65,6.4,2.63h9.35c2.42.02,4.69-.92,6.4-2.63l2.05-2.05c.77-.77,1.8-1.2,2.89-1.3h13.95c1.33.11,2.58.76,3.35,1.85,3.67,5.24,12.29,19.43,13.18,38.01.04.78.68,1.38,1.45,1.38.02,0,.05,0,.07,0,.8-.04,1.42-.72,1.38-1.52-.93-19.33-9.89-34.09-13.7-39.53-1.02-1.46-4.27-2.83-4.27-2.83v-3.3c0-2.37-1.92-4.3-4.3-4.3h-8.21c-2.37,0-4.3,1.92-4.3,4.3v3.25c-1.31.28-2.51.93-3.48,1.9l-2.04,2.06c-1.16,1.17-2.73,1.82-4.37,1.82h-9.38c-1.64,0-3.22-.66-4.37-1.82l-2.04-2.06c-.97-.98-2.17-1.63-3.48-1.9v-3.25c0-2.37-1.92-4.3-4.3-4.3h-8.21c-2.37,0-4.3,1.92-4.3,4.3v3.3s-3.33,1.36-4.35,2.83c-1.31,1.86-2.58,3.91-3.8,6.07-.39.7-.14,1.58.55,1.97ZM68.36,3.09h8.21c.77,0,1.4.63,1.4,1.4v3.04h-11.01v-3.04c0-.77.63-1.4,1.4-1.4Zm-45.97,0h8.22c.77,0,1.4.63,1.4,1.4v3.04h-11.01v-3.05c0-.77.62-1.39,1.39-1.39Z"/><path d="m14.28,78c.52.06,1.04.09,1.56.09,3.72,0,7.24-1.51,9.84-4.27,2.42-2.57,4.42-5.72,6.19-8.5,2.6-4.09,5.05-7.95,7.65-7.95h19.84c2.61,0,5.06,3.86,7.65,7.95,1.76,2.78,3.76,5.93,6.19,8.5,2.96,3.14,7.12,4.67,11.4,4.19,4.25-.48,7.93-2.87,10.1-6.56,2.44-4.15,3.82-9.43,4.11-15.69.04-.8-.58-1.48-1.38-1.51-.8-.04-1.48.58-1.51,1.38-.27,5.79-1.52,10.62-3.72,14.36-1.7,2.9-4.59,4.77-7.93,5.15-3.37.38-6.64-.82-8.97-3.29-2.23-2.37-4.07-5.27-5.85-8.07-3.17-4.99-5.9-9.3-10.1-9.3h-19.84c-4.2,0-6.93,4.31-10.1,9.3-1.78,2.8-3.62,5.7-5.85,8.07-2.33,2.47-5.6,3.67-8.97,3.29-3.34-.38-6.23-2.25-7.93-5.15-2.51-4.27-3.78-9.92-3.78-16.81,0-10.17,2.36-20.34,7.01-30.23.34-.72.03-1.59-.69-1.93-.72-.34-1.59-.03-1.93.7C2.45,31.97,0,42.55,0,53.15c0,7.41,1.4,13.56,4.17,18.28,2.17,3.69,5.85,6.08,10.1,6.56Z"/></g></svg>