<?xml version="1.0" encoding="UTF-8"?><svg id="Layer_2" xmlns="http://www.w3.org/2000/svg" viewBox="0 0 98.87 98.68"><defs><style>.cls-1{fill:#56d5d8;}.cls-2{fill:#2b9193;}.cls-3{fill:#46c2cb;}.cls-4{fill:#f2f7a1;}.cls-5{fill:#75cff9;}</style></defs><g id="Layer_1-2"><path class="cls-4" d="m49.09,14.27l-1.51-3.02c-.04-.07-.1-.14-.17-.17l-3.02-1.51c-.28-.14-.28-.55,0-.69l3.02-1.51c.07-.04.14-.1.17-.17l1.51-3.02c.14-.28.55-.28.69,0l1.51,3.02c.04.07.1.14.17.17l3.02,1.51c.28.14.28.55,0,.69l-3.02,1.51c-.07.04-.14.1-.17.17l-1.51,3.02c-.14.28-.55.28-.69,0Z"/><path class="cls-4" d="m62.22,92.28l-1.51-3.02c-.04-.07-.1-.14-.17-.17l-3.02-1.51c-.28-.14-.28-.55,0-.69l3.02-1.51c.07-.04.14-.1.17-.17l1.51-3.02c.14-.28.55-.28.69,0l1.51,3.02c.04.07.1.14.17.17l3.02,1.51c.28.14.28.55,0,.69l-3.02,1.51c-.07.04-.14.1-.17.17l-1.51,3.02c-.14.28-.55.28-.69,0Z"/><path class="cls-3" d="m19.88,81.92c16.36-16.36,42.68-16.36,59.03,0,0,0,3.67,3.86,5.73,3.86,7.04,0,12.75-16.25,12.75-36.31s-5.71-36.31-12.75-36.31c-2.06,0-5.73,3.86-5.73,3.86-16.36,16.36-42.68,16.36-59.03,0v64.88Z"/><path class="cls-2" d="m82.55,78.46l-.04-.05-.05-.05c-8.86-8.86-20.6-13.74-33.07-13.74-5.47,0-10.8.94-15.81,2.74-.83.3-1.68-.4-1.54-1.28.86-5.16,1.32-10.81,1.32-16.62,0-9.1-1.11-17.79-3.16-24.86-3.72-1.93-7.21-4.46-10.33-7.59v64.89c15.72-16.02,42.67-16.59,59.03,0,0,0,3.67,3.86,5.73,3.86,1.31,0,2.58-.57,3.77-1.62-2.78-2.68-5.54-5.37-5.86-5.7h0Z"/><path class="cls-5" d="m32.77,37.71c-2.72-.9-5.35-2.02-7.88-3.35-1.09-.58-1.15-2.34.59-2.85.09-.03.2-.01.28.03,2.11,1.15,4.32,2.13,6.58,2.95.15,1.05.29,2.12.42,3.21Z"/><path class="cls-5" d="m33.41,49.44c0,.48,0,.97,0,1.45h-6.46c-1.23,0-2.1-1.53-.81-2.79.07-.07.17-.1.26-.1h7c0,.48,0,.96,0,1.45Z"/><path class="cls-5" d="m32.77,61.24c-.12,1.09-.26,2.16-.42,3.21-2.1.76-4.14,1.66-6.11,2.7-1.09.57-2.57-.37-2.02-2.09.03-.09.1-.17.18-.21,2.67-1.44,5.47-2.65,8.36-3.61Z"/><path class="cls-1" d="m14.19,85.33c-3.86,0-6.31-4.88-8.8-11.98-2.34-6.65-3.93-14.6-3.93-23.96s1.13-17.3,3.46-23.95c2.49-7.1,5.41-11.81,9.27-11.81s7.36,3.91,9.86,11.02c2.34,6.65,3.62,15.47,3.62,24.83s-1.29,18.18-3.62,24.83c-2.49,7.1-5.99,11.02-9.86,11.02Z"/><path class="cls-1" d="m16.03,85.02c-.6.2-1.21.3-1.83.3-3.86,0-7.36-3.91-9.86-11.02-2.33-6.65-3.62-15.47-3.62-24.83s1.29-18.18,3.62-24.83c2.5-7.1,5.99-11.02,9.86-11.02.62,0,1.23.1,1.83.3-3.13,1.04-5.93,4.75-8.02,10.71-2.33,6.65-3.62,15.47-3.62,24.83s1.29,18.18,3.62,24.83c2.09,5.96,4.89,9.67,8.02,10.71h0Z"/><path class="cls-3" d="m15.88,77.46c-.74,1.32-2.23-.21-2.97-1.53-.76-1.35-1.44-3.2-2.27-5.95-1.81-6.04-2.56-12.5-2.56-20.6s1.16-15.14,2.97-21.18c.83-2.75.81-3.47,1.57-4.82.74-1.32,2.52-3.2,3.26-1.88.76,1.35,1.63,3.31,2.45,6.06,1.81,6.04,2.81,13.82,2.81,21.93s-1,15.89-2.81,21.93c-.83,2.75-1.69,4.71-2.45,6.06Z"/><path class="cls-2" d="m13.92,71.4c.74,2.46,1.51,4.29,2.21,5.61-.08.16-.16.31-.24.45-.74,1.32-2.63,1.32-3.38,0-.76-1.35-1.63-3.31-2.45-6.06-1.82-6.04-2.81-13.82-2.81-21.93s1-15.89,2.81-21.93c.82-2.75,1.69-4.71,2.45-6.06.74-1.32,2.63-1.32,3.38,0,.08.14.16.29.24.45-.7,1.32-1.47,3.15-2.21,5.61-1.82,6.04-2.81,13.82-2.81,21.93s1,15.89,2.81,21.93Z"/><path d="m43.39,10.78l3.05,1.52,1.52,3.05h0c.2.4.55.71.98.84.81.23,1.61-.13,1.96-.84l1.52-3.05,3-1.5c.5-.25.87-.72.94-1.28.09-.71-.27-1.37-.9-1.68l-3.05-1.52-1.53-3.05c-.28-.56-.84-.91-1.47-.91s-1.19.35-1.47.91l-1.52,3.05-3,1.5c-.5.25-.87.73-.94,1.28-.09.71.27,1.37.9,1.68h0Zm4.72-2.16c.32-.16.58-.42.73-.73l.59-1.18.59,1.18c.16.32.42.58.74.74l1.18.59-1.18.59c-.32.16-.58.42-.73.73l-.59,1.18-.56-1.12c-.18-.35-.47-.64-.82-.82l-1.12-.56,1.18-.59Z"/><path d="m68.61,85.76l-3.05-1.52-1.53-3.05c-.28-.56-.84-.91-1.47-.91s-1.19.35-1.47.91l-1.52,3.05-3.05,1.52c-.56.28-.91.84-.91,1.47s.35,1.19.91,1.47l3.05,1.52,1.52,3.05s0,0,0,0c.28.56.84.91,1.47.91s1.19-.35,1.47-.91l1.52-3.05,3.05-1.52c.56-.28.91-.84.91-1.47s-.35-1.19-.91-1.47h0Zm-4.72,2.06c-.32.16-.58.42-.73.73l-.59,1.18-.56-1.12c-.18-.35-.47-.64-.82-.82l-1.12-.56,1.18-.59c.32-.16.58-.42.73-.73l.59-1.18.59,1.18c.16.32.42.58.74.74l1.18.59-1.18.59Z"/><path d="m95.52,91.25h-.91s0-.91,0-.91c0-.74-.53-1.4-1.27-1.49-.88-.11-1.63.58-1.63,1.44v.97h-.91c-.74,0-1.4.53-1.49,1.27-.11.88.58,1.63,1.44,1.63h.97v.91c0,.74.53,1.4,1.27,1.49.88.11,1.63-.58,1.63-1.44v-.97h.97c.86,0,1.54-.75,1.44-1.63-.09-.74-.75-1.27-1.49-1.27Z"/><path d="m4.87,5.31h.91s0,.91,0,.91c0,.74.53,1.4,1.27,1.49.88.11,1.63-.58,1.63-1.44v-.97h.91c.74,0,1.4-.53,1.49-1.27.11-.88-.58-1.63-1.44-1.63h-.97v-.91c0-.74-.53-1.4-1.27-1.49-.88-.11-1.63.58-1.63,1.44v.97h-.97c-.86,0-1.54.75-1.44,1.63.09.74.75,1.27,1.49,1.27Z"/><path d="m49.95,76.96h-.91s0-.91,0-.91c0-.74-.53-1.4-1.27-1.49-.88-.11-1.63.58-1.63,1.44v.97h-.91c-.74,0-1.4.53-1.49,1.27-.11.88.58,1.63,1.44,1.63h.97v.91c0,.74.53,1.4,1.27,1.49.88.11,1.63-.58,1.63-1.44v-.97h.97c.86,0,1.54-.75,1.44-1.63-.09-.74-.75-1.27-1.49-1.27Z"/><path d="m37.78,86.42h-.91s0-.91,0-.91c0-.74-.53-1.4-1.27-1.49-.88-.11-1.63.58-1.63,1.44v.97h-.91c-.74,0-1.4.53-1.49,1.27-.11.88.58,1.63,1.44,1.63h.97v.91c0,.74.53,1.4,1.27,1.49.88.11,1.63-.58,1.63-1.44v-.97h.97c.86,0,1.54-.75,1.44-1.63-.09-.74-.75-1.27-1.49-1.27Z"/><path d="m16.54,93.37h-.91s0-.91,0-.91c0-.74-.53-1.4-1.27-1.49-.88-.11-1.63.58-1.63,1.44v.97h-.91c-.74,0-1.4.53-1.49,1.27-.11.88.58,1.63,1.44,1.63h.97v.91c0,.74.53,1.4,1.27,1.49.88.11,1.63-.58,1.63-1.44v-.97h.97c.86,0,1.54-.75,1.44-1.63-.09-.74-.75-1.27-1.49-1.27Z"/><path d="m33.64,18.44h.91s0,.91,0,.91c0,.74.53,1.4,1.27,1.49.88.11,1.63-.58,1.63-1.44v-.97h.91c.74,0,1.4-.53,1.49-1.27.11-.88-.58-1.63-1.44-1.63h-.97v-.91c0-.74-.53-1.4-1.27-1.49-.88-.11-1.63.58-1.63,1.44v.97h-.97c-.86,0-1.54.75-1.44,1.63.09.74.75,1.27,1.49,1.27Z"/><path d="m61.07,15.93h.91s0,.91,0,.91c0,.74.53,1.4,1.27,1.49.88.11,1.63-.58,1.63-1.44v-.97h.91c.74,0,1.4-.53,1.49-1.27.11-.88-.58-1.63-1.44-1.63h-.97v-.91c0-.74-.53-1.4-1.27-1.49-.88-.11-1.63.58-1.63,1.44v.97h-.97c-.86,0-1.54.75-1.44,1.63.09.74.75,1.27,1.49,1.27Z"/><path d="m78.06,7.43h.91s0,.91,0,.91c0,.74.53,1.4,1.27,1.49.88.11,1.63-.58,1.63-1.44v-.97h.91c.74,0,1.4-.53,1.49-1.27.11-.88-.58-1.63-1.44-1.63h-.97v-.91c0-.74-.53-1.4-1.27-1.49-.88-.11-1.63.58-1.63,1.44v.97h-.97c-.86,0-1.54.75-1.44,1.63.09.74.75,1.27,1.49,1.27Z"/><path d="m20.24,62.65c.79.1,1.52-.46,1.62-1.25.49-3.82.74-7.83.74-11.92,0-8.24-1.02-16.17-2.87-22.34-.76-2.52-1.62-4.65-2.58-6.35-.61-1.08-1.71-1.73-2.95-1.73s-2.34.65-2.95,1.73c-.95,1.7-1.82,3.83-2.58,6.35-1.85,6.17-2.87,14.1-2.87,22.34s1.02,16.17,2.87,22.34c.76,2.52,1.62,4.65,2.58,6.35.61,1.08,1.71,1.73,2.95,1.73s2.34-.65,2.95-1.73c.95-1.7,1.82-3.83,2.58-6.35.3-.99.58-2.04.83-3.13.18-.78-.3-1.56-1.08-1.74-.78-.18-1.56.3-1.74,1.08-.24,1.03-.51,2.02-.79,2.96-.7,2.31-1.48,4.25-2.33,5.76-.12.22-.32.25-.43.25s-.3-.03-.43-.25c-.85-1.51-1.63-3.45-2.33-5.76-1.77-5.91-2.75-13.55-2.75-21.51s.98-15.6,2.75-21.51c.7-2.31,1.48-4.25,2.33-5.76.12-.22.32-.25.43-.25s.3.03.43.25c.85,1.51,1.63,3.45,2.33,5.76,1.77,5.91,2.75,13.55,2.75,21.51,0,3.97-.24,7.86-.71,11.55-.1.79.46,1.52,1.25,1.62h0Z"/><path d="m95.06,75.59c2.46-7.01,3.81-16.29,3.81-26.15,0-2.15-.07-4.31-.2-6.4-.05-.8-.73-1.41-1.53-1.36-.8.05-1.41.74-1.36,1.53.1,1.57.16,3.17.18,4.78h-13.13c-.06-4.49-.42-8.87-1.02-12.93,5.26-1.32,10.15-2.62,12.53-3.26.3,1.49.56,3.05.78,4.66.1.73.72,1.25,1.43,1.25.07,0,.13,0,.2-.01.79-.11,1.35-.84,1.24-1.63-2.06-15.04-7.16-24.38-13.31-24.38-2.48,0-5.79,3.27-6.76,4.3-7.57,7.57-17.71,11.83-28.48,11.83-3.84,0-8.11-.61-11.84-1.77-5.63-1.73-10.84-4.7-15.3-8.78-.66-.6-1.28-1.24-1.83-1.94-1.9-2.38-4.03-3.64-6.27-3.64s-5.38,1.2-8.37,6.9c-.32.61-.2,1.38.33,1.81.74.61,1.8.36,2.22-.44,1.81-3.47,3.88-5.38,5.82-5.38,5.34,0,11.3,14.32,11.3,34.86s-5.95,34.86-11.3,34.86S2.9,69.98,2.9,49.44c0-8.63,1.09-16.95,3.07-23.43.23-.76-.2-1.57-.96-1.81-.76-.23-1.57.2-1.81.96-2.06,6.74-3.2,15.36-3.2,24.27,0,9.86,1.35,19.14,3.81,26.15,2.63,7.48,6.31,11.6,10.38,11.6,2.04,0,3.99-1.04,5.75-3.02s3.7-3.85,5.85-5.42c10.49-7.67,23.89-9.8,36.28-5.66,1.07.36,2.51.9,3.88,1.52.86.39,1.91-.14,2.04-1.17.08-.62-.28-1.22-.85-1.48-.91-.41-1.84-.79-2.77-1.13.6-2.41,1.1-4.98,1.48-7.68,3.16.56,7.92,1.66,12.68,2.84-.76,4.16-1.81,7.88-3.1,10.9-.64-.49-1.3-.96-1.97-1.41-.57-.39-1.35-.36-1.85.12-.69.67-.56,1.75.19,2.25,2.18,1.46,4.24,3.15,6.11,5.03.98,1.03,4.29,4.3,6.76,4.3,4.07,0,7.75-4.12,10.38-11.6h0Zm-.72-8.51c-2.38-.64-7.27-1.94-12.53-3.26.61-4.07.96-8.44,1.02-12.93h13.13c-.08,6.04-.68,11.51-1.62,16.19h0Zm-14.4-19.09h-13.18c-.04-3.22-.23-6.37-.56-9.39,3.21-.56,8-1.66,12.79-2.84.56,3.84.88,7.98.94,12.23h0Zm-16.6,11.85c-3.29-.49-6.66-.98-10.12-1.2.23-2.52.36-5.12.4-7.75h10.24c-.04,3.08-.22,6.07-.53,8.95Zm-14.47-29.09c.46,2.14.84,4.41,1.14,6.76-2.83.05-6.44-.23-9.44-.79-.32-2.49-.74-4.89-1.26-7.16,3.1.75,6.3,1.15,9.56,1.19h0Zm12.74-1.74c.56,2.26,1.02,4.67,1.37,7.2-3.29.49-6.65.98-10.07,1.19-.28-2.33-.65-4.57-1.09-6.71,3.35-.18,6.63-.75,9.79-1.68h0Zm13.81-6.98c1.29,3.03,2.34,6.74,3.1,10.9-4.76,1.17-9.51,2.28-12.68,2.84-.38-2.69-.87-5.26-1.48-7.67,3.94-1.46,7.66-3.49,11.05-6.07h0Zm-25.99,18.34c.3,0,.59,0,.89,0,.23,2.48.36,5.04.4,7.63h-9.37c-.04-2.84-.19-5.63-.45-8.32,2.81.46,5.67.69,8.53.69Zm-10.98,7.62h-10.08c-.06-4.31-.38-8.5-.93-12.41,3.36,1.54,6.88,2.72,10.5,3.52.3,2.86.48,5.84.52,8.89Zm-10.08,2.9h10.08c-.04,3.05-.22,6.03-.52,8.89-3.62.8-7.14,1.98-10.5,3.52.56-3.91.88-8.1.93-12.41Zm12.98,0h9.37c-.04,2.6-.17,5.15-.4,7.63-2.85-.06-6.45.19-9.42.69.26-2.69.41-5.48.45-8.32h0Zm12.32-2.9c-.04-2.63-.17-5.23-.4-7.75,3.46-.22,6.83-.71,10.12-1.2.31,2.88.48,5.88.53,8.95h-10.24Zm26.3-29.93s.02-.02.03-.03c1.54-1.61,3.83-3.41,4.68-3.41,2.01,0,4.13,2.02,5.98,5.69,1.2,2.38,2.23,5.32,3.06,8.69-2.27.61-7.13,1.9-12.38,3.22-.87-4.65-2.08-8.79-3.58-12.09.76-.66,1.5-1.35,2.22-2.07Zm-43.86,10.59c.59,2.33,1.07,4.82,1.44,7.43-3.71-.9-7.3-2.23-10.69-3.95-.6-3.2-1.37-6.16-2.3-8.8-.08-.22-.15-.43-.23-.64,3.62,2.6,7.59,4.61,11.78,5.97h0Zm-11.55,46.98c.93-2.64,1.7-5.6,2.3-8.8,3.39-1.72,6.98-3.05,10.69-3.95-.37,2.61-.85,5.1-1.44,7.44-4.21,1.37-8.17,3.37-11.78,5.96.08-.21.16-.42.23-.64h0Zm14.74-6.22c.51-2.27.93-4.67,1.26-7.17,2.95-.53,6.26-.83,9.44-.79-.29,2.35-.67,4.61-1.14,6.75-2.3.03-4.61.25-6.9.65-.9.16-1.78.34-2.66.56h0Zm12.51-1.15c.44-2.14.81-4.38,1.09-6.7,3.41.21,6.78.7,10.07,1.19-.36,2.53-.81,4.94-1.37,7.2-3.19-.94-6.47-1.51-9.79-1.69Zm14.38-7.99c.33-3.02.51-6.17.56-9.39h13.18c-.06,4.26-.39,8.39-.94,12.23-4.8-1.18-9.58-2.28-12.79-2.84Zm18.47,24.06c-.84,0-3.14-1.8-4.68-3.41,0,0-.02-.02-.03-.03-.72-.72-1.46-1.41-2.22-2.07,1.5-3.31,2.71-7.45,3.58-12.1,5.24,1.32,10.1,2.61,12.37,3.22-2.22,8.96-5.74,14.38-9.03,14.38h0Z"/></g></svg>