<?xml version="1.0" encoding="UTF-8"?><svg id="Layer_2" xmlns="http://www.w3.org/2000/svg" viewBox="0 0 103.45 104.22"><defs><style>.cls-1{fill:#ffb300;}.cls-2{fill:#d81b60;}.cls-3{fill:#c5cae9;}.cls-4{fill:#e91e63;}.cls-5{fill:#90a4ae;}.cls-6{fill:#9fa8da;}.cls-7{fill:#f2f7a1;}.cls-8{fill:#b0bec5;}.cls-9{fill:#ffca28;}</style></defs><g id="Layer_1-2"><g id="lamp"><path class="cls-5" d="m63.17,92.64c-.03,6.4-5.22,11.57-11.62,11.58h-.03c-6.41-.03-11.58-5.24-11.58-11.65.02-.92.76-1.66,1.68-1.66h.02l19.85.05c.45,0,.87.18,1.19.49.31.32.49.75.49,1.19h0Z"/><path class="cls-8" d="m61.49,90.96c-.03,6.4-5.22,11.57-11.62,11.58h-.03c-2.66,0-5.24-.93-7.3-2.62-1.69-2.07-2.61-4.67-2.61-7.35.02-.92.76-1.66,1.68-1.66h.02l19.85.05Z"/><path class="cls-9" d="m76.4,53.41s-6.1,9.65-8.05,17.67c-.19.75-.86,1.28-1.63,1.28l-30.12-.05c-.77,0-1.45-.53-1.63-1.28-.15-.61-.35-1.29-.62-2.08-1.8-5.02-4.29-9.78-7.4-14.12-1.01-1.13-9.2-10.79-8.49-23.74.49-8.79,4.98-16.96,13.31-24.27C37.52,2.47,44.51.08,51.71,0h.12C52.25,0,62.11.1,69.48,5.95c1.24.84,2.43,1.76,3.55,2.76,5.58,4.73,9.45,11.17,11.01,18.32,1.6,8.54-.97,17.42-7.63,26.37h0Z"/><path class="cls-7" d="m73.04,50.04s-6.1,9.65-8.05,17.67c-.19.75-.86,1.28-1.63,1.28l-29.01-.05c-1.8-5.02-4.29-9.78-7.4-14.12-1.01-1.13-9.2-10.79-8.49-23.74.49-8.79,4.98-16.96,13.31-24.27C37.52,2.47,44.51.08,51.71,0h.12C52.25,0,62.11.1,69.48,5.95c1.24.84,2.43,1.76,3.55,2.76,3.86,4.2,6.51,9.37,7.65,14.96,1.6,8.54-.97,17.42-7.63,26.37h0Z"/><path class="cls-1" d="m57.22,72.6c-.93,0-1.68-.75-1.68-1.68v-20.52h-7.84v20.49c0,.93-.75,1.68-1.68,1.68s-1.68-.75-1.68-1.68v-20.49h-3.01c-3.21,0-5.81-2.6-5.81-5.81s2.6-5.81,5.81-5.81h.57c3.2,0,5.8,2.6,5.8,5.8v2.45h7.84v-2.45c0-3.21,2.61-5.8,5.81-5.8h.66c1.53,0,3.01.6,4.1,1.68,2.28,2.26,2.29,5.94.03,8.21-1.09,1.1-2.58,1.72-4.13,1.72h-3.11v20.53c0,.93-.75,1.68-1.68,1.68h0Zm1.68-25.57h3.11c1.35,0,2.45-1.1,2.45-2.45,0-.64-.25-1.25-.7-1.71-.46-.46-1.09-.73-1.75-.73h-.66c-1.35,0-2.45,1.09-2.45,2.44v2.45Zm-17.57-4.89c-1.35,0-2.45,1.09-2.45,2.44,0,1.35,1.09,2.45,2.45,2.45,0,0,0,0,0,0h3.01v-2.45c0-1.35-1.09-2.44-2.44-2.44h-.57Z"/><path class="cls-6" d="m72.84,79.54c-.05,1.13-.16,2.25-.34,3.36-.31,2.62-1.27,5.12-2.77,7.28-1.45,1.95-3.68,3.18-6.1,3.36l-23.69-.07c-2.48-.16-4.77-1.4-6.25-3.4-.25-.32-.47-.67-.67-1.03-1.07-1.94-1.76-4.06-2.03-6.25-.18-1.11-.29-2.24-.34-3.36-.11-2.97.06-5.94.52-8.88.14-.83.89-1.43,1.73-1.4h.05l36.31.1h1.46c.81,0,1.51.59,1.65,1.4.44,2.94.6,5.91.47,8.88h0Z"/><path class="cls-3" d="m66.37,86.82c-1.45,1.95-3.68,3.18-6.1,3.36l-23.69-.07c-1.25-.1-2.46-.46-3.56-1.06-3.85-6.49-1.93-17.99-1.85-18.49.14-.83.89-1.43,1.73-1.4h.05l36.31.1c.4,3.92.84,12.73-2.89,17.55h0Z"/><path class="cls-2" d="m72.84,79.54c-.05,1.13-.16,2.25-.34,3.36h-3.36l-38.16-.1c-.18-1.11-.29-2.24-.34-3.36l38.83.1h3.36Z"/><path class="cls-4" d="m69.48,79.54c-.05,1.13-.16,2.25-.34,3.36l-38.16-.1c-.18-1.11-.29-2.24-.34-3.36l38.83.1Z"/><path class="cls-9" d="m83.54,9.85c-.93,0-1.68-.76-1.67-1.69,0-.44.18-.87.5-1.18l5.97-5.95c.69-.62,1.76-.55,2.37.14.57.64.56,1.61,0,2.24l-5.98,5.95c-.31.31-.74.49-1.19.49h0Z"/><path class="cls-9" d="m89.34,65.81c-.45,0-.88-.18-1.19-.5l-5.94-5.97c-.65-.66-.65-1.72,0-2.38.66-.65,1.72-.65,2.38,0l5.94,5.98c.65.66.64,1.73-.02,2.38-.31.31-.73.48-1.17.48h0Z"/><path class="cls-9" d="m17.2,9.66c-.45,0-.88-.18-1.19-.5l-5.95-5.97c-.67-.65-.68-1.71-.03-2.38.65-.67,1.71-.68,2.38-.03.01.01.03.03.04.04l5.95,5.98c.65.66.65,1.72,0,2.38-.31.31-.74.49-1.18.49Z"/><path class="cls-9" d="m11.08,65.59c-.93,0-1.68-.76-1.67-1.69,0-.44.18-.87.5-1.18l5.98-5.95c.67-.64,1.73-.62,2.38.05.63.65.62,1.69,0,2.34l-5.99,5.95c-.31.31-.74.49-1.19.49Z"/><path class="cls-9" d="m101.77,35.83l-8.43-.03c-.93,0-1.68-.75-1.68-1.68s.75-1.68,1.68-1.68l8.43.02c.93,0,1.68.75,1.68,1.68s-.75,1.68-1.68,1.68h0Z"/><path class="cls-9" d="m10.11,35.57l-8.43-.03c-.93,0-1.68-.75-1.68-1.68s.75-1.68,1.68-1.68l8.44.03c.93,0,1.68.75,1.68,1.68s-.75,1.68-1.68,1.68h0Z"/></g><g id="ruller"><path d="m57.22,72.6c-.93,0-1.68-.75-1.68-1.68v-20.52h-7.84v20.49c0,.93-.75,1.68-1.68,1.68s-1.68-.75-1.68-1.68v-20.49h-3.01c-3.21,0-5.81-2.6-5.81-5.81s2.6-5.81,5.81-5.81h.57c3.2,0,5.8,2.6,5.8,5.8v2.45h7.84v-2.45c0-3.21,2.61-5.8,5.81-5.8h.66c1.53,0,3.01.6,4.1,1.68,2.28,2.26,2.29,5.94.03,8.21-1.09,1.1-2.58,1.72-4.13,1.72h-3.11v20.53c0,.93-.75,1.68-1.68,1.68h0Zm1.68-25.57h3.11c1.35,0,2.45-1.1,2.45-2.45,0-.64-.25-1.25-.7-1.71-.46-.46-1.09-.73-1.75-.73h-.66c-1.35,0-2.45,1.09-2.45,2.44v2.45Zm-17.57-4.89c-1.35,0-2.45,1.09-2.45,2.44,0,1.35,1.09,2.45,2.45,2.45,0,0,0,0,0,0h3.01v-2.45c0-1.35-1.09-2.44-2.44-2.44h-.57Z"/><path d="m63.63,93.54l-23.7-.06c-2.48-.16-4.76-1.4-6.24-3.4-4.74-6.22-2.61-18.98-2.52-19.52.14-.83.88-1.43,1.73-1.4h.06l37.76.11c.82,0,1.52.6,1.65,1.41.09.54,2.15,13.32-2.63,19.51-1.45,1.95-3.68,3.17-6.1,3.35h0Zm-29.35-21.01c-.49,4.03-.74,11.82,2.08,15.52.88,1.21,2.25,1.97,3.74,2.08l23.38.06c1.44-.14,2.74-.89,3.59-2.05,2.85-3.7,2.63-11.47,2.17-15.5l-34.96-.1Z"/><path d="m70.69,82.91l-37.91-.11c-.93,0-1.68-.75-1.68-1.68s.75-1.68,1.68-1.68l37.92.11c.93,0,1.68.75,1.68,1.68s-.75,1.68-1.68,1.68h0Z"/><path d="m66.72,72.35c-.93,0-1.68-.75-1.68-1.68,0-.13.02-.27.05-.4,2.08-8.58,8.29-18.36,8.56-18.78,6.13-8.27,8.49-16.25,7.09-23.82-2.2-11.86-13.02-18.87-13.13-18.94-.05-.03-.1-.07-.15-.11-6.47-5.19-15.56-5.27-15.64-5.27h-.09c-6.41.09-12.63,2.19-17.77,6.02-7.59,6.65-11.69,14.01-12.13,21.85-.68,12.06,7.6,21.33,7.69,21.42.05.06.1.12.15.19,3.84,5.26,6.74,11.14,8.57,17.39.22.9-.33,1.81-1.23,2.03s-1.81-.33-2.03-1.23h0c-.77-3.14-2.78-8.49-8.02-16.2-1-1.12-9.2-10.8-8.48-23.74.49-8.79,4.97-16.95,13.31-24.26C37.52,2.47,44.51.08,51.71,0h.11c.42,0,10.29.1,17.66,5.95,1.16.75,12.15,8.2,14.55,21.08,1.59,8.53-.97,17.41-7.62,26.37,0,0-6.11,9.63-8.06,17.66-.18.75-.86,1.28-1.63,1.28h0Z"/><path d="m83.54,9.85c-.93,0-1.68-.76-1.67-1.69,0-.44.18-.87.5-1.18l5.97-5.95c.69-.62,1.76-.55,2.37.14.57.64.56,1.61,0,2.24l-5.98,5.95c-.31.31-.74.49-1.19.49h0Z"/><path d="m89.34,65.81c-.45,0-.88-.18-1.19-.5l-5.94-5.97c-.65-.66-.65-1.72,0-2.38.66-.65,1.72-.65,2.38,0l5.94,5.98c.65.66.64,1.73-.02,2.38-.31.31-.73.48-1.17.48h0Z"/><path d="m17.2,9.66c-.45,0-.88-.18-1.19-.5l-5.95-5.97c-.67-.65-.68-1.71-.03-2.38.65-.67,1.71-.68,2.38-.03.01.01.03.03.04.04l5.95,5.98c.65.66.65,1.72,0,2.38-.31.31-.74.49-1.18.49Z"/><path d="m11.08,65.59c-.93,0-1.68-.76-1.67-1.69,0-.44.18-.87.5-1.18l5.98-5.95c.67-.64,1.73-.62,2.38.05.63.65.62,1.69,0,2.34l-5.99,5.95c-.31.31-.74.49-1.19.49Z"/><path d="m101.77,35.83l-8.43-.03c-.93,0-1.68-.75-1.68-1.68s.75-1.68,1.68-1.68l8.43.02c.93,0,1.68.75,1.68,1.68s-.75,1.68-1.68,1.68h0Z"/><path d="m10.11,35.57l-8.43-.03c-.93,0-1.68-.75-1.68-1.68s.75-1.68,1.68-1.68l8.44.03c.93,0,1.68.75,1.68,1.68s-.75,1.68-1.68,1.68h0Z"/><path d="m51.56,104.22h-.03c-6.41-.03-11.59-5.24-11.58-11.65,0-.93.75-1.68,1.68-1.68s1.68.75,1.68,1.68c-.01,4.56,3.67,8.27,8.23,8.28h.02c4.55,0,8.23-3.68,8.25-8.23,0-.93.75-1.68,1.68-1.68s1.68.75,1.68,1.68c-.02,6.4-5.21,11.58-11.61,11.59h0Z"/></g></g></svg>