<?xml version="1.0" encoding="UTF-8"?><svg id="Layer_2" xmlns="http://www.w3.org/2000/svg" viewBox="0 0 98.87 98.87"><defs><style>.cls-1{fill:#ff5249;}.cls-2{fill:#e2e2e2;}.cls-3{opacity:.2;}.cls-4{fill:#46c2cb;}.cls-5{fill:#f1f1f1;}.cls-6{fill:#497285;}.cls-7{fill:#d0d0d0;}</style></defs><g id="Layer_1-2"><path class="cls-2" d="m43.64,12.94h11.59v72.8h-11.59V12.94Z"/><path class="cls-7" d="m49.44,12.94h5.79v72.8h-5.79V12.94Z"/><path class="cls-5" d="m57.55,12.94h-16.22c-.85,0-1.54-.69-1.54-1.54V2.9c0-.85.69-1.54,1.54-1.54h16.22c.85,0,1.54.69,1.54,1.54v8.5c0,.85-.69,1.54-1.54,1.54Z"/><path class="cls-2" d="m59.09,2.9c0-.85-.69-1.54-1.54-1.54h-5.79c.85,0,1.54.69,1.54,1.54v8.5c0,.85-.69,1.54-1.54,1.54h5.79c.85,0,1.54-.69,1.54-1.54V2.9Z"/><path class="cls-5" d="m57.55,97.33h-16.22c-.85,0-1.54-.69-1.54-1.54v-8.5c0-.85.69-1.54,1.54-1.54h16.22c.85,0,1.54.69,1.54,1.54v8.5c0,.85-.69,1.54-1.54,1.54Z"/><path class="cls-2" d="m59.09,87.29c0-.85-.69-1.54-1.54-1.54h-5.79c.85,0,1.54.69,1.54,1.54v8.5c0,.85-.69,1.54-1.54,1.54h5.79c.85,0,1.54-.69,1.54-1.54v-8.5Z"/><path class="cls-4" d="m33.15,41.52H2.77c-.68,0-1.22-.55-1.22-1.22V14.94c0-.68.55-1.22,1.22-1.22h30.38c.68,0,1.22.55,1.22,1.22v25.36c0,.68-.55,1.22-1.22,1.22Z"/><path class="cls-3" d="m34.37,14.94c0-.68-.55-1.22-1.22-1.22h-5.79c.68,0,1.22.55,1.22,1.22v25.36c0,.68-.55,1.22-1.22,1.22h5.79c.68,0,1.22-.55,1.22-1.22V14.94Z"/><path class="cls-6" d="m34.18,24.72h9.46v5.79h-9.46v-5.79Z"/><path class="cls-4" d="m65.92,41.52h30.38c.68,0,1.22-.55,1.22-1.22V14.94c0-.68-.55-1.22-1.22-1.22h-30.38c-.68,0-1.22.55-1.22,1.22v25.36c0,.68.55,1.22,1.22,1.22Z"/><path class="cls-3" d="m97.52,14.94c0-.68-.55-1.22-1.22-1.22h-5.79c.68,0,1.22.55,1.22,1.22v25.36c0,.68-.55,1.22-1.22,1.22h5.79c.68,0,1.22-.55,1.22-1.22V14.94Z"/><path class="cls-6" d="m64.69,30.51h-9.46v-5.79h9.46v5.79Z"/><path class="cls-4" d="m33.15,82.46H2.77c-.68,0-1.22-.55-1.22-1.22v-25.36c0-.68.55-1.22,1.22-1.22h30.38c.68,0,1.22.55,1.22,1.22v25.36c0,.68-.55,1.22-1.22,1.22Z"/><path class="cls-3" d="m33.15,54.65h-5.79c.68,0,1.22.55,1.22,1.22v25.36c0,.68-.55,1.22-1.22,1.22h5.79c.68,0,1.22-.55,1.22-1.22v-25.36c0-.68-.55-1.22-1.22-1.22h0Z"/><path class="cls-6" d="m34.18,65.66h9.46v5.79h-9.46v-5.79Z"/><path class="cls-4" d="m65.92,82.46h30.38c.68,0,1.22-.55,1.22-1.22v-25.36c0-.68-.55-1.22-1.22-1.22h-30.38c-.68,0-1.22.55-1.22,1.22v25.36c0,.68.55,1.22,1.22,1.22Z"/><path class="cls-3" d="m96.3,54.65h-5.79c.68,0,1.22.55,1.22,1.22v25.36c0,.68-.55,1.22-1.22,1.22h5.79c.68,0,1.22-.55,1.22-1.22v-25.36c0-.68-.55-1.22-1.22-1.22h0Z"/><path class="cls-6" d="m64.69,71.45h-9.46v-5.79h9.46v5.79Z"/><path class="cls-5" d="m56.2,55.23h-13.52c-.64,0-1.16-.52-1.16-1.16v-9.27c0-.64.52-1.16,1.16-1.16h13.52c.64,0,1.16.52,1.16,1.16v9.27c0,.64-.52,1.16-1.16,1.16Z"/><path class="cls-1" d="m46.54,43.64h5.79v11.59h-5.79v-11.59Z"/><path d="m96.2,12.36h-30.38c-1.48,0-2.67,1.2-2.67,2.67v8.33h-6.37v-8.88h.87c1.65,0,2.99-1.34,2.99-2.99V1.52C60.64.68,59.96,0,59.12,0h-3.83c-.21,0-.42.08-.56.24-1.1,1.23-.25,2.66.94,2.66h1.98c.05,0,.1.04.1.1v8.5c0,.05-.04.1-.1.1h-16.22c-.05,0-.1-.04-.1-.1V2.95s.02-.05.05-.05h8.54c.21,0,.42-.08.56-.24C51.57,1.43,50.72,0,49.53,0h-9.59C39.11,0,38.43.68,38.43,1.52v9.97c0,1.65,1.34,2.99,2.99,2.99h.87v8.88h-6.57v-8.33c0-1.48-1.2-2.67-2.67-2.67H2.67c-1.48,0-2.67,1.2-2.67,2.67v25.36c0,1.48,1.2,2.67,2.67,2.67h30.38c1.48,0,2.67-1.2,2.67-2.67v-8.33h6.57v10.15c-1.21.23-2.12,1.29-2.12,2.56v9.27c0,1.27.92,2.33,2.12,2.56v7.52h-6.57v-9.49c0-.84-.68-1.52-1.52-1.52H10.45c-.25,0-.5.11-.66.31-1.01,1.21-.17,2.59,1,2.59h.42v5.79H2.9v-5.79h1.74c.74,0,1.4-.53,1.49-1.27.11-.88-.58-1.63-1.44-1.63h-2.02c-1.48,0-2.67,1.2-2.67,2.67v25.36c0,1.48,1.2,2.67,2.67,2.67h30.38c1.48,0,2.67-1.2,2.67-2.67v-8.33h6.57v11.39h-.87c-1.65,0-2.99,1.34-2.99,2.99v8.69c0,1.65,1.34,2.99,2.99,2.99h16.22c1.65,0,2.99-1.34,2.99-2.99v-8.69c0-1.65-1.34-2.99-2.99-2.99h-.87s0-1.01,0-1.01c0-.74-.53-1.4-1.27-1.49-.88-.11-1.63.58-1.63,1.44v1.26h-8.69v-27.81h8.69v20.38c0,.74.53,1.4,1.27,1.49.88.11,1.63-.58,1.63-1.44v-4.22h6.37v8.33c0,1.48,1.2,2.67,2.67,2.67h30.38c1.48,0,2.67-1.2,2.67-2.67v-25.36c0-1.48-1.2-2.67-2.67-2.67h-30.38c-1.48,0-2.67,1.2-2.67,2.67v8.33h-6.37v-7.58c1.21-.23,2.12-1.28,2.12-2.55v-9.25c0-1.27-.92-2.33-2.12-2.55v-10.13h6.37v8.33c0,1.48,1.2,2.67,2.67,2.67h30.38c1.48,0,2.67-1.2,2.67-2.67V15.03c0-1.48-1.2-2.67-2.67-2.67Zm-38.46,75.02v8.5c0,.05-.04.1-.1.1h-16.22c-.05,0-.1-.04-.1-.1v-8.5c0-.05.04-.1.1-.1h16.22c.05,0,.1.04.1.1Zm19.7-56.1v-7.34h7.34v7.34h-7.34Zm7.34,3.09v5.79h-7.34v-5.79h7.34Zm-18.73-10.43h8.3v7.34h-8.3v-7.34Zm11.39-2.9v-5.79h7.34v5.79h-7.34Zm10.23,2.9h8.3v7.34h-8.3v-7.34Zm8.3-2.9h-8.3v-5.79h8.3v5.79Zm-21.63-5.79v5.79h-8.3v-5.79h8.3Zm-18.35,29.74v8.69h-2.12v-8.69h2.12Zm-2.12-30.7v27.81h-8.69V14.29h8.69Zm-10.81,39.4v-8.69h2.12v8.69h-2.12ZM14.29,31.28v-7.34h7.34v7.34h-7.34Zm7.34,3.09v5.79h-7.34v-5.79h7.34ZM2.9,23.95h8.3v7.34H2.9v-7.34Zm11.39-2.9v-5.79h7.34v5.79h-7.34Zm10.23,2.9h8.3v7.34h-8.3v-7.34Zm8.3-2.9h-8.3v-5.79h8.3v5.79Zm-21.63-5.79v5.79H2.9v-5.79h8.3ZM2.9,34.37h8.3v5.79H2.9v-5.79Zm21.63,5.79v-5.79h8.3v5.79h-8.3Zm11.2-11.01v-2.9h6.57v2.9h-6.57Zm-21.44,43.06v-7.34h7.34v7.34h-7.34Zm7.34,2.9v5.79h-7.34v-5.79h7.34Zm2.9-10.23h8.3v7.34h-8.3v-7.34Zm8.3-3.09h-8.3v-5.79h8.3v5.79Zm-18.54-5.79h7.34v5.79h-7.34v-5.79Zm-3.09,8.88v7.34H2.9v-7.34h8.3Zm-8.3,10.23h8.3v5.79H2.9v-5.79Zm21.63,5.79v-5.79h8.3v5.79h-8.3Zm11.2-11.01v-2.9h6.57v2.9h-6.57Zm12.36-16.22v-8.69h2.9v8.69h-2.9Zm36.69,11.2v7.34h-7.34v-7.34h7.34Zm-7.34-3.09v-5.79h7.34v5.79h-7.34Zm18.54,10.43h-8.3v-7.34h8.3v7.34Zm-11.2,2.9v5.79h-7.34v-5.79h7.34Zm-10.43-2.9h-8.3v-7.34h8.3v7.34Zm-8.3,2.9h8.3v5.79h-8.3v-5.79Zm21.63,5.79v-5.79h8.3v5.79h-8.3Zm8.3-19.12h-8.3v-5.79h8.3v5.79Zm-21.63-5.79v5.79h-8.3v-5.79h8.3Zm-11.2,11.01v2.9h-6.57v-2.9h6.57Zm-6.57-37.85v-2.9h6.57v2.9h-6.57Zm9.46,5.21h8.3v5.79h-8.3v-5.79Zm21.63,5.79v-5.79h8.3v5.79h-8.3Z"/><path d="m42.87,90.08v2.65c0,.74.53,1.4,1.27,1.49.88.11,1.63-.58,1.63-1.44v-2.65c0-.74-.53-1.4-1.27-1.49-.88-.11-1.63.58-1.63,1.44Z"/><path d="m48.76,94.24c.8,0,1.45-.65,1.45-1.45v-2.65c0-.74-.53-1.4-1.27-1.49-.88-.11-1.63.58-1.63,1.44v2.7c0,.8.65,1.45,1.45,1.45h0Z"/><path d="m42.87,5.91v2.65c0,.74.53,1.4,1.27,1.49.88.11,1.63-.58,1.63-1.44v-2.65c0-.74-.53-1.4-1.27-1.49-.88-.11-1.63.58-1.63,1.44Z"/><path d="m47.31,5.91v2.65c0,.74.53,1.4,1.27,1.49.88.11,1.63-.58,1.63-1.44v-2.65c0-.74-.53-1.4-1.27-1.49-.88-.11-1.63.58-1.63,1.44h0Z"/></g></svg>