<?xml version="1.0" encoding="UTF-8"?><svg id="Layer_2" xmlns="http://www.w3.org/2000/svg" viewBox="0 0 467.42 174.99"><defs><style>.cls-1{fill:#fff;}</style></defs><g id="Layer_1-2"><path class="cls-1" d="m209.31,88.08c-3.77-3.27-5.66-8.43-5.66-15.5s1.9-12.16,5.7-15.43,9.41-4.9,16.83-4.9,13.12,1.63,16.92,4.9c3.8,3.27,5.7,8.41,5.7,15.43s-1.9,12.23-5.7,15.5-9.44,4.9-16.92,4.9-13.1-1.63-16.88-4.9Zm20.78-7.98c.7-1.38,1.06-3.89,1.06-7.52s-.35-6.12-1.06-7.48c-.71-1.36-2.01-2.04-3.91-2.04s-3.11.68-3.82,2.04c-.71,1.36-1.06,3.85-1.06,7.48s.35,6.13,1.06,7.52c.7,1.38,1.98,2.08,3.82,2.08s3.2-.69,3.91-2.08Z"/><path class="cls-1" d="m302.71,66.21v12.02c0,1.24.25,2.09.74,2.54.49.45,1.41.68,2.76.68.06,0,.37-.01.92-.04.55-.02.98-.04,1.29-.04,1.72,0,2.57.72,2.57,2.15v6.37c0,1.19-.83,1.96-2.48,2.29-1.84.38-4.29.57-7.36.57-5.64,0-9.63-.91-11.96-2.72-2.33-1.81-3.49-5.01-3.49-9.59v-14.24h-11.86v12.02c0,1.24.23,2.09.69,2.54.46.45,1.27.68,2.44.68.18,0,.51-.01.97-.04.46-.02.75-.04.87-.04,1.78,0,2.67.72,2.67,2.15v6.37c0,1.19-.83,1.96-2.48,2.29-1.84.38-4.2.57-7.08.57-5.52,0-9.4-.89-11.63-2.68-2.24-1.79-3.36-5-3.36-9.63v-14.24h-2.39c-1.84,0-2.76-.72-2.76-2.15v-6.66c0-1.43.92-2.15,2.76-2.15h2.48v-8.16c0-1.43.98-2.15,2.94-2.15h10.85c1.96,0,2.94.72,2.94,2.15v8.16h12.05v-8.16c0-1.43.98-2.15,2.94-2.15h10.94c1.96,0,2.94.72,2.94,2.15v8.16h5.52c1.9,0,2.85.74,2.85,2.22v6.51c0,1.48-.95,2.22-2.85,2.22h-5.43Z"/><path class="cls-1" d="m352.19,81.46c2.08-.52,3.28,0,3.59,1.57l.92,5.08c.25,1.24-.49,2.19-2.21,2.86-3.99,1.34-8.68,2-14.07,2-8.58,0-14.93-1.62-19.04-4.87-4.11-3.24-6.16-8.47-6.16-15.68,0-13.46,7.42-20.19,22.26-20.19,14.04,0,21.06,6.23,21.06,18.68v4.15c0,1.62-1.07,2.43-3.22,2.43h-22.99c.37,2,1.29,3.4,2.76,4.19,1.47.79,3.8,1.18,6.99,1.18s6.68-.48,10.12-1.43Zm-18.71-17.82c-.83,1.1-1.36,3.08-1.61,5.94h10.94v-.79c0-4.53-1.72-6.8-5.15-6.8-1.96,0-3.36.55-4.18,1.65Z"/><path class="cls-1" d="m377.85,52.97c1.04,0,1.79.15,2.25.47.46.31.75.85.87,1.61l.64,3.15c.98-1.53,2.39-2.85,4.23-3.97s3.95-1.68,6.35-1.68c1.1,0,1.87.17,2.3.5.43.33.64.91.64,1.72v10.09c0,1.29-.83,1.93-2.48,1.93-.37,0-.92-.04-1.66-.11-.74-.07-1.35-.11-1.84-.11-4.84,0-7.27,2.1-7.27,6.3v17.18c0,1.48-.95,2.22-2.85,2.22h-11.59c-1.9,0-2.85-.74-2.85-2.22v-34.86c0-1.48.95-2.22,2.85-2.22h10.39Z"/><path class="cls-1" d="m417.85,90.05c0,1.48-.95,2.22-2.85,2.22h-11.59c-1.9,0-2.85-.74-2.85-2.22v-46.24c0-1.48.95-2.22,2.85-2.22h11.59c1.9,0,2.85.74,2.85,2.22v46.24Z"/><path class="cls-1" d="m451.05,83.25c-1.04,1.05-2.62,1.92-4.74,2.61-2.12.69-4.46,1.04-7.04,1.04-4.78,0-8.31-1.04-10.58-3.11-2.27-2.08-3.4-5.31-3.4-9.7v-18.9c0-1.48.95-2.22,2.85-2.22h11.59c1.9,0,2.85.74,2.85,2.22v15.75c0,1.57.2,2.71.6,3.4.4.69,1.24,1.04,2.53,1.04,2.88,0,4.32-1.88,4.32-5.66v-14.53c0-1.48.95-2.22,2.85-2.22h11.59c1.96,0,2.94.74,2.94,2.22v30.13c0,10.36-7.69,15.53-23.08,15.53-6.87,0-12.05-.62-15.54-1.86-1.78-.67-2.54-1.62-2.3-2.86l.92-5.37c.31-1.53,1.53-2.05,3.68-1.57,4.41,1,7.91,1.5,10.48,1.5,3.37,0,5.79-.49,7.27-1.47,1.47-.98,2.21-2.56,2.21-4.76v-1.22Z"/><path class="cls-1" d="m212.92,117c.03-2.03-.15-4.04-2.49-4.04-1.43,0-2.34.58-2.34,2.13,0,1.73,1.09,2.4,2.43,3.25,1.4.88,3.98,2.58,5.16,3.73,1.46,1.43,1.91,2.79,1.91,4.77,0,4.31-2.85,6.56-7.01,6.56-5.1,0-6.92-2.85-6.92-6.92v-1.67h4.25v1.34c-.09,2.22.58,3.82,2.67,3.82,1.79,0,2.64-.94,2.64-2.67,0-1.34-.61-2.25-1.7-3.01-2.22-1.73-4.98-2.97-6.71-5.25-.7-1.03-1.09-2.28-1.09-3.49,0-3.89,2.19-6.01,6.68-6.01,6.77,0,6.59,5.22,6.62,7.47h-4.1Z"/><path class="cls-1" d="m226.97,119.64c.18-5.8.64-10.11,7.44-10.11s7.26,4.31,7.44,10.11v3.25c0,6.07-.46,10.5-7.44,10.5s-7.44-4.43-7.44-10.5v-3.25Zm4.37,5.37c0,1.88.15,4.95,3.07,4.95s3.07-3.13,3.07-5.31v-5.83c0-1.82.09-5.86-3.07-5.86-3.34,0-3.07,3.98-3.07,5.74v6.31Z"/><path class="cls-1" d="m251.8,132.85v-22.77h4.25v19.43h7.89v3.34h-12.14Z"/><path class="cls-1" d="m283.25,110.08h4.25v15.88c0,5.04-1.64,7.44-7.19,7.44s-7.26-2.4-7.26-7.44v-15.88h4.25v15.51c0,2.19.15,4.37,3.04,4.37s2.91-2.19,2.91-4.37v-15.51Z"/><path class="cls-1" d="m296.12,110.08h14.18v3.34h-4.95v19.43h-4.25v-19.43h-4.98v-3.34Z"/><path class="cls-1" d="m318.95,132.85v-22.77h4.25v22.77h-4.25Z"/><path class="cls-1" d="m333.21,119.64c.18-5.8.64-10.11,7.44-10.11s7.26,4.31,7.44,10.11v3.25c0,6.07-.46,10.5-7.44,10.5s-7.44-4.43-7.44-10.5v-3.25Zm4.37,5.37c0,1.88.15,4.95,3.07,4.95s3.07-3.13,3.07-5.31v-5.83c0-1.82.09-5.86-3.07-5.86-3.34,0-3.07,3.98-3.07,5.74v6.31Z"/><path class="cls-1" d="m368.21,110.08h4.25v22.77h-4.43l-3.31-8.11c-1.12-2.7-2.03-5.46-3.04-9.05h-.06c.15,1.88.33,4.19.46,6.5.12,2.28.21,4.55.21,6.37v4.28h-4.25v-22.77h4.4l3.31,8.29c1.09,2.64,2,5.34,3.04,9.05h.06c-.15-2.06-.3-4.28-.42-6.47-.12-2.19-.21-4.37-.21-6.4v-4.46Z"/><path class="cls-1" d="m391.34,117c.03-2.03-.15-4.04-2.49-4.04-1.43,0-2.34.58-2.34,2.13,0,1.73,1.09,2.4,2.43,3.25,1.4.88,3.98,2.58,5.16,3.73,1.46,1.43,1.91,2.79,1.91,4.77,0,4.31-2.85,6.56-7.01,6.56-5.1,0-6.92-2.85-6.92-6.92v-1.67h4.25v1.34c-.09,2.22.58,3.82,2.67,3.82,1.79,0,2.64-.94,2.64-2.67,0-1.34-.61-2.25-1.7-3.01-2.22-1.73-4.98-2.97-6.71-5.25-.7-1.03-1.09-2.28-1.09-3.49,0-3.89,2.19-6.01,6.68-6.01,6.77,0,6.59,5.22,6.62,7.47h-4.1Z"/><path class="cls-1" d="m176.45,75.89c-1.33-21.7-11.77-41.53-29.41-55.84C129.46,5.8,106.83-1.26,83.33.18,34.72,3.16-2.6,41.96.14,86.68c1.23,20.03,10.32,38.62,25.67,52.61l1.54,1.91,6.74,21.98c.32,1.05,1.29,1.78,2.39,1.79.09,0,2.79.04,7.31.04,10.27,0,29.93-.19,49.6-1.4,52.97-3.28,60.45-10.96,61.48-16.45,1.48-7.95,1.91-12.49,1.88-15.18,13.97-15.89,20.95-35.71,19.7-56.09ZM5.21,86.37C2.64,44.45,37.83,8.06,83.64,5.25c22.23-1.36,43.61,5.3,60.2,18.74,16.52,13.4,26.3,31.94,27.54,52.2,1.12,18.31-4.9,36.16-17,50.74-.14-.05-.29-.08-.43-.1-.54-.09-4.81-.76-8.38-.92,4.46-29.65,1.48-46.73.93-50.79-.15-1.16-.35-2.3-.58-3.43,24.72-27.14-6.45-23.11-12.75-22.37-5.31-5.25-11.54-9.37-18.67-12.33-7.81-3.24-15.96-4.09-24.37-4.01-5.52.05-10.93.69-16.15,2.11-7.02,1.91-13.61,4.68-19.38,8.97-25.85-12.41-18.12,11.52-15.27,19.16-.55,1.29-1.04,2.61-1.45,3.99-1.88,6.17-3.11,14.74-3.05,21.12.03,3.14-.94,3.72-2.63,6.56-1.76,2.94-2.35,7.41-2.44,9.91-.04,1.13.09,8.4,8.55,15.58,2.17,1.84,5.27,2.57,6.87,5.67,2.34,2.89,4.88,7.46,4.88,7.46-1.81,0-11.29.41-19.52,3.2-15.16-13.23-24.15-31.07-25.33-50.33Zm45.84,38.37c3.31-2.35,6.16-4.76,6.11-9.84-1.08,1.11-1.79,1.72-2.36,2.44-2.28,2.94-7.38,8.78-17.47-3.33-.55-.66-1.41-2.15-2.16-3.65,1.31-2.23,2.76-4.25,4.71-6.05,2.88-2.39,6.41-3.92,10.08-4.66.13-.02.1-.2-.02-.2-1.94.05-3.85.44-5.73,1-4.14,1.31-8.27,3.96-10.01,7.85-.25-.61-.44-1.13-.52-1.5-.52-2.42.22-7.96,2.39-11.13,5.55-.71,11.19-1.11,16.84-1.15-.24.6-.45,1.26-.6,1.96-1.94,8.85,4.86,3.87,9.71,4.42,4.45.51,4.86,2.21,8.26,1.11,3.18-1.03,2.54-5.45,2.44-6.02,6.46,1.05,12.8,2.68,18.9,5,9.19,3.56,17.6,9.01,24.06,16.3.52.57,1.07,1.32,1.5,1.96,3.71,5.5,3.11,13.17-.88,18.35-.14.18-.29.37-.44.54l-3.84,1.11c-18.08,3.97-36.28,6.29-54.83,5.11-4.66-.29-5.85-3-3.04-7.59.85.83,4.31,3.67,5.35,4.39,1.28-.81-7.95-9.65-8.47-16.41Zm-9.19-54.77c1.69-5.24,4.14-9.93,7.33-13.93l5.05-5.22c3.32-2.82,7.18-5.08,11.56-6.66,15.6-5.65,31.42-6.46,47.27-.93,13.37,4.66,23.25,16.66,26.78,30.41,3.24,12.64,2.13,35.89.88,49.83-.45,5.01-4.02,9.19-8.91,10.41-3.49.87-7.05,1.75-10.43,2.68.02-.04.04-.07.05-.11,2.91-6.09,2.7-13.64-1.22-19.22-.55-.79-1.21-1.66-1.87-2.35-3.63-3.91-7.78-7.33-12.29-10.11-10.34-6.29-22.2-9.83-34.42-11.36-.87-1.51-2.37-3.44-4.89-4.99-1.75-1.07-3.79-1.35-5.71-.78-1.09.32-2.36.83-3.61,1.6.06-.21.11-.43.16-.68.73-4.03.33-6.86.3-6.77h2.91c.05-2.87-.54-7.54-2.07-9.77.06,1.31-.58,5.01-.81,6.46-4.11-.84-7.37-1.64-11.25-2.42-1.2-.24-3.87-1.02-4.34.82-.13.52,2.16,1.78,2.67,2.01.9.39,1.78.84,2.72,1.13.72.22,1.42.53,2.27.86-.42,4.21-.85,8.34,4.29,10.12,0,0,.3.18.71.26-.36.39-.7.82-1.01,1.28-5.62.11-11.19.56-16.62,1.3,1.43-3.69,2.34-17.21,4.49-23.85Zm70.29,74.69h0,0Zm-19.04,13.88c-24,1.49-47.98,1.43-54.7,1.38l-4.19-13.67c.83.39,1.63.79,2.84,1.1,7.16,1.87,14.4,2.78,21.68,3.13h0s.06,0,.16,0c1.88.09,3.76.14,5.64.16,17.56.33,70-.14,87.09-16.55-.15,2.31-.6,6.06-1.73,12.12-.28,1.49-4.31,9.06-56.77,12.31Z"/><path class="cls-1" d="m86.49,83.01c1.61.37,3.27.48,5,.72-.24,1.33-.54,2.43-.64,3.55-.2,2.29.39,4.39,2.01,6.08,2.22,2.34,4.97,2.22,7.04-.24,1.83-2.18,2.07-4.68,1.48-7.33-.18-.82-.5-1.62-.84-2.69,3.44-.71,6.97.12,10.24-2.18-4.05-1.92-7.96-1.52-11.76-1.64-3.83-.12-7.68-.03-11.55-.03-.43-1.47.72-5.65.72-5.63-1.2,1.13-3.66,4.22-3.99,5.41-.66,2.36-.05,3.43,2.3,3.97Z"/><path class="cls-1" d="m70.21,124.77c10.89,6.36,21.8,4.34,31.51-3.11,1.67-1.38,3.15-3.01,4.49-4.69,0,0-.29-.28-.29-.28-.88.62-1.71,1.28-2.57,1.89-.63.42-1.34.89-1.95,1.33-2.01,1.17-3.91,2.56-6.12,3.32-7.69,2.8-15.91,1.12-23.29-1.99-2.82-1.17-5.64-2.59-8.21-4.3-.91-.54-1.56-1.34-2.9-1.46l-.29.28c.13,1.32,1.05,1.95,1.84,2.82,2.34,2.36,4.89,4.49,7.78,6.19Z"/><path class="cls-1" d="m72.62,105.83c2.58,1.07,4.93,2.75,6.68,4.89,1.22,1.61,2,3.46,2.96,5.23.35.65.58,1.32.99,1.96.05.08.18.06.19-.03.79-3.12-.55-6.22-2.95-8.26-2.13-2.06-4.92-3.44-7.82-3.99-.12-.03-.16.16-.05.2Z"/><path class="cls-1" d="m73.74,101.26c3.67.75,7.2,2.27,10.08,4.66,2.76,2.53,4.53,5.53,6.29,8.9.04.1.19.06.2-.04.64-8.66-9.08-13.48-16.55-13.73-.13,0-.14.19-.02.2Z"/><path class="cls-1" d="m51.02,104.02c-2.18.39-4.25,1.29-6.08,2.54-3.29,2.37-5.68,5.44-4.69,9.7.02.09.15.11.19.03.41-.64.63-1.31.99-1.96.96-1.77,1.74-3.62,2.96-5.23,1.74-2.14,4.1-3.82,6.68-4.89.12-.04.07-.22-.05-.2Z"/><path class="cls-1" d="m70.42,130.96c-1.05.05-2.5.16-3.55.16-2.18-.03-4.5-.38-6.41-1.43-.75-.34-1.23-.99-2.03-1.23-.3-.08-.63-.12-1.16-.11-.95,2.6,4.14,4.06,5.99,4.17,2.46.2,4.99-.42,7.17-1.54Z"/><path class="cls-1" d="m55.14,174.99c-10.31,0-15.01-.22-16.51-.28-.2,0-.38-.14-.45-.33l-1.55-4.05c-.13-.34.12-.7.49-.69,8.28.25,81.57,2.55,113.93-9.66.22-.08.35-.31.32-.54l-.29-2.19c-.04-.28.16-.53.44-.57l4.03-.53c.28-.04.53.16.57.44l.8,6.04c.03.22-.09.44-.29.53-23.42,10.72-73.46,11.83-101.49,11.83Z"/></g></svg>