<svg id="Layer_1" data-name="Layer 1" xmlns="http://www.w3.org/2000/svg" viewBox="0 0 2013.68 900"><defs><style>.cls-1{fill:#25223a;stroke:#231f20;stroke-miterlimit:10;}.cls-2{fill:#463d68;}.cls-3{fill:#47c2cb;}</style></defs><title>mainbackground</title><rect class="cls-1" x="-148.65" width="2531.61" height="900"/><g id="Layer_1-2" data-name="Layer 1-2"><path class="cls-2" d="M1203.1,531.66C1126.63,561,957.8,639,990.75,664.5s250.79-51.09,380.76,20.43,62.24-25.54,0-48.53-228.82-2.55-168.41-46S1276.32,503.56,1203.1,531.66Z"/></g><g id="Layer_1-2-2" data-name="Layer 1-2"><path class="cls-2" d="M1254.86,252.09c201.46,74-28.78,129.78-336.26,301C742.18,651.31,739.87,830,1147.32,753.89,1329.09,720,1441.92,827.83,1460.43,900H322c1.38-10.48,3.81-20.18,7.41-32C403.6,625,962.53,551,924.66,496s-158.27,22.63-149.95-52.84c6.06-54.95,330.2-59.18,248.41-194.46S493,460.09,370.28,250.83C296.52,125,488.25,43.17,652.92,0h817C1135.2,86.29,1100.54,195.42,1254.86,252.09Z"/></g><g id="Layer_1-2-3" data-name="Layer 1-2"><path class="cls-2" d="M382.52,349c59.24,57.71,120.72,49.91,196.72,34.32,81.57-16.75,296.2-95.15,299.56-68.63,2,15.66-292.85,93.58-286.14,148.17s138.59,20.28,142,48.35S508.82,558,378.05,726.48c-83.84,108-42.47-4.68,20.12-73.31S486.81,503.58,422.76,466c-98.36-57.71-110-223.39-91.66-210.56C340.05,261.68,353.54,320.79,382.52,349Z"/></g><circle class="cls-3" cx="529.26" cy="353.58" r="9.68"/><circle class="cls-3" cx="1593.35" cy="60.84" r="9.68"/><circle class="cls-3" cx="1559.29" cy="793.23" r="9.68"/><circle class="cls-3" cx="1086.21" cy="698.21" r="6.76"/><circle class="cls-3" cx="703.11" cy="455.56" r="4.6"/><path class="cls-3" d="M1537,124.19a4.6,4.6,0,1,1,4.61-4.6,4.6,4.6,0,0,1-4.61,4.6"/></svg>