<?xml version="1.0" encoding="UTF-8"?><svg id="Layer_2" xmlns="http://www.w3.org/2000/svg" viewBox="0 0 98.82 73.38"><defs><style>.cls-1{fill:#ff5249;}.cls-2{fill:#453c67;}.cls-3{fill:#46c2cb;}</style></defs><g id="Layer_1-2"><path class="cls-2" d="m75.7,25.1c3.34,0,6.02,2.83,5.78,6.23-.22,3.04-2.84,5.36-5.89,5.36h-1.82v-11.59h1.93Z"/><path class="cls-3" d="m66.04,8.54v47.51c-9.04-5.86-19.57-10.63-30.9-11.59v-27.04c11.33-.96,21.86-3.03,30.9-8.89Z"/><path class="cls-2" d="m27.52,64.58c2.85,2.29,1.2,6.88-2.42,6.88h-5.79c-3.2,0-5.79-2.59-5.79-5.79v-21.24l.02-.14c.62.09,1.26.14,1.91.14h9.66v14.33c0,2.19.71,4.46,2.42,5.83Z"/><path class="cls-1" d="m35.15,17.38v27.04H15.61c-7.31,0-13.43-5.74-13.67-13.05-.26-7.68,5.89-13.99,13.51-13.99h19.7Z"/><path class="cls-1" d="m73.77,56.05c0,2.25-1.92,4.05-4.21,3.85-2.01-.18-3.51-1.92-3.51-3.93V5.92c0-2.01,1.5-3.76,3.51-3.93,2.29-.2,4.22,1.6,4.22,3.85v50.21Z"/><path d="m25.05,27.08c1.07,0,1.93-.87,1.93-1.93s-.87-1.93-1.93-1.93-1.93.87-1.93,1.93.87,1.93,1.93,1.93Z"/><path d="m70.35.02c-3.4-.26-6.24,2.43-6.24,5.78v1.64c-9.23,5.65-19.83,7.23-29.05,8.02H15.45C6.95,15.45,0,22.33,0,30.9c0,7.07,4.88,13.22,11.59,14.96v19.8c0,4.27,3.46,7.72,7.72,7.72h5.79c5.44,0,7.88-6.89,3.62-10.31-1.08-.86-1.69-2.44-1.69-4.33v-12.4h8.02c9.35.81,19.16,4.44,29.17,10.78.56,2.84,3.21,4.94,6.27,4.64,2.98-.29,5.21-2.88,5.21-5.87v-17.27c4.27,0,7.72-3.46,7.72-7.72s-3.47-7.72-7.72-7.72V5.91c0-3.05-2.31-5.66-5.35-5.89Zm-6.24,52.55c-9.2-5.5-18.27-8.81-27.04-9.85v-23.53c8.61-.82,18.23-2.45,27.04-7.26v40.64ZM3.86,30.9c0-6.39,5.17-11.59,11.59-11.59h17.77v23.17H15.45c-.55,0-1.1-.04-1.64-.12-5.67-.8-9.95-5.73-9.95-11.47Zm22.45,35.18c1.42,1.14.62,3.44-1.21,3.44h-5.79c-2.13,0-3.86-1.73-3.86-3.86v-19.31h7.72v12.4c0,3.06,1.14,5.74,3.14,7.34Zm45.53-10.04c0,1.16-1.03,2.09-2.22,1.91-.96-.14-1.64-1.01-1.64-1.97V5.9c0-.97.69-1.83,1.64-1.97,1.19-.17,2.22.75,2.22,1.91v50.21Zm7.72-25.1c0,2.13-1.73,3.86-3.86,3.86v-7.72c2.13,0,3.86,1.73,3.86,3.86Z"/><path d="m96.88,27.04h-7.66c-.97,0-1.83.69-1.97,1.64-.17,1.19.75,2.22,1.91,2.22h7.66c.97,0,1.83-.69,1.97-1.64.17-1.19-.75-2.22-1.91-2.22Z"/><path d="m92.35,4.87c-.53-.92-1.71-1.24-2.64-.71l-6.69,3.86c-.92.53-1.24,1.71-.71,2.64.54.93,1.72,1.24,2.64.71l6.69-3.86c.92-.53,1.24-1.71.71-2.64Z"/><path d="m92.35,53.15c.53-.92.22-2.1-.71-2.64l-6.69-3.86c-.92-.53-2.1-.22-2.64.71-.53.92-.22,2.1.71,2.64l6.69,3.86c.3.18.64.26.96.26.67,0,1.32-.35,1.67-.97Z"/><path d="m17.32,27.04c1.57,0,2.7-1.87,1.29-3.5-.2-.23-.49-.36-.79-.36h-2.43c-4.45,0-8.04,3.79-7.7,8.32.02.28.15.54.37.72,1.96,1.65,4.24-.33,3.22-2.31-.67-1.31.34-2.86,1.81-2.86h4.23Z"/></g></svg>