<?xml version="1.0" encoding="UTF-8"?><svg id="Layer_2" xmlns="http://www.w3.org/2000/svg" viewBox="0 0 103.03 103.01"><defs><style>.cls-1{fill:#ff5249;}.cls-2{fill:#aab2bd;}.cls-3{fill:#e6e9ed;}.cls-4{fill:#46c2cb;}.cls-5{fill:#f2f7a1;}</style></defs><g id="Layer_1-2"><path class="cls-2" d="m16.62,19.94h6.26c-1.89,4.04-2.94,8.54-2.94,13.29,0,3.49.56,6.85,1.63,9.97h-4.95c-1.83,0-3.32-1.5-3.32-3.32v-16.61c0-1.83,1.5-3.32,3.32-3.32Z"/><path class="cls-2" d="m89.73,23.26v16.61c0,1.83-1.5,3.32-3.32,3.32h-4.95c1.06-3.12,1.63-6.48,1.63-9.97,0-4.75-1.05-9.25-2.94-13.29h6.26c1.83,0,3.32,1.5,3.32,3.32Z"/><path class="cls-5" d="m16.07,53.95c-3.51,1.01-6.51,2.89-8.82,5.35-2.44,2.51-4.17,5.63-5,9.02-.81,3.29-.81,6.83.2,10.32,1.16,4.02,3.47,7.38,6.48,9.85l.05.02c.5-2.46,1.33-4.8,2.43-6.99l-.18-.1c-1.06-1.33-1.88-2.87-2.39-4.62-.66-2.33-.66-4.69-.12-6.88.55-2.26,1.69-4.34,3.32-6.01,1.25-1.33,2.81-2.41,4.59-3.12v-4.29c0-1.01.23-1.96.65-2.82-.4.1-.8.17-1.2.28h0Z"/><path class="cls-5" d="m100.77,68.32c-.83-3.39-2.56-6.51-5-9.02-2.31-2.46-5.32-4.34-8.82-5.35-.4-.12-.8-.18-1.2-.28.42.86.65,1.81.65,2.82v4.29c1.78.71,3.34,1.79,4.59,3.12,1.63,1.68,2.77,3.75,3.32,6.01.55,2.19.55,4.55-.12,6.88-.52,1.74-1.33,3.29-2.39,4.62l-.18.1c1.1,2.19,1.93,4.54,2.43,6.99l.05-.02c3.01-2.48,5.32-5.83,6.48-9.85,1.01-3.49,1.01-7.03.2-10.32h0Z"/><path class="cls-5" d="m29.91,61.47c0,1.83,1.5,3.32,3.32,3.32h4.98c-6.28,0-12.11,1.94-16.91,5.25l-.05-.08c-.56-1.15-1.71-1.84-2.97-1.84-.52,0-1.03.12-1.48.35l-.18-.35v-11.63c0-1.01.23-1.96.65-2.82,1.05-2.26,3.34-3.82,6-3.82h1.45c2.01,3.26,4.6,6.1,7.63,8.44-.56.15-1.05.45-1.45.85-.61.6-.98,1.43-.98,2.34h0Z"/><path class="cls-5" d="m86.4,68.12l-1.28.02c-.12-.02-.25-.02-.38-.02-1.26,0-2.41.7-2.97,1.84l-.05.08c-4.8-3.31-10.63-5.25-16.91-5.25h4.98c.91,0,1.74-.37,2.34-.98.61-.6.98-1.43.98-2.34,0-1.51-1.03-2.81-2.43-3.19,3.02-2.34,5.62-5.18,7.63-8.44h1.45c2.66,0,4.95,1.56,6,3.82.42.86.65,1.81.65,2.82v11.63Z"/><path class="cls-3" d="m76.43,94.7v6.65H26.59v-6.65l.18-.35c.45.23.95.35,1.48.35s1.03-.12,1.48-.35c1.64-.81,2.31-2.82,1.5-4.45l-9.92-19.85c4.8-3.31,10.63-5.25,16.91-5.25h26.58c6.28,0,12.11,1.94,16.91,5.25l-9.92,19.85c-.81,1.63-.15,3.64,1.5,4.45.45.23.96.35,1.48.35s1.03-.12,1.48-.35l.18.35Z"/><path class="cls-3" d="m26.77,94.35l-.18.35v6.65H8.32v-6.65c0-2.13.23-4.2.66-6.2.5-2.46,1.33-4.8,2.43-6.99,1.25-2.54,2.86-4.87,4.74-6.93l9.14,18.28c.33.66.86,1.18,1.5,1.5h0Z"/><path class="cls-3" d="m94.71,94.7v6.65h-18.28v-6.65l-.18-.35c.63-.32,1.16-.83,1.5-1.5l9.14-18.28c1.88,2.06,3.49,4.39,4.74,6.93,1.1,2.19,1.93,4.54,2.43,6.99.43,1.99.66,4.07.66,6.2h0Z"/><path class="cls-1" d="m64.8,74.76v16.61c0,1.83-1.5,3.32-3.32,3.32h-19.94c-1.83,0-3.32-1.5-3.32-3.32v-16.61c0-1.83,1.5-3.32,3.32-3.32h19.94c1.83,0,3.32,1.5,3.32,3.32Z"/><path class="cls-5" d="m31.23,89.9c.81,1.63.15,3.64-1.5,4.45-.45.23-.96.35-1.48.35s-1.03-.12-1.48-.35c-.63-.32-1.16-.83-1.5-1.5l-9.14-18.28-.83-1.66c-.81-1.63-.15-3.64,1.5-4.45.45-.23.96-.35,1.48-.35,1.26,0,2.41.7,2.97,1.84l.05.08,9.92,19.85Z"/><path class="cls-5" d="m86.22,68.47c1.64.81,2.31,2.82,1.5,4.45l-.83,1.66-9.14,18.28c-.33.66-.86,1.18-1.5,1.5-.45.23-.95.35-1.48.35s-1.03-.12-1.48-.35c-1.64-.81-2.31-2.82-1.5-4.45l9.92-19.85.05-.08c.56-1.15,1.71-1.84,2.97-1.84.13,0,.27,0,.38.02.38.05.76.15,1.1.33Z"/><path class="cls-2" d="m70.69,58.28c1.4.38,2.43,1.68,2.43,3.19,0,.91-.37,1.74-.98,2.34-.6.61-1.43.98-2.34.98h-36.55c-1.83,0-3.32-1.5-3.32-3.32,0-.91.37-1.74.98-2.34.4-.4.88-.7,1.45-.85h.02c.28-.1.58-.13.88-.13h36.55c.3,0,.6.03.88.13h.02Z"/><path class="cls-3" d="m81.45,43.2c-.78,2.36-1.83,4.59-3.14,6.65-2.01,3.26-4.6,6.1-7.63,8.44h-.02c-.28-.1-.58-.13-.88-.13h-36.55c-.3,0-.6.03-.88.13h-.02c-3.02-2.34-5.62-5.18-7.63-8.44-1.31-2.06-2.36-4.29-3.14-6.65-1.06-3.12-1.63-6.48-1.63-9.97,0-4.75,1.05-9.25,2.94-13.29C27.89,9.14,38.84,1.66,51.51,1.66s23.63,7.48,28.63,18.28c1.89,4.04,2.94,8.54,2.94,13.29,0,3.49-.56,6.85-1.63,9.97h0Z"/><path class="cls-4" d="m76.43,33.23c0,6.11-2.23,11.71-5.88,16.03-1.23,1.46-3.07,2.24-4.98,2.24h-28.11c-2.03,0-3.92-.93-5.2-2.49-3.75-4.57-5.93-10.5-5.63-16.95.58-12.71,11.03-23.16,23.73-23.73,14.29-.65,26.08,10.73,26.08,24.89Z"/><path d="m41.54,96.36h19.94c2.75,0,4.98-2.24,4.98-4.98v-16.61c0-2.75-2.24-4.98-4.98-4.98h-19.94c-2.75,0-4.98,2.24-4.98,4.98v16.61c0,2.75,2.24,4.98,4.98,4.98Zm-1.66-21.6c0-.92.74-1.66,1.66-1.66h19.94c.92,0,1.66.74,1.66,1.66v16.61c0,.92-.74,1.66-1.66,1.66h-19.94c-.92,0-1.66-.74-1.66-1.66v-16.61Z"/><path d="m56.5,76.43h3.32v3.32h-3.32v-3.32Z"/><path d="m49.85,76.43h3.32v3.32h-3.32v-3.32Z"/><path d="m43.21,76.43h3.32v3.32h-3.32v-3.32Z"/><path d="m37.46,53.17h28.11c2.46,0,4.73-1.03,6.25-2.82,4.05-4.79,6.27-10.86,6.27-17.11,0-7.33-2.92-14.16-8.22-19.22-5.3-5.06-12.25-7.69-19.6-7.34-13.58.61-24.7,11.73-25.32,25.31-.3,6.58,1.84,13,6.02,18.08,1.62,1.97,3.98,3.09,6.48,3.09h0Zm12.97-43.17c6.43-.3,12.52,1.99,17.15,6.42,4.64,4.43,7.19,10.41,7.19,16.82,0,5.47-1.95,10.78-5.49,14.97-.88,1.05-2.24,1.64-3.71,1.64h-28.11c-1.5,0-2.93-.69-3.91-1.88-3.66-4.45-5.53-10.06-5.27-15.82.54-11.88,10.27-21.61,22.15-22.15h0Z"/><path d="m34.91,32.92c0-.16,0-.32,0-.47.03-.75.12-1.5.26-2.24l-3.27-.61c-.16.88-.27,1.79-.31,2.69,0,.23,0,.45,0,.67v.26h3.33v-.31Z"/><path d="m50.73,16.63c.26-.01.52-.02.78-.02v-3.32c-.31,0-.62,0-.93.02-7.8.35-14.72,5.32-17.62,12.66l3.09,1.22c2.42-6.12,8.19-10.27,14.69-10.56Z"/><path d="m100.33,62.67c-2.79-5.05-7.38-8.71-12.92-10.32-.19-.05-.38-.09-.57-.14-1.23-2.04-3.29-3.49-5.73-3.9.57-1.12,1.08-2.28,1.53-3.46h3.76c2.75,0,4.98-2.24,4.98-4.98v-16.61c0-2.75-2.24-4.98-4.98-4.98h-5.26C75.66,7.45,64.45,0,51.51,0s-24.15,7.45-29.63,18.28h-5.26c-2.75,0-4.98,2.24-4.98,4.98v16.61c0,2.75,2.24,4.98,4.98,4.98h3.76c.44,1.18.95,2.34,1.53,3.46-2.43.41-4.5,1.86-5.73,3.9-.19.04-.38.08-.57.14-5.54,1.6-10.13,5.27-12.92,10.32-2.79,5.05-3.44,10.89-1.84,16.43,1.13,3.9,3.31,7.35,6.3,10.05-.33,1.82-.51,3.68-.51,5.56v8.31h89.72v-8.31c0-1.88-.18-3.73-.51-5.56,3-2.7,5.18-6.14,6.3-10.05,1.6-5.54.95-11.38-1.84-16.43Zm-.97,13.89l-3.21-.93c.26-1.51.28-3.02.09-4.48l3.23-.8c.32,2.05.29,4.14-.11,6.2h0Zm-.68-9.43l-3.22.8c-.52-1.41-1.25-2.73-2.17-3.93l2.39-2.3c.64.81,1.23,1.66,1.74,2.58.51.92.92,1.88,1.26,2.85h0Zm-6.08,9.2c-.21.71-.48,1.4-.81,2.05-.86-1.41-1.85-2.74-2.93-4.02l.34-.69c.59-1.19.69-2.54.27-3.81-.28-.83-.77-1.54-1.4-2.11v-4.19c4.02,2.79,5.94,7.87,4.53,12.77h0Zm-81.35,2.05c-.33-.65-.6-1.33-.81-2.05-1.42-4.9.51-9.98,4.53-12.77v4.19c-.63.57-1.13,1.28-1.4,2.11-.42,1.27-.33,2.62.27,3.81l.34.69c-1.08,1.27-2.07,2.61-2.93,4.02Zm5.55-6.19c-.2-.4-.23-.85-.09-1.27.14-.42.44-.77.83-.96.23-.11.49-.17.74-.17.63,0,1.2.35,1.49.92l9.97,19.94c.2.4.23.85.09,1.27-.14.42-.44.76-.83.96-.8.4-1.83.05-2.23-.74l-9.97-19.94Zm11.46,24.18c.77,0,1.53-.18,2.22-.52,1.19-.59,2.08-1.62,2.5-2.88s.33-2.62-.27-3.81l-9.25-18.5c4.45-2.74,9.51-4.19,14.76-4.19h26.58c5.25,0,10.32,1.46,14.76,4.19l-9.25,18.5c-.59,1.19-.69,2.54-.27,3.81s1.31,2.29,2.5,2.88c.69.34,1.46.52,2.22.52h0v3.32H28.25v-3.32h0Zm4.98-33.23c-.92,0-1.66-.74-1.66-1.66s.74-1.66,1.66-1.66h36.55c.92,0,1.66.74,1.66,1.66s-.74,1.66-1.66,1.66h-36.55Zm43.02,28.99c-.4.79-1.43,1.14-2.22.74-.4-.2-.69-.54-.84-.96-.14-.42-.11-.87.09-1.27l9.97-19.93c.28-.57.86-.92,1.49-.92.25,0,.51.06.74.17.4.2.69.54.84.96.14.42.11.87-.09,1.27l-9.97,19.94Zm17.11-32.82l-2.4,2.31c-.88-.73-1.85-1.36-2.91-1.89v-3.23c0-.14-.03-.28-.04-.42,1.98.76,3.78,1.86,5.35,3.23Zm-13.62-7.79c2.75,0,4.98,2.24,4.98,4.98v9.97c-1.31,0-2.51.51-3.42,1.37-2.38-1.47-4.91-2.6-7.55-3.39.62-.83,1.01-1.85,1.01-2.97,0-1.29-.51-2.46-1.31-3.35,2.24-1.97,4.19-4.2,5.8-6.62h.5Zm6.65-29.91c.92,0,1.66.74,1.66,1.66v16.61c0,.92-.74,1.66-1.66,1.66h-2.72c.69-2.68,1.06-5.46,1.06-8.31,0-4.1-.78-8-2.14-11.63h3.8ZM16.62,41.54c-.92,0-1.66-.74-1.66-1.66v-16.61c0-.92.74-1.66,1.66-1.66h3.8c-1.36,3.63-2.14,7.53-2.14,11.63,0,2.85.37,5.63,1.06,8.31h-2.72ZM51.51,3.32c16.49,0,29.91,13.42,29.91,29.91,0,9.13-4.09,17.58-11.23,23.3-.13,0-.26-.04-.4-.04h-36.55c-.14,0-.27.03-.4.04-7.14-5.72-11.23-14.17-11.23-23.3,0-16.49,13.42-29.91,29.91-29.91h0Zm-28.24,48.18h.51c1.61,2.42,3.55,4.65,5.8,6.62-.81.89-1.32,2.06-1.32,3.35,0,1.12.38,2.14,1.01,2.97-2.64.78-5.18,1.92-7.55,3.39-.91-.86-2.12-1.37-3.42-1.37v-9.97c0-2.75,2.24-4.98,4.98-4.98h0Zm-8.31,4.98v3.23c-1.06.52-2.03,1.16-2.91,1.89l-2.4-2.31c1.58-1.37,3.37-2.46,5.35-3.23,0,.14-.04.28-.04.42Zm-7.61,5.2l2.39,2.3c-.92,1.19-1.65,2.52-2.17,3.93l-3.22-.8c.34-.97.75-1.93,1.25-2.85.51-.92,1.1-1.78,1.74-2.58h0Zm-3.68,14.86c-.4-2.07-.43-4.16-.11-6.21l3.23.8c-.19,1.46-.17,2.97.09,4.48l-3.21.93Zm.92,3.19l3.21-.93c.44,1.06,1,2.05,1.66,2.98-.53,1.17-.99,2.37-1.37,3.6-1.51-1.65-2.69-3.56-3.5-5.65Zm5.39,14.95c0-6.2,2.05-12.19,5.81-17.1l8,16.01c.29.57.68,1.07,1.14,1.48v4.6h-14.95v-4.98Zm83.07,4.98h-14.95v-4.6c.46-.41.85-.9,1.14-1.48l8-16.01c3.76,4.91,5.81,10.9,5.81,17.1v4.98Zm1.89-14.28c-.38-1.23-.84-2.43-1.37-3.6.67-.93,1.23-1.92,1.66-2.98l3.21.93c-.81,2.09-1.99,4-3.5,5.65Z"/></g></svg>