<?xml version="1.0" encoding="UTF-8"?><svg id="Layer_2" xmlns="http://www.w3.org/2000/svg" viewBox="0 0 98.87 98.84"><defs><style>.cls-1{fill:#6d67e4;}.cls-2,.cls-3{opacity:.2;}.cls-4{fill:#bdc3c7;}.cls-3,.cls-5{fill:#25223a;}</style></defs><g id="Layer_1-2"><path class="cls-1" d="m95.47,41.74l-6.44-17.12c-2.98-7.74-9.29-13.71-17.18-16.24l-17.46-5.47c-7.94-2.52-16.6-1.26-23.49,3.43l-15.27,10.2c-.56.38-1.12.77-1.65,1.2-6.02,4.66-9.85,11.6-10.58,19.18l-1.63,18.3c-.73,8.24,2.35,16.37,8.35,22.06l13.28,12.54c6.04,5.71,14.37,8.32,22.59,7.1l18.19-2.57c7.11-1.06,13.54-4.82,17.94-10.5.68-.87,1.3-1.77,1.86-2.72l9.36-15.87c4.28-7.1,5.07-15.77,2.14-23.53Z"/><path class="cls-3" d="m82.11,83.85c-4.41,5.68-10.83,9.44-17.94,10.5l-18.19,2.57c-8.22,1.22-16.55-1.39-22.59-7.1l-13.28-12.54c-6-5.7-9.08-13.82-8.35-22.06l1.63-18.3c.73-7.58,4.56-14.52,10.58-19.18-3.18,4.12-5.13,9.05-5.63,14.23l-1.63,18.3c-.73,8.24,2.35,16.37,8.35,22.06l13.28,12.54c6.04,5.71,14.37,8.32,22.59,7.1l18.19-2.57c4.74-.7,9.22-2.61,13-5.55Z"/><path class="cls-3" d="m37.9,34.59c0,5.46-4.43,9.89-9.89,9.89s-9.89-4.43-9.89-9.89,4.43-9.89,9.89-9.89,9.89,4.43,9.89,9.89Z"/><g class="cls-2"><path class="cls-5" d="m26.37,62.6c0,2.73-2.21,4.94-4.94,4.94s-4.94-2.21-4.94-4.94,2.21-4.94,4.94-4.94,4.94,2.21,4.94,4.94Z"/><path class="cls-5" d="m59.32,21.41c0,2.73-2.21,4.94-4.94,4.94s-4.94-2.21-4.94-4.94,2.21-4.94,4.94-4.94,4.94,2.21,4.94,4.94Z"/><path class="cls-5" d="m70.86,67.54c0,1.82-1.48,3.3-3.3,3.3s-3.3-1.48-3.3-3.3,1.48-3.3,3.3-3.3,3.3,1.48,3.3,3.3Z"/><path class="cls-5" d="m52.73,52.71c0,2.73-2.21,4.94-4.94,4.94s-4.94-2.21-4.94-4.94,2.21-4.94,4.94-4.94,4.94,2.21,4.94,4.94Z"/><path class="cls-5" d="m47.59,84.21c0,2.73-2.21,4.94-4.94,4.94s-4.94-2.21-4.94-4.94,2.21-4.94,4.94-4.94,4.94,2.21,4.94,4.94Z"/></g><path class="cls-4" d="m80.74,62.6c-.44,0-.86-.17-1.17-.48s-.48-.73-.48-1.17c0-.21.05-.43.13-.63.08-.2.2-.38.35-.54.48-.46,1.18-.6,1.8-.35.41.15.74.48.89.89.08.2.13.41.13.63,0,.44-.18.85-.48,1.17-.16.15-.34.27-.54.35-.2.08-.41.13-.63.13Z"/><path class="cls-4" d="m51.08,72.48c-.44,0-.86-.17-1.17-.48s-.48-.73-.48-1.17c0-.21.05-.43.13-.63.08-.2.2-.38.35-.54.48-.46,1.18-.6,1.8-.35.41.15.74.48.89.89.08.2.13.41.13.63,0,.44-.18.85-.48,1.17-.16.15-.34.27-.54.35-.2.08-.41.13-.63.13Z"/><path class="cls-4" d="m37.9,70.83c-.44,0-.86-.17-1.17-.48s-.48-.73-.48-1.17c0-.22.05-.43.13-.63.08-.2.2-.38.35-.54.48-.46,1.18-.6,1.8-.35.2.08.38.2.54.35.14.16.26.34.35.54.08.2.13.41.13.63.02.67-.39,1.28-1.02,1.52-.2.08-.41.13-.63.13Z"/><path class="cls-4" d="m52.73,37.88c-.44,0-.86-.17-1.17-.48s-.48-.73-.48-1.17c0-.22.05-.43.13-.63.08-.2.2-.38.35-.54.48-.46,1.18-.6,1.8-.35.2.08.38.2.54.35.14.16.26.34.35.54.08.2.13.41.13.63.02.67-.39,1.28-1.02,1.52-.2.08-.41.13-.63.13Z"/><path class="cls-3" d="m93.33,65.26l-9.36,15.87c-.56.94-1.19,1.85-1.86,2.72-2.33,1.81-4.93,3.24-7.71,4.22.48-.64.93-1.3,1.33-1.99l9.36-15.87c4.28-7.1,5.07-15.77,2.14-23.53l-6.44-17.12c-2.97-7.74-9.29-13.71-17.18-16.25l-17.46-5.47c-6.2-1.96-12.9-1.64-18.88.91l3.62-2.42c6.89-4.68,15.55-5.95,23.49-3.43l17.46,5.47c7.89,2.54,14.21,8.51,17.18,16.24l6.44,17.12c2.93,7.76,2.14,16.43-2.14,23.53Z"/><path class="cls-3" d="m87.33,39.53c0,5.46-4.43,9.89-9.89,9.89s-9.89-4.43-9.89-9.89,4.43-9.89,9.89-9.89,9.89,4.43,9.89,9.89Z"/><path d="m80.74,62.6c-.44,0-.86-.17-1.17-.48s-.48-.73-.48-1.17c0-.21.05-.43.13-.63.08-.2.2-.38.35-.54.48-.46,1.18-.6,1.8-.35.41.15.74.48.89.89.08.2.13.41.13.63,0,.44-.18.85-.48,1.17-.16.15-.34.27-.54.35-.2.08-.41.13-.63.13Z"/><path d="m51.08,72.48c-.44,0-.86-.17-1.17-.48s-.48-.73-.48-1.17c0-.21.05-.43.13-.63.08-.2.2-.38.35-.54.48-.46,1.18-.6,1.8-.35.41.15.74.48.89.89.08.2.13.41.13.63,0,.44-.18.85-.48,1.17-.16.15-.34.27-.54.35-.2.08-.41.13-.63.13Z"/><path d="m37.9,70.83c-.44,0-.86-.17-1.17-.48s-.48-.73-.48-1.17c0-.22.05-.43.13-.63.08-.2.2-.38.35-.54.48-.46,1.18-.6,1.8-.35.2.08.38.2.54.35.14.16.26.34.35.54.08.2.13.41.13.63.02.67-.39,1.28-1.02,1.52-.2.08-.41.13-.63.13Z"/><path d="m52.73,37.88c-.44,0-.86-.17-1.17-.48s-.48-.73-.48-1.17c0-.22.05-.43.13-.63.08-.2.2-.38.35-.54.48-.46,1.18-.6,1.8-.35.2.08.38.2.54.35.14.16.26.34.35.54.08.2.13.41.13.63.02.67-.39,1.28-1.02,1.52-.2.08-.41.13-.63.13Z"/><path d="m90.57,24.04c-3.18-8.19-9.87-14.52-18.23-17.24L54.87,1.32C46.45-1.31,37.29.03,29.97,4.96l-15.27,10.19C7.33,20.03,2.57,27.98,1.74,36.77L.12,55.07c-.8,8.75,2.47,17.37,8.86,23.4l13.27,12.52c5.31,5.06,12.37,7.87,19.7,7.85,1.42,0,2.84-.1,4.24-.3l18.2-2.57c8.75-1.26,16.46-6.4,21-13.99l9.35-15.86c4.55-7.53,5.39-16.73,2.27-24.96l-6.45-17.11Zm1.35,40.39h0s-9.36,15.86-9.36,15.86c-4.02,6.73-10.86,11.29-18.62,12.42l-18.2,2.57c-7.72,1.17-15.55-1.29-21.22-6.67l-13.28-12.53c-5.66-5.33-8.55-12.97-7.84-20.72l1.62-18.29c.74-7.8,4.96-14.85,11.5-19.19l15.29-10.2c6.49-4.37,14.61-5.56,22.08-3.22l17.46,5.48c7.4,2.41,13.33,8.01,16.15,15.26l6.44,17.1c2.76,7.29,2.01,15.44-2.02,22.11h0Z"/><path d="m77.45,28c-5.5,0-10.24,3.89-11.31,9.28-1.07,5.4,1.81,10.8,6.9,12.91,5.08,2.11,10.95.33,14-4.25,3.06-4.58,2.46-10.67-1.43-14.56-2.16-2.17-5.09-3.39-8.15-3.38Zm5.82,17.36c-2.78,2.78-7.13,3.21-10.4,1.02-3.27-2.18-4.54-6.37-3.03-10,1.5-3.63,5.36-5.69,9.22-4.93,3.85.77,6.63,4.15,6.63,8.08,0,2.19-.86,4.28-2.41,5.83Z"/><path d="m39.55,34.59c0-5.5-3.89-10.24-9.28-11.31-5.4-1.07-10.8,1.81-12.91,6.9-2.11,5.08-.33,10.95,4.25,14,4.58,3.06,10.67,2.46,14.56-1.43,2.17-2.16,3.39-5.09,3.38-8.16Zm-11.53,8.24c-3.93,0-7.31-2.78-8.08-6.63-.77-3.85,1.3-7.71,4.93-9.22,3.63-1.5,7.82-.23,10,3.03s1.75,7.62-1.03,10.4c-1.54,1.55-3.64,2.42-5.82,2.41Z"/><path d="m21.43,56c-3.14,0-5.85,2.22-6.47,5.3-.61,3.08,1.04,6.17,3.94,7.38,2.91,1.2,6.26.19,8-2.43,1.75-2.61,1.41-6.1-.82-8.32-1.23-1.24-2.91-1.94-4.66-1.93Zm2.33,8.92c-1.3,1.25-3.36,1.25-4.66,0-.94-.94-1.22-2.36-.71-3.59s1.71-2.03,3.04-2.03,2.53.8,3.04,2.03.23,2.65-.71,3.59Z"/><path d="m54.38,14.81c-3.14,0-5.85,2.22-6.46,5.3-.61,3.08,1.04,6.17,3.94,7.38,2.9,1.2,6.25.19,8-2.43s1.4-6.1-.82-8.32c-1.23-1.24-2.91-1.93-4.66-1.93Zm2.33,8.92c-1.3,1.25-3.36,1.25-4.66,0-.94-.94-1.22-2.36-.71-3.59.51-1.23,1.71-2.03,3.04-2.03s2.53.8,3.04,2.03c.51,1.23.23,2.65-.71,3.59Z"/><path d="m64.11,64.04c-1.25,1.25-1.74,3.07-1.28,4.77.46,1.71,1.79,3.04,3.49,3.5,1.71.46,3.53-.03,4.77-1.28,1.9-1.93,1.89-5.04-.03-6.96s-5.03-1.93-6.96-.03h0Zm4.61,4.66c-.56.56-1.43.64-2.08.2-.65-.44-.91-1.27-.61-2,.3-.73,1.07-1.14,1.84-.98.77.15,1.33.83,1.33,1.62,0,.44-.17.86-.48,1.17Z"/><path d="m47.79,46.12c-3.14,0-5.85,2.22-6.47,5.3-.61,3.08,1.04,6.17,3.94,7.38,2.9,1.2,6.25.19,8-2.43s1.4-6.1-.82-8.32c-1.23-1.24-2.91-1.94-4.66-1.93Zm2.33,8.92c-1.3,1.25-3.36,1.25-4.66,0-.94-.94-1.22-2.36-.71-3.59.51-1.23,1.71-2.03,3.04-2.03s2.53.8,3.04,2.03.23,2.65-.71,3.59Z"/><path d="m42.65,77.62c-3.14,0-5.85,2.22-6.46,5.31-.61,3.08,1.04,6.17,3.94,7.37,2.9,1.2,6.25.19,8-2.43,1.75-2.61,1.4-6.1-.82-8.32-1.23-1.24-2.91-1.93-4.66-1.93Zm2.33,8.92c-1.3,1.24-3.35,1.24-4.66,0-.94-.94-1.22-2.36-.71-3.59.51-1.23,1.71-2.03,3.04-2.03s2.53.8,3.04,2.03c.51,1.23.23,2.65-.71,3.59Z"/></g></svg>