<?xml version="1.0" encoding="UTF-8"?><svg id="Layer_2" xmlns="http://www.w3.org/2000/svg" viewBox="0 0 98.87 98.87"><defs><style>.cls-1{fill:#00c67f;}.cls-2{fill:#6d67e4;}.cls-3{opacity:.2;}.cls-4{fill:#46c2cb;}.cls-5{fill:#5d5dd1;}.cls-6{fill:#02bab7;}.cls-7{fill:#f2f7a1;}</style></defs><g id="Layer_1-2"><path class="cls-5" d="m7.39,65.19c9.86-13.34,67.78-35.07,84.07-31.49l5.65-2.05c-3.91-9.74-33.89-.52-51.97,6-12.18,4.56-23.32,9.81-31.35,14.8C4.1,58.47.27,63.16,1.74,67.24l5.65-2.05Z"/><circle class="cls-4" cx="49.42" cy="49.44" r="36.65"/><path class="cls-6" d="m49.42,12.79c-.98,0-1.94.04-2.9.11,18.89,1.48,33.75,17.27,33.75,36.53s-14.86,35.06-33.75,36.53c.96.07,1.92.11,2.9.11,20.24,0,36.65-16.41,36.65-36.65S69.66,12.79,49.42,12.79h0Z"/><circle class="cls-1" cx="17.64" cy="89.7" r="7.72"/><path class="cls-3" d="m17.64,81.98c-1.02,0-2,.2-2.9.56,2.83,1.15,4.83,3.92,4.83,7.16s-2,6.01-4.83,7.16c.89.36,1.87.56,2.9.56,4.27,0,7.72-3.46,7.72-7.72s-3.46-7.72-7.72-7.72Z"/><circle class="cls-7" cx="68.6" cy="13.23" r="11.78"/><path class="cls-3" d="m68.6,1.45c-1,0-1.97.13-2.9.36,5.1,1.29,8.88,5.91,8.88,11.42s-3.78,10.13-8.88,11.42c.93.23,1.9.36,2.9.36,6.51,0,11.78-5.27,11.78-11.78s-5.27-11.78-11.78-11.78Z"/><path class="cls-2" d="m91.46,33.7c-.63,1.2-3.31,4.18-11.01,8.76-14.85,8.98-42,19.15-59.11,22.12-8.74,1.58-12.7,1.09-13.96.61l-5.65,2.05c1.19,3.37,5.53,4.25,9.7,4.2,19.31-.23,56.14-14.02,73.62-25,9.69-6.02,13.52-10.72,12.06-14.79l-5.65,2.05Z"/><path d="m17.64,80.53c-5.06,0-9.17,4.12-9.17,9.17s4.12,9.17,9.17,9.17,9.17-4.12,9.17-9.17-4.12-9.17-9.17-9.17Zm0,15.45c-3.46,0-6.28-2.82-6.28-6.28s2.82-6.28,6.28-6.28,6.28,2.82,6.28,6.28-2.82,6.28-6.28,6.28Z"/><path d="m98.49,31.16s-.01-.03-.02-.04c0,0,0,0,0,0,0,0,0,0,0-.01-.01-.03-.03-.07-.04-.1-1.06-2.52-3.52-4.12-7.31-4.74-2.89-.47-6.67-.38-11.24.26-.84-1.11-1.74-2.18-2.7-3.2,2.98-2.53,4.83-6.35,4.67-10.58C81.58,5.75,75.82.12,68.83,0c-6.92-.11-12.66,5.11-13.37,11.82-1.98-.32-4-.48-6.03-.48-8.66,0-17.14,2.99-23.88,8.41-6.63,5.34-11.34,12.83-13.24,21.08-.18.78.31,1.56,1.09,1.74.11.03.22.04.33.04.66,0,1.26-.45,1.41-1.12,1.76-7.62,6.11-14.54,12.24-19.48,6.31-5.08,13.94-7.77,22.06-7.77,2.03,0,4.06.18,6.04.52.76,6.58,6.36,11.7,13.14,11.7,2.2,0,4.28-.54,6.11-1.5,3.87,4,6.74,8.85,8.37,14.15-.99.65-2.1,1.35-3.38,2.11-14.78,8.94-41.62,18.98-58.62,21.93-1.42.26-2.68.45-3.83.61-.71-1.58-1.29-3.2-1.75-4.86-.01-.05-.03-.11-.04-.16-.82-3.01-1.24-6.12-1.24-9.31,0-.68.02-1.36.06-2.03.05-.8-.57-1.48-1.36-1.53-.8-.04-1.48.57-1.53,1.36-.04.72-.06,1.46-.06,2.19,0,.94.04,1.87.1,2.8-4.31,2.8-7.32,5.31-9.16,7.66-2.13,2.71-2.77,5.33-1.91,7.78,0,.01,0,.03.01.04.84,2.37,3.38,5.17,10.75,5.17.11,0,.22,0,.34,0,2.24-.03,4.74-.23,7.48-.61,3.39,4.52,7.79,8.27,12.78,10.9,5.42,2.85,11.55,4.36,17.71,4.36,11.19,0,21.76-4.89,29.02-13.41.52-.61.45-1.52-.16-2.04-.61-.52-1.52-.44-2.04.16-6.71,7.88-16.48,12.39-26.81,12.39s-20.55-4.77-27.21-12.87c2.4-.42,4.95-.95,7.65-1.6.67-.16,1.17-.75,1.15-1.44-.02-.96-.91-1.6-1.79-1.39-3.56.85-6.83,1.5-9.82,1.94,0,0-.02,0-.02,0-2.96.44-5.62.67-7.97.7-5.91.07-7.78-1.72-8.32-3.23t0,0s0,0,0,0c-1.05-2.91,1.8-6.61,8.7-11.28.17,1.06.38,2.1.63,3.14-2.8,2.03-4.88,3.94-6.18,5.68,0,0-.01.01-.02.02,0,0-.01.02-.02.02,0,0-.01.02-.02.03-.02.03-.04.05-.05.08-.01.02-.02.03-.03.05-.01.02-.03.05-.04.07-.01.02-.02.05-.03.07,0,.01-.01.03-.02.04,0,0,0,.01,0,.02,0,.03-.02.05-.03.08,0,.02-.01.04-.02.06,0,.02-.01.04-.01.07,0,.03-.01.05-.01.08,0,.02,0,.03,0,.05,0,.03,0,.06,0,.09,0,.01,0,.02,0,.04,0,.04,0,.07,0,.11,0,0,0,.02,0,.03,0,.04,0,.07.01.11,0,0,0,.02,0,.03,0,.04.01.07.02.11,0,.01,0,.02.01.04,0,.03.02.06.03.09,0,.02.01.03.02.05.01.03.02.05.03.08,0,.02.02.04.03.05.01.02.02.05.04.07.01.02.02.03.03.05.01.02.03.05.04.07.01.01.02.03.03.04.02.02.04.05.06.07,0,.01.02.02.03.03.02.02.05.05.07.07,0,0,.02.02.03.02.03.02.06.05.08.07,0,0,0,0,.01,0,0,0,0,0,.01,0,.06.04.12.08.19.12,0,0,0,0,0,0,.04.02.09.04.14.06.6.23,1.93.57,4.52.57,2.29,0,5.57-.27,10.21-1.11,17.28-3,44.57-13.22,59.6-22.3,8.71-5.18,10.97-8.25,11.54-9.33.02-.04.04-.08.05-.12,0,0,0,0,0,0,.03-.08.05-.15.07-.23,0,0,0,0,0-.01s0,0,0-.01c0-.04.01-.07.02-.11,0-.01,0-.02,0-.03,0-.03,0-.07,0-.1,0-.01,0-.03,0-.04,0-.03,0-.06,0-.09,0-.02,0-.03,0-.05,0-.03,0-.05-.01-.08,0-.02,0-.04,0-.06,0-.03-.01-.05-.02-.08,0-.02,0-.04-.01-.06,0-.03-.02-.05-.03-.08,0-.02-.01-.03-.02-.05-.01-.03-.03-.06-.04-.09,0-.01-.01-.02-.02-.04-.02-.03-.03-.06-.05-.09,0,0-.01-.02-.02-.03-.02-.03-.04-.06-.06-.09,0,0-.01-.02-.02-.02-.02-.03-.04-.05-.07-.08,0,0-.02-.02-.03-.03-.02-.02-.04-.04-.06-.06-.01-.01-.03-.03-.04-.04-.02-.02-.04-.03-.06-.04-.02-.02-.04-.03-.06-.04-.02-.01-.03-.02-.05-.03-.02-.02-.05-.03-.08-.04,0,0-.01,0-.02,0-.01,0-.02-.01-.04-.02-.03-.01-.05-.02-.08-.04-.02,0-.05-.02-.07-.03-.02,0-.04-.02-.06-.02-.03,0-.06-.02-.09-.02-.01,0-.02,0-.04,0-.01,0-.02,0-.03,0,0,0-.01,0-.02,0-2.13-.46-4.96-.54-8.4-.23-.5-.97-1.04-1.92-1.62-2.84,8.03-.95,12.87.06,14.06,2.97,1.14,3.27-2.61,7.53-11.47,13.04-11.59,7.28-31.76,15.74-49.05,20.57-.77.22-1.22,1.01-1,1.78.18.64.76,1.06,1.39,1.06.13,0,.26-.02.39-.05,16.94-4.74,36.64-12.93,48.59-20.16,0,.34.02.68.02,1.02,0,6.29-1.68,12.46-4.86,17.85-.35.59-.26,1.36.25,1.82.29.26.64.38.98.38.5,0,.98-.25,1.25-.71,3.45-5.84,5.27-12.53,5.27-19.35,0-.93-.03-1.87-.1-2.79,4.17-2.71,7.12-5.15,8.97-7.42,2.3-2.82,3-5.53,2.09-8.07h0ZM58.27,13.23c0-5.7,4.63-10.33,10.33-10.33s10.33,4.63,10.33,10.33-4.63,10.33-10.33,10.33-10.33-4.63-10.33-10.33h0ZM10.21,64.18c.85-.83,1.88-1.71,3.09-2.62.29.85.6,1.69.95,2.52-1.76.14-3.07.15-4.04.1Zm78.46-29.39c-.69.67-1.69,1.53-3.11,2.58-.29-.85-.6-1.7-.94-2.53,1.51-.1,2.86-.12,4.05-.05h0Z"/></g></svg>