<?xml version="1.0" encoding="UTF-8"?><svg id="Layer_2" xmlns="http://www.w3.org/2000/svg" viewBox="0 0 98.87 98.87"><defs><style>.cls-1{opacity:.2;}.cls-2{fill:#ddda76;}.cls-3{fill:#eded8e;}.cls-4{fill:#f2f7a1;}</style></defs><g id="Layer_1-2"><path class="cls-3" d="m96.86,57.4l-2.7-2.89c-2.66-2.85-2.66-7.27,0-10.12l2.7-2.89c.84-.9.55-2.37-.57-2.88l-3.61-1.65c-3.54-1.62-5.23-5.69-3.87-9.34l1.39-3.72c.43-1.16-.4-2.4-1.63-2.44l-3.95-.14c-3.89-.13-7.02-3.26-7.15-7.15l-.14-3.95c-.04-1.23-1.28-2.06-2.44-1.63l-3.72,1.39c-3.65,1.36-7.72-.33-9.34-3.87l-1.65-3.61c-.51-1.12-1.98-1.41-2.88-.57l-2.89,2.7c-2.14,2-5.16,2.49-7.74,1.49h-3.66l-14.39,9.71-9.95,16.41v40.88l20.15,17.57,7.85,2.05c2.58-1,5.6-.5,7.74,1.49l2.89,2.7c.9.84,2.37.55,2.88-.57l1.65-3.61c1.62-3.54,5.69-5.23,9.34-3.87l3.72,1.39c1.16.43,2.4-.4,2.44-1.63l.14-3.95c.13-3.89,3.26-7.02,7.15-7.15l3.95-.14c1.23-.04,2.06-1.28,1.63-2.44l-1.39-3.72c-1.36-3.65.33-7.72,3.87-9.34l3.61-1.65c1.12-.51,1.41-1.98.57-2.88h0Z"/><path class="cls-2" d="m17.69,49.44c0-19.57,12.01-36.33,29.07-43.31-.86-.33-1.67-.83-2.38-1.49l-2.89-2.7c-.9-.84-2.37-.55-2.88.57l-1.65,3.61c-1.62,3.54-5.69,5.23-9.34,3.87l-3.72-1.39c-1.16-.43-2.4.4-2.44,1.63l-.14,3.95c-.13,3.89-3.26,7.02-7.15,7.15l-3.95.14c-1.23.04-2.06,1.28-1.63,2.44l1.39,3.72c1.36,3.65-.33,7.72-3.87,9.34l-3.61,1.65c-1.12.51-1.41,1.98-.57,2.88l2.7,2.89c2.66,2.85,2.66,7.27,0,10.12l-2.7,2.89c-.84.9-.55,2.37.57,2.88l3.61,1.65c3.54,1.62,5.23,5.69,3.87,9.34l-1.39,3.72c-.43,1.16.4,2.4,1.63,2.44l3.95.14c3.89.13,7.02,3.26,7.15,7.15l.14,3.95c.04,1.23,1.28,2.06,2.44,1.63l3.72-1.39c3.65-1.36,7.72.33,9.34,3.87l1.65,3.61c.51,1.12,1.98,1.41,2.88.57l2.89-2.7c.71-.66,1.52-1.16,2.38-1.49-17.05-6.98-29.07-23.74-29.07-43.31h0Z"/><path class="cls-4" d="m55.89,15.78c-14.5,4.32-25.08,17.75-25.08,33.65s10.58,29.33,25.08,33.65c15.84-3.02,27.81-16.93,27.81-33.65s-11.97-30.64-27.81-33.65Z"/><path class="cls-1" d="m31.46,49.44c0-16.12,11.13-29.63,26.12-33.29-2.61-.64-5.33-.98-8.14-.98-18.92,0-34.26,15.34-34.26,34.26s15.34,34.26,34.26,34.26c2.81,0,5.53-.34,8.14-.98-14.99-3.65-26.12-17.17-26.12-33.28h0Z"/><path d="m.88,56.4c-.71.76-1.02,1.83-.81,2.86.2,1.02.89,1.9,1.84,2.33l3.61,1.65c2.83,1.29,4.2,4.59,3.11,7.51l-1.39,3.72c-.36.98-.24,2.08.34,2.95.58.87,1.55,1.41,2.59,1.44l3.95.14c3.12.11,5.65,2.64,5.76,5.76l.14,3.95c.04,1.04.58,2.01,1.44,2.59s1.97.71,2.95.34l3.72-1.39c2.92-1.09,6.22.28,7.51,3.11l1.65,3.61c.43.95,1.3,1.64,2.33,1.84,1.03.2,2.09-.1,2.86-.81l2.89-2.7c.4-.38.86-.7,1.35-.95.71-.36.99-1.24.63-1.95-.36-.71-1.24-.99-1.95-.63-.73.38-1.41.85-2.01,1.41l-2.89,2.7c-.11.1-.23.11-.32.09s-.19-.06-.26-.2l-1.65-3.61c-1.92-4.21-6.82-6.24-11.16-4.62l-3.72,1.39c-.14.05-.26,0-.33-.04s-.15-.13-.16-.29l-.14-3.95c-.16-4.63-3.92-8.39-8.55-8.55l-3.95-.14c-.15,0-.24-.09-.29-.16-.05-.07-.09-.18-.04-.33l1.39-3.72c1.62-4.34-.41-9.24-4.62-11.16l-3.61-1.65c-.14-.06-.19-.17-.2-.26-.02-.08-.01-.2.09-.32l2.7-2.89c3.17-3.39,3.17-8.71,0-12.1l-2.7-2.89c-.1-.11-.11-.23-.09-.32.02-.08.07-.19.2-.26l3.61-1.65c4.21-1.92,6.24-6.82,4.62-11.16l-1.39-3.72c-.05-.14,0-.26.04-.33.05-.07.13-.15.29-.16l3.95-.14c4.63-.16,8.39-3.92,8.55-8.55l.14-3.95c0-.15.09-.24.16-.29.07-.05.18-.09.33-.04l3.72,1.39c4.34,1.62,9.24-.41,11.16-4.62l1.65-3.61c.06-.14.17-.19.26-.2.08-.02.2-.01.32.09l2.89,2.7c3.39,3.17,8.71,3.17,12.1,0l2.89-2.7c.11-.1.23-.11.32-.09.08.02.19.06.26.2l1.65,3.61c1.92,4.21,6.82,6.24,11.16,4.62l3.72-1.39c.14-.05.26,0,.33.04.07.05.15.13.16.29l.14,3.95c.16,4.63,3.92,8.39,8.55,8.55l3.95.14c.15,0,.24.09.29.16.05.07.09.18.04.33l-1.39,3.72c-1.62,4.34.41,9.24,4.62,11.16l3.61,1.65c.14.06.19.17.2.26s.01.2-.09.32l-2.7,2.89c-3.17,3.39-3.17,8.71,0,12.1l2.7,2.89c.1.11.11.23.09.32-.02.08-.06.19-.2.26l-3.61,1.65c-4.21,1.92-6.24,6.82-4.62,11.16l1.39,3.72c.05.14,0,.26-.04.33-.05.07-.13.15-.29.16l-3.95.14c-4.63.16-8.39,3.92-8.55,8.55l-.14,3.95c0,.15-.09.24-.16.29s-.18.09-.33.04l-3.72-1.39c-4.34-1.62-9.24.41-11.16,4.62l-1.65,3.61c-.06.14-.17.19-.26.2-.08.02-.2.01-.32-.09l-2.89-2.7c-.6-.56-1.28-1.03-2.01-1.41-.71-.36-1.58-.08-1.95.63-.36.71-.08,1.58.63,1.95.49.25.95.57,1.35.95l2.89,2.7c.61.57,1.41.88,2.23.88.21,0,.42-.02.63-.06,1.02-.2,1.9-.89,2.33-1.84l1.65-3.61c1.29-2.83,4.59-4.2,7.51-3.11l3.72,1.39c.98.36,2.08.24,2.95-.34.87-.58,1.41-1.55,1.44-2.59l.14-3.95c.11-3.12,2.64-5.65,5.76-5.76l3.95-.14c1.04-.04,2.01-.58,2.59-1.44.58-.87.71-1.97.34-2.95l-1.39-3.72c-1.09-2.92.28-6.22,3.11-7.51l3.61-1.65c.95-.43,1.64-1.3,1.84-2.33.2-1.02-.1-2.09-.81-2.86l-2.7-2.89c-2.13-2.28-2.13-5.86,0-8.14l2.7-2.89c.71-.76,1.02-1.83.81-2.86-.2-1.02-.89-1.9-1.84-2.33l-3.61-1.65c-2.83-1.29-4.2-4.59-3.11-7.51l1.39-3.72c.36-.98.24-2.08-.34-2.95-.58-.87-1.55-1.41-2.59-1.44l-3.95-.14c-3.12-.11-5.65-2.64-5.76-5.76l-.14-3.95c-.04-1.04-.58-2.01-1.44-2.59-.87-.58-1.97-.71-2.95-.34l-3.72,1.39c-2.92,1.09-6.22-.28-7.51-3.11l-1.65-3.61c-.43-.95-1.3-1.64-2.33-1.84-1.02-.2-2.09.1-2.86.81l-2.89,2.7c-2.28,2.13-5.86,2.13-8.14,0l-2.89-2.7c-.76-.71-1.83-1.02-2.86-.81-1.02.2-1.89.89-2.33,1.84l-1.65,3.61c-1.29,2.83-4.59,4.2-7.51,3.11l-3.72-1.39c-.98-.36-2.08-.24-2.95.34-.87.58-1.41,1.55-1.44,2.59l-.14,3.95c-.11,3.12-2.64,5.65-5.76,5.76l-3.95.14c-1.04.04-2.01.58-2.59,1.44-.58.87-.71,1.97-.34,2.95l1.39,3.72c1.09,2.92-.28,6.22-3.11,7.51l-3.61,1.65c-.95.43-1.64,1.3-1.84,2.33-.2,1.02.1,2.09.81,2.86l2.7,2.89c2.13,2.28,2.13,5.86,0,8.14l-2.7,2.89Z"/><path d="m49.44,16.62c16.96,0,31,12.71,32.65,29.57.08.8.79,1.38,1.58,1.3.8-.08,1.38-.79,1.3-1.58-1.78-18.14-17.07-32.19-35.54-32.19-19.69,0-35.71,16.02-35.71,35.71s16.02,35.71,35.71,35.71c18.46,0,33.76-14.05,35.54-32.19.08-.8-.5-1.5-1.3-1.58-.8-.08-1.5.5-1.58,1.3-1.65,16.86-15.69,29.57-32.65,29.57-18.09,0-32.81-14.72-32.81-32.81S31.34,16.62,49.44,16.62h0Z"/></g></svg>