<?xml version="1.0" encoding="UTF-8"?><svg id="Layer_2" xmlns="http://www.w3.org/2000/svg" viewBox="0 0 92.7 92.77"><defs><style>.cls-1{opacity:.2;}.cls-1,.cls-2{fill:#323232;}.cls-3{fill:#a8edef;}.cls-4{fill:#46c2cb;}</style></defs><g id="Layer_1-2"><g id="Fill_Outline"><g id="Color"><path class="cls-3" d="m5.83,34.53c1.16-.61,2.13-1.52,2.83-2.63.69-1.13,1.06-2.42,1.09-3.75-.09-5.32,1.96-10.45,5.69-14.25C33.37-3.15,61.73-2.45,78.8,15.47c10.48,11.01,14.66,26.58,11.12,41.36-.54,2.42-2.05,4.5-4.19,5.76-.45.25-.87.55-1.25.9l-1.73,1.54c-.94.85-1.66,1.93-2.07,3.14l-.26.77c-.42,1.37-.67,2.79-.74,4.23-.12,2.19-1.05,4.25-2.62,5.78-13.54,12.74-33.55,15.81-50.29,7.71-2.45-1.17-4.22-3.39-4.8-6.04-.26-1.28-.85-2.46-1.71-3.43l-.64-.71c-1.58-1.76-3.59-3.08-5.84-3.83l-1.18-.39s-.02,0-.03-.02c-2.33-.7-4.3-2.27-5.52-4.37C2.29,59.17.54,49.13,2.1,39.32c.34-2.04,1.65-3.79,3.51-4.69l.22-.11Z"/><path class="cls-4" d="m80.83,67.8c-.06.12-.11.24-.15.37l-.26.77c-.42,1.37-.67,2.79-.74,4.22-.11,2.19-1.04,4.26-2.61,5.79-13.54,12.74-33.55,15.81-50.29,7.71-2.45-1.17-4.22-3.39-4.8-6.04-.26-1.28-.85-2.46-1.71-3.43l-.63-.71c-1.58-1.76-3.6-3.08-5.84-3.83l-1.17-.39s-.02,0-.03-.02c-2.33-.7-4.3-2.27-5.52-4.37-3.63-6.6-5.53-14.01-5.52-21.54,0-2.35.18-4.69.56-7.01.33-2.04,1.64-3.8,3.51-4.7l.22-.09c1.16-.62,2.14-1.53,2.84-2.64.69-1.13,1.06-2.42,1.08-3.74-.08-5.32,1.96-10.45,5.69-14.24,3.6-3.44,7.75-6.25,12.28-8.31-3.24,5.84-5.12,12.35-5.48,19.02-.08,2.43.76,4.8,2.36,6.63t.02.03l.79.96c1.51,1.82,2.52,4,2.92,6.33l.17.94c.22,1.28.09,2.6-.37,3.82-.91,2.55-.58,5.38.88,7.66,9.89,15.75,28.48,23.76,46.72,20.11,2.05-.44,3.87-1.61,5.11-3.31h0Z"/><path class="cls-3" d="m22.93,9.3l-3.94-2.04c-1.91-.99-4.27-.24-5.26,1.67-.15.28-.26.58-.33.89-.18.75-.57,1.43-1.14,1.95l-.59.55c-1.48,1.38-1.66,3.66-.42,5.25l2.07,2.65,9.61-10.94Z"/><path class="cls-1" d="m12.03,12.2c2.22-.7,4.5-1.24,6.8-1.61,1.33-.17,2.59-.7,3.65-1.52l.45.23-9.61,10.94-2.07-2.66c-1.24-1.59-1.06-3.87.42-5.25l.37-.12Z"/><path class="cls-3" d="m70.21,80.99l1.02,2.09c.7,1.45.1,3.19-1.34,3.89-.15.08-.31.14-.48.18h-.04c-.72.21-1.33.69-1.71,1.33-.82,1.38-2.6,1.84-3.98,1.03-.14-.09-.28-.18-.41-.29l-3.52-3,10.47-5.23Z"/><path class="cls-3" d="m35.52,25.8l1.73,1.94c1.75,1.97,2.32,4.72,1.49,7.22-.58,1.73-1.78,3.19-3.38,4.08l-1.77.99c-1.8,1.01-3.95,1.21-5.91.56l-1.8-.6c-1.21-.41-2.3-1.12-3.15-2.07l-1.54-1.73c-1.85-2.07-2.37-5.02-1.35-7.6l.6-1.52c.85-2.15,2.67-3.77,4.9-4.38h.01c1.4-.38,2.88-.34,4.25.12l2.78.93c1.21.41,2.29,1.12,3.14,2.07h0Z"/><path class="cls-3" d="m50.43,66.58l1.49-1c2.39-1.59,5.5-1.59,7.89,0l.36.24c1.98,1.32,3.17,3.54,3.17,5.92v.6c0,3.27-2.22,6.11-5.39,6.9l-1.52.38c-1.94.49-4.01.13-5.67-.98l-.33-.22c-2.68-1.78-3.83-5.13-2.81-8.18.5-1.5,1.49-2.79,2.81-3.66h0Z"/><path class="cls-3" d="m61.51,33.15l.93-.62c1.48-.99,3.41-.99,4.9,0l.22.15c1.23.82,1.96,2.19,1.96,3.67v.37c0,2.03-1.38,3.79-3.34,4.28l-.94.23c-1.21.3-2.48.08-3.52-.61l-.21-.14c-1.66-1.1-2.37-3.18-1.74-5.07.31-.93.92-1.73,1.74-2.28h0Z"/><path class="cls-3" d="m81.6,51.68l.93-.62c1.48-.99,3.41-.99,4.9,0l.22.15c1.23.82,1.96,2.2,1.96,3.67v.37c0,2.03-1.38,3.79-3.34,4.28l-.94.23c-1.21.3-2.48.08-3.52-.61l-.21-.14c-1.66-1.1-2.37-3.18-1.74-5.07.31-.93.92-1.73,1.74-2.28h0Z"/><path class="cls-3" d="m38.34,47.05l.93-.62c1.48-.99,3.41-.99,4.9,0l.22.15c1.23.82,1.96,2.2,1.96,3.67v.37c0,2.03-1.38,3.79-3.34,4.28l-.94.23c-1.21.3-2.48.08-3.52-.61l-.21-.14c-1.66-1.1-2.37-3.18-1.74-5.07.31-.93.92-1.73,1.74-2.28Z"/><path class="cls-3" d="m47.61,13.06l.93-.62c1.48-.99,3.41-.99,4.9,0l.22.15c1.23.82,1.96,2.2,1.96,3.67v.37c0,2.03-1.38,3.79-3.34,4.28l-.94.23c-1.21.3-2.48.08-3.52-.61l-.21-.14c-1.66-1.1-2.37-3.18-1.74-5.07.31-.93.92-1.73,1.74-2.28h0Z"/><circle class="cls-3" cx="66.43" cy="50.98" r="3.09"/><circle class="cls-3" cx="32.44" cy="75.7" r="3.09"/><circle class="cls-3" cx="24.72" cy="58.7" r="3.09"/><path class="cls-3" d="m13.52,55.82v.6c0,3.27-2.22,6.11-5.39,6.91l-1.53.37c-.49.13-1,.19-1.51.2-1.89-4.43-3.05-9.14-3.43-13.94l.45-.29c2.39-1.61,5.51-1.61,7.89,0l.36.23c1.98,1.32,3.17,3.54,3.17,5.92h0Z"/><path class="cls-3" d="m91.09,43.99c-1.07.14-2.15.03-3.17-.31l-1.81-.6c-1.21-.41-2.29-1.12-3.14-2.07l-1.54-1.73c-1.85-2.07-2.38-5.02-1.34-7.6l.6-1.53c.85-2.15,2.67-3.77,4.9-4.37h.02c.15-.05.29-.08.45-.11,2.98,5.67,4.7,11.92,5.04,18.32h0Z"/><path class="cls-1" d="m28.49,39.52l-.17-.94c-.4-2.33-1.41-4.52-2.92-6.33l-.79-.96s-.02-.02-.02-.03c-1.6-1.83-2.45-4.2-2.36-6.63,0-.06,0-.12.02-.18-.79.74-1.41,1.64-1.81,2.64l-.6,1.52c-1.03,2.58-.51,5.53,1.35,7.6l1.54,1.73c.85.95,1.93,1.67,3.15,2.08l1.8.6c.3.09.6.15.9.2.01-.43-.02-.87-.08-1.3h0Z"/><path class="cls-1" d="m37.25,27.74l-1.73-1.94c-.85-.95-1.94-1.67-3.15-2.07l-2.78-.93c-1.37-.46-2.85-.5-4.25-.12h-.01c-.95.26-1.84.71-2.61,1.33.76,0,1.52.1,2.24.34l2.78.93c1.21.41,2.3,1.12,3.15,2.07l1.73,1.94c2.7,3.02,2.44,7.67-.59,10.37-.4.36-.84.67-1.3.93l-.62.34c1.22,0,2.41-.31,3.48-.9l1.77-.99c3.54-1.98,4.8-6.45,2.82-9.99-.26-.47-.57-.91-.93-1.3h0Z"/><path class="cls-1" d="m60.17,65.82l-.36-.24c-2.39-1.59-5.5-1.59-7.89,0l-1.49,1c-3.27,2.18-4.15,6.6-1.97,9.87.52.78,1.19,1.45,1.97,1.97l.33.22c1.67,1.11,3.73,1.47,5.67.98l1.52-.38c3.17-.79,5.39-3.64,5.39-6.9v-.6c0-2.38-1.19-4.6-3.17-5.92h0Zm-11.34,2.34s.03-.03.05-.04l1.49-1c2.39-1.59,5.5-1.59,7.89,0l.36.24c1.5,1,2.57,2.54,2.98,4.3-4.41-.53-8.71-1.71-12.77-3.51h0Z"/><path class="cls-1" d="m69.52,36.35v.37c0,2.02-1.38,3.79-3.34,4.28l-.9.22c.74-.81,1.15-1.86,1.14-2.95v-.37c0-1.48-.74-2.85-1.96-3.68l-.23-.14c-.89-.59-1.96-.84-3.01-.7.09-.09.19-.17.29-.23l.93-.62c1.48-.99,3.4-.99,4.88,0l.23.14c1.23.82,1.96,2.2,1.96,3.68h0Z"/><path class="cls-1" d="m55.62,16.27v.37c0,2.02-1.38,3.79-3.34,4.28l-.9.22c.74-.81,1.15-1.86,1.14-2.95v-.37c0-1.48-.74-2.85-1.96-3.68l-.23-.14c-.89-.59-1.96-.84-3.01-.7.09-.09.19-.17.29-.23l.93-.62c1.48-.99,3.4-.99,4.88,0l.23.14c1.23.82,1.96,2.2,1.96,3.68h0Z"/><path class="cls-1" d="m80.21,34.36c.65-1.09,1.58-2,2.68-2.63l2.02-1.15c.92-.52,1.93-.83,2.98-.93-.55-1.36-1.17-2.69-1.84-3.99-.15.03-.29.06-.45.11h-.02c-2.23.6-4.04,2.22-4.9,4.37l-.6,1.53c-.46,1.16-.61,2.42-.45,3.65l.57-.97Z"/><path class="cls-1" d="m89.6,54.89v.37c0,1.3-.57,2.53-1.56,3.37.01-.09.02-.19.02-.28v-.37c0-1.48-.74-2.85-1.96-3.68l-.23-.14c-1.48-.99-3.4-.99-4.88,0l-.93.62c-.15.1-.29.21-.42.32.02-.39.09-.77.22-1.14.31-.93.93-1.73,1.75-2.27l.93-.62c1.48-.99,3.4-.99,4.88,0l.23.14c1.23.82,1.96,2.2,1.96,3.68h0Z"/><path class="cls-1" d="m46.35,50.25v.37c0,1.3-.57,2.53-1.56,3.37.01-.09.02-.19.02-.28v-.37c0-1.48-.74-2.85-1.96-3.68l-.23-.14c-1.48-.99-3.4-.99-4.88,0l-.93.62c-.15.1-.29.21-.42.32.02-.39.09-.77.22-1.14.31-.93.93-1.73,1.75-2.27l.93-.62c1.48-.99,3.4-.99,4.88,0l.23.14c1.23.82,1.96,2.2,1.96,3.68h0Z"/><path class="cls-1" d="m66.43,47.89c-1.21,0-2.31.72-2.81,1.82,1.55-.71,3.37-.03,4.08,1.52.37.81.37,1.75,0,2.56,1.55-.71,2.24-2.54,1.53-4.09-.5-1.1-1.59-1.8-2.8-1.81Z"/><path class="cls-1" d="m24.72,55.61c-1.21,0-2.31.72-2.81,1.82,1.55-.71,3.37-.03,4.08,1.52.37.81.37,1.75,0,2.56,1.55-.71,2.24-2.54,1.53-4.09-.5-1.1-1.59-1.8-2.8-1.81Z"/><path class="cls-1" d="m32.44,72.61c-1.21,0-2.31.72-2.81,1.82,1.55-.71,3.37-.03,4.08,1.52.37.81.37,1.75,0,2.56,1.55-.71,2.24-2.54,1.53-4.09-.5-1.1-1.59-1.8-2.8-1.81Z"/><path class="cls-1" d="m13.52,55.79v.66c0,3.24-2.21,6.07-5.35,6.86l-1.52.37c-.11.04-.23.06-.35.06,1.87-1.32,2.97-3.47,2.98-5.75v-.64c0-2.36-1.18-4.57-3.14-5.87l-.35-.23c-1.19-.8-2.6-1.21-4.03-1.2v-.06l.44-.29c2.37-1.6,5.47-1.6,7.84,0l.35.23c1.96,1.31,3.15,3.51,3.14,5.87h0Z"/><path class="cls-3" d="m75.39,19.11c2.48.51,5.01-.69,6.17-2.94l.24-.46c.99-1.91.24-4.27-1.67-5.26-.28-.15-.58-.26-.89-.33-.75-.18-1.43-.57-1.95-1.14l-.55-.59c-1.38-1.48-3.66-1.66-5.25-.41l-2.81,2.19,2.74,5.82c.76,1.62,2.24,2.78,3.99,3.14h0Z"/></g><g id="Outline_copy"><path class="cls-2" d="m82.56,17.66l.62-1.18c1.38-2.67.34-5.96-2.34-7.35-.39-.2-.81-.36-1.24-.46-.45-.11-.86-.34-1.18-.68l-.56-.6c-1.92-2.08-5.12-2.33-7.34-.58l-2.81,2.19c-.66.54-.77,1.51-.23,2.17.52.65,1.47.77,2.14.26l2.81-2.19c.96-.76,2.35-.65,3.18.25l.55.6c.73.79,1.68,1.34,2.73,1.59,1.27.3,2.05,1.57,1.75,2.84-.04.19-.11.37-.2.54l-2.21,4.27c-.39.76-.09,1.69.66,2.08.55.29,1.26.23,1.79-.27.13-.12.22-.26.3-.42l.02-.04c1.01,1.35,1.95,2.75,2.8,4.21-2.07.95-3.69,2.66-4.54,4.77l-.6,1.52c-1.26,3.13-.63,6.7,1.63,9.21l1.54,1.73c1.03,1.15,2.34,2.01,3.8,2.51l1.82.6c.7.22,1.42.35,2.15.4.03,1.7-.04,3.4-.2,5.1-.27-.28-.57-.52-.89-.74l-.22-.15c-2-1.34-4.61-1.34-6.61,0l-.93.62c-2.98,1.98-3.59,6.18-1.12,8.96.34.38.74.71,1.16.99l.16.11c.98.65,2.13,1,3.31,1,.15,0,.3-.02.44-.03-.44.26-.86.57-1.25.91l-1.74,1.54c-1.14,1.03-2,2.34-2.5,3.8l-.26.77c-.46,1.49-.74,3.04-.82,4.6-.09,1.8-.85,3.51-2.13,4.78-1.27,1.18-2.61,2.28-4.02,3.29l-.37-.77c-.34-.7-1.14-1.08-1.87-.84-.92.29-1.33,1.32-.93,2.15l1.02,2.09c.18.36.19.79.02,1.15-.17.38-.51.67-.91.77-1.1.31-2.05,1.03-2.63,2.02-.38.65-1.22.86-1.87.48-.07-.04-.13-.09-.19-.14l-3.52-3c-.65-.55-1.62-.48-2.18.17s-.48,1.62.17,2.18h0l.31.27c-10.44,3.24-21.73,2.39-31.56-2.38-2.02-.95-3.48-2.78-3.97-4.96-.19-.83-1.02-1.35-1.85-1.16-.8.18-1.32.97-1.18,1.78.68,3.12,2.77,5.74,5.64,7.12,11.16,5.41,24.03,6.11,35.72,1.97l.44.37c.81.69,1.83,1.06,2.89,1.06.25,0,.5-.02.74-.06,1.3-.22,2.43-.99,3.1-2.13.19-.31.49-.54.84-.63,1.98-.55,3.32-2.4,3.23-4.46,1.79-1.25,3.48-2.62,5.07-4.1,1.84-1.8,2.94-4.23,3.09-6.8.06-1.31.29-2.6.67-3.85l.25-.75c.33-.95.89-1.81,1.64-2.49l1.75-1.56c.3-.27.62-.5.97-.69,2.5-1.47,4.28-3.91,4.93-6.74,3.35-13.86.08-28.49-8.85-39.61h0Zm4.04,23.97c-.95-.32-1.8-.89-2.47-1.63l-1.54-1.73c-1.47-1.64-1.89-3.97-1.06-6.01l.6-1.53c.58-1.42,1.71-2.56,3.13-3.15,2.27,4.66,3.67,9.7,4.15,14.86-.34-.04-.67-.11-.99-.21l-1.8-.6Zm-3.95,16.24l-.21-.14c-1.32-.88-1.67-2.66-.79-3.98.21-.31.48-.58.79-.79l.93-.62c.96-.65,2.22-.65,3.18,0l.22.15c.8.53,1.28,1.43,1.28,2.39v.37c0,1.32-.9,2.46-2.17,2.78l-.94.24c-.79.2-1.62.05-2.29-.4h0Z"/><path class="cls-2" d="m20.08,74.72c-1.67-1.59-3.65-2.8-5.82-3.52l-1.08-.36s-.08-.03-.13-.05c-1.96-.59-3.62-1.89-4.65-3.65-.37-.67-.71-1.35-1.04-2.03l1.15-.28c3.86-.96,6.57-4.43,6.54-8.41v-.6c.04-2.9-1.41-5.61-3.83-7.21l-.34-.22c-2.29-1.54-5.18-1.88-7.76-.93-.02-.37-.04-.74-.04-1.11,0-2.27.18-4.54.53-6.78.26-1.54,1.25-2.86,2.66-3.53l.3-.15c1.39-.75,2.56-1.84,3.4-3.18.83-1.36,1.28-2.92,1.31-4.51.04-2.29.43-4.55,1.17-6.71.25.18.54.29.85.3.85,0,1.55-.69,1.55-1.54,0-.35-.12-.68-.33-.95l-2.06-2.64c-.76-.96-.65-2.35.25-3.18l.59-.55c.79-.73,1.34-1.68,1.59-2.73.3-1.27,1.57-2.05,2.84-1.75.19.04.37.11.54.2l3.94,2.04c.76.39,1.69.1,2.08-.66,0,0,0,0,0,0,.14-.28.18-.6.13-.91,7.7-4.57,16.64-6.62,25.56-5.86,4.78.39,9.45,1.59,13.83,3.55.78.35,1.69,0,2.04-.78.35-.78,0-1.69-.78-2.04-4.69-2.1-9.71-3.39-14.83-3.81-9.95-.85-19.9,1.56-28.37,6.85l-2.18-1.13c-2.67-1.38-5.96-.34-7.34,2.33-.21.4-.36.82-.46,1.25-.11.45-.35.87-.69,1.18l-.59.55c-2.08,1.92-2.34,5.12-.58,7.34l.2.26c-1.29,2.95-1.98,6.12-2.02,9.34-.02,1.05-.32,2.08-.87,2.98-.54.85-1.29,1.55-2.18,2.03l-.22.11c-2.32,1.11-3.95,3.29-4.37,5.84-1.6,10.14.2,20.53,5.13,29.54,1.38,2.43,3.63,4.24,6.3,5.07.04.02.08.03.11.04l1.17.39c1.73.58,3.3,1.54,4.61,2.81.62.59,1.6.56,2.18-.05.58-.61.57-1.57,0-2.16h0Zm-10.93-23.75l.34.22c1.55,1.03,2.48,2.77,2.47,4.63v.6c0,2.56-1.73,4.79-4.21,5.41l-1.54.37-.21-.11c-1.41-3.64-2.33-7.45-2.71-11.33,1.83-1.07,4.11-.99,5.86.2h0Z"/><path class="cls-2" d="m21.57,38.96c1.03,1.15,2.34,2.02,3.81,2.51l1.8.6c2.37.79,4.97.55,7.16-.67l1.12-.63c.75-.42,1.01-1.36.59-2.1s-1.36-1.01-2.1-.59h0l-1.12.63c-1.43.79-3.12.95-4.67.44l-1.81-.6c-.96-.32-1.81-.88-2.48-1.64l-1.54-1.73c-1.47-1.63-1.88-3.96-1.06-6l.6-1.52c1.14-2.86,4.32-4.33,7.24-3.36l2.78.93c.96.32,1.81.88,2.49,1.64l1.73,1.94c1.38,1.55,1.83,3.73,1.17,5.7-.27.81.17,1.69.98,1.96s1.69-.17,1.96-.98c1.01-3.02.32-6.36-1.8-8.74l-1.73-1.94c-1.03-1.15-2.34-2.02-3.81-2.51l-2.78-.93c-4.48-1.5-9.34.76-11.09,5.15l-.6,1.52c-1.25,3.13-.62,6.69,1.63,9.2l1.54,1.73Z"/><path class="cls-2" d="m49.63,79.71l.33.22c2.03,1.35,4.54,1.79,6.91,1.2l1.52-.38c3.86-.96,6.56-4.43,6.56-8.4,0-.85-.69-1.54-1.54-1.54s-1.54.69-1.54,1.54c0,2.56-1.74,4.79-4.22,5.41l-1.52.38c-1.52.38-3.14.1-4.44-.77l-.33-.22c-2.56-1.71-3.25-5.17-1.54-7.73.41-.61.93-1.13,1.54-1.54l1.5-1c1.87-1.25,4.31-1.25,6.18,0l.36.24c.38.26.73.56,1.04.9.57.63,1.55.68,2.18.11.63-.57.68-1.55.11-2.18-.48-.53-1.02-1-1.62-1.39l-.36-.24c-2.91-1.95-6.7-1.95-9.61,0l-1.49,1c-3.98,2.65-5.06,8.03-2.4,12.02.63.95,1.45,1.77,2.4,2.4h0Z"/><path class="cls-2" d="m61.58,31.24l-.93.62c-2.74,1.83-3.48,5.53-1.65,8.26.44.65,1,1.22,1.65,1.65l.21.14c1.4.93,3.12,1.23,4.75.82l.94-.23c2.65-.66,4.52-3.05,4.51-5.78v-.37c0-1.99-.99-3.85-2.65-4.96l-.22-.15c-2-1.34-4.61-1.34-6.61,0h0Zm4.9,2.57l.22.15c.8.53,1.28,1.42,1.28,2.38v.37c0,1.32-.9,2.46-2.17,2.78l-.94.24c-.78.2-1.61.05-2.29-.4l-.21-.14c-1.32-.88-1.67-2.66-.79-3.98.21-.31.48-.58.79-.79l.93-.62c.96-.64,2.22-.64,3.18,0h0Z"/><path class="cls-2" d="m37.69,55.82c1.4.93,3.12,1.23,4.75.82l.94-.23c2.65-.66,4.52-3.04,4.51-5.78v-.37c0-1.99-.99-3.85-2.65-4.96l-.22-.15c-2-1.34-4.61-1.34-6.61,0l-.93.62c-2.74,1.83-3.48,5.53-1.65,8.26.44.65,1,1.22,1.65,1.65l.21.14Zm.38-6c.2-.6.6-1.12,1.13-1.48l.93-.62c.96-.65,2.22-.65,3.18,0l.22.15c.8.53,1.28,1.43,1.28,2.39v.37c0,1.32-.9,2.46-2.17,2.78l-.94.24c-.78.2-1.61.05-2.29-.4l-.21-.14c-1.07-.72-1.54-2.07-1.13-3.29Z"/><path class="cls-2" d="m57.16,16.26c0-1.99-.99-3.85-2.65-4.96l-.22-.15c-2-1.34-4.61-1.34-6.61,0l-.93.62c-2.74,1.83-3.48,5.53-1.65,8.26.44.65,1,1.22,1.65,1.65l.21.14c1.4.93,3.12,1.23,4.75.82l.94-.23c2.65-.66,4.51-3.04,4.51-5.77v-.37Zm-3.09.37c0,1.32-.9,2.46-2.17,2.78l-.94.24c-.78.2-1.61.05-2.29-.4l-.21-.14c-1.32-.88-1.67-2.66-.79-3.98.21-.31.48-.58.79-.79l.93-.62c.96-.65,2.22-.65,3.18,0l.22.15c.8.53,1.28,1.42,1.28,2.38v.37Z"/><path class="cls-2" d="m71.07,50.98c0-2.56-2.08-4.63-4.63-4.63s-4.63,2.08-4.63,4.63,2.08,4.63,4.63,4.63,4.63-2.08,4.63-4.63Zm-4.63,1.54c-.85,0-1.54-.69-1.54-1.54s.69-1.54,1.54-1.54,1.54.69,1.54,1.54-.69,1.54-1.54,1.54Z"/><path class="cls-2" d="m32.44,80.33c2.56,0,4.63-2.08,4.63-4.63s-2.08-4.63-4.63-4.63-4.63,2.08-4.63,4.63,2.08,4.63,4.63,4.63Zm0-6.18c.85,0,1.54.69,1.54,1.54s-.69,1.54-1.54,1.54-1.54-.69-1.54-1.54.69-1.54,1.54-1.54Z"/><path class="cls-2" d="m24.72,63.34c2.56,0,4.63-2.08,4.63-4.63s-2.08-4.63-4.63-4.63-4.63,2.08-4.63,4.63,2.08,4.63,4.63,4.63Zm0-6.18c.85,0,1.54.69,1.54,1.54s-.69,1.54-1.54,1.54-1.54-.69-1.54-1.54.69-1.54,1.54-1.54Z"/><circle class="cls-2" cx="54.07" cy="44.8" r="1.54"/><circle class="cls-2" cx="52.53" cy="30.9" r="1.54"/><circle class="cls-2" cx="69.18" cy="19.74" r="1.54"/><circle class="cls-2" cx="66.43" cy="60.25" r="1.54"/><circle class="cls-2" cx="32.44" cy="13.9" r="1.54"/><circle class="cls-2" cx="16.99" cy="43.25" r="1.54"/></g></g></g></svg>