<?xml version="1.0" encoding="UTF-8"?><svg id="Layer_2" xmlns="http://www.w3.org/2000/svg" viewBox="0 0 98.87 98.87"><defs><style>.cls-1{fill:#ff5249;}.cls-2{fill:#6d67e4;}.cls-3{opacity:.2;}.cls-4{fill:#29cef6;}.cls-5{fill:#46c2cb;}.cls-6{fill:#f24541;}.cls-7{fill:#5e5ed3;}.cls-8{fill:#3bb4b7;}.cls-9{fill:#f2f7a1;}</style></defs><g id="Layer_1-2"><path class="cls-6" d="m49.79,18.41c0-4.78,5.47-7.46,12.21-7.46s12.21,2.68,12.21,7.46c0,6.37-5.47,11.54-12.21,11.54s-12.21-5.17-12.21-11.54Z"/><ellipse class="cls-2" cx="62" cy="16.05" rx="24.85" ry="8.23"/><path class="cls-1" d="m74.21,12.62c0,4.63-5.47,7.23-12.21,7.23s-12.21-2.59-12.21-7.23c0-6.17,5.47-11.18,12.21-11.18s12.21,5,12.21,11.18Z"/><path class="cls-3" d="m62,1.45c-1,0-1.97.11-2.9.32,5.34,1.19,9.31,5.6,9.31,10.86,0,3.95-3.97,6.41-9.31,7.06.93.11,1.9.17,2.9.17,6.74,0,12.21-2.59,12.21-7.23,0-6.17-5.47-11.18-12.21-11.18Z"/><path class="cls-8" d="m17.63,55.79c0-6.12,7-9.55,15.63-9.55s15.63,3.43,15.63,9.55c0,8.16-7,14.77-15.63,14.77s-15.63-6.61-15.63-14.77Z"/><ellipse class="cls-9" cx="33.27" cy="52.76" rx="31.82" ry="10.53"/><path class="cls-3" d="m33.27,42.23c-.98,0-1.94.02-2.9.04,16.21.48,28.92,4.99,28.92,10.49s-12.71,10-28.92,10.49c.95.03,1.92.04,2.9.04,17.57,0,31.82-4.71,31.82-10.53s-14.24-10.53-31.82-10.53h0Z"/><path class="cls-5" d="m48.9,48.38c0,5.93-7,9.25-15.63,9.25s-15.63-3.32-15.63-9.25c0-7.9,7-14.31,15.63-14.31s15.63,6.41,15.63,14.31Z"/><path class="cls-3" d="m33.27,34.07c-.99,0-1.96.09-2.9.25,7.25,1.24,12.74,7.06,12.74,14.06,0,5.25-5.49,8.45-12.74,9.12.94.09,1.91.13,2.9.13,8.63,0,15.63-3.32,15.63-9.25,0-7.9-7-14.31-15.63-14.31h0Z"/><path class="cls-7" d="m60.36,85.89c0-4.78,5.47-7.46,12.21-7.46s12.21,2.68,12.21,7.46c0,6.37-5.47,11.54-12.21,11.54s-12.21-5.17-12.21-11.54Z"/><ellipse class="cls-4" cx="72.57" cy="83.52" rx="24.85" ry="8.23"/><path class="cls-2" d="m84.78,80.1c0,4.63-5.47,7.23-12.21,7.23s-12.21-2.59-12.21-7.23c0-6.17,5.47-11.18,12.21-11.18s12.21,5,12.21,11.18Z"/><path class="cls-3" d="m72.57,68.92c-1,0-1.97.11-2.9.32,5.34,1.19,9.31,5.6,9.31,10.86,0,3.95-3.97,6.41-9.31,7.06.93.11,1.9.17,2.9.17,6.74,0,12.21-2.59,12.21-7.23,0-6.17-5.47-11.18-12.21-11.18h0Z"/><path d="m43.98,23.24c1.83.61,3.88,1.11,6.1,1.5,2.39,4.07,6.99,6.66,11.93,6.66s9.54-2.59,11.93-6.66c2.21-.39,4.27-.89,6.1-1.5,6.84-2.26,8.27-5.16,8.27-7.19,0-2.26-1.79-3.91-3.29-4.9-.67-.44-1.57-.25-2.01.41-.44.67-.25,1.57.41,2.01,1.28.84,1.99,1.72,1.99,2.48,0,1.14-1.65,2.91-6.29,4.44-4.55,1.51-10.63,2.34-17.12,2.34s-12.57-.83-17.12-2.34c-4.63-1.53-6.29-3.3-6.29-4.44,0-1.69,3.4-3.98,9.92-5.43-.11.65-.17,1.32-.17,2,0,5.19,5.49,8.68,13.66,8.68s13.66-3.49,13.66-8.68c0-.68-.06-1.35-.17-2,.93.21,1.81.43,2.65.68.14.04.27.06.41.06.63,0,1.2-.41,1.39-1.04.23-.77-.21-1.57-.98-1.8-1.38-.41-2.89-.77-4.5-1.07-2.14-4.39-6.92-7.46-12.46-7.46s-10.32,3.07-12.46,7.45c-8.81,1.64-13.84,4.75-13.84,8.59,0,2.03,1.44,4.93,8.27,7.19h0Zm25.87,2.07c-2.01,2-4.85,3.19-7.85,3.19s-5.84-1.2-7.85-3.19c2.51.27,5.14.41,7.85.41,2.7,0,5.34-.14,7.85-.41Zm-7.85-22.41c5.93,0,10.76,4.36,10.76,9.73,0,3.97-5.58,5.78-10.76,5.78s-10.76-1.81-10.76-5.78c0-5.36,4.83-9.73,10.76-9.73Z"/><path d="m66.53,52.76c0-3.2-3-5.47-5.52-6.82-3-1.6-7.17-2.92-12.07-3.82-2.63-5.58-8.67-9.5-15.68-9.5-3.25,0-6.42.85-9.15,2.45-.69.4-.92,1.29-.52,1.98s1.29.92,1.98.52c2.29-1.34,4.95-2.05,7.69-2.05,7.82,0,14.19,5.77,14.19,12.86,0,2.29-1.29,4.17-3.83,5.58-2.58,1.43-6.25,2.22-10.35,2.22s-7.77-.79-10.35-2.22c-2.54-1.41-3.83-3.29-3.83-5.58,0-2.55.82-5.01,2.37-7.12.47-.64.34-1.55-.31-2.02-.64-.47-1.55-.34-2.02.31-.6.82-1.12,1.68-1.54,2.58-4.9.9-9.06,2.22-12.06,3.82-4.56,2.44-5.52,5.05-5.52,6.82,0,5.32,8.01,8.97,18.24,10.74,2.96,5.19,8.78,8.51,15.03,8.51s12.07-3.32,15.03-8.51c10.22-1.77,18.23-5.42,18.23-10.74h0Zm-63.63,0c0-2.79,5.49-5.75,13.62-7.47-.22,1.01-.33,2.04-.33,3.09,0,6.4,6.86,10.7,17.08,10.7s17.08-4.3,17.08-10.7c0-1.06-.11-2.09-.33-3.09,8.13,1.72,13.62,4.69,13.62,7.47,0,2.08-3.11,4.35-8.33,6.07-2.4.79-5.13,1.44-8.08,1.93-.07,0-.14.02-.21.03-4.22.68-8.9,1.05-13.75,1.05s-9.53-.36-13.75-1.05c-.07-.02-.14-.03-.21-.03-2.96-.49-5.69-1.14-8.08-1.93-5.21-1.73-8.33-4-8.33-6.07h0Zm30.37,16.35c-4.35,0-8.44-1.91-11.1-5.04,3.61.44,7.38.66,11.1.66s7.5-.22,11.1-.66c-2.66,3.13-6.75,5.04-11.1,5.04Z"/><path d="m85.03,74.93c-2.14-4.39-6.92-7.45-12.46-7.45s-10.32,3.06-12.46,7.45c-8.81,1.64-13.84,4.75-13.84,8.59,0,2.7,2.52,4.58,4.63,5.68,2.44,1.27,5.8,2.31,9.74,3.01,2.41,4.13,6.93,6.67,11.93,6.67s9.52-2.54,11.94-6.67c.97-.17,1.9-.36,2.79-.57.78-.18,1.26-.96,1.08-1.74-.18-.78-.96-1.26-1.74-1.08-1.04.25-2.15.47-3.3.65-3.36.55-6.98.83-10.77.83s-7.41-.28-10.77-.83c-8.3-1.36-12.64-4.02-12.64-5.95,0-1.69,3.4-3.98,9.92-5.43-.11.65-.17,1.32-.17,2,0,5.19,5.49,8.68,13.66,8.68s13.66-3.49,13.66-8.68c0-.68-.06-1.35-.17-2,6.52,1.45,9.92,3.74,9.92,5.43,0,1.07-1.4,2.36-3.76,3.45-.73.34-1.04,1.2-.7,1.92.25.53.77.84,1.31.84.2,0,.41-.04.61-.14,4.49-2.09,5.43-4.46,5.43-6.08,0-3.84-5.03-6.95-13.84-8.59h0Zm-4.59,17.85c-2,2.02-4.82,3.2-7.87,3.2s-5.87-1.18-7.87-3.2c2.52.27,5.16.41,7.87.41,2.71,0,5.34-.14,7.87-.41Zm-7.87-6.9c-5.18,0-10.76-1.81-10.76-5.78,0-5.36,4.83-9.73,10.76-9.73s10.76,4.36,10.76,9.73c0,3.97-5.58,5.78-10.76,5.78Z"/></g></svg>