<?xml version="1.0" encoding="UTF-8"?><svg xmlns="http://www.w3.org/2000/svg" xmlns:xlink="http://www.w3.org/1999/xlink" viewBox="0 0 1265.459228996 511.7688617365"><defs><style>.cls-1{fill:url(#radial-gradient-3);}.cls-1,.cls-2,.cls-3,.cls-4,.cls-5{mix-blend-mode:screen;}.cls-2{fill:url(#radial-gradient);}.cls-6{fill:url(#radial-gradient-19);}.cls-6,.cls-7,.cls-8,.cls-9,.cls-10,.cls-11,.cls-12,.cls-13,.cls-14,.cls-15,.cls-16,.cls-17,.cls-18,.cls-19,.cls-20,.cls-21,.cls-22{opacity:.25;}.cls-7{fill:url(#radial-gradient-21);}.cls-8{fill:url(#radial-gradient-22);}.cls-23{isolation:isolate;}.cls-9{fill:url(#radial-gradient-15);}.cls-10{fill:url(#radial-gradient-26);}.cls-24{fill:url(#radial-gradient-11);}.cls-24,.cls-25,.cls-26,.cls-27,.cls-28,.cls-29,.cls-30{opacity:.5;}.cls-25{fill:url(#radial-gradient-9);}.cls-26{fill:url(#radial-gradient-10);}.cls-11{fill:url(#radial-gradient-13);}.cls-12{fill:url(#radial-gradient-17);}.cls-13{fill:url(#radial-gradient-16);}.cls-14{fill:url(#radial-gradient-24);}.cls-15{fill:url(#radial-gradient-27);}.cls-27{fill:url(#radial-gradient-12);}.cls-16{fill:url(#radial-gradient-29);}.cls-31{clip-path:url(#clippath);}.cls-32{fill:none;}.cls-3{fill:url(#radial-gradient-2);}.cls-4{fill:url(#radial-gradient-4);}.cls-28{fill:url(#radial-gradient-7);}.cls-17{fill:url(#radial-gradient-25);}.cls-18{fill:url(#radial-gradient-20);}.cls-5{fill:url(#radial-gradient-6);}.cls-19{fill:url(#radial-gradient-28);}.cls-20{fill:url(#radial-gradient-18);}.cls-21{fill:url(#radial-gradient-14);}.cls-22{fill:url(#radial-gradient-23);}.cls-29{fill:url(#radial-gradient-8);}.cls-30{fill:url(#radial-gradient-5);}</style><clipPath id="clippath"><rect class="cls-32" width="1265.459228996" height="511.7688617365"/></clipPath><radialGradient id="radial-gradient" cx="584.4179098023" cy="95.6366640262" fx="584.4179098023" fy="95.6366640262" r="759.8371353255" gradientTransform="translate(-39.1279648574 -106.0066117663) scale(1.1244 1.257)" gradientUnits="userSpaceOnUse"><stop offset="0" stop-color="#4a289c" stop-opacity="0"/><stop offset=".962963" stop-color="#00092b"/></radialGradient><radialGradient id="radial-gradient-2" cx="585.6269366996" cy="124.5665141294" fx="585.6269366996" fy="124.5665141294" r="661.6477538108" xlink:href="#radial-gradient"/><radialGradient id="radial-gradient-3" cx="568.7494028996" cy="80.7500601783" fx="568.7494028996" fy="80.7500601783" r="588.2730733481" gradientTransform="translate(-39.1279648574 -74.4208995891) scale(1.1244 1.178)" gradientUnits="userSpaceOnUse"><stop offset="0" stop-color="#4a289c"/><stop offset=".962963" stop-color="#00092b"/></radialGradient><radialGradient id="radial-gradient-4" cx="620.144318248" cy="48.4464215199" fx="620.144318248" fy="48.4464215199" r="426.1103045096" gradientTransform="translate(-100.714722184 -18.3987464857) scale(1.1565431829 1.3760969847)" xlink:href="#radial-gradient-3"/><radialGradient id="radial-gradient-5" cx="591.6307028739" cy="75.8467645032" fx="591.6307028739" fy="75.8467645032" r="326.8225882034" gradientTransform="translate(8.7583971963 -99.2046045191) rotate(9.1127784706) scale(1.1264170631 1.2108525028) skewX(1.3583560354)" xlink:href="#radial-gradient-3"/><radialGradient id="radial-gradient-6" cx="635.5060382931" cy="245.6044906131" fx="635.5060382931" fy="245.6044906131" r="245.0748627555" gradientTransform="translate(-39.1279648574 -88.6057573737) scale(1.1244 1.2129)" xlink:href="#radial-gradient-3"/><radialGradient id="radial-gradient-7" cx="718.8212245932" cy="88.5890574171" fx="718.8212245932" fy="88.5890574171" r="302.7586576415" gradientTransform="translate(-39.1279648574 -88.6057573737) scale(1.1244 1.2129)" xlink:href="#radial-gradient-3"/><radialGradient id="radial-gradient-8" cx="718.8214083941" cy="88.5908297276" fx="718.8214083941" fy="88.5908297276" r="302.7559280133" gradientTransform="translate(-39.1279648574 -88.6057573737) scale(1.1244 1.2129)" xlink:href="#radial-gradient-3"/><radialGradient id="radial-gradient-9" cx="718.8215707753" cy="88.5903346618" fx="718.8215707753" fy="88.5903346618" r="302.7574259439" gradientTransform="translate(-39.1279648574 -88.6057573737) scale(1.1244 1.2129)" xlink:href="#radial-gradient-3"/><radialGradient id="radial-gradient-10" cx="718.8209243303" cy="88.5903434634" fx="718.8209243303" fy="88.5903434634" r="302.7572927917" gradientTransform="translate(-39.1279648574 -88.6057573737) scale(1.1244 1.2129)" xlink:href="#radial-gradient-3"/><radialGradient id="radial-gradient-11" cx="718.8215281186" cy="88.5901888892" fx="718.8215281186" fy="88.5901888892" r="302.7581755632" gradientTransform="translate(-39.1279648574 -88.6057573737) scale(1.1244 1.2129)" xlink:href="#radial-gradient-3"/><radialGradient id="radial-gradient-12" cx="718.8221576498" cy="88.5907310111" fx="718.8221576498" fy="88.5907310111" r="302.756795225" gradientTransform="translate(-39.1279648574 -88.6057573737) scale(1.1244 1.2129)" xlink:href="#radial-gradient-3"/><radialGradient id="radial-gradient-13" cx="320.111066757" cy="235.039777992" fx="320.111066757" fy="235.039777992" r="92.3811264823" gradientTransform="translate(-39.1279648574 -88.6057573737) scale(1.1244 1.2129)" xlink:href="#radial-gradient-3"/><radialGradient id="radial-gradient-14" cx="651.5614178027" cy="-154.3887567458" fx="651.5614178027" fy="-154.3887567458" r="92.3722164179" gradientTransform="translate(90.8765249626 -80.7798110244) rotate(27.0186295469) scale(1.1411459679 1.195242886) skewX(3.5110748271)" xlink:href="#radial-gradient-3"/><radialGradient id="radial-gradient-15" cx="701.0849736786" cy="-456.0985830078" fx="701.0849736786" fy="-456.0985830078" r="92.3770350884" gradientTransform="translate(226.9283457858 -73.4281898201) rotate(50.9565050926) scale(1.1754057044 1.160340387) skewX(4.2406127578)" xlink:href="#radial-gradient-3"/><radialGradient id="radial-gradient-16" cx="695.6736138964" cy="-136.7505391837" fx="695.6736138964" fy="-136.7505391837" r="39.2096943607" gradientTransform="translate(90.8765249626 -80.7798110244) rotate(27.0186295469) scale(1.1411459679 1.195242886) skewX(3.5110748271)" xlink:href="#radial-gradient-3"/><radialGradient id="radial-gradient-17" cx="768.4154951014" cy="-98.0340815061" fx="768.4154951014" fy="-98.0340815061" r="39.2097891264" gradientTransform="translate(90.8765249626 -80.7798110244) rotate(27.0186295469) scale(1.1411459679 1.195242886) skewX(3.5110748271)" xlink:href="#radial-gradient-3"/><radialGradient id="radial-gradient-18" cx="792.9285063259" cy="-158.1129286613" fx="792.9285063259" fy="-158.1129286613" r="39.2097887279" gradientTransform="translate(90.8765249626 -80.7798110244) rotate(27.0186295469) scale(1.1411459679 1.195242886) skewX(3.5110748271)" xlink:href="#radial-gradient-3"/><radialGradient id="radial-gradient-19" cx="751.9093657353" cy="-279.8972948471" fx="751.9093657353" fy="-279.8972948471" r="39.2103040182" gradientTransform="translate(170.0741141502 -73.3745815879) rotate(41.3252448063) scale(1.1606272097 1.1752313823) skewX(4.3005019001)" xlink:href="#radial-gradient-3"/><radialGradient id="radial-gradient-20" cx="765.6073567171" cy="-256.0395720694" fx="765.6073567171" fy="-256.0395720694" r="62.9255280922" gradientTransform="translate(129.1533132248 -79.0213631896) rotate(34.595963333) scale(1.1507861878 1.1851117649) skewX(4.0570493801)" xlink:href="#radial-gradient-3"/><radialGradient id="radial-gradient-21" cx="692.5640381512" cy="-93.9140080398" fx="692.5640381512" fy="-93.9140080398" r="62.9256464798" gradientTransform="translate(1007.9413735776 -550.3888124406) rotate(108.239795633) scale(1.1426487299 1.1935450014) skewX(3.6284713575)" xlink:href="#radial-gradient-3"/><radialGradient id="radial-gradient-22" cx="437.5082210497" cy="167.6438795577" fx="437.5082210497" fy="167.6438795577" r="56.6843204901" gradientTransform="translate(-22.1452077693 -84.4172677628) rotate(3.313211257) scale(1.1246798833 1.212654712) skewX(.5043835818)" xlink:href="#radial-gradient-3"/><radialGradient id="radial-gradient-23" cx="432.9437036754" cy="220.166901941" fx="432.9437036754" fy="220.166901941" r="56.6841597038" gradientTransform="translate(-22.1452077693 -84.4172677628) rotate(3.313211257) scale(1.1246798833 1.212654712) skewX(.5043835818)" xlink:href="#radial-gradient-3"/><radialGradient id="radial-gradient-24" cx="453.5368566678" cy="216.8673132025" fx="453.5368566678" fy="216.8673132025" r="35.3112127543" gradientTransform="translate(-22.1452077693 -84.4172677628) rotate(3.313211257) scale(1.1246798833 1.212654712) skewX(.5043835818)" xlink:href="#radial-gradient-3"/><radialGradient id="radial-gradient-25" cx="406.0117754729" cy="150.5063743139" fx="406.0117754729" fy="150.5063743139" r="35.3113485205" gradientTransform="translate(-22.1452077693 -84.4172677628) rotate(3.313211257) scale(1.1246798833 1.212654712) skewX(.5043835818)" xlink:href="#radial-gradient-3"/><radialGradient id="radial-gradient-26" cx="353.4178186527" cy="222.24027922" fx="353.4178186527" fy="222.24027922" r="35.3112258152" gradientTransform="translate(-22.1452077693 -84.4172677628) rotate(3.313211257) scale(1.1246798833 1.212654712) skewX(.5043835818)" xlink:href="#radial-gradient-3"/><radialGradient id="radial-gradient-27" cx="492.469932028" cy="170.9558262413" fx="492.469932028" fy="170.9558262413" r="92.3811377824" gradientTransform="translate(-39.1279648574 -88.6057573737) scale(1.1244 1.2129)" xlink:href="#radial-gradient-3"/><radialGradient id="radial-gradient-28" cx="522.0962162243" cy="149.0140742654" fx="522.0962162243" fy="149.0140742654" r="35.3113074659" gradientTransform="translate(-22.1452077693 -84.4172677628) rotate(3.313211257) scale(1.1246798833 1.212654712) skewX(.5043835818)" xlink:href="#radial-gradient-3"/><radialGradient id="radial-gradient-29" cx="353.5598203566" cy="166.7294394939" fx="353.5598203566" fy="166.7294394939" r="35.3112189391" gradientTransform="translate(-22.1452077693 -84.4172677628) rotate(3.313211257) scale(1.1246798833 1.212654712) skewX(.5043835818)" xlink:href="#radial-gradient-3"/></defs><g class="cls-23"><g id="Layer_2"><g id="BACKGROUND2"><g class="cls-31"><path class="cls-2" d="m1455.082919506,376.2425521953C1298.333597917,163.1229789538,994.3573711381,18.5994086345,645.0271248845,18.5994086345,269.2384109835,18.5994086345-54.0617771977,185.8437321288-198.0586675376,425.8167021021v146.8185071412h1653.1415870435v-196.3926570479Z"/><path class="cls-3" d="m1348.2698483693,365.8239242735C1211.7765292985,180.244437739,947.081368464,54.3968409126,642.8928776261,54.3968409126,315.6653433101,54.3968409126,34.1432437518,200.0290167752-91.2457680682,408.9917838943v127.8459930708h1439.5156164374v-171.0138526917Z"/><path class="cls-1" d="m1268.4526148229,369.2757917697c-121.3570769488-154.6296056097-356.6989448448-259.4890572844-627.1544664839-259.4890572844C350.3583933933,109.7867344853,100.0555358355,231.1311387599-11.4285140601,405.2443896346v106.5244721018h1279.8811288829v-142.4930699668Z"/><path class="cls-4" d="m124.8111265372,287.2957065353c-6.9536273175,88.9326790812,209.9921972004,100.0493511605,457.5327703119,72.8754705379,247.5408183544-27.1738806225,421.3756430865,74.1106046539,535.4111864924-1.235134116,45.1586153294-29.8373710778,42.9826143701-71.679864434,19.2259993161-112.2630418315-138.0331112378-85.9585449551-309.5227013482-136.8864356094-495.3465840669-136.8864356094-192.5325991041,0-369.6586818814,54.6893297722-510.1445051554,146.3508367873-3.4905907637,10.0905713914-5.8461825825,20.5075976584-6.678866898,31.1583042316Z"/><path class="cls-30" d="m930.0864674523,205.7552068764c-1.9622368806,14.2347925604-30.9946577071,21.3730565109-64.8459051587,15.943744925-33.8512474516-5.4294805549-59.7026580728-21.3705219761-57.7404211922-35.6053145365,1.9620679116-14.2349615294,30.9944887381-21.3732254799,64.8459051587-15.943913894,33.8512474516,5.4294805549,59.7024891038,21.3705219761,57.7404211922,35.6054835055Zm-624.9166326893-19.2293469351c-31.9598077704,13.2032368766-54.000460204,34.8013600822-49.2289450166,48.2408156068,4.7715151874,13.4396244936,34.5480746935,13.6312353283,66.5078824639.4279984516,31.9598077704-13.2032368766,54.000291235-34.8013600822,49.2287760476-48.2408156068-4.7713462184-13.4394555246-34.5479057245-13.6310663593-66.5077134949-.4279984516Zm108.1163262251,23.242867354c-23.0230054908,8.8757720744-39.0867506185,23.9194191898-35.8792123629,33.6010043774,3.2075382557,9.6814162186,24.4717781999,10.3346503338,47.4949852853,1.4588782594,23.0230381164-8.8756031054,39.0867506185-23.9192502209,35.8792123629-33.6008354084-3.2077072247-9.6814162186-24.4717781999-10.3346503338-47.4949852853-1.4590472284Zm51.7200547729-70.5604363996c-17.4049883107,5.9078317655-29.7836562035,16.6302659313-27.6487330691,23.9493267011,2.1350921034,7.3190607698,17.9752586374,8.4629808319,35.3802469481,2.5551490664,17.4049883107-5.9078317655,29.7836562035-16.6304349003,27.6485641001-23.9493267011-2.1349231344-7.3190607698-17.9752586374-8.4629808319-35.3800779791-2.5551490664Zm558.6530817426,83.7243035016c-16.6828152872-7.97145004-32.5422446862-8.7465107971-35.4229969963-1.7310873023-2.8807523101,7.0152545258,8.3080362681,19.164462843,24.9908515553,27.135912883,16.6828152872,7.9714500401,32.5424136552,8.7465107971,35.4231659653,1.7310873023s-8.3080362681-19.164631812-24.9910205243-27.135912883Zm-79.284981228,30.1340986411c-20.5910680253-2.5661320507-38.0352575813,2.3730004952-38.9625593983,11.0318163865s15.0132326973,17.7584718774,35.6043007226,20.3244349591c20.5910680253,2.5661320507,38.0352575813-2.3730004952,38.9625593983-11.0318163865.927470786-8.6588158913-15.0132326973-17.7583029084-35.6043007226-20.3244349591Z"/><path class="cls-5" d="m332.2655323419,234.2318886949c-14.6276450926,6.0430069575-28.7896116606,9.2709905419-40.3144792687,9.7162238305,9.3526023278-1.4233947715,19.7999547141-4.3340545929,30.4977191371-8.7534385257,31.9596388015-13.2032368766,54.000291235-34.8013600822,49.2289450166-48.2408156068-2.5875910471-7.2884773826-12.5376677084-10.6715744998-26.1934031952-10.1440533131,18.5886480195-2.8290477991,32.8359119613.2402739037,36.0099943578,9.1812680083,4.7715151874,13.4396244936-17.2689682772,35.0375787302-49.2287760476,48.2408156068Zm109.7467079682-30.6852754864c9.8632266026-.1779243464,17.0177113954,2.3954733709,18.7689059633,7.6811613153,3.2075382557,9.6814162186-12.8561742465,24.725232303-35.8792123629,33.6008354084-6.5796523034,2.5367314465-12.9974323185,4.2679877178-18.9093191904,5.2596667199,8.2027683801-.1480168352,18.2724750833-2.1923726449,28.726079322-6.2222830558,23.0230381164-8.8757720744,39.0867506185-23.9194191898,35.8790780489-33.6008354084-2.2909161633-6.9147179767-13.8108836708-9.1969821243-28.5855317809-6.7185449794Zm430.33380595-33.3968898375c33.8510784826,5.4294805549,59.7024891038,21.3705219761,57.7402522232,35.6054835055-1.1560858294,8.3882965383-11.7178304858,14.3086320091-27.1213815499,16.6486835512,20.6061062654-1.0298659939,35.5502306458-7.5409170536,36.9381419294-17.6114688561,1.9622368806-14.2347925604-23.8891737406-30.1760029506-57.7404211922-35.6053145365-13.9029374641-2.2298837607-26.9882339858-2.3363342244-37.7238477328-.7052765642,8.5211061644-.4258018547,18.0039838198.0795843943,27.9072563222,1.6678929Zm161.1301805921,51.8200857215c-12.7164372165-6.0761248795-24.9354297266-7.9570876759-31.3116435323-5.4076835552,6.1786890564.5352937602,13.7383616679,2.6641340649,21.4948831527,6.370299891,16.6828152872,7.97145004,27.8716038654,20.1206583572,24.9906825863,27.136081852-.6848313164,1.668061869-2.1224194831,2.881597155-4.1115224331,3.6767652219,7.1108909741.6160609374,12.3869476861-.8857354455,13.9282828126-4.6395505267,2.8809212791-7.0154234948-8.3078672991-19.164462843-24.9906825863-27.135912883Zm-79.285150197,30.1340986411c-8.3114156479-1.0357799085-16.0851719697-.8313274307-22.4918001935.3294895305,3.9976373338-.1034090219,8.2551489742.0826258361,12.675039814.6332957744,20.5910680253,2.5661320508,36.5317715085,11.6656190679,35.6043007226,20.3242659902-.5530355042,5.1640302716-7.0054543244,8.9877985147-16.4717730187,10.702664794,14.6269695862-.3779836306,25.5602770515-4.8647861904,26.2885333983-11.6652811299.927470786-8.6588158913-15.0132326973-17.7584718774-35.6043007226-20.3244349591Zm-468.5655755684-116.6668357251c7.8700684472-.0015207209,13.5443849252,2.1558753431,14.7607926533,6.3261989847,2.1350921034,7.3190607698-10.2435757895,18.0414949356-27.6485641001,23.9494956701-3.7156279957,1.2611845412-7.3477853124,2.1813896606-10.8025251942,2.8084335824,5.9417943824-.0011827829,13.1317974301-1.22958734,20.6192853258-3.7710499183,17.4050237075-5.9080007345,29.783691913-16.6304349003,27.6485641001-23.9494956701-1.67921378-5.7566045195-11.8487457974-7.6735577107-24.5775527849-5.3635826488Z"/><path class="cls-28" d="m972.6176519189,281.3860647272c-6.3687791701-3.4074286518-15.05125072-6.0991046621-24.8071822632-7.314836545-12.8382638583-1.5999673661-24.4501507874-.2808264613-31.6012563811,3.0367106878,6.3686102011,3.4074286518,15.050912782,6.0992736311,24.8070132942,7.315005514,12.8382638583,1.5999673661,24.4503197563.2808264613,31.6014253501-3.0368796568Z"/><path class="cls-29" d="m926.8593287128,212.336380067c-9.6099423358-9.3132327894-28.568938887-17.5720990814-51.0771290726-21.1819525833-28.1262401333-4.5113030633-52.9094287999-.3406414838-61.6187664191,9.3624027655,9.6099423358,9.3132327894,28.568938887,17.5720990814,51.0771290726,21.1819525833,28.1262401332,4.5113030633,52.9094287999.3406414838,61.6187664191-9.3624027655Z"/><path class="cls-25" d="m997.1979088286,238.0696813642c4.263425555,3.6831860435,9.7572832951,7.2707356386,16.029412203,10.2677386138,11.8356018718,5.6552231255,23.2312084937,7.668150703,29.8975420552,5.8672792079-4.2632565861-3.6833550125-9.7571143261-7.2707356386-16.029243234-10.2677386138-11.8356018718-5.6552231255-23.2312084937-7.668150703-29.8977110242-5.8672792079Z"/><path class="cls-26" d="m262.1170735003,241.5068485583c11.296730089,6.1744648317,35.1301434609,4.0991876968,60.33169871-6.3121745585,22.1117883765-9.134970505,39.4681455288-22.2870097777,46.4891129134-33.9766224422-11.2967594774-6.1742958627-35.1303418182-4.0990187278-60.3318970674,6.3123435275-22.1117583723,9.134801536-39.4679446503,22.2870097777-46.488914556,33.9764534732Z"/><path class="cls-24" d="m468.4423690543,160.2128260395c-7.1916579696,2.4410949982-13.500452989,5.7082793883-18.3066068184,9.2137100543,6.2880118341.3134374764,14.2555753861-.8808353447,22.601967404-3.7137694307,7.1916579696-2.4412639672,13.50028402-5.7086173263,18.3064378494-9.2138790233-6.2880118341-.3134374764-14.2555753861.8810043137-22.6017984351,3.7139383997Z"/><path class="cls-27" d="m386.2462231745,250.0451895597c8.9707324201,2.3339686585,23.4101460627.6608377198,38.655710736-5.2165796275,13.2613618742-5.1123257607,24.1857137071-12.269852176,30.4762600759-19.2717581516-8.9709013891-2.3339686585-23.4101123835-.6610066888-38.655710736,5.2164106585-13.2613618742,5.1124947297-24.1857137071,12.270190114-30.4762600759,19.2719271206Z"/><path class="cls-11" d="m352.8701173659,250.0370790482c1.5595837381,5.3519237885-7.6316532084,13.2355099537-20.5288869184,17.6084274143-12.89723371,4.3729174606-24.6169225586,3.5792701146-26.1763373277-1.7726536738s7.6316532084-13.2355099537,20.5290558874-17.6084274143c12.89723371-4.3729174606,24.6167852312-3.5792701146,26.1761683587,1.7726536738Z"/><path class="cls-21" d="m835.2206866897,150.8924965525c-.7106835718,5.5573900803-12.1438013095,8.4469287778-25.5362834549,6.4537705721-13.3926511144-1.9931582057-23.6732739945-8.1142288366-22.9624214717-13.6717878858.7108525229-5.5573900803,12.1438439505-8.4469287778,25.5364950649-6.4536016031,13.3924821454,1.9931582057,23.6730624025,8.1140598676,22.9622098616,13.6716189169Z"/><path class="cls-9" d="m1115.7487487919,263.6502346945c-2.7073901264,4.7901018968-14.259631002,2.5186517646-25.8027475521-5.073124955-11.5431165501-7.5917767196-18.7057120352-17.6292106001-15.9983219088-22.4193124968,2.7073901264-4.7899329278,14.259631002-2.5186517646,25.8027475521,5.073124955,11.5431165501,7.5919456886,18.7057120352,17.629379569,15.9983219088,22.4193124968Z"/><path class="cls-13" d="m867.1178077723,156.7259819624c-.3017786161,2.358976069-5.1547369772,3.5855219673-10.8395296759,2.7394942345-5.6849616677-.8461967018-10.0487548028-3.4444328606-9.7469761867-5.8034089297.3016096471-2.358976069,5.1547369772-3.5855219673,10.8395296759-2.7394942345,5.6847926987.8461967018,10.0487548028,3.4442638917,9.7469761867,5.8034089297Z"/><path class="cls-12" d="m922.4600520898,236.8917985351c-.3017786161,2.358976069-5.1547369772,3.5855219673-10.8396986449,2.7394942345-5.6847926987-.8460277328-10.0485858338-3.4442638917-9.7468072177-5.8032399607.3016096471-2.359145038,5.1547369772-3.5855219673,10.8395296759-2.7394942345s10.0485858338,3.4442638917,9.7469761867,5.8032399607Z"/><path class="cls-20" d="m976.2538645832,183.716919452c-.3016096471,2.358976069-5.1547369772,3.5855219673-10.8395296759,2.7394942345-5.6847926987-.8460277328-10.0487548028-3.4442638916-9.7469761867-5.8034089297.3017786161-2.358976069,5.1547369772-3.5855219673,10.8395296759-2.7394942345,5.6847926987.8461967018,10.0487548028,3.4444328606,9.7469761867,5.8034089297Z"/><path class="cls-6" d="m1021.5378918344,266.6288200498c-.8176409425,2.2121420168-5.8017192398,2.1469199866-11.1323529355-.1456512694s-8.9891502667-5.9441600983-8.1716782932-8.1563021151c.8176409425-2.2119730478,5.8017192398-2.1467510176,11.1323529355.1458202383,5.3306336957,2.292402287,8.9891502667,5.9441600983,8.1716782932,8.1561331461Z"/><path class="cls-18" d="m1009.6782963661,203.0111504793c-.9257810961,3.6885930512-8.882023927,4.5746664346-17.7709755826,1.9791337796-8.8889516556-2.595701624-15.3444119176-7.6901166717-14.4187997905-11.3787097229.9256121271-3.6885930512,8.882023927-4.5746664346,17.7708066136-1.9789648106,8.8889516556,2.595532655,15.3445808866,7.6899477027,14.4189687595,11.3785407539Z"/><ellipse class="cls-7" cx="827.0296614472" cy="225.0333013652" rx="6.9046447744" ry="16.7093564035" transform="translate(460.3076164523 999.7158101077) rotate(-79.8894566667)"/><path class="cls-8" d="m477.0129829163,181.0281159145c.792295574,3.3344340482-5.0795456483,7.8389783519-13.1152037015,10.0609205701-8.0357927394,2.2219422182-15.1925084118,1.3201547187-15.9848039858-2.0144482985-.792464543-3.3346030172,5.0793766793-7.8391473209,13.1152037016-10.0610895391,8.0356580532-2.2219422182,15.1923394428-1.3199857497,15.9848039858,2.0146172675Z"/><path class="cls-22" d="m468.7260679813,244.3470483108c.792295574,3.3346030172-5.0795456483,7.8391473209-13.1152037015,10.0610895391-8.0358270222,2.2219422182-15.1925084118,1.3199857497-15.9848039858-2.0146172675-.792464543-3.3344340482,5.0793766793-7.8389783519,13.1152037015-10.0609205701,8.0356580532-2.2219422182,15.1923394428-1.3199857497,15.9848039858,2.0144482985Z"/><path class="cls-14" d="m485.2536003492,228.8857098521c.4935584072,2.0773047628-3.16424725,4.8832038103-8.1699883969,6.2673977761-5.0058751705,1.3841939659-9.4641218584.8223720742-9.9576802656-1.2549326885-.4937273762-2.0771357938,3.1641132263-4.8832038103,8.1699883969-6.2673977762s9.4641218584-.8223720742,9.9576802657,1.2549326885Z"/><path class="cls-17" d="m435.8874525162,145.4202668432c.4935584072,2.0773047627-3.1642821953,4.8833727793-8.1701573659,6.2675667451-5.0058751705,1.3840249969-9.4639528894.8222031052-9.9576802657-1.2551016575-.4935250995-2.0771357938,3.1642821953-4.8832038103,8.1701573659-6.2673977761,5.0057062016-1.3841939659,9.4639528894-.8223720742,9.9576802656,1.2549326885Z"/><path class="cls-10" d="m372.5164792719,228.8857098521c.4937273762,2.0773047628-3.1641132263,4.8832038103-8.1699883969,6.2673977761-5.0058751705,1.3841939659-9.4641218584.8223720742-9.9576802657-1.2549326885-.4937273762-2.0771357938,3.1642821953-4.8832038103,8.1699883969-6.2673977762,5.0058751705-1.3841939659,9.4641540233-.8223720742,9.9576802657,1.2549326885Z"/><path class="cls-15" d="m546.6704472738,172.3096539698c1.5595837381,5.3519237885-7.6316532084,13.2355099537-20.5288869184,17.6084274143-12.897402679,4.3729174606-24.6169225586,3.5792701146-26.1763373277-1.7726536738-1.5595837381-5.3519237885,7.6316887982-13.2355099537,20.5288869184-17.6084274143,12.897402679-4.3729174606,24.6169225586-3.5792701146,26.1763373277,1.7726536738Z"/><path class="cls-19" d="m566.3168091798,151.1582847737c.4935954928,2.0773047628-3.1642821953,4.8833727793-8.1699883969,6.2675667451-5.0058751705,1.3840249969-9.4641218584.8222031052-9.9576802656-1.2551016575-.4937273762-2.0771357938,3.1641132263-4.8832038103,8.1699883969-6.2673977761,5.0058751705-1.3841939659,9.4641218584-.8223720742,9.9576802657,1.2549326885Z"/><path class="cls-16" d="m376.0176856248,161.6602144076c.4935584073,2.0771357938-3.1642821953,4.8832038103-8.1701573659,6.2673977762-5.0057062016,1.3841939659-9.4639528894.8223720742-9.9575112967-1.2549326885-.4937273762-2.0773047627,3.1641132263-4.8833727793,8.1700204111-6.2673977761,5.0058431563-1.3841939659,9.4640898442-.8223720742,9.9576482514,1.2549326885Z"/></g></g></g></g></svg>