<?xml version="1.0" encoding="UTF-8"?><svg id="Layer_2" xmlns="http://www.w3.org/2000/svg" viewBox="0 0 77.59 98.87"><defs><style>.cls-1{fill:#6d67e4;}.cls-2{fill:#fb5fa7;}.cls-3{fill:#fb4297;}.cls-4{fill:#5757d3;}.cls-5{fill:#f2f7a1;}</style></defs><g id="Layer_1-2"><path class="cls-5" d="m75.99,67.13c-.2-.2-.51-.2-.72-.01-8.07,7.59-33.29,28.59-55.56,18.02l-.28,1.29,1.82,2.62s8.35,5,8.64,5.04,7.51,1.23,7.51,1.23l5.99-.65,1.5-.41c7.47-2.87,14.93-7.67,21.51-14.24,3.84-3.84,7.08-7.99,9.68-12.27.12-.2.09-.46-.08-.63h0Z"/><path class="cls-5" d="m21.38,87c-.59-.59-1.15-1.21-1.67-1.86-2.98-1.42-5.91-3.4-8.74-6.05l.75-1.23-4.31-4.38-2.89-12.4.22-5.27-.17-.33c-4.73,13.2-3.44,26.3,4.73,34.47,8.4,8.4,22.01,9.53,35.58,4.32-9.19.93-17.62-1.39-23.5-7.27h0Z"/><path class="cls-5" d="m68.36,8.93c-2.2-2.2-4.75-3.89-7.56-5.11,0,0-3.3-.49-3.49-.62s-10.75.62-10.75.62l-16.44,6.84-1.66,3.67c12.06-4.92,26.09-5.95,38.24,5.48v.03l.34,1.79,5.12,12.5s-.1,6.71,0,7.05.94,2.23.94,2.23c4.73-13.2,3.44-26.3-4.73-34.47h0Z"/><path class="cls-5" d="m60.73,3.82c-13.88-6.01-34.14-.35-49.52,15.03-3.84,3.84-7.08,7.99-9.68,12.27-.12.2-.09.46.08.63.2.2.51.2.72.01,4.5-4.24,14.36-12.66,26.06-17.43C38.9,6.67,50.62,3.01,60.73,3.82Z"/><path class="cls-5" d="m67.55,20.7c-3.45-3.45-7.98-5.4-13.07-5.96-8.74,1.76-18.05,6.77-25.93,14.66-16.13,16.13-20.22,38.18-9.15,49.25,2.77,2.77,6.23,4.59,10.1,5.51,9.58-.97,20.21-6.14,29.04-14.97,15.88-15.88,19.91-37.59,9.01-48.49Z"/><path class="cls-5" d="m19.96,78.19c-10.9-10.9-6.87-32.61,9.01-48.49,8.27-8.27,18.11-13.32,27.19-14.73-11.26-1.98-25.69,3.31-37.11,14.73C3.18,45.58-.85,67.29,10.05,78.19c5.23,5.23,12.93,7.02,21.29,5.72-4.4-.77-8.32-2.66-11.38-5.72h0Z"/><path class="cls-2" d="m59.15,29.09c-2.18-2.18-4.97-3.54-8.09-4.1-5.76,1.5-11.73,4.9-16.86,10.03-11.49,11.49-14.35,27.27-6.38,35.24,1.7,1.7,3.76,2.91,6.06,3.65,6.38-1.03,13.26-4.57,19.03-10.34,11.24-11.24,14.03-26.67,6.24-34.46h0Z"/><path class="cls-3" d="m28.36,69.8c-7.79-7.79-5-23.22,6.24-34.46,5.36-5.36,11.67-8.8,17.65-10.08-8.18-2.08-19.07,1.59-27.57,10.08-11.24,11.24-14.03,26.67-6.24,34.46,4.08,4.08,10.25,5.26,16.81,3.84-2.64-.67-5-1.94-6.9-3.84h0Z"/><path class="cls-1" d="m50.81,37.43c-.96-.96-2.1-1.68-3.35-2.16-2.73,1.02-5.43,2.73-7.8,5.1-6.79,6.79-8.23,16.35-3.22,21.36.78.78,1.68,1.4,2.66,1.87,2.98-.93,5.98-2.72,8.57-5.31,6.63-6.63,8.04-15.98,3.15-20.87h0Z"/><path class="cls-4" d="m36.7,61.45c-4.89-4.89-3.48-14.24,3.15-20.87,2.43-2.43,5.23-4.16,8.04-5.13-5.14-2.26-12.47-.35-17.95,5.13-6.63,6.63-8.04,15.98-3.15,20.87,3.1,3.1,7.98,3.67,12.84,1.98-1.08-.48-2.07-1.13-2.92-1.98Z"/><path d="m64.59,45.29c2.62-14.45-7.15-24.27-21.64-21.64C20.26,27.76,3.95,57.35,17.42,70.82c13.47,13.47,43.06-2.8,47.17-25.53h0Zm-38.8-8.93c10.67-10.67,25.23-13.42,32.42-6.24h0c3.42,3.42,4.71,8.63,3.62,14.66-3.77,20.85-30.82,35.45-42.27,24-7.22-7.22-4.42-21.76,6.24-32.42h0Z"/><path d="m54.98,47.43c.67-4.41-.46-8.32-3.16-11.02-1.56-1.56-3.5-2.58-5.79-3.06-.78-.16-1.55.34-1.71,1.12-.16.78.34,1.55,1.12,1.71,1.72.36,3.18,1.12,4.33,2.27,2.03,2.03,2.86,5.07,2.34,8.54-1.81,11.96-17.34,20.41-24.31,13.43-6.46-6.45.3-20.73,11.57-23.91.77-.22,1.22-1.02,1-1.79-.22-.77-1.02-1.22-1.79-1-13.27,3.74-21.02,20.56-12.83,28.74,8.78,8.78,27.08-.8,29.22-15.05Z"/><path d="m74.28,66.07c-12.57,11.83-31.64,23.85-48.51,19.7.14,0,.28,0,.42,0,21.12,0,43.92-20.15,48.23-42,5.06-14.2,3.15-27.61-5.11-35.87C52.33-9.07,17.15,2.61.29,30.37c-.47.78-.35,1.77.29,2.41.76.75,1.95.77,2.73.04,12.57-11.83,31.64-23.85,48.5-19.71C30.62,12.84,7.52,33.09,3.17,55.11c-12.58,35.32,18.26,55.76,51.21,36.14.69-.41.91-1.3.5-1.99s-1.3-.91-1.99-.5c-25.31,15.07-50.51,5.59-49.6-19.74.98,3.84,2.86,7.34,5.72,10.2,18.02,18.02,41.76,10.03,61.53-6.05-3.37,4.29-7.5,8.4-12.17,11.91-.64.48-.77,1.39-.29,2.03.48.64,1.39.77,2.03.29,6.74-5.06,12.74-11.57,17.18-18.87.47-.77.35-1.77-.29-2.41-.76-.75-1.96-.77-2.73-.04h0ZM7.03,25.72c1.6-2.03,3.33-3.98,5.19-5.84h0C29.91,2.18,54.68-2.62,67.26,9.96c4.92,4.92,7.31,11.94,7.03,19.92-1-3.9-2.9-7.38-5.72-10.2C50.57,1.67,26.85,9.61,7.03,25.72h0Zm13.05,5.01c20.46-20.47,49.41-19.69,51.99,3.12,1.37,12.29-5.7,25.47-14.55,34.32-15.12,15.12-36.03,19.42-46.44,9.01-10.39-10.39-6.21-31.22,9.01-46.44h0Z"/></g></svg>