<?xml version="1.0" encoding="UTF-8"?><svg id="Layer_2" xmlns="http://www.w3.org/2000/svg" viewBox="0 0 98.87 98.85"><defs><style>.cls-1{fill:#ff5249;}.cls-2{fill:#453c67;}.cls-3{fill:#ffa90f;}.cls-4{fill:#6d67e4;}.cls-5{fill:#fb5fa7;}.cls-6{fill:#fb4297;}.cls-7{fill:#46c2cb;}.cls-8{fill:#e5e588;}.cls-9{fill:#25223a;}.cls-10{fill:#f2f7a1;}</style></defs><g id="Layer_1-2"><path class="cls-4" d="m78.25,25.02c-1.79-1.79-3.72-3.37-5.75-4.72l-2.05,1.13-.44-.25-2.25,5.26-8.49,10.52-15.43,17.66-14.27,10.94c1.43,3.57,3.37,6.86,5.74,9.8l9.86-6.94,20.49-18.49,13.85-19.05v-4.54c-.41-.45-.83-.89-1.26-1.32h0Z"/><path class="cls-4" d="m31.8,63.9l-2.88,2.21-8.04,4.4-.57,2.04c1.36,2.03,2.93,3.96,4.72,5.75.43.43.87.85,1.32,1.26h3.05l7.83-5.51c-2.29-3.06-4.14-6.48-5.43-10.15Z"/><path class="cls-2" d="m84.41,39.11l-42.89,42.29c4.03,3.15,8.71,5.49,13.81,6.78l18.08-14.56,13.32-16.12,2.62-5.86c0-4.62-.85-9.24-2.54-13.61l-2.4,1.07Z"/><path class="cls-2" d="m42.8,80.07l-4.81,4.75v1.97c4.37,1.69,8.99,2.54,13.61,2.54l3.41-.94,1.08-.87c-4.94-1.58-9.45-4.14-13.29-7.45h0Z"/><path class="cls-10" d="m94.94,3.94c-.78-.78-1.72-1.38-2.8-1.79l-1.99.06-11.07,3.86-.83,1.73c2.16-.22,3.83.17,4.91,1.25,5.45,5.45-6.68,26.43-27.1,46.85-17.78,17.78-35.98,29.28-43.99,28.35l-1.5,1.69v5.85l3.41,4.77h3.18c12.48-2.99,30.61-14.69,47.75-31.82,25.08-25.08,38.53-52.3,30.03-60.79h0Z"/><path class="cls-8" d="m61.5,15.28c6.73-4.36,12.58-6.99,16.68-7.41,5.08-2.74,9.78-4.66,13.88-5.64-7.04-2.72-20.1,2.08-34.71,12.19l-2.09,1.28,3.92,1.67,2.31-2.09Z"/><path class="cls-8" d="m15.28,94.85c-2.29-2.29-2.98-5.93-2.29-10.53-1.19-.14-2.15-.55-2.86-1.25-3.12-3.12-.48-11.32,6.17-21.59l1.26-1.46-.92-4.7-1.21,2.01C3.77,74.19-.83,88.98,5.04,94.85c2.69,2.69,7.26,3.18,13.05,1.79-1.08-.42-2.02-1.01-2.8-1.79Z"/><path class="cls-5" d="m65.41,18.53v-1.99c-2.88-1.12-5.87-1.87-8.89-2.25-5.36,1.18-10.29,3.52-14.53,6.74l-8.28,8.68c-4.24,6.14-6.73,13.61-6.73,21.67,0,2.99.34,5.89.99,8.68l14.92-13.27,17.76-18.52,5.15-9.51-.39-.22Z"/><path class="cls-5" d="m29.63,51.15c0-17.52,11.82-32.28,27.92-36.75-2.06-.32-4.14-.48-6.22-.46l-4.54,1.93-29.44,30.85-3.34,4.54c-.04,4.75.81,9.51,2.55,14.01h2.23l.55.81,8.04-5.62,2.85-2.54c-.39-2.2-.6-4.46-.6-6.77Z"/><path class="cls-9" d="m72.19,72.18c-6.15,6.15-12.41,11.44-18.3,15.61,1.37.41,2.78.74,4.22.99,7.4-1.28,14.49-4.77,20.21-10.48,7.36-7.36,11.03-17,11.03-26.65-4.38,6.52-10.22,13.6-17.15,20.53Z"/><path class="cls-3" d="m54.87,87.09c-1.08.78-2.15,1.53-3.2,2.24,2.69,0,5.39-.29,8.03-.86-1.65-.36-3.26-.82-4.83-1.38Z"/><path class="cls-7" d="m65.33,16.54c-3.58,6.99-11.42,17.06-21.57,27.21-5.62,5.62-11.21,10.52-16.26,14.39.54,3.03,1.44,5.94,2.65,8.68,5.9-4.16,12.8-10.01,19.74-16.94,11.37-11.37,19.82-22.63,22.67-29.58-2.29-1.53-4.72-2.78-7.23-3.76h0Z"/><path class="cls-7" d="m29.96,56.21c-5.04,4.05-9.67,7.19-13.4,9.11.97,2.51,2.23,4.93,3.76,7.23,3.22-1.32,7.35-3.83,12-7.29-1.14-2.86-1.94-5.89-2.35-9.05h0Z"/><path class="cls-6" d="m28.91,39.12c1.72-1.6,3.47-3.27,5.21-5.02,6.09-6.09,11.34-12.14,15.34-17.52-9.62,4.25-17.14,12.43-20.55,22.54h0Z"/><path class="cls-1" d="m47.88,18.65c1.25-1.61,2.4-3.17,3.44-4.66-9.53.09-19.02,3.76-26.29,11.03-7.27,7.27-10.94,16.77-11.03,26.29,5.74-4,12.46-9.64,19.25-16.35,3.19-6.76,8.3-12.43,14.63-16.31h0Z"/><path d="m95.88,3.01c-8.52-8.52-28.87,3.03-38.88,9.9-1.75-.24-3.53-.36-5.33-.36-.12,0-.24,0-.36,0h0s-.01,0-.02,0c-10.36.1-20.02,4.19-27.29,11.45-9.05,9.05-12.68,21.29-11.1,33-6.86,10.01-18.41,30.36-9.9,38.88,6.01,6.01,18.2,1.62,25.84-2.15,3.03-1.5,6.17-3.28,9.37-5.32,13.65,4.99,29.82,2.21,41.11-9.08,11.22-11.22,14.09-27.4,9.08-41.11,5.96-9.38,15.29-27.39,7.47-35.21h0ZM26.05,26.04c6.17-6.17,14.1-9.7,22.33-10.44-4.09,5.51-9.43,11.63-15.29,17.48-5.86,5.86-11.98,11.21-17.5,15.3.74-8.3,4.32-16.19,10.46-22.34h0Zm9.08,9.08c6.62-6.62,12.6-13.58,16.92-19.67,3.79.04,7.57.67,11.2,1.89-3.56,6.33-10.03,14.54-18.01,22.83-.55.58-.54,1.49.04,2.05.58.55,1.49.54,2.05-.04,8.3-8.61,15.02-17.2,18.66-23.8,1.63.7,3.21,1.52,4.75,2.47-3.28,7.08-11.52,17.65-21.87,28-10.35,10.35-20.93,18.6-28.01,21.87-.94-1.52-1.77-3.1-2.47-4.74,6.69-3.69,15.4-10.53,24.14-18.98.57-.56.59-1.47.03-2.05-.56-.57-1.47-.59-2.05-.03-8.41,8.14-16.75,14.73-23.18,18.34-1.17-3.49-1.84-7.3-1.88-11.2,6.1-4.32,13.06-10.31,19.69-16.93h0Zm29.81-20.29c3.96-2.37,7.52-4.05,10.43-4.91,3.22-.95,5.59-.87,6.68.22,1.46,1.46,1.39,5.83-2.81,13.77-4.12-4.1-8.99-7.16-14.3-9.08h0Zm12.83,11.71c-5.81,9.94-14.75,20.33-22.82,28.4-8.13,8.13-18.5,17.05-28.4,22.82-1.44-1.39-2.82-2.94-4.06-4.62,7.38-3.56,18.05-11.89,28.41-22.25,10.36-10.36,18.69-21.03,22.25-28.41,1.61,1.19,3.17,2.54,4.62,4.06h0Zm-53.86,52.69c-7.94,4.2-12.31,4.27-13.77,2.81-1.09-1.09-1.17-3.46-.22-6.68.86-2.91,2.54-6.47,4.91-10.43,1.91,5.31,4.98,10.18,9.08,14.3Zm49.84-8.64c.58.55,1.49.53,2.05-.05,4.33-4.53,8.32-9.25,11.73-13.84-1.1,7.8-4.69,15.01-10.24,20.56,0,0,0,0,0,0,0,0,0,0,0,0-5.55,5.54-12.75,9.14-20.56,10.24,4.74-3.51,9.6-7.65,14.28-12.15.58-.55.59-1.47.04-2.05-.55-.58-1.47-.59-2.05-.04-5.84,5.62-11.97,10.66-17.77,14.59-3.32-.04-6.65-.53-9.91-1.5,8.67-5.88,17.1-13.1,24.54-20.54,7.44-7.44,14.66-15.87,20.54-24.54.97,3.26,1.46,6.59,1.5,9.91-3.84,5.66-8.73,11.64-14.18,17.34-.55.58-.53,1.49.05,2.05h0Zm17.38-43.04c-1.54,3.11-3.38,6.34-5.5,9.63-.02.02-.03.04-.05.07-6.05,9.39-13.82,18.58-21.78,26.54-10.21,10.21-23.4,20.99-36.23,27.33-10.72,5.3-18.93,6.28-22.51,2.7-4.77-4.77-1.38-17.46,8.62-32.78.02.07.03.13.05.2-4.3,6.74-10.33,18.13-5.62,22.84,4.83,4.83,16.49-1.62,22.29-5.26,9.67-6.07,19.53-14.65,27.49-22.72,17.68-17.9,33.27-40.97,26.23-48.02-4.71-4.71-16.1,1.32-22.84,5.62-.07-.02-.13-.03-.2-.05C76.38,3.67,89.06.27,93.84,5.04c3.58,3.58,2.6,11.79-2.7,22.51h0Z"/></g></svg>