<?xml version="1.0" encoding="utf-8"?>
<!-- Generator: Adobe Illustrator 23.0.1, SVG Export Plug-In . SVG Version: 6.00 Build 0)  -->
<svg version="1.1" id="Layer_1" xmlns="http://www.w3.org/2000/svg" xmlns:xlink="http://www.w3.org/1999/xlink" x="0px" y="0px"
	 viewBox="0 0 98.9 98.9" style="enable-background:new 0 0 98.9 98.9;" xml:space="preserve">
<style type="text/css">
	.st0{fill:#FF5249;}
	.st1{fill:#FFFFFF;}
	.st2{fill:#46C2CB;}
	.st3{fill:#F2F7A1;}
</style>
<g id="Layer_1-2">
	<path class="st0" d="M2,1.9c0,0,10.4,0.4,22.6,4.7L6.7,24.5C2.4,12.3,2,1.9,2,1.9L2,1.9z"/>
	<path class="st1" d="M24.6,6.6c8,2.8,16.7,7.3,23.8,14.4c1.9,1.8,3.5,3.8,5.1,5.7c4.5,5.6,7.9,11.5,10.4,17l-20,20
		c-8.3-3.6-16.2-8.9-22.7-15.5C14,41.2,9.5,32.5,6.7,24.5L24.6,6.6L24.6,6.6z"/>
	<path class="st2" d="M34.7,23.8c3,3,3,7.9,0,10.9c-3,3-7.9,3-10.9,0c-3-3-3-7.9,0-10.9C26.8,20.8,31.7,20.8,34.7,23.8z"/>
	<path class="st0" d="M26.8,53.5c5.6,4.5,11.5,7.9,17,10.3l-2,2c0,0-1.6,7.1,3.9,12.5c-10.4,0-29.1-9.7-19.1-24.6
		C26.6,53.8,26.8,53.5,26.8,53.5z"/>
	<path class="st0" d="M66.1,57.9L58,66.1l-0.3,0.3c-0.9,0.9-2.3,1.4-3.5,1.1c-3.1-0.8-6.6-2-10.3-3.6l20-20
		c1.6,3.7,2.8,7.2,3.6,10.3c0.3,1.3-0.1,2.6-1,3.5L66.1,57.9L66.1,57.9z"/>
	<path class="st0" d="M78.4,45.6c-5.5-5.5-12.5-3.9-12.5-3.9l-2,2c-2.4-5.5-5.9-11.4-10.4-17l0.3-0.3C68.8,16.6,78.4,35.2,78.4,45.6
		z"/>
	<path class="st3" d="M73,62c4.5,4.5,5.5,16.4,5.5,16.4s-11.9-0.9-16.4-5.5c-2.1-2.1-3.5-4.5-4.1-6.8l8.1-8.1
		C68.4,58.5,70.9,59.9,73,62z"/>
	<path d="M49.7,49.7c0.8-0.8,0.8-2,0-2.7s-2-0.8-2.7,0s-0.8,2,0,2.7C47.7,50.5,49,50.5,49.7,49.7z"/>
	<path d="M36.1,36.1c3.8-3.8,3.8-9.9,0-13.7c-3.8-3.8-9.9-3.8-13.7,0c-3.8,3.8-3.8,9.9,0,13.7C26.2,39.8,32.3,39.8,36.1,36.1z
		 M33.3,33.3c-2.3,2.3-5.9,2.3-8.2,0c-2.3-2.3-2.3-5.9,0-8.2s5.9-2.3,8.2,0C35.6,27.4,35.6,31.1,33.3,33.3z"/>
	<path d="M79.1,47.4c0.7-0.3,1.2-1,1.2-1.8c0-7.7-4.6-18.3-11.9-22.3c-3.2-1.7-8.3-2.9-14.5,0.8c-1.3-1.6-2.7-3.1-4.2-4.5
		C43.3,13.3,35.1,8.3,25.2,4.8C12.8,0.5,2.4,0,2,0C1.5,0,0.9,0.2,0.6,0.6C0.2,1,0,1.5,0,2c0,0.4,0.4,10.8,4.8,23.2
		c3.5,9.9,8.5,18.2,14.9,24.5c1.4,1.4,2.9,2.8,4.5,4.2c-3.7,6.3-2.5,11.4-0.8,14.5c3.9,7.4,14.6,11.9,22.3,11.9
		c0.8,0,1.5-0.5,1.8-1.2c0.3-0.7,0.1-1.5-0.4-2.1c-3.9-3.9-3.6-8.7-3.4-10.2l0.7-0.7c3.2,1.3,6.3,2.4,9.4,3.2
		c1.1,0.3,2.2,0.2,3.4-0.2c0.9,1.9,2.1,3.7,3.7,5.2c5,5,17.1,6,17.6,6c0,0,0.1,0,0.2,0c0.5,0,1-0.2,1.4-0.6c0.4-0.4,0.6-1,0.6-1.5
		c0-0.5-1.1-12.6-6-17.6c-1.6-1.6-3.4-2.8-5.2-3.7c0.4-1.1,0.5-2.2,0.2-3.3c-0.8-3.1-1.9-6.2-3.2-9.4l0.7-0.7
		c1.6-0.2,6.3-0.5,10.2,3.4c0.4,0.4,0.9,0.6,1.4,0.6C78.7,47.6,78.9,47.5,79.1,47.4L79.1,47.4z M60.1,66.6l6.5-6.5
		c1.7,0.6,3.4,1.8,4.9,3.3c2.7,2.7,4.1,8.9,4.6,12.8c-3.9-0.6-10.2-2-12.8-4.6C61.9,70.1,60.8,68.4,60.1,66.6z M54.6,65.6
		c-2.4-0.6-4.9-1.4-7.4-2.4l16-16c1,2.5,1.8,5,2.4,7.4c0.1,0.6-0.1,1.2-0.6,1.7c-11.4,11.4,0.6-0.6-8.8,8.8
		C55.8,65.5,55.1,65.7,54.6,65.6L54.6,65.6z M26.8,66.6c-1.7-3.1-1.5-6.6,0.5-10.3c4.1,3.1,8.5,5.8,13.2,8.1c0,0-0.4,0.4-0.6,1
		c-0.7,2.7-0.3,7.1,1.6,10.6C35.7,74.8,29.3,71.3,26.8,66.6L26.8,66.6z M7.5,21C5.2,13.6,4.3,7.2,4,4C7.2,4.3,13.6,5.2,21,7.5
		L7.5,21L7.5,21z M52,28c3.8,4.7,7,9.9,9.5,15.4L43.4,61.5C37.9,59,32.7,55.8,28,52c-2-1.6-3.8-3.3-5.6-5
		c-5.7-5.7-10.3-13.1-13.6-22L25,8.9c8.8,3.3,16.2,7.8,21.9,13.5C48.7,24.1,50.4,26,52,28z M76,41.5c-5.2-2.8-10.3-1.7-10.6-1.6
		c-0.6,0.1-1,0.6-1,0.6c-2.3-4.7-5-9.1-8.1-13.2c3.7-2,7.1-2.2,10.3-0.5C71.3,29.3,74.8,35.7,76,41.5z"/>
	<path d="M60.6,88c0.8-0.8,0.8-2,0-2.7l-5.5-5.5c-0.8-0.8-2-0.8-2.7,0s-0.8,2,0,2.7l5.5,5.5C58.7,88.7,59.9,88.7,60.6,88z"/>
	<path d="M88,60.7c0.8-0.8,0.8-2,0-2.7l-5.5-5.5c-0.8-0.8-2-0.8-2.7,0s-0.8,2,0,2.7l5.5,5.5C86,61.4,87.2,61.4,88,60.7z"/>
	<path d="M66.1,82.5c-0.8,0.8-0.8,2,0,2.7l13.1,13.1c0.8,0.8,2,0.8,2.7,0s0.8-2,0-2.7L68.8,82.5C68.1,81.8,66.9,81.8,66.1,82.5z"/>
	<path d="M81.6,82.5c-0.8,0.8-0.8,2,0,2.7l13.1,13.1c0.8,0.8,2,0.8,2.7,0s0.8-2,0-2.7L84.3,82.5C83.5,81.8,82.3,81.8,81.6,82.5z"/>
	<path d="M98.3,81.9c0.8-0.8,0.8-2,0-2.7L85.2,66.1c-0.8-0.8-2-0.8-2.7,0s-0.8,2,0,2.7l13.1,13.1C96.3,82.7,97.6,82.7,98.3,81.9z"/>
	<path d="M44.3,44.3c0.8-0.8,0.8-2,0-2.7l-2.7-2.7c-0.8-0.8-2-0.8-2.7,0s-0.8,2,0,2.7l2.7,2.7C42.3,45,43.5,45,44.3,44.3z"/>
</g>
</svg>
