<?xml version="1.0" encoding="UTF-8"?><svg id="Layer_2" xmlns="http://www.w3.org/2000/svg" viewBox="0 0 98.87 97.89"><defs><style>.cls-1{fill:#ff5249;}.cls-2{fill:#a19dae;}.cls-3{opacity:.2;}.cls-4{fill:#c7c5cb;}.cls-5{fill:#e4e4e4;}.cls-6{fill:#423e4f;}.cls-7{fill:#5c586f;}.cls-8{fill:#f2f7a1;}</style></defs><g id="Layer_1-2"><path class="cls-4" d="m25.88,56.89v16.74c0,3.66,2.97,6.63,6.63,6.63h13.84v-23.37h-20.47Z"/><path class="cls-4" d="m73,56.89v16.74c0,3.66-2.97,6.63-6.63,6.63h-13.84v-23.37h20.47Z"/><path class="cls-4" d="m86.71,36.03h7.53v39.97h-7.53v-39.97Z"/><path class="cls-4" d="m71.07,11.51h7.53v39.97h-7.53V11.51Z"/><path class="cls-4" d="m12.17,76.01h-7.53v-39.97h7.53v39.97Z"/><path class="cls-4" d="m27.81,51.48h-7.53V11.51h7.53v39.97Z"/><path class="cls-8" d="m49.43,63.86c-6.37,2.72-10.84,9.05-10.84,16.42,0,6.86,3.87,12.81,9.55,15.8.81.43,1.78.43,2.59,0,5.68-2.99,9.55-8.94,9.55-15.8,0-7.37-4.47-13.7-10.84-16.42Z"/><path class="cls-1" d="m49.43,63.48c-3.43,2.47-5.53,6.47-5.53,10.82,0,3.37,1.26,6.52,3.42,8.92,1.13,1.26,3.09,1.26,4.22,0,2.16-2.4,3.42-5.56,3.42-8.92,0-4.35-2.1-8.34-5.53-10.82Z"/><path class="cls-2" d="m12.17,46.55l-7.53,12.23v17.23h7.53v-29.46Z"/><path class="cls-2" d="m27.81,20.61l-7.53,12.23v18.65h7.53v-30.87Z"/><path class="cls-2" d="m71.07,20.61v30.87h7.53v-18.65l-7.53-12.23Z"/><path class="cls-2" d="m94.24,58.77l-7.53-12.23v29.46h7.53v-17.23Z"/><path class="cls-5" d="m95.04,71.2L54.31,4.23c-1.03-1.7-2.88-2.74-4.87-2.74s-3.84,1.04-4.87,2.74L3.83,71.2c-1.62,2.66-2.48,5.72-2.48,8.84v2.48c0,1.78,2,2.83,3.47,1.82l31.64-21.66c1.04-.71,2.41-.87,3.64-.33,1.36.6,2.19,1.98,2.19,3.46v3.62s14.29,0,14.29,0v-3.71c0-1.13.5-2.22,1.4-2.9,1.39-1.06,3.16-1.02,4.43-.15l31.77,21.75c1.42.97,3.34-.04,3.34-1.76v-2.63c0-3.12-.86-6.18-2.48-8.84Z"/><path class="cls-7" d="m69.61,44.67l-7.7-12.67c-2.86-4.71-7.72-7.07-12.57-7.07s-9.7,2.36-12.57,7.07l-7.7,12.67c-.19.32-.3.68-.3,1.06v3.19c0,1.57,1.7,2.54,3.05,1.76,3.82-2.23,10.7-5.57,17.52-5.57s13.7,3.35,17.52,5.57c1.35.79,3.05-.19,3.05-1.76v-3.19c0-.37-.1-.74-.3-1.06Z"/><path class="cls-6" d="m34.76,48.89c0-2.45.67-4.86,1.95-6.95l6.03-9.92c2.29-3.76,5.84-6.01,9.64-6.76-.96-.19-1.93-.29-2.9-.29-4.84,0-9.68,2.35-12.54,7.05l-7.69,12.64c-.19.32-.29.68-.29,1.05v3.18c0,1.56,1.69,2.54,3.04,1.75.8-.46,1.73-.98,2.77-1.5-.01-.08-.02-.17-.02-.25Z"/><path class="cls-1" d="m94.17,31.2h-7.37c-1.33,0-2.41,1.08-2.41,2.41v4.65c0,1.33,1.08,2.41,2.41,2.41h7.35c1.33,0,2.41-1.08,2.41-2.41v-4.66c0-1.32-1.07-2.4-2.39-2.4Z"/><path class="cls-1" d="m78.52,6.87h-7.37c-1.33,0-2.41,1.08-2.41,2.41v4.65c0,1.33,1.08,2.41,2.41,2.41h7.35c1.33,0,2.41-1.08,2.41-2.41v-4.66c0-1.32-1.07-2.4-2.39-2.4Z"/><path class="cls-3" d="m74.35,13.94v-4.67c0-1.32,1.08-2.4,2.41-2.4h-5.79c-1.33,0-2.41,1.08-2.41,2.41v4.65c0,1.33,1.08,2.41,2.41,2.41h5.79c-1.33,0-2.41-1.07-2.41-2.4Z"/><path class="cls-1" d="m4.72,31.2h7.35c1.33,0,2.41,1.08,2.41,2.41v4.65c0,1.33-1.08,2.41-2.41,2.41h-7.35c-1.33,0-2.41-1.08-2.41-2.41v-4.65c0-1.33,1.08-2.41,2.41-2.41Z"/><path class="cls-3" d="m8.11,38.27v-4.67c0-1.32,1.08-2.4,2.41-2.4h-5.79c-1.33,0-2.41,1.08-2.41,2.41v4.65c0,1.33,1.08,2.41,2.41,2.41h5.79c-1.33,0-2.41-1.07-2.41-2.4Z"/><path class="cls-1" d="m20.37,6.87h7.35c1.33,0,2.41,1.08,2.41,2.41v4.65c0,1.33-1.08,2.41-2.41,2.41h-7.35c-1.33,0-2.41-1.08-2.41-2.41v-4.65c0-1.33,1.08-2.41,2.41-2.41Z"/><path class="cls-3" d="m23.75,13.94v-4.67c0-1.32,1.08-2.4,2.41-2.4h-5.79c-1.33,0-2.41,1.08-2.41,2.41v4.65c0,1.33,1.08,2.41,2.41,2.41h5.79c-1.33,0-2.41-1.07-2.41-2.4Z"/><path class="cls-3" d="m90.18,38.27v-4.67c0-1.32,1.08-2.4,2.41-2.4h-5.79c-1.33,0-2.41,1.08-2.41,2.41v4.65c0,1.33,1.08,2.41,2.41,2.41h5.79c-1.33,0-2.41-1.07-2.41-2.4Z"/><path d="m49.44,23.49c-5.69,0-10.85,2.9-13.81,7.76l-7.7,12.66c-.33.55-.51,1.17-.51,1.81v3.19c0,2.63,2.95,4.34,5.23,3.01,3.45-2.01,10.21-5.38,16.78-5.38s13.34,3.37,16.78,5.38c2.29,1.33,5.23-.38,5.23-3.01v-3.19c0-.64-.18-1.26-.51-1.81l-7.7-12.66c-2.96-4.86-8.12-7.76-13.81-7.76Zm19.03,21.94c.06.09.08.19.08.3v3.19c0,.45-.48.72-.87.5-3.7-2.16-10.99-5.77-18.25-5.77s-14.55,3.62-18.25,5.77c-.38.22-.87-.07-.87-.5v-3.19c0-.11.03-.21.08-.3l7.7-12.67c2.43-3.99,6.66-6.37,11.33-6.37s8.9,2.38,11.33,6.37c0,0,7.7,12.67,7.71,12.67Z"/><path d="m95.57,83.2c-.24.12-.53.13-.78-.04l-8.68-5.95c-.66-.45-1.56-.28-2.01.37-.45.66-.28,1.56.38,2.01,0,0,8.67,5.95,8.68,5.95,2.39,1.64,5.73-.14,5.73-3.02v-2.76c0-3.66-1.21-6.96-3.09-10.05v-27.75c1.36-.57,2.32-1.96,2.32-3.57v-4.69c0-2.13-1.73-3.85-3.85-3.85h-7.35c-2.13,0-3.85,1.73-3.85,3.85v4.69c0,1.61.96,3,2.32,3.57v10.57l-5.41-8.89v-26.21c1.36-.57,2.32-1.96,2.32-3.57v-4.69c0-2.13-1.73-3.86-3.86-3.86h-7.35c-2.13,0-3.86,1.73-3.86,3.86v4.69c0,1.61.96,3,2.32,3.57v9.19L55.42,3.44c-1.29-2.12-3.64-3.44-6.12-3.44s-4.83,1.32-6.12,3.44l-3.89,6.4c-.36.59-.29,1.37.21,1.84.7.66,1.78.48,2.25-.29l3.92-6.44c.77-1.26,2.16-2.05,3.64-2.05s2.87.78,3.64,2.05c0,0,40.03,65.82,40.03,65.82,1.77,2.9,3.01,5.85,3.01,9.32v2.44c0,.3-.17.55-.41.67Zm-8.67-50.45h7.35c.53,0,.96.43.96.96v4.65c0,.53-.43.96-.96.96h-7.35c-.53,0-.96-.43-.96-.96v-4.65c0-.53.43-.96.96-.96Zm1.36,9.46h4.63v22.59l-4.63-7.46v-15.12Zm-17.2-33.99h7.37c.52,0,.95.43.95.95v4.66c0,.53-.43.95-.95.95h-7.37c-.52,0-.95-.43-.95-.95v-4.66c0-.53.43-.95.95-.95Zm1.37,23.17v-13.71h4.63v21.17l-4.63-7.46Z"/><path d="m.77,38.4c0,1.61.96,3,2.32,3.57v27.75l-.51.83c-1.69,2.78-2.58,5.96-2.58,9.21v2.83c0,2.88,3.36,4.65,5.75,3.02l18.78-12.83v.94c0,4.46,3.62,8.08,8.08,8.08h4.53c.49,6.6,4.33,12.49,10.26,15.61,1.22.64,2.71.64,3.94,0,5.93-3.12,9.77-9.01,10.26-15.61h4.68c4.46,0,8.08-3.62,8.08-8.08v-.93l5.26,3.61c.66.45,1.56.28,2.01-.38.45-.66.28-1.56-.37-2.01l-18.13-12.42c-1.03-.7-2.26-1.01-3.52-.87-2.63.3-4.57,2.6-4.57,5.24v2.12s-11.2,0-11.2,0v-2.24c0-4.05-4.75-6.56-8.1-4.26,0,0-31.64,21.66-31.64,21.66-.5.34-1.19-.03-1.19-.63v-2.55c0-2.86.78-5.66,2.27-8.1L39.02,16.32c.42-.69.2-1.58-.49-2s-1.58-.2-2,.49l-7.18,11.81v-9.17c1.36-.57,2.32-1.96,2.32-3.57v-4.69c0-2.13-1.73-3.86-3.86-3.86h-7.35c-2.13,0-3.85,1.73-3.85,3.85v4.69c0,1.61.96,3,2.32,3.57v26.21l-5.41,8.89v-10.57c1.36-.57,2.32-1.96,2.32-3.57v-4.69c0-2.13-1.73-3.85-3.85-3.85h-7.35c-2.13,0-3.85,1.73-3.85,3.85v4.69Zm49.28,56.4c-.39.21-.85.21-1.24,0-5.41-2.85-8.77-8.41-8.77-14.52,0-3.2.95-6.4,2.73-9.06,0,0,.01-.02.02-.02-.22,1.01-.33,2.05-.33,3.1,0,3.66,1.35,7.17,3.79,9.89.81.9,1.97,1.42,3.19,1.42s2.37-.52,3.18-1.42c2.44-2.72,3.79-6.23,3.79-9.89,0-1.05-.11-2.08-.33-3.1,0,0,0,.01.01.02,1.77,2.67,2.74,5.86,2.74,9.06,0,6.11-3.36,11.67-8.77,14.52Zm7.88-28.97c0-1.79,2.08-2.88,3.55-1.87l9.97,6.84v2.93c0,2.86-2.32,5.18-5.18,5.18h-4.68c-.26-3.58-1.54-7.04-3.66-9.93v-3.14Zm-4.92,5.16c.33,1.1.49,2.24.49,3.4,0,2.94-1.08,5.77-3.05,7.95-.27.3-.64.46-1.03.46s-.76-.16-1.03-.46c-1.96-2.18-3.05-5.01-3.05-7.95,0-1.16.17-2.3.49-3.4h7.17Zm-14.34-7.4c1.16.03,2.27.97,2.27,2.25v3.14s0,0,0,0c-2.1,2.87-3.4,6.36-3.66,9.93h-4.68c-2.86,0-5.18-2.32-5.18-5.18v-2.93s9.97-6.84,9.97-6.84c.4-.27.84-.39,1.28-.38ZM20.46,8.22h7.35c.53,0,.96.43.96.96v4.65c0,.53-.43.95-.95.95h-7.37c-.52,0-.95-.43-.95-.95v-4.65c0-.53.43-.96.96-.96Zm1.36,9.46h4.63v13.71l-4.63,7.46v-21.17Zm-15.84,47.11v-22.59h4.63v15.12l-4.63,7.46Zm-1.36-32.05h7.35c.53,0,.96.43.96.96v4.65c0,.53-.43.96-.96.96h-7.35c-.53,0-.96-.43-.96-.96v-4.65c0-.53.43-.96.96-.96Z"/></g></svg>