<?xml version="1.0" encoding="UTF-8"?><svg id="Layer_2" xmlns="http://www.w3.org/2000/svg" viewBox="0 0 70.0768811545 78.0717084264"><defs><style>.cls-1{fill:#fff;}</style></defs><g id="Layer_1-2"><path class="cls-1" d="m15.8426114505,22.8349794999c3.5083694925-.4075458586,6.6906571739-3.2217786396,6.9968807155-6.9946242707.2358169499-2.9286434955,2.1950157621-15.8403552292,2.1950157621-15.8403552292,0,0,1.6768954589,12.9469150304,2.199303343,15.8403552292.7756008198,4.2952535285,3.3319016889,6.4834994813,6.9923674725,6.9903366897,2.9110417735.3989706966,15.840354829,2.2058476012,15.840354829,2.2038166418,0-.0045132432-12.9247998124,1.8179343504-15.840354829,2.201334358-4.6520252839.617186004-6.5297600589,3.587802661-6.985798928,6.9903366897-.3922251639,2.9110418471-2.2058718875,15.8403552292-2.2058718875,15.8403552292,0,0-1.9084248278-12.9159993147-2.2060732076-15.8403552292-.4010016458-3.9204286829-3.2680392996-6.5803085474-6.98582327-6.9968808923-2.9220992191-.3217942383-15.8426114505-2.1993033986-15.8426114505-2.1947901554,0,.0020309594,12.922768853-1.8621641335,15.8426114505-2.1995290607Z"/><path class="cls-1" d="m46.7829871384,59.5370424795c2.3879082835-.2773887225,4.5538748759-2.1928453994,4.7623003947-4.7607645863.1605045447-1.9933282618,1.4939978049-10.7814514821,1.4939978049-10.7814514821,0,0,1.1413485852,8.812083708,1.4969160694,10.7814514821.5278986795,2.9234866801,2.2677986625,4.4128767367,4.7592285374,4.7578463218,1.9813479679.2715521935,10.7814512097,1.5013703004,10.7814512097,1.4999879646,0-.0030718574-8.7970313845,1.2373441575-10.7814512097,1.498298443-3.166316927.4200764984-4.4443631627,2.4419730339-4.7547577764,4.7578463218-.2669609686,1.9813480179-1.5013868304,10.7814514821-1.5013868304,10.7814514821,0,0-1.2989348655-8.7910414848-1.5015238554-10.7814514821-.2729345224-2.6683689237-2.2243318815-4.4787680777-4.7547743443-4.762300515-1.9888740183-.219023432-10.7829871384-1.4969161072-10.7829871384-1.4938442498,0,.0013823358,8.7956490487-1.26744836,10.7829871384-1.4970697001Z"/></g></svg>