<?xml version="1.0" encoding="UTF-8"?><svg id="Layer_2" xmlns="http://www.w3.org/2000/svg" viewBox="0 0 34.0768811545 34.0768820154"><defs><style>.cls-1{fill:#fff;}</style></defs><g id="Layer_1-2"><path class="cls-1" d="m10.7829871384,15.5422160684c2.3879082835-.2773887225,4.5538748759-2.1928453994,4.7623003947-4.7607645863.1605045447-1.9933282618,1.4939978049-10.7814514821,1.4939978049-10.7814514821,0,0,1.1413485852,8.812083708,1.4969160694,10.7814514821.5278986795,2.9234866801,2.2677986625,4.4128767367,4.7592285374,4.7578463218,1.9813479679.2715521935,10.7814512097,1.5013703004,10.7814512097,1.4999879646,0-.0030718574-8.7970313845,1.2373441575-10.7814512097,1.498298443-3.166316927.4200764984-4.4443631627,2.4419730339-4.7547577764,4.7578463218-.2669609686,1.9813480179-1.5013868304,10.7814514821-1.5013868304,10.7814514821,0,0-1.2989348655-8.7910414848-1.5015238554-10.7814514821-.2729345224-2.6683689237-2.2243318815-4.4787680777-4.7547743443-4.762300515-1.9888740183-.219023432-10.7829871384-1.4969161072-10.7829871384-1.4938442498,0,.0013823358,8.7956490487-1.26744836,10.7829871384-1.4970697001Z"/></g></svg>