<?xml version="1.0" encoding="UTF-8"?><svg id="Layer_2" xmlns="http://www.w3.org/2000/svg" viewBox="0 0 50.0665335727 50.0665348375"><defs><style>.cls-1{fill:#fff;}</style></defs><g id="Layer_1-2"><path class="cls-1" d="m15.8426114505,22.8349794999c3.5083694925-.4075458586,6.6906571739-3.2217786396,6.9968807155-6.9946242707.2358169499-2.9286434955,2.1950157621-15.8403552292,2.1950157621-15.8403552292,0,0,1.6768954589,12.9469150304,2.199303343,15.8403552292.7756008198,4.2952535285,3.3319016889,6.4834994813,6.9923674725,6.9903366897,2.9110417735.3989706966,15.840354829,2.2058476012,15.840354829,2.2038166418,0-.0045132432-12.9247998124,1.8179343504-15.840354829,2.201334358-4.6520252839.617186004-6.5297600589,3.587802661-6.985798928,6.9903366897-.3922251639,2.9110418471-2.2058718875,15.8403552292-2.2058718875,15.8403552292,0,0-1.9084248278-12.9159993147-2.2060732076-15.8403552292-.4010016458-3.9204286829-3.2680392996-6.5803085474-6.98582327-6.9968808923-2.9220992191-.3217942383-15.8426114505-2.1993033986-15.8426114505-2.1947901554,0,.0020309594,12.922768853-1.8621641335,15.8426114505-2.1995290607Z"/></g></svg>